G75*
%MOIN*%
%OFA0B0*%
%FSLAX25Y25*%
%IPPOS*%
%LPD*%
%AMOC8*
5,1,8,0,0,1.08239X$1,22.5*
%
%ADD10C,0.00000*%
%ADD11C,0.00300*%
%ADD12C,0.00400*%
%ADD13C,0.00600*%
D10*
X0004500Y0013111D02*
X0004500Y0087914D01*
X0004503Y0088199D01*
X0004514Y0088485D01*
X0004531Y0088770D01*
X0004555Y0089054D01*
X0004586Y0089338D01*
X0004624Y0089621D01*
X0004669Y0089902D01*
X0004720Y0090183D01*
X0004778Y0090463D01*
X0004843Y0090741D01*
X0004915Y0091017D01*
X0004993Y0091291D01*
X0005078Y0091564D01*
X0005170Y0091834D01*
X0005268Y0092102D01*
X0005372Y0092368D01*
X0005483Y0092631D01*
X0005600Y0092891D01*
X0005723Y0093149D01*
X0005853Y0093403D01*
X0005989Y0093654D01*
X0006130Y0093902D01*
X0006278Y0094146D01*
X0006431Y0094387D01*
X0006591Y0094623D01*
X0006756Y0094856D01*
X0006926Y0095085D01*
X0007102Y0095310D01*
X0007284Y0095530D01*
X0007470Y0095746D01*
X0007662Y0095957D01*
X0007859Y0096164D01*
X0008061Y0096366D01*
X0008268Y0096563D01*
X0008479Y0096755D01*
X0008695Y0096941D01*
X0008915Y0097123D01*
X0009140Y0097299D01*
X0009369Y0097469D01*
X0009602Y0097634D01*
X0009838Y0097794D01*
X0010079Y0097947D01*
X0010323Y0098095D01*
X0010571Y0098236D01*
X0010822Y0098372D01*
X0011076Y0098502D01*
X0011334Y0098625D01*
X0011594Y0098742D01*
X0011857Y0098853D01*
X0012123Y0098957D01*
X0012391Y0099055D01*
X0012661Y0099147D01*
X0012934Y0099232D01*
X0013208Y0099310D01*
X0013484Y0099382D01*
X0013762Y0099447D01*
X0014042Y0099505D01*
X0014323Y0099556D01*
X0014604Y0099601D01*
X0014887Y0099639D01*
X0015171Y0099670D01*
X0015455Y0099694D01*
X0015740Y0099711D01*
X0016026Y0099722D01*
X0016311Y0099725D01*
X0091114Y0099725D01*
X0091399Y0099722D01*
X0091685Y0099711D01*
X0091970Y0099694D01*
X0092254Y0099670D01*
X0092538Y0099639D01*
X0092821Y0099601D01*
X0093102Y0099556D01*
X0093383Y0099505D01*
X0093663Y0099447D01*
X0093941Y0099382D01*
X0094217Y0099310D01*
X0094491Y0099232D01*
X0094764Y0099147D01*
X0095034Y0099055D01*
X0095302Y0098957D01*
X0095568Y0098853D01*
X0095831Y0098742D01*
X0096091Y0098625D01*
X0096349Y0098502D01*
X0096603Y0098372D01*
X0096854Y0098236D01*
X0097102Y0098095D01*
X0097346Y0097947D01*
X0097587Y0097794D01*
X0097823Y0097634D01*
X0098056Y0097469D01*
X0098285Y0097299D01*
X0098510Y0097123D01*
X0098730Y0096941D01*
X0098946Y0096755D01*
X0099157Y0096563D01*
X0099364Y0096366D01*
X0099566Y0096164D01*
X0099763Y0095957D01*
X0099955Y0095746D01*
X0100141Y0095530D01*
X0100323Y0095310D01*
X0100499Y0095085D01*
X0100669Y0094856D01*
X0100834Y0094623D01*
X0100994Y0094387D01*
X0101147Y0094146D01*
X0101295Y0093902D01*
X0101436Y0093654D01*
X0101572Y0093403D01*
X0101702Y0093149D01*
X0101825Y0092891D01*
X0101942Y0092631D01*
X0102053Y0092368D01*
X0102157Y0092102D01*
X0102255Y0091834D01*
X0102347Y0091564D01*
X0102432Y0091291D01*
X0102510Y0091017D01*
X0102582Y0090741D01*
X0102647Y0090463D01*
X0102705Y0090183D01*
X0102756Y0089902D01*
X0102801Y0089621D01*
X0102839Y0089338D01*
X0102870Y0089054D01*
X0102894Y0088770D01*
X0102911Y0088485D01*
X0102922Y0088199D01*
X0102925Y0087914D01*
X0102925Y0013111D01*
X0102922Y0012826D01*
X0102911Y0012540D01*
X0102894Y0012255D01*
X0102870Y0011971D01*
X0102839Y0011687D01*
X0102801Y0011404D01*
X0102756Y0011123D01*
X0102705Y0010842D01*
X0102647Y0010562D01*
X0102582Y0010284D01*
X0102510Y0010008D01*
X0102432Y0009734D01*
X0102347Y0009461D01*
X0102255Y0009191D01*
X0102157Y0008923D01*
X0102053Y0008657D01*
X0101942Y0008394D01*
X0101825Y0008134D01*
X0101702Y0007876D01*
X0101572Y0007622D01*
X0101436Y0007371D01*
X0101295Y0007123D01*
X0101147Y0006879D01*
X0100994Y0006638D01*
X0100834Y0006402D01*
X0100669Y0006169D01*
X0100499Y0005940D01*
X0100323Y0005715D01*
X0100141Y0005495D01*
X0099955Y0005279D01*
X0099763Y0005068D01*
X0099566Y0004861D01*
X0099364Y0004659D01*
X0099157Y0004462D01*
X0098946Y0004270D01*
X0098730Y0004084D01*
X0098510Y0003902D01*
X0098285Y0003726D01*
X0098056Y0003556D01*
X0097823Y0003391D01*
X0097587Y0003231D01*
X0097346Y0003078D01*
X0097102Y0002930D01*
X0096854Y0002789D01*
X0096603Y0002653D01*
X0096349Y0002523D01*
X0096091Y0002400D01*
X0095831Y0002283D01*
X0095568Y0002172D01*
X0095302Y0002068D01*
X0095034Y0001970D01*
X0094764Y0001878D01*
X0094491Y0001793D01*
X0094217Y0001715D01*
X0093941Y0001643D01*
X0093663Y0001578D01*
X0093383Y0001520D01*
X0093102Y0001469D01*
X0092821Y0001424D01*
X0092538Y0001386D01*
X0092254Y0001355D01*
X0091970Y0001331D01*
X0091685Y0001314D01*
X0091399Y0001303D01*
X0091114Y0001300D01*
X0016311Y0001300D01*
X0016026Y0001303D01*
X0015740Y0001314D01*
X0015455Y0001331D01*
X0015171Y0001355D01*
X0014887Y0001386D01*
X0014604Y0001424D01*
X0014323Y0001469D01*
X0014042Y0001520D01*
X0013762Y0001578D01*
X0013484Y0001643D01*
X0013208Y0001715D01*
X0012934Y0001793D01*
X0012661Y0001878D01*
X0012391Y0001970D01*
X0012123Y0002068D01*
X0011857Y0002172D01*
X0011594Y0002283D01*
X0011334Y0002400D01*
X0011076Y0002523D01*
X0010822Y0002653D01*
X0010571Y0002789D01*
X0010323Y0002930D01*
X0010079Y0003078D01*
X0009838Y0003231D01*
X0009602Y0003391D01*
X0009369Y0003556D01*
X0009140Y0003726D01*
X0008915Y0003902D01*
X0008695Y0004084D01*
X0008479Y0004270D01*
X0008268Y0004462D01*
X0008061Y0004659D01*
X0007859Y0004861D01*
X0007662Y0005068D01*
X0007470Y0005279D01*
X0007284Y0005495D01*
X0007102Y0005715D01*
X0006926Y0005940D01*
X0006756Y0006169D01*
X0006591Y0006402D01*
X0006431Y0006638D01*
X0006278Y0006879D01*
X0006130Y0007123D01*
X0005989Y0007371D01*
X0005853Y0007622D01*
X0005723Y0007876D01*
X0005600Y0008134D01*
X0005483Y0008394D01*
X0005372Y0008657D01*
X0005268Y0008923D01*
X0005170Y0009191D01*
X0005078Y0009461D01*
X0004993Y0009734D01*
X0004915Y0010008D01*
X0004843Y0010284D01*
X0004778Y0010562D01*
X0004720Y0010842D01*
X0004669Y0011123D01*
X0004624Y0011404D01*
X0004586Y0011687D01*
X0004555Y0011971D01*
X0004531Y0012255D01*
X0004514Y0012540D01*
X0004503Y0012826D01*
X0004500Y0013111D01*
X0070750Y0037600D02*
X0070681Y0037602D01*
X0070613Y0037608D01*
X0070545Y0037618D01*
X0070478Y0037631D01*
X0070412Y0037649D01*
X0070347Y0037670D01*
X0070283Y0037695D01*
X0070221Y0037723D01*
X0070160Y0037755D01*
X0070101Y0037790D01*
X0070045Y0037829D01*
X0069990Y0037871D01*
X0069939Y0037916D01*
X0069889Y0037964D01*
X0069843Y0038014D01*
X0069800Y0038067D01*
X0069759Y0038123D01*
X0069722Y0038180D01*
X0069689Y0038240D01*
X0069658Y0038302D01*
X0069632Y0038365D01*
X0069609Y0038429D01*
X0069589Y0038495D01*
X0069574Y0038562D01*
X0069562Y0038629D01*
X0069554Y0038697D01*
X0069550Y0038766D01*
X0069550Y0038834D01*
X0069554Y0038903D01*
X0069562Y0038971D01*
X0069574Y0039038D01*
X0069589Y0039105D01*
X0069609Y0039171D01*
X0069632Y0039235D01*
X0069658Y0039298D01*
X0069689Y0039360D01*
X0069722Y0039420D01*
X0069759Y0039477D01*
X0069800Y0039533D01*
X0069843Y0039586D01*
X0069889Y0039636D01*
X0069939Y0039684D01*
X0069990Y0039729D01*
X0070045Y0039771D01*
X0070101Y0039810D01*
X0070160Y0039845D01*
X0070221Y0039877D01*
X0070283Y0039905D01*
X0070347Y0039930D01*
X0070412Y0039951D01*
X0070478Y0039969D01*
X0070545Y0039982D01*
X0070613Y0039992D01*
X0070681Y0039998D01*
X0070750Y0040000D01*
D11*
X0074650Y0047000D02*
X0076261Y0047000D01*
X0075456Y0047000D02*
X0075456Y0049900D01*
X0076261Y0049256D01*
X0077381Y0049900D02*
X0078026Y0049900D01*
X0078074Y0049898D01*
X0078122Y0049893D01*
X0078169Y0049884D01*
X0078216Y0049871D01*
X0078261Y0049855D01*
X0078305Y0049836D01*
X0078348Y0049814D01*
X0078389Y0049788D01*
X0078428Y0049759D01*
X0078464Y0049728D01*
X0078498Y0049694D01*
X0078529Y0049658D01*
X0078558Y0049619D01*
X0078584Y0049578D01*
X0078606Y0049535D01*
X0078625Y0049491D01*
X0078641Y0049446D01*
X0078654Y0049399D01*
X0078663Y0049352D01*
X0078668Y0049304D01*
X0078670Y0049256D01*
X0078670Y0047644D01*
X0078668Y0047596D01*
X0078663Y0047548D01*
X0078654Y0047501D01*
X0078641Y0047454D01*
X0078625Y0047409D01*
X0078606Y0047365D01*
X0078584Y0047322D01*
X0078558Y0047281D01*
X0078529Y0047242D01*
X0078498Y0047206D01*
X0078464Y0047172D01*
X0078428Y0047141D01*
X0078389Y0047112D01*
X0078348Y0047086D01*
X0078305Y0047064D01*
X0078261Y0047045D01*
X0078216Y0047029D01*
X0078169Y0047016D01*
X0078122Y0047007D01*
X0078074Y0047002D01*
X0078026Y0047000D01*
X0077381Y0047000D01*
X0080200Y0054179D02*
X0083100Y0054179D01*
X0083100Y0054985D01*
X0083098Y0055040D01*
X0083092Y0055095D01*
X0083083Y0055149D01*
X0083070Y0055202D01*
X0083053Y0055255D01*
X0083033Y0055306D01*
X0083010Y0055356D01*
X0082983Y0055404D01*
X0082952Y0055450D01*
X0082919Y0055494D01*
X0082883Y0055535D01*
X0082844Y0055574D01*
X0082803Y0055610D01*
X0082759Y0055643D01*
X0082713Y0055674D01*
X0082665Y0055701D01*
X0082615Y0055724D01*
X0082564Y0055744D01*
X0082511Y0055761D01*
X0082458Y0055774D01*
X0082404Y0055783D01*
X0082349Y0055789D01*
X0082294Y0055791D01*
X0082239Y0055789D01*
X0082184Y0055783D01*
X0082130Y0055774D01*
X0082077Y0055761D01*
X0082024Y0055744D01*
X0081973Y0055724D01*
X0081923Y0055701D01*
X0081875Y0055674D01*
X0081829Y0055643D01*
X0081785Y0055610D01*
X0081744Y0055574D01*
X0081705Y0055535D01*
X0081669Y0055494D01*
X0081636Y0055450D01*
X0081605Y0055404D01*
X0081578Y0055356D01*
X0081555Y0055306D01*
X0081535Y0055255D01*
X0081518Y0055202D01*
X0081505Y0055149D01*
X0081496Y0055095D01*
X0081490Y0055040D01*
X0081488Y0054985D01*
X0081489Y0054985D02*
X0081489Y0054179D01*
X0081489Y0055146D02*
X0080200Y0055790D01*
X0081006Y0057039D02*
X0081811Y0057039D01*
X0081811Y0058006D01*
X0081811Y0057039D02*
X0081881Y0057041D01*
X0081950Y0057047D01*
X0082020Y0057056D01*
X0082088Y0057069D01*
X0082156Y0057086D01*
X0082223Y0057106D01*
X0082288Y0057131D01*
X0082352Y0057158D01*
X0082415Y0057189D01*
X0082476Y0057224D01*
X0082534Y0057261D01*
X0082591Y0057302D01*
X0082645Y0057346D01*
X0082697Y0057392D01*
X0082747Y0057442D01*
X0082793Y0057494D01*
X0082837Y0057548D01*
X0082878Y0057605D01*
X0082915Y0057663D01*
X0082950Y0057724D01*
X0082981Y0057787D01*
X0083008Y0057851D01*
X0083033Y0057916D01*
X0083053Y0057983D01*
X0083070Y0058051D01*
X0083083Y0058119D01*
X0083092Y0058189D01*
X0083098Y0058258D01*
X0083100Y0058328D01*
X0081167Y0058650D02*
X0081006Y0058650D01*
X0081167Y0058650D02*
X0081215Y0058648D01*
X0081263Y0058643D01*
X0081310Y0058634D01*
X0081357Y0058621D01*
X0081402Y0058605D01*
X0081446Y0058586D01*
X0081489Y0058564D01*
X0081530Y0058538D01*
X0081569Y0058509D01*
X0081605Y0058478D01*
X0081639Y0058444D01*
X0081670Y0058408D01*
X0081699Y0058369D01*
X0081725Y0058328D01*
X0081747Y0058285D01*
X0081766Y0058241D01*
X0081782Y0058196D01*
X0081795Y0058149D01*
X0081804Y0058102D01*
X0081809Y0058054D01*
X0081811Y0058006D01*
X0081006Y0058650D02*
X0080951Y0058648D01*
X0080896Y0058642D01*
X0080842Y0058633D01*
X0080789Y0058620D01*
X0080736Y0058603D01*
X0080685Y0058583D01*
X0080635Y0058560D01*
X0080587Y0058533D01*
X0080541Y0058502D01*
X0080497Y0058469D01*
X0080456Y0058433D01*
X0080417Y0058394D01*
X0080381Y0058353D01*
X0080348Y0058309D01*
X0080317Y0058263D01*
X0080290Y0058215D01*
X0080267Y0058165D01*
X0080247Y0058114D01*
X0080230Y0058061D01*
X0080217Y0058008D01*
X0080208Y0057954D01*
X0080202Y0057899D01*
X0080200Y0057844D01*
X0080202Y0057789D01*
X0080208Y0057734D01*
X0080217Y0057680D01*
X0080230Y0057627D01*
X0080247Y0057574D01*
X0080267Y0057523D01*
X0080290Y0057473D01*
X0080317Y0057425D01*
X0080348Y0057379D01*
X0080381Y0057335D01*
X0080417Y0057294D01*
X0080456Y0057255D01*
X0080497Y0057219D01*
X0080541Y0057186D01*
X0080587Y0057155D01*
X0080635Y0057128D01*
X0080685Y0057105D01*
X0080736Y0057085D01*
X0080789Y0057068D01*
X0080842Y0057055D01*
X0080896Y0057046D01*
X0080951Y0057040D01*
X0081006Y0057038D01*
X0080844Y0038650D02*
X0081167Y0038650D01*
X0081215Y0038648D01*
X0081263Y0038643D01*
X0081310Y0038634D01*
X0081357Y0038621D01*
X0081402Y0038605D01*
X0081446Y0038586D01*
X0081489Y0038564D01*
X0081530Y0038538D01*
X0081569Y0038509D01*
X0081605Y0038478D01*
X0081639Y0038444D01*
X0081670Y0038408D01*
X0081699Y0038369D01*
X0081725Y0038328D01*
X0081747Y0038285D01*
X0081766Y0038241D01*
X0081782Y0038196D01*
X0081795Y0038149D01*
X0081804Y0038102D01*
X0081809Y0038054D01*
X0081811Y0038006D01*
X0081811Y0037039D01*
X0083100Y0037039D01*
X0083100Y0038650D01*
X0080844Y0038650D02*
X0080793Y0038648D01*
X0080743Y0038642D01*
X0080694Y0038632D01*
X0080645Y0038618D01*
X0080598Y0038601D01*
X0080552Y0038580D01*
X0080508Y0038555D01*
X0080465Y0038527D01*
X0080426Y0038496D01*
X0080389Y0038461D01*
X0080354Y0038424D01*
X0080323Y0038385D01*
X0080295Y0038342D01*
X0080270Y0038298D01*
X0080249Y0038252D01*
X0080232Y0038205D01*
X0080218Y0038156D01*
X0080208Y0038107D01*
X0080202Y0038057D01*
X0080200Y0038006D01*
X0080200Y0037039D01*
X0080200Y0035790D02*
X0081489Y0035146D01*
X0081489Y0034985D02*
X0081489Y0034179D01*
X0081488Y0034985D02*
X0081490Y0035040D01*
X0081496Y0035095D01*
X0081505Y0035149D01*
X0081518Y0035202D01*
X0081535Y0035255D01*
X0081555Y0035306D01*
X0081578Y0035356D01*
X0081605Y0035404D01*
X0081636Y0035450D01*
X0081669Y0035494D01*
X0081705Y0035535D01*
X0081744Y0035574D01*
X0081785Y0035610D01*
X0081829Y0035643D01*
X0081875Y0035674D01*
X0081923Y0035701D01*
X0081973Y0035724D01*
X0082024Y0035744D01*
X0082077Y0035761D01*
X0082130Y0035774D01*
X0082184Y0035783D01*
X0082239Y0035789D01*
X0082294Y0035791D01*
X0082349Y0035789D01*
X0082404Y0035783D01*
X0082458Y0035774D01*
X0082511Y0035761D01*
X0082564Y0035744D01*
X0082615Y0035724D01*
X0082665Y0035701D01*
X0082713Y0035674D01*
X0082759Y0035643D01*
X0082803Y0035610D01*
X0082844Y0035574D01*
X0082883Y0035535D01*
X0082919Y0035494D01*
X0082952Y0035450D01*
X0082983Y0035404D01*
X0083010Y0035356D01*
X0083033Y0035306D01*
X0083053Y0035255D01*
X0083070Y0035202D01*
X0083083Y0035149D01*
X0083092Y0035095D01*
X0083098Y0035040D01*
X0083100Y0034985D01*
X0083100Y0034179D01*
X0080200Y0034179D01*
X0080844Y0018650D02*
X0080844Y0017039D01*
X0083100Y0017683D01*
X0081489Y0018167D02*
X0080200Y0018167D01*
X0080200Y0015790D02*
X0081489Y0015146D01*
X0081489Y0014985D02*
X0081489Y0014179D01*
X0081488Y0014985D02*
X0081490Y0015040D01*
X0081496Y0015095D01*
X0081505Y0015149D01*
X0081518Y0015202D01*
X0081535Y0015255D01*
X0081555Y0015306D01*
X0081578Y0015356D01*
X0081605Y0015404D01*
X0081636Y0015450D01*
X0081669Y0015494D01*
X0081705Y0015535D01*
X0081744Y0015574D01*
X0081785Y0015610D01*
X0081829Y0015643D01*
X0081875Y0015674D01*
X0081923Y0015701D01*
X0081973Y0015724D01*
X0082024Y0015744D01*
X0082077Y0015761D01*
X0082130Y0015774D01*
X0082184Y0015783D01*
X0082239Y0015789D01*
X0082294Y0015791D01*
X0082349Y0015789D01*
X0082404Y0015783D01*
X0082458Y0015774D01*
X0082511Y0015761D01*
X0082564Y0015744D01*
X0082615Y0015724D01*
X0082665Y0015701D01*
X0082713Y0015674D01*
X0082759Y0015643D01*
X0082803Y0015610D01*
X0082844Y0015574D01*
X0082883Y0015535D01*
X0082919Y0015494D01*
X0082952Y0015450D01*
X0082983Y0015404D01*
X0083010Y0015356D01*
X0083033Y0015306D01*
X0083053Y0015255D01*
X0083070Y0015202D01*
X0083083Y0015149D01*
X0083092Y0015095D01*
X0083098Y0015040D01*
X0083100Y0014985D01*
X0083100Y0014179D01*
X0080200Y0014179D01*
X0046863Y0031216D02*
X0045574Y0031216D01*
X0046219Y0030732D02*
X0046219Y0032343D01*
X0043963Y0031699D01*
X0043963Y0033612D02*
X0043963Y0035223D01*
X0045252Y0035223D01*
X0045252Y0034257D01*
X0045254Y0034209D01*
X0045259Y0034161D01*
X0045268Y0034114D01*
X0045281Y0034067D01*
X0045297Y0034022D01*
X0045316Y0033978D01*
X0045338Y0033935D01*
X0045364Y0033894D01*
X0045393Y0033855D01*
X0045424Y0033819D01*
X0045458Y0033785D01*
X0045494Y0033754D01*
X0045533Y0033725D01*
X0045574Y0033699D01*
X0045617Y0033677D01*
X0045661Y0033658D01*
X0045706Y0033642D01*
X0045753Y0033629D01*
X0045800Y0033620D01*
X0045848Y0033615D01*
X0045896Y0033613D01*
X0045896Y0033612D02*
X0046219Y0033612D01*
X0046218Y0033613D02*
X0046269Y0033615D01*
X0046319Y0033621D01*
X0046368Y0033631D01*
X0046417Y0033645D01*
X0046464Y0033662D01*
X0046510Y0033683D01*
X0046555Y0033708D01*
X0046597Y0033736D01*
X0046636Y0033767D01*
X0046673Y0033802D01*
X0046708Y0033839D01*
X0046739Y0033878D01*
X0046767Y0033921D01*
X0046792Y0033965D01*
X0046813Y0034011D01*
X0046830Y0034058D01*
X0046844Y0034107D01*
X0046854Y0034156D01*
X0046860Y0034206D01*
X0046862Y0034257D01*
X0046863Y0034257D02*
X0046863Y0035223D01*
X0046219Y0036492D02*
X0045896Y0036492D01*
X0045896Y0036493D02*
X0045848Y0036495D01*
X0045800Y0036500D01*
X0045753Y0036509D01*
X0045706Y0036522D01*
X0045661Y0036538D01*
X0045617Y0036557D01*
X0045574Y0036579D01*
X0045533Y0036605D01*
X0045494Y0036634D01*
X0045458Y0036665D01*
X0045424Y0036699D01*
X0045393Y0036735D01*
X0045364Y0036774D01*
X0045338Y0036815D01*
X0045316Y0036858D01*
X0045297Y0036902D01*
X0045281Y0036947D01*
X0045268Y0036994D01*
X0045259Y0037041D01*
X0045254Y0037089D01*
X0045252Y0037137D01*
X0045252Y0038103D01*
X0043963Y0038103D01*
X0043963Y0036492D01*
X0046218Y0036493D02*
X0046269Y0036495D01*
X0046319Y0036501D01*
X0046368Y0036511D01*
X0046417Y0036525D01*
X0046464Y0036542D01*
X0046510Y0036563D01*
X0046555Y0036588D01*
X0046597Y0036616D01*
X0046636Y0036647D01*
X0046673Y0036682D01*
X0046708Y0036719D01*
X0046739Y0036758D01*
X0046767Y0036801D01*
X0046792Y0036845D01*
X0046813Y0036891D01*
X0046830Y0036938D01*
X0046844Y0036987D01*
X0046854Y0037036D01*
X0046860Y0037086D01*
X0046862Y0037137D01*
X0046863Y0037137D02*
X0046863Y0038103D01*
X0045574Y0039372D02*
X0044769Y0039372D01*
X0045574Y0039372D02*
X0045574Y0040339D01*
X0045574Y0039372D02*
X0045644Y0039374D01*
X0045713Y0039380D01*
X0045783Y0039389D01*
X0045851Y0039402D01*
X0045919Y0039419D01*
X0045986Y0039439D01*
X0046051Y0039464D01*
X0046115Y0039491D01*
X0046178Y0039522D01*
X0046239Y0039557D01*
X0046297Y0039594D01*
X0046354Y0039635D01*
X0046408Y0039679D01*
X0046460Y0039725D01*
X0046510Y0039775D01*
X0046556Y0039827D01*
X0046600Y0039881D01*
X0046641Y0039938D01*
X0046678Y0039996D01*
X0046713Y0040057D01*
X0046744Y0040120D01*
X0046771Y0040184D01*
X0046796Y0040249D01*
X0046816Y0040316D01*
X0046833Y0040384D01*
X0046846Y0040452D01*
X0046855Y0040522D01*
X0046861Y0040591D01*
X0046863Y0040661D01*
X0046863Y0042091D02*
X0043963Y0043058D01*
X0046863Y0044025D01*
X0046138Y0043783D02*
X0046138Y0042333D01*
X0044930Y0040983D02*
X0044769Y0040983D01*
X0044930Y0040983D02*
X0044978Y0040981D01*
X0045026Y0040976D01*
X0045073Y0040967D01*
X0045120Y0040954D01*
X0045165Y0040938D01*
X0045209Y0040919D01*
X0045252Y0040897D01*
X0045293Y0040871D01*
X0045332Y0040842D01*
X0045368Y0040811D01*
X0045402Y0040777D01*
X0045433Y0040741D01*
X0045462Y0040702D01*
X0045488Y0040661D01*
X0045510Y0040618D01*
X0045529Y0040574D01*
X0045545Y0040529D01*
X0045558Y0040482D01*
X0045567Y0040435D01*
X0045572Y0040387D01*
X0045574Y0040339D01*
X0044769Y0040984D02*
X0044714Y0040982D01*
X0044659Y0040976D01*
X0044605Y0040967D01*
X0044552Y0040954D01*
X0044499Y0040937D01*
X0044448Y0040917D01*
X0044398Y0040894D01*
X0044350Y0040867D01*
X0044304Y0040836D01*
X0044260Y0040803D01*
X0044219Y0040767D01*
X0044180Y0040728D01*
X0044144Y0040687D01*
X0044111Y0040643D01*
X0044080Y0040597D01*
X0044053Y0040549D01*
X0044030Y0040499D01*
X0044010Y0040448D01*
X0043993Y0040395D01*
X0043980Y0040342D01*
X0043971Y0040288D01*
X0043965Y0040233D01*
X0043963Y0040178D01*
X0043965Y0040123D01*
X0043971Y0040068D01*
X0043980Y0040014D01*
X0043993Y0039961D01*
X0044010Y0039908D01*
X0044030Y0039857D01*
X0044053Y0039807D01*
X0044080Y0039759D01*
X0044111Y0039713D01*
X0044144Y0039669D01*
X0044180Y0039628D01*
X0044219Y0039589D01*
X0044260Y0039553D01*
X0044304Y0039520D01*
X0044350Y0039489D01*
X0044398Y0039462D01*
X0044448Y0039439D01*
X0044499Y0039419D01*
X0044552Y0039402D01*
X0044605Y0039389D01*
X0044659Y0039380D01*
X0044714Y0039374D01*
X0044769Y0039372D01*
X0043963Y0044984D02*
X0043963Y0045628D01*
X0043965Y0045679D01*
X0043971Y0045729D01*
X0043981Y0045778D01*
X0043995Y0045827D01*
X0044012Y0045874D01*
X0044033Y0045920D01*
X0044058Y0045965D01*
X0044086Y0046007D01*
X0044117Y0046046D01*
X0044152Y0046083D01*
X0044189Y0046118D01*
X0044228Y0046149D01*
X0044271Y0046177D01*
X0044315Y0046202D01*
X0044361Y0046223D01*
X0044408Y0046240D01*
X0044457Y0046254D01*
X0044506Y0046264D01*
X0044556Y0046270D01*
X0044607Y0046272D01*
X0046219Y0046272D01*
X0046267Y0046270D01*
X0046315Y0046265D01*
X0046362Y0046256D01*
X0046409Y0046243D01*
X0046454Y0046227D01*
X0046498Y0046208D01*
X0046541Y0046186D01*
X0046582Y0046160D01*
X0046621Y0046131D01*
X0046657Y0046100D01*
X0046691Y0046066D01*
X0046722Y0046030D01*
X0046751Y0045991D01*
X0046777Y0045950D01*
X0046799Y0045907D01*
X0046818Y0045863D01*
X0046834Y0045818D01*
X0046847Y0045771D01*
X0046856Y0045724D01*
X0046861Y0045676D01*
X0046863Y0045628D01*
X0046863Y0044984D01*
X0043963Y0047340D02*
X0043963Y0048951D01*
X0043963Y0048146D02*
X0046863Y0048146D01*
D12*
X0065950Y0043600D02*
X0065950Y0041044D01*
X0065950Y0042322D02*
X0070550Y0042322D01*
X0069528Y0041044D01*
X0070550Y0039326D02*
X0070550Y0038304D01*
X0070548Y0038242D01*
X0070543Y0038181D01*
X0070533Y0038120D01*
X0070520Y0038059D01*
X0070504Y0038000D01*
X0070484Y0037942D01*
X0070460Y0037885D01*
X0070433Y0037829D01*
X0070403Y0037775D01*
X0070369Y0037723D01*
X0070332Y0037674D01*
X0070293Y0037626D01*
X0070251Y0037581D01*
X0070206Y0037539D01*
X0070158Y0037499D01*
X0070109Y0037463D01*
X0070057Y0037429D01*
X0070003Y0037399D01*
X0069947Y0037372D01*
X0069890Y0037348D01*
X0069832Y0037328D01*
X0069773Y0037312D01*
X0069712Y0037299D01*
X0069651Y0037289D01*
X0069590Y0037284D01*
X0069528Y0037282D01*
X0069528Y0037281D02*
X0066972Y0037281D01*
X0066972Y0037282D02*
X0066910Y0037284D01*
X0066849Y0037289D01*
X0066788Y0037299D01*
X0066727Y0037312D01*
X0066668Y0037328D01*
X0066610Y0037348D01*
X0066553Y0037372D01*
X0066497Y0037399D01*
X0066443Y0037429D01*
X0066391Y0037463D01*
X0066342Y0037499D01*
X0066294Y0037539D01*
X0066249Y0037581D01*
X0066207Y0037626D01*
X0066167Y0037674D01*
X0066131Y0037723D01*
X0066097Y0037775D01*
X0066067Y0037829D01*
X0066040Y0037885D01*
X0066016Y0037942D01*
X0065996Y0038000D01*
X0065980Y0038059D01*
X0065967Y0038120D01*
X0065957Y0038181D01*
X0065952Y0038242D01*
X0065950Y0038304D01*
X0065950Y0039326D01*
D13*
X0070750Y0040000D02*
X0070750Y0037600D01*
X0070750Y0031400D01*
X0070750Y0040000D02*
X0070750Y0046200D01*
X0050750Y0046200D02*
X0050750Y0031400D01*
M02*
