%
M48
M72
T01C0.01400
T02C0.04000
%
T01
X39500Y12550
X39500Y20050
X39500Y27550
X39500Y35050
X39500Y42550
X39500Y50050
X39500Y57550
X39500Y65050
X79500Y67550
X88250Y50050
X82000Y41300
X80750Y33800
X80750Y26300
X88250Y30060
X88250Y9538
T02
X14500Y78800
X93250Y88800
X83250Y88800
X73250Y88800
X63250Y88800
X53250Y88800
X28250Y78800
X28250Y68800
X28250Y58800
X28250Y48800
X28250Y38800
X28250Y28800
X28250Y18800
X28250Y8800
X14500Y8800
X14500Y68800
X14500Y58800
X14500Y48800
X14500Y38800
X14500Y28800
X14500Y18800
M30
