G75*
%MOIN*%
%OFA0B0*%
%FSLAX25Y25*%
%IPPOS*%
%LPD*%
%AMOC8*
5,1,8,0,0,1.08239X$1,22.5*
%
%ADD10C,0.00000*%
%ADD11R,0.04724X0.04724*%
%ADD12R,0.07874X0.06299*%
%ADD13R,0.05118X0.06299*%
%ADD14C,0.06000*%
%ADD15C,0.01600*%
%ADD16C,0.02600*%
%ADD17C,0.00600*%
%ADD18C,0.00800*%
D10*
X0004500Y0013111D02*
X0004500Y0087914D01*
X0004503Y0088199D01*
X0004514Y0088485D01*
X0004531Y0088770D01*
X0004555Y0089054D01*
X0004586Y0089338D01*
X0004624Y0089621D01*
X0004669Y0089902D01*
X0004720Y0090183D01*
X0004778Y0090463D01*
X0004843Y0090741D01*
X0004915Y0091017D01*
X0004993Y0091291D01*
X0005078Y0091564D01*
X0005170Y0091834D01*
X0005268Y0092102D01*
X0005372Y0092368D01*
X0005483Y0092631D01*
X0005600Y0092891D01*
X0005723Y0093149D01*
X0005853Y0093403D01*
X0005989Y0093654D01*
X0006130Y0093902D01*
X0006278Y0094146D01*
X0006431Y0094387D01*
X0006591Y0094623D01*
X0006756Y0094856D01*
X0006926Y0095085D01*
X0007102Y0095310D01*
X0007284Y0095530D01*
X0007470Y0095746D01*
X0007662Y0095957D01*
X0007859Y0096164D01*
X0008061Y0096366D01*
X0008268Y0096563D01*
X0008479Y0096755D01*
X0008695Y0096941D01*
X0008915Y0097123D01*
X0009140Y0097299D01*
X0009369Y0097469D01*
X0009602Y0097634D01*
X0009838Y0097794D01*
X0010079Y0097947D01*
X0010323Y0098095D01*
X0010571Y0098236D01*
X0010822Y0098372D01*
X0011076Y0098502D01*
X0011334Y0098625D01*
X0011594Y0098742D01*
X0011857Y0098853D01*
X0012123Y0098957D01*
X0012391Y0099055D01*
X0012661Y0099147D01*
X0012934Y0099232D01*
X0013208Y0099310D01*
X0013484Y0099382D01*
X0013762Y0099447D01*
X0014042Y0099505D01*
X0014323Y0099556D01*
X0014604Y0099601D01*
X0014887Y0099639D01*
X0015171Y0099670D01*
X0015455Y0099694D01*
X0015740Y0099711D01*
X0016026Y0099722D01*
X0016311Y0099725D01*
X0091114Y0099725D01*
X0091399Y0099722D01*
X0091685Y0099711D01*
X0091970Y0099694D01*
X0092254Y0099670D01*
X0092538Y0099639D01*
X0092821Y0099601D01*
X0093102Y0099556D01*
X0093383Y0099505D01*
X0093663Y0099447D01*
X0093941Y0099382D01*
X0094217Y0099310D01*
X0094491Y0099232D01*
X0094764Y0099147D01*
X0095034Y0099055D01*
X0095302Y0098957D01*
X0095568Y0098853D01*
X0095831Y0098742D01*
X0096091Y0098625D01*
X0096349Y0098502D01*
X0096603Y0098372D01*
X0096854Y0098236D01*
X0097102Y0098095D01*
X0097346Y0097947D01*
X0097587Y0097794D01*
X0097823Y0097634D01*
X0098056Y0097469D01*
X0098285Y0097299D01*
X0098510Y0097123D01*
X0098730Y0096941D01*
X0098946Y0096755D01*
X0099157Y0096563D01*
X0099364Y0096366D01*
X0099566Y0096164D01*
X0099763Y0095957D01*
X0099955Y0095746D01*
X0100141Y0095530D01*
X0100323Y0095310D01*
X0100499Y0095085D01*
X0100669Y0094856D01*
X0100834Y0094623D01*
X0100994Y0094387D01*
X0101147Y0094146D01*
X0101295Y0093902D01*
X0101436Y0093654D01*
X0101572Y0093403D01*
X0101702Y0093149D01*
X0101825Y0092891D01*
X0101942Y0092631D01*
X0102053Y0092368D01*
X0102157Y0092102D01*
X0102255Y0091834D01*
X0102347Y0091564D01*
X0102432Y0091291D01*
X0102510Y0091017D01*
X0102582Y0090741D01*
X0102647Y0090463D01*
X0102705Y0090183D01*
X0102756Y0089902D01*
X0102801Y0089621D01*
X0102839Y0089338D01*
X0102870Y0089054D01*
X0102894Y0088770D01*
X0102911Y0088485D01*
X0102922Y0088199D01*
X0102925Y0087914D01*
X0102925Y0013111D01*
X0102922Y0012826D01*
X0102911Y0012540D01*
X0102894Y0012255D01*
X0102870Y0011971D01*
X0102839Y0011687D01*
X0102801Y0011404D01*
X0102756Y0011123D01*
X0102705Y0010842D01*
X0102647Y0010562D01*
X0102582Y0010284D01*
X0102510Y0010008D01*
X0102432Y0009734D01*
X0102347Y0009461D01*
X0102255Y0009191D01*
X0102157Y0008923D01*
X0102053Y0008657D01*
X0101942Y0008394D01*
X0101825Y0008134D01*
X0101702Y0007876D01*
X0101572Y0007622D01*
X0101436Y0007371D01*
X0101295Y0007123D01*
X0101147Y0006879D01*
X0100994Y0006638D01*
X0100834Y0006402D01*
X0100669Y0006169D01*
X0100499Y0005940D01*
X0100323Y0005715D01*
X0100141Y0005495D01*
X0099955Y0005279D01*
X0099763Y0005068D01*
X0099566Y0004861D01*
X0099364Y0004659D01*
X0099157Y0004462D01*
X0098946Y0004270D01*
X0098730Y0004084D01*
X0098510Y0003902D01*
X0098285Y0003726D01*
X0098056Y0003556D01*
X0097823Y0003391D01*
X0097587Y0003231D01*
X0097346Y0003078D01*
X0097102Y0002930D01*
X0096854Y0002789D01*
X0096603Y0002653D01*
X0096349Y0002523D01*
X0096091Y0002400D01*
X0095831Y0002283D01*
X0095568Y0002172D01*
X0095302Y0002068D01*
X0095034Y0001970D01*
X0094764Y0001878D01*
X0094491Y0001793D01*
X0094217Y0001715D01*
X0093941Y0001643D01*
X0093663Y0001578D01*
X0093383Y0001520D01*
X0093102Y0001469D01*
X0092821Y0001424D01*
X0092538Y0001386D01*
X0092254Y0001355D01*
X0091970Y0001331D01*
X0091685Y0001314D01*
X0091399Y0001303D01*
X0091114Y0001300D01*
X0016311Y0001300D01*
X0016026Y0001303D01*
X0015740Y0001314D01*
X0015455Y0001331D01*
X0015171Y0001355D01*
X0014887Y0001386D01*
X0014604Y0001424D01*
X0014323Y0001469D01*
X0014042Y0001520D01*
X0013762Y0001578D01*
X0013484Y0001643D01*
X0013208Y0001715D01*
X0012934Y0001793D01*
X0012661Y0001878D01*
X0012391Y0001970D01*
X0012123Y0002068D01*
X0011857Y0002172D01*
X0011594Y0002283D01*
X0011334Y0002400D01*
X0011076Y0002523D01*
X0010822Y0002653D01*
X0010571Y0002789D01*
X0010323Y0002930D01*
X0010079Y0003078D01*
X0009838Y0003231D01*
X0009602Y0003391D01*
X0009369Y0003556D01*
X0009140Y0003726D01*
X0008915Y0003902D01*
X0008695Y0004084D01*
X0008479Y0004270D01*
X0008268Y0004462D01*
X0008061Y0004659D01*
X0007859Y0004861D01*
X0007662Y0005068D01*
X0007470Y0005279D01*
X0007284Y0005495D01*
X0007102Y0005715D01*
X0006926Y0005940D01*
X0006756Y0006169D01*
X0006591Y0006402D01*
X0006431Y0006638D01*
X0006278Y0006879D01*
X0006130Y0007123D01*
X0005989Y0007371D01*
X0005853Y0007622D01*
X0005723Y0007876D01*
X0005600Y0008134D01*
X0005483Y0008394D01*
X0005372Y0008657D01*
X0005268Y0008923D01*
X0005170Y0009191D01*
X0005078Y0009461D01*
X0004993Y0009734D01*
X0004915Y0010008D01*
X0004843Y0010284D01*
X0004778Y0010562D01*
X0004720Y0010842D01*
X0004669Y0011123D01*
X0004624Y0011404D01*
X0004586Y0011687D01*
X0004555Y0011971D01*
X0004531Y0012255D01*
X0004514Y0012540D01*
X0004503Y0012826D01*
X0004500Y0013111D01*
D11*
X0045366Y0012550D03*
X0045366Y0020050D03*
X0045366Y0027550D03*
X0045366Y0035050D03*
X0045366Y0042550D03*
X0045366Y0050050D03*
X0045366Y0057550D03*
X0045366Y0065050D03*
X0053634Y0065050D03*
X0053634Y0057550D03*
X0053634Y0050050D03*
X0053634Y0042550D03*
X0053634Y0035050D03*
X0053634Y0027550D03*
X0053634Y0020050D03*
X0053634Y0012550D03*
D12*
X0088250Y0010788D03*
X0088250Y0021812D03*
X0088250Y0030788D03*
X0088250Y0041812D03*
X0088250Y0050788D03*
X0088250Y0061812D03*
D13*
X0080740Y0076300D03*
X0073260Y0076300D03*
X0063240Y0076300D03*
X0055760Y0076300D03*
X0062010Y0065050D03*
X0069490Y0065050D03*
X0069490Y0057550D03*
X0062010Y0057550D03*
X0062010Y0050050D03*
X0069490Y0050050D03*
X0069490Y0042550D03*
X0062010Y0042550D03*
X0062010Y0035050D03*
X0069490Y0035050D03*
X0069490Y0027550D03*
X0062010Y0027550D03*
X0062010Y0020050D03*
X0069490Y0020050D03*
X0069490Y0012550D03*
X0062010Y0012550D03*
D14*
X0031250Y0008800D02*
X0025250Y0008800D01*
X0017500Y0008800D02*
X0011500Y0008800D01*
X0011500Y0018800D02*
X0017500Y0018800D01*
X0025250Y0018800D02*
X0031250Y0018800D01*
X0031250Y0028800D02*
X0025250Y0028800D01*
X0017500Y0028800D02*
X0011500Y0028800D01*
X0011500Y0038800D02*
X0017500Y0038800D01*
X0025250Y0038800D02*
X0031250Y0038800D01*
X0031250Y0048800D02*
X0025250Y0048800D01*
X0017500Y0048800D02*
X0011500Y0048800D01*
X0011500Y0058800D02*
X0017500Y0058800D01*
X0025250Y0058800D02*
X0031250Y0058800D01*
X0031250Y0068800D02*
X0025250Y0068800D01*
X0017500Y0068800D02*
X0011500Y0068800D01*
X0011500Y0078800D02*
X0017500Y0078800D01*
X0025250Y0078800D02*
X0031250Y0078800D01*
X0053250Y0085800D02*
X0053250Y0091800D01*
X0063250Y0091800D02*
X0063250Y0085800D01*
X0073250Y0085800D02*
X0073250Y0091800D01*
X0083250Y0091800D02*
X0083250Y0085800D01*
X0093250Y0085800D02*
X0093250Y0091800D01*
D15*
X0083250Y0088800D02*
X0083250Y0081300D01*
X0080740Y0078790D01*
X0080740Y0076300D01*
X0080750Y0076300D01*
X0085750Y0076300D01*
X0088250Y0073800D01*
X0088250Y0061812D01*
X0093988Y0061812D01*
X0095750Y0060050D01*
X0095750Y0043800D01*
X0093762Y0041812D01*
X0095750Y0039824D01*
X0095750Y0023800D01*
X0093762Y0021812D01*
X0088250Y0021812D01*
X0088250Y0030060D02*
X0088250Y0030788D01*
X0082000Y0041300D02*
X0082512Y0041812D01*
X0088250Y0041812D01*
X0093762Y0041812D01*
X0088250Y0050050D02*
X0088250Y0050788D01*
X0069490Y0050050D02*
X0069490Y0057550D01*
X0069490Y0065050D01*
X0062010Y0065050D02*
X0053634Y0065050D01*
X0053634Y0057550D02*
X0062010Y0057550D01*
X0062010Y0050050D02*
X0059500Y0050050D01*
X0053634Y0050050D01*
X0053634Y0042550D02*
X0062010Y0042550D01*
X0069490Y0042550D02*
X0069490Y0035050D01*
X0069490Y0027550D01*
X0069490Y0020050D01*
X0069490Y0012550D01*
X0062010Y0012550D02*
X0053634Y0012550D01*
X0053634Y0020050D02*
X0062010Y0020050D01*
X0062010Y0027550D02*
X0057000Y0027550D01*
X0053634Y0027550D01*
X0053634Y0035050D02*
X0062010Y0035050D01*
X0088250Y0010788D02*
X0088250Y0009538D01*
X0073260Y0076300D02*
X0073260Y0088790D01*
X0073250Y0088800D01*
X0063250Y0088800D02*
X0063250Y0076310D01*
X0063240Y0076300D01*
D16*
X0079500Y0067550D03*
X0088250Y0050050D03*
X0082000Y0041300D03*
X0080750Y0033800D03*
X0080750Y0026300D03*
X0088250Y0030060D03*
X0088250Y0009538D03*
X0039500Y0012550D03*
X0039500Y0020050D03*
X0039500Y0027550D03*
X0039500Y0035050D03*
X0039500Y0042550D03*
X0039500Y0050050D03*
X0039500Y0057550D03*
X0039500Y0065050D03*
D17*
X0006946Y0008339D02*
X0007296Y0007857D01*
X0007200Y0008462D01*
X0007200Y0008500D01*
X0014200Y0008500D01*
X0014800Y0008500D01*
X0014800Y0004500D01*
X0017838Y0004500D01*
X0018507Y0004606D01*
X0019151Y0004815D01*
X0019754Y0005122D01*
X0020301Y0005520D01*
X0020780Y0005999D01*
X0021178Y0006546D01*
X0021485Y0007149D01*
X0021585Y0007457D01*
X0021944Y0006591D01*
X0023041Y0005494D01*
X0024474Y0004900D01*
X0032026Y0004900D01*
X0033459Y0005494D01*
X0034556Y0006591D01*
X0034933Y0007500D01*
X0035038Y0007500D01*
X0038239Y0010700D01*
X0038589Y0010350D01*
X0040411Y0010350D01*
X0041311Y0011250D01*
X0042104Y0011250D01*
X0042104Y0009815D01*
X0042631Y0009288D01*
X0048101Y0009288D01*
X0048628Y0009815D01*
X0048628Y0015285D01*
X0048101Y0015812D01*
X0042631Y0015812D01*
X0042104Y0015285D01*
X0042104Y0013850D01*
X0041311Y0013850D01*
X0040411Y0014750D01*
X0038589Y0014750D01*
X0037300Y0013461D01*
X0037300Y0013438D01*
X0034648Y0010787D01*
X0034556Y0011009D01*
X0033459Y0012106D01*
X0032026Y0012700D01*
X0024474Y0012700D01*
X0023041Y0012106D01*
X0021944Y0011009D01*
X0021585Y0010143D01*
X0021485Y0010451D01*
X0021178Y0011054D01*
X0020780Y0011601D01*
X0020301Y0012080D01*
X0019754Y0012478D01*
X0019151Y0012785D01*
X0018507Y0012994D01*
X0017838Y0013100D01*
X0014800Y0013100D01*
X0014800Y0009100D01*
X0014200Y0009100D01*
X0014200Y0013100D01*
X0011162Y0013100D01*
X0010493Y0012994D01*
X0009849Y0012785D01*
X0009246Y0012478D01*
X0008699Y0012080D01*
X0008220Y0011601D01*
X0007822Y0011054D01*
X0007515Y0010451D01*
X0007306Y0009807D01*
X0007200Y0009138D01*
X0007200Y0009100D01*
X0014200Y0009100D01*
X0014200Y0008500D01*
X0014200Y0004500D01*
X0011162Y0004500D01*
X0010493Y0004606D01*
X0010243Y0004687D01*
X0011539Y0003746D01*
X0014667Y0002729D01*
X0016311Y0002600D01*
X0091114Y0002600D01*
X0092758Y0002729D01*
X0095886Y0003746D01*
X0098547Y0005679D01*
X0100480Y0008339D01*
X0101496Y0011467D01*
X0101625Y0013111D01*
X0101625Y0087914D01*
X0101496Y0089558D01*
X0100480Y0092686D01*
X0098547Y0095347D01*
X0095886Y0097280D01*
X0092758Y0098296D01*
X0091114Y0098425D01*
X0016311Y0098425D01*
X0014667Y0098296D01*
X0011539Y0097280D01*
X0008879Y0095347D01*
X0006946Y0092686D01*
X0005929Y0089558D01*
X0005800Y0087914D01*
X0005800Y0013111D01*
X0005929Y0011467D01*
X0006946Y0008339D01*
X0006899Y0008482D02*
X0007200Y0008482D01*
X0007277Y0007884D02*
X0007292Y0007884D01*
X0006705Y0009081D02*
X0014200Y0009081D01*
X0014200Y0009679D02*
X0014800Y0009679D01*
X0014800Y0010278D02*
X0014200Y0010278D01*
X0014200Y0010876D02*
X0014800Y0010876D01*
X0014800Y0011475D02*
X0014200Y0011475D01*
X0014200Y0012073D02*
X0014800Y0012073D01*
X0014800Y0012672D02*
X0014200Y0012672D01*
X0014200Y0014500D02*
X0014200Y0018500D01*
X0014800Y0018500D01*
X0014800Y0014500D01*
X0017838Y0014500D01*
X0018507Y0014606D01*
X0019151Y0014815D01*
X0019754Y0015122D01*
X0020301Y0015520D01*
X0020780Y0015999D01*
X0021178Y0016546D01*
X0021485Y0017149D01*
X0021585Y0017457D01*
X0021944Y0016591D01*
X0023041Y0015494D01*
X0024474Y0014900D01*
X0032026Y0014900D01*
X0033459Y0015494D01*
X0034556Y0016591D01*
X0034933Y0017500D01*
X0036288Y0017500D01*
X0037538Y0018750D01*
X0037689Y0018750D01*
X0038589Y0017850D01*
X0040411Y0017850D01*
X0041311Y0018750D01*
X0042104Y0018750D01*
X0042104Y0017315D01*
X0042631Y0016788D01*
X0048101Y0016788D01*
X0048628Y0017315D01*
X0048628Y0022785D01*
X0048101Y0023312D01*
X0042631Y0023312D01*
X0042104Y0022785D01*
X0042104Y0021350D01*
X0041311Y0021350D01*
X0040411Y0022250D01*
X0038589Y0022250D01*
X0037689Y0021350D01*
X0036462Y0021350D01*
X0035212Y0020100D01*
X0034933Y0020100D01*
X0034556Y0021009D01*
X0033459Y0022106D01*
X0032026Y0022700D01*
X0024474Y0022700D01*
X0023041Y0022106D01*
X0021944Y0021009D01*
X0021585Y0020143D01*
X0021485Y0020451D01*
X0021178Y0021054D01*
X0020780Y0021601D01*
X0020301Y0022080D01*
X0019754Y0022478D01*
X0019151Y0022785D01*
X0018507Y0022994D01*
X0017838Y0023100D01*
X0014800Y0023100D01*
X0014800Y0019100D01*
X0014200Y0019100D01*
X0014200Y0023100D01*
X0011162Y0023100D01*
X0010493Y0022994D01*
X0009849Y0022785D01*
X0009246Y0022478D01*
X0008699Y0022080D01*
X0008220Y0021601D01*
X0007822Y0021054D01*
X0007515Y0020451D01*
X0007306Y0019807D01*
X0007200Y0019138D01*
X0007200Y0019100D01*
X0014200Y0019100D01*
X0014200Y0018500D01*
X0007200Y0018500D01*
X0007200Y0018462D01*
X0007306Y0017793D01*
X0007515Y0017149D01*
X0007822Y0016546D01*
X0008220Y0015999D01*
X0008699Y0015520D01*
X0009246Y0015122D01*
X0009849Y0014815D01*
X0010493Y0014606D01*
X0011162Y0014500D01*
X0014200Y0014500D01*
X0014200Y0015066D02*
X0014800Y0015066D01*
X0014800Y0015664D02*
X0014200Y0015664D01*
X0014200Y0016263D02*
X0014800Y0016263D01*
X0014800Y0016861D02*
X0014200Y0016861D01*
X0014200Y0017460D02*
X0014800Y0017460D01*
X0014800Y0018058D02*
X0014200Y0018058D01*
X0014200Y0018657D02*
X0005800Y0018657D01*
X0005800Y0019255D02*
X0007219Y0019255D01*
X0007321Y0019854D02*
X0005800Y0019854D01*
X0005800Y0020452D02*
X0007516Y0020452D01*
X0007821Y0021051D02*
X0005800Y0021051D01*
X0005800Y0021649D02*
X0008268Y0021649D01*
X0008930Y0022248D02*
X0005800Y0022248D01*
X0005800Y0022846D02*
X0010039Y0022846D01*
X0010493Y0024606D02*
X0011162Y0024500D01*
X0014200Y0024500D01*
X0014200Y0028500D01*
X0014800Y0028500D01*
X0014800Y0024500D01*
X0017838Y0024500D01*
X0018507Y0024606D01*
X0019151Y0024815D01*
X0019754Y0025122D01*
X0020301Y0025520D01*
X0020780Y0025999D01*
X0021178Y0026546D01*
X0021485Y0027149D01*
X0021585Y0027457D01*
X0021944Y0026591D01*
X0023041Y0025494D01*
X0024474Y0024900D01*
X0032026Y0024900D01*
X0033459Y0025494D01*
X0034556Y0026591D01*
X0034933Y0027500D01*
X0035212Y0027500D01*
X0036462Y0026250D01*
X0037689Y0026250D01*
X0038589Y0025350D01*
X0040411Y0025350D01*
X0041311Y0026250D01*
X0042104Y0026250D01*
X0042104Y0024815D01*
X0042631Y0024288D01*
X0048101Y0024288D01*
X0048628Y0024815D01*
X0048628Y0030285D01*
X0048101Y0030812D01*
X0042631Y0030812D01*
X0042104Y0030285D01*
X0042104Y0028850D01*
X0041311Y0028850D01*
X0040411Y0029750D01*
X0038589Y0029750D01*
X0037689Y0028850D01*
X0037538Y0028850D01*
X0036288Y0030100D01*
X0034933Y0030100D01*
X0034556Y0031009D01*
X0033459Y0032106D01*
X0032026Y0032700D01*
X0024474Y0032700D01*
X0023041Y0032106D01*
X0021944Y0031009D01*
X0021585Y0030143D01*
X0021485Y0030451D01*
X0021178Y0031054D01*
X0020780Y0031601D01*
X0020301Y0032080D01*
X0019754Y0032478D01*
X0019151Y0032785D01*
X0018507Y0032994D01*
X0017838Y0033100D01*
X0014800Y0033100D01*
X0014800Y0029100D01*
X0014200Y0029100D01*
X0014200Y0033100D01*
X0011162Y0033100D01*
X0010493Y0032994D01*
X0009849Y0032785D01*
X0009246Y0032478D01*
X0008699Y0032080D01*
X0008220Y0031601D01*
X0007822Y0031054D01*
X0007515Y0030451D01*
X0007306Y0029807D01*
X0007200Y0029138D01*
X0007200Y0029100D01*
X0014200Y0029100D01*
X0014200Y0028500D01*
X0007200Y0028500D01*
X0007200Y0028462D01*
X0007306Y0027793D01*
X0007515Y0027149D01*
X0007822Y0026546D01*
X0008220Y0025999D01*
X0008699Y0025520D01*
X0009246Y0025122D01*
X0009849Y0024815D01*
X0010493Y0024606D01*
X0010382Y0024642D02*
X0005800Y0024642D01*
X0005800Y0025240D02*
X0009084Y0025240D01*
X0008380Y0025839D02*
X0005800Y0025839D01*
X0005800Y0026437D02*
X0007901Y0026437D01*
X0007573Y0027036D02*
X0005800Y0027036D01*
X0005800Y0027634D02*
X0007357Y0027634D01*
X0007236Y0028233D02*
X0005800Y0028233D01*
X0005800Y0028832D02*
X0014200Y0028832D01*
X0014200Y0029430D02*
X0014800Y0029430D01*
X0014800Y0030029D02*
X0014200Y0030029D01*
X0014200Y0030627D02*
X0014800Y0030627D01*
X0014800Y0031226D02*
X0014200Y0031226D01*
X0014200Y0031824D02*
X0014800Y0031824D01*
X0014800Y0032423D02*
X0014200Y0032423D01*
X0014200Y0033021D02*
X0014800Y0033021D01*
X0014800Y0034500D02*
X0017838Y0034500D01*
X0018507Y0034606D01*
X0019151Y0034815D01*
X0019754Y0035122D01*
X0020301Y0035520D01*
X0020780Y0035999D01*
X0021178Y0036546D01*
X0021485Y0037149D01*
X0021585Y0037457D01*
X0021944Y0036591D01*
X0023041Y0035494D01*
X0024474Y0034900D01*
X0032026Y0034900D01*
X0033459Y0035494D01*
X0034556Y0036591D01*
X0034648Y0036813D01*
X0037300Y0034162D01*
X0037300Y0034139D01*
X0038589Y0032850D01*
X0040411Y0032850D01*
X0041311Y0033750D01*
X0042104Y0033750D01*
X0042104Y0032315D01*
X0042631Y0031788D01*
X0048101Y0031788D01*
X0048628Y0032315D01*
X0048628Y0037785D01*
X0048101Y0038312D01*
X0042631Y0038312D01*
X0042104Y0037785D01*
X0042104Y0036350D01*
X0041311Y0036350D01*
X0040411Y0037250D01*
X0038589Y0037250D01*
X0038239Y0036900D01*
X0035038Y0040100D01*
X0034933Y0040100D01*
X0034556Y0041009D01*
X0033459Y0042106D01*
X0032026Y0042700D01*
X0024474Y0042700D01*
X0023041Y0042106D01*
X0021944Y0041009D01*
X0021585Y0040143D01*
X0021485Y0040451D01*
X0021178Y0041054D01*
X0020780Y0041601D01*
X0020301Y0042080D01*
X0019754Y0042478D01*
X0019151Y0042785D01*
X0018507Y0042994D01*
X0017838Y0043100D01*
X0014800Y0043100D01*
X0014800Y0039100D01*
X0014200Y0039100D01*
X0014200Y0043100D01*
X0011162Y0043100D01*
X0010493Y0042994D01*
X0009849Y0042785D01*
X0009246Y0042478D01*
X0008699Y0042080D01*
X0008220Y0041601D01*
X0007822Y0041054D01*
X0007515Y0040451D01*
X0007306Y0039807D01*
X0007200Y0039138D01*
X0007200Y0039100D01*
X0014200Y0039100D01*
X0014200Y0038500D01*
X0014800Y0038500D01*
X0014800Y0034500D01*
X0014800Y0034817D02*
X0014200Y0034817D01*
X0014200Y0034500D02*
X0014200Y0038500D01*
X0007200Y0038500D01*
X0007200Y0038462D01*
X0007306Y0037793D01*
X0007515Y0037149D01*
X0007822Y0036546D01*
X0008220Y0035999D01*
X0008699Y0035520D01*
X0009246Y0035122D01*
X0009849Y0034815D01*
X0010493Y0034606D01*
X0011162Y0034500D01*
X0014200Y0034500D01*
X0014200Y0035415D02*
X0014800Y0035415D01*
X0014800Y0036014D02*
X0014200Y0036014D01*
X0014200Y0036612D02*
X0014800Y0036612D01*
X0014800Y0037211D02*
X0014200Y0037211D01*
X0014200Y0037809D02*
X0014800Y0037809D01*
X0014800Y0038408D02*
X0014200Y0038408D01*
X0014200Y0039006D02*
X0005800Y0039006D01*
X0005800Y0038408D02*
X0007209Y0038408D01*
X0007303Y0037809D02*
X0005800Y0037809D01*
X0005800Y0037211D02*
X0007495Y0037211D01*
X0007789Y0036612D02*
X0005800Y0036612D01*
X0005800Y0036014D02*
X0008209Y0036014D01*
X0008843Y0035415D02*
X0005800Y0035415D01*
X0005800Y0034817D02*
X0009846Y0034817D01*
X0010664Y0033021D02*
X0005800Y0033021D01*
X0005800Y0032423D02*
X0009170Y0032423D01*
X0008443Y0031824D02*
X0005800Y0031824D01*
X0005800Y0031226D02*
X0007947Y0031226D01*
X0007605Y0030627D02*
X0005800Y0030627D01*
X0005800Y0030029D02*
X0007378Y0030029D01*
X0007246Y0029430D02*
X0005800Y0029430D01*
X0005800Y0033620D02*
X0037819Y0033620D01*
X0037243Y0034218D02*
X0005800Y0034218D01*
X0005800Y0039605D02*
X0007274Y0039605D01*
X0007435Y0040203D02*
X0005800Y0040203D01*
X0005800Y0040802D02*
X0007694Y0040802D01*
X0008074Y0041400D02*
X0005800Y0041400D01*
X0005800Y0041999D02*
X0008618Y0041999D01*
X0009481Y0042597D02*
X0005800Y0042597D01*
X0005800Y0043196D02*
X0037016Y0043196D01*
X0037300Y0042912D02*
X0037300Y0041639D01*
X0038589Y0040350D01*
X0040411Y0040350D01*
X0041311Y0041250D01*
X0042104Y0041250D01*
X0042104Y0039815D01*
X0042631Y0039288D01*
X0048101Y0039288D01*
X0048628Y0039815D01*
X0048628Y0045285D01*
X0048101Y0045812D01*
X0042631Y0045812D01*
X0042104Y0045285D01*
X0042104Y0043850D01*
X0041311Y0043850D01*
X0040411Y0044750D01*
X0039138Y0044750D01*
X0035150Y0048738D01*
X0035150Y0049576D01*
X0034556Y0051009D01*
X0033459Y0052106D01*
X0032026Y0052700D01*
X0024474Y0052700D01*
X0023041Y0052106D01*
X0021944Y0051009D01*
X0021585Y0050143D01*
X0021485Y0050451D01*
X0021178Y0051054D01*
X0020780Y0051601D01*
X0020301Y0052080D01*
X0019754Y0052478D01*
X0019151Y0052785D01*
X0018507Y0052994D01*
X0017838Y0053100D01*
X0014800Y0053100D01*
X0014800Y0049100D01*
X0014200Y0049100D01*
X0014200Y0053100D01*
X0011162Y0053100D01*
X0010493Y0052994D01*
X0009849Y0052785D01*
X0009246Y0052478D01*
X0008699Y0052080D01*
X0008220Y0051601D01*
X0007822Y0051054D01*
X0007515Y0050451D01*
X0007306Y0049807D01*
X0007200Y0049138D01*
X0007200Y0049100D01*
X0014200Y0049100D01*
X0014200Y0048500D01*
X0014800Y0048500D01*
X0014800Y0044500D01*
X0017838Y0044500D01*
X0018507Y0044606D01*
X0019151Y0044815D01*
X0019754Y0045122D01*
X0020301Y0045520D01*
X0020780Y0045999D01*
X0021178Y0046546D01*
X0021485Y0047149D01*
X0021585Y0047457D01*
X0021944Y0046591D01*
X0023041Y0045494D01*
X0024474Y0044900D01*
X0032026Y0044900D01*
X0033459Y0045494D01*
X0034088Y0046123D01*
X0037300Y0042912D01*
X0037300Y0042597D02*
X0032274Y0042597D01*
X0033567Y0041999D02*
X0037300Y0041999D01*
X0037538Y0041400D02*
X0034165Y0041400D01*
X0034642Y0040802D02*
X0038137Y0040802D01*
X0036132Y0039006D02*
X0058572Y0039006D01*
X0058551Y0039028D02*
X0058778Y0038800D01*
X0058551Y0038572D01*
X0058551Y0036750D01*
X0056896Y0036750D01*
X0056896Y0037785D01*
X0056369Y0038312D01*
X0050899Y0038312D01*
X0050372Y0037785D01*
X0050372Y0032315D01*
X0050899Y0031788D01*
X0056369Y0031788D01*
X0056896Y0032315D01*
X0056896Y0033350D01*
X0058551Y0033350D01*
X0058551Y0031528D01*
X0058778Y0031300D01*
X0058551Y0031072D01*
X0058551Y0029250D01*
X0056896Y0029250D01*
X0056896Y0030285D01*
X0056369Y0030812D01*
X0050899Y0030812D01*
X0050372Y0030285D01*
X0050372Y0024815D01*
X0050899Y0024288D01*
X0056369Y0024288D01*
X0056896Y0024815D01*
X0056896Y0025850D01*
X0058551Y0025850D01*
X0058551Y0024028D01*
X0058778Y0023800D01*
X0058551Y0023572D01*
X0058551Y0021750D01*
X0056896Y0021750D01*
X0056896Y0022785D01*
X0056369Y0023312D01*
X0050899Y0023312D01*
X0050372Y0022785D01*
X0050372Y0017315D01*
X0050899Y0016788D01*
X0056369Y0016788D01*
X0056896Y0017315D01*
X0056896Y0018350D01*
X0058551Y0018350D01*
X0058551Y0016528D01*
X0058778Y0016300D01*
X0058551Y0016072D01*
X0058551Y0014250D01*
X0056896Y0014250D01*
X0056896Y0015285D01*
X0056369Y0015812D01*
X0050899Y0015812D01*
X0050372Y0015285D01*
X0050372Y0009815D01*
X0050899Y0009288D01*
X0056369Y0009288D01*
X0056896Y0009815D01*
X0056896Y0010850D01*
X0058551Y0010850D01*
X0058551Y0009028D01*
X0059078Y0008500D01*
X0064942Y0008500D01*
X0065469Y0009028D01*
X0065469Y0016072D01*
X0065241Y0016300D01*
X0065469Y0016528D01*
X0065469Y0023572D01*
X0065241Y0023800D01*
X0065469Y0024028D01*
X0065469Y0031072D01*
X0065241Y0031300D01*
X0065469Y0031528D01*
X0065469Y0038572D01*
X0065241Y0038800D01*
X0065469Y0039028D01*
X0065469Y0046072D01*
X0065241Y0046300D01*
X0065469Y0046528D01*
X0065469Y0053572D01*
X0065241Y0053800D01*
X0065469Y0054028D01*
X0065469Y0061072D01*
X0065241Y0061300D01*
X0065469Y0061528D01*
X0065469Y0068572D01*
X0065291Y0068750D01*
X0065748Y0068750D01*
X0065720Y0068701D01*
X0065631Y0068371D01*
X0065631Y0065350D01*
X0069190Y0065350D01*
X0069190Y0064750D01*
X0065631Y0064750D01*
X0065631Y0061729D01*
X0065720Y0061399D01*
X0065777Y0061300D01*
X0065720Y0061201D01*
X0065631Y0060871D01*
X0065631Y0057850D01*
X0069190Y0057850D01*
X0069190Y0057250D01*
X0065631Y0057250D01*
X0065631Y0054229D01*
X0065720Y0053899D01*
X0065777Y0053800D01*
X0065720Y0053701D01*
X0065631Y0053371D01*
X0065631Y0050350D01*
X0069190Y0050350D01*
X0069190Y0049750D01*
X0065631Y0049750D01*
X0065631Y0046729D01*
X0065720Y0046399D01*
X0065777Y0046300D01*
X0065720Y0046201D01*
X0065631Y0045871D01*
X0065631Y0042850D01*
X0069190Y0042850D01*
X0069190Y0042250D01*
X0065631Y0042250D01*
X0065631Y0039229D01*
X0065720Y0038899D01*
X0065777Y0038800D01*
X0065720Y0038701D01*
X0065631Y0038371D01*
X0065631Y0035350D01*
X0069190Y0035350D01*
X0069190Y0034750D01*
X0065631Y0034750D01*
X0065631Y0031729D01*
X0065720Y0031399D01*
X0065777Y0031300D01*
X0065720Y0031201D01*
X0065631Y0030871D01*
X0065631Y0027850D01*
X0069190Y0027850D01*
X0069190Y0027250D01*
X0065631Y0027250D01*
X0065631Y0024229D01*
X0065720Y0023899D01*
X0065777Y0023800D01*
X0065720Y0023701D01*
X0065631Y0023371D01*
X0065631Y0020350D01*
X0069190Y0020350D01*
X0069190Y0019750D01*
X0065631Y0019750D01*
X0065631Y0016729D01*
X0065720Y0016399D01*
X0065777Y0016300D01*
X0065720Y0016201D01*
X0065631Y0015871D01*
X0065631Y0012850D01*
X0069190Y0012850D01*
X0069190Y0012250D01*
X0065631Y0012250D01*
X0065631Y0009229D01*
X0065720Y0008899D01*
X0065891Y0008602D01*
X0066133Y0008360D01*
X0066429Y0008189D01*
X0066760Y0008100D01*
X0069190Y0008100D01*
X0069190Y0012250D01*
X0069790Y0012250D01*
X0069790Y0008100D01*
X0072220Y0008100D01*
X0072551Y0008189D01*
X0072847Y0008360D01*
X0073089Y0008602D01*
X0073261Y0008899D01*
X0073349Y0009229D01*
X0073349Y0012250D01*
X0069790Y0012250D01*
X0069790Y0012850D01*
X0069190Y0012850D01*
X0069190Y0017000D01*
X0069190Y0019750D01*
X0069790Y0019750D01*
X0069790Y0012850D01*
X0073349Y0012850D01*
X0073349Y0015871D01*
X0073261Y0016201D01*
X0073204Y0016300D01*
X0073261Y0016399D01*
X0073349Y0016729D01*
X0073349Y0019750D01*
X0069790Y0019750D01*
X0069790Y0020350D01*
X0069190Y0020350D01*
X0069190Y0023100D01*
X0069190Y0027250D01*
X0069790Y0027250D01*
X0069790Y0020350D01*
X0073349Y0020350D01*
X0073349Y0023371D01*
X0073261Y0023701D01*
X0073204Y0023800D01*
X0073261Y0023899D01*
X0073349Y0024229D01*
X0073349Y0027250D01*
X0069790Y0027250D01*
X0069790Y0027850D01*
X0069190Y0027850D01*
X0069190Y0032000D01*
X0069190Y0034750D01*
X0069790Y0034750D01*
X0069790Y0027850D01*
X0073349Y0027850D01*
X0073349Y0030871D01*
X0073261Y0031201D01*
X0073204Y0031300D01*
X0073261Y0031399D01*
X0073349Y0031729D01*
X0073349Y0034750D01*
X0069790Y0034750D01*
X0069790Y0035350D01*
X0069190Y0035350D01*
X0069190Y0039500D01*
X0069190Y0042250D01*
X0069790Y0042250D01*
X0069790Y0035350D01*
X0073349Y0035350D01*
X0073349Y0038371D01*
X0073261Y0038701D01*
X0073204Y0038800D01*
X0073261Y0038899D01*
X0073349Y0039229D01*
X0073349Y0042250D01*
X0069790Y0042250D01*
X0069790Y0042850D01*
X0069190Y0042850D01*
X0069190Y0049750D01*
X0069790Y0049750D01*
X0069790Y0045600D01*
X0069790Y0042850D01*
X0073349Y0042850D01*
X0073349Y0045871D01*
X0073261Y0046201D01*
X0073204Y0046300D01*
X0073261Y0046399D01*
X0073349Y0046729D01*
X0073349Y0049750D01*
X0069790Y0049750D01*
X0069790Y0050350D01*
X0069190Y0050350D01*
X0069190Y0054500D01*
X0069190Y0057250D01*
X0069790Y0057250D01*
X0069790Y0050350D01*
X0073349Y0050350D01*
X0073349Y0053371D01*
X0073261Y0053701D01*
X0073204Y0053800D01*
X0073261Y0053899D01*
X0073349Y0054229D01*
X0073349Y0057250D01*
X0069790Y0057250D01*
X0069790Y0057850D01*
X0069190Y0057850D01*
X0069190Y0062000D01*
X0069190Y0064750D01*
X0069790Y0064750D01*
X0069790Y0057850D01*
X0073349Y0057850D01*
X0073349Y0060871D01*
X0073261Y0061201D01*
X0073204Y0061300D01*
X0073261Y0061399D01*
X0073349Y0061729D01*
X0073349Y0064750D01*
X0069790Y0064750D01*
X0069790Y0065350D01*
X0073349Y0065350D01*
X0073349Y0068371D01*
X0073261Y0068701D01*
X0073233Y0068750D01*
X0076462Y0068750D01*
X0077300Y0067912D01*
X0077300Y0066639D01*
X0078589Y0065350D01*
X0080411Y0065350D01*
X0081700Y0066639D01*
X0081700Y0067912D01*
X0082050Y0068262D01*
X0082050Y0072250D01*
X0083672Y0072250D01*
X0084199Y0072778D01*
X0084199Y0074600D01*
X0085046Y0074600D01*
X0086550Y0073096D01*
X0086550Y0065861D01*
X0083940Y0065861D01*
X0083413Y0065334D01*
X0083413Y0058289D01*
X0083940Y0057762D01*
X0092560Y0057762D01*
X0093087Y0058289D01*
X0093087Y0060112D01*
X0093284Y0060112D01*
X0094050Y0059346D01*
X0094050Y0044504D01*
X0093087Y0043541D01*
X0093087Y0045334D01*
X0092560Y0045861D01*
X0083940Y0045861D01*
X0083413Y0045334D01*
X0083413Y0043512D01*
X0081808Y0043512D01*
X0081796Y0043500D01*
X0081089Y0043500D01*
X0079800Y0042211D01*
X0079800Y0040389D01*
X0081089Y0039100D01*
X0082911Y0039100D01*
X0083413Y0039602D01*
X0083413Y0038289D01*
X0083940Y0037762D01*
X0092560Y0037762D01*
X0093087Y0038289D01*
X0093087Y0040082D01*
X0094050Y0039119D01*
X0094050Y0024504D01*
X0093087Y0023541D01*
X0093087Y0025334D01*
X0092560Y0025861D01*
X0083940Y0025861D01*
X0083413Y0025334D01*
X0083413Y0018289D01*
X0083940Y0017762D01*
X0092560Y0017762D01*
X0093087Y0018289D01*
X0093087Y0020112D01*
X0094466Y0020112D01*
X0095462Y0021108D01*
X0097450Y0023096D01*
X0097450Y0040528D01*
X0096454Y0041524D01*
X0096166Y0041812D01*
X0097450Y0043096D01*
X0097450Y0060754D01*
X0094692Y0063512D01*
X0093087Y0063512D01*
X0093087Y0065334D01*
X0092560Y0065861D01*
X0089950Y0065861D01*
X0089950Y0074504D01*
X0088954Y0075500D01*
X0086454Y0078000D01*
X0084199Y0078000D01*
X0084199Y0079822D01*
X0084188Y0079834D01*
X0084950Y0080596D01*
X0084950Y0082283D01*
X0085459Y0082494D01*
X0086556Y0083591D01*
X0087150Y0085024D01*
X0087150Y0092576D01*
X0086556Y0094009D01*
X0085459Y0095106D01*
X0084026Y0095700D01*
X0082474Y0095700D01*
X0081041Y0095106D01*
X0079944Y0094009D01*
X0079350Y0092576D01*
X0079350Y0085024D01*
X0079944Y0083591D01*
X0081041Y0082494D01*
X0081550Y0082283D01*
X0081550Y0082004D01*
X0079895Y0080350D01*
X0077808Y0080350D01*
X0077281Y0079822D01*
X0077281Y0072778D01*
X0077808Y0072250D01*
X0079450Y0072250D01*
X0079450Y0069750D01*
X0079138Y0069750D01*
X0077538Y0071350D01*
X0058788Y0071350D01*
X0057888Y0072250D01*
X0058692Y0072250D01*
X0059219Y0072778D01*
X0059219Y0079822D01*
X0058692Y0080350D01*
X0052828Y0080350D01*
X0052301Y0079822D01*
X0052301Y0072778D01*
X0052828Y0072250D01*
X0054460Y0072250D01*
X0054460Y0072002D01*
X0056950Y0069512D01*
X0057712Y0068750D01*
X0058728Y0068750D01*
X0058551Y0068572D01*
X0058551Y0066750D01*
X0056896Y0066750D01*
X0056896Y0067785D01*
X0056369Y0068312D01*
X0050899Y0068312D01*
X0050372Y0067785D01*
X0050372Y0062315D01*
X0050899Y0061788D01*
X0056369Y0061788D01*
X0056896Y0062315D01*
X0056896Y0063350D01*
X0058551Y0063350D01*
X0058551Y0061528D01*
X0058778Y0061300D01*
X0058551Y0061072D01*
X0058551Y0059250D01*
X0056896Y0059250D01*
X0056896Y0060285D01*
X0056369Y0060812D01*
X0050899Y0060812D01*
X0050372Y0060285D01*
X0050372Y0054815D01*
X0050899Y0054288D01*
X0056369Y0054288D01*
X0056896Y0054815D01*
X0056896Y0055850D01*
X0058551Y0055850D01*
X0058551Y0054028D01*
X0058778Y0053800D01*
X0058551Y0053572D01*
X0058551Y0051750D01*
X0056896Y0051750D01*
X0056896Y0052785D01*
X0056369Y0053312D01*
X0050899Y0053312D01*
X0050372Y0052785D01*
X0050372Y0047315D01*
X0050899Y0046788D01*
X0056369Y0046788D01*
X0056896Y0047315D01*
X0056896Y0048350D01*
X0058551Y0048350D01*
X0058551Y0046528D01*
X0058778Y0046300D01*
X0058551Y0046072D01*
X0058551Y0044250D01*
X0056896Y0044250D01*
X0056896Y0045285D01*
X0056369Y0045812D01*
X0050899Y0045812D01*
X0050372Y0045285D01*
X0050372Y0039815D01*
X0050899Y0039288D01*
X0056369Y0039288D01*
X0056896Y0039815D01*
X0056896Y0040850D01*
X0058551Y0040850D01*
X0058551Y0039028D01*
X0058551Y0039605D02*
X0056686Y0039605D01*
X0056896Y0040203D02*
X0058551Y0040203D01*
X0058551Y0040802D02*
X0056896Y0040802D01*
X0058551Y0038408D02*
X0036731Y0038408D01*
X0037329Y0037809D02*
X0042128Y0037809D01*
X0042104Y0037211D02*
X0040451Y0037211D01*
X0041049Y0036612D02*
X0042104Y0036612D01*
X0042104Y0033620D02*
X0041181Y0033620D01*
X0040582Y0033021D02*
X0042104Y0033021D01*
X0042104Y0032423D02*
X0032695Y0032423D01*
X0033741Y0031824D02*
X0042595Y0031824D01*
X0042446Y0030627D02*
X0034715Y0030627D01*
X0034340Y0031226D02*
X0058704Y0031226D01*
X0058551Y0031824D02*
X0056405Y0031824D01*
X0056896Y0032423D02*
X0058551Y0032423D01*
X0058551Y0033021D02*
X0056896Y0033021D01*
X0056554Y0030627D02*
X0058551Y0030627D01*
X0058551Y0030029D02*
X0056896Y0030029D01*
X0056896Y0029430D02*
X0058551Y0029430D01*
X0058551Y0025839D02*
X0056896Y0025839D01*
X0056896Y0025240D02*
X0058551Y0025240D01*
X0058551Y0024642D02*
X0056723Y0024642D01*
X0056835Y0022846D02*
X0058551Y0022846D01*
X0058551Y0022248D02*
X0056896Y0022248D01*
X0058551Y0023445D02*
X0005800Y0023445D01*
X0005800Y0024043D02*
X0058551Y0024043D01*
X0058551Y0018058D02*
X0056896Y0018058D01*
X0056896Y0017460D02*
X0058551Y0017460D01*
X0058551Y0016861D02*
X0056442Y0016861D01*
X0056517Y0015664D02*
X0058551Y0015664D01*
X0058551Y0015066D02*
X0056896Y0015066D01*
X0056896Y0014467D02*
X0058551Y0014467D01*
X0058741Y0016263D02*
X0034228Y0016263D01*
X0034668Y0016861D02*
X0042558Y0016861D01*
X0042104Y0017460D02*
X0034916Y0017460D01*
X0033630Y0015664D02*
X0042483Y0015664D01*
X0042104Y0015066D02*
X0032426Y0015066D01*
X0032094Y0012672D02*
X0036533Y0012672D01*
X0037132Y0013270D02*
X0005800Y0013270D01*
X0005800Y0013869D02*
X0037707Y0013869D01*
X0038306Y0014467D02*
X0005800Y0014467D01*
X0005800Y0015066D02*
X0009357Y0015066D01*
X0008555Y0015664D02*
X0005800Y0015664D01*
X0005800Y0016263D02*
X0008028Y0016263D01*
X0007662Y0016861D02*
X0005800Y0016861D01*
X0005800Y0017460D02*
X0007414Y0017460D01*
X0007264Y0018058D02*
X0005800Y0018058D01*
X0005835Y0012672D02*
X0009627Y0012672D01*
X0008692Y0012073D02*
X0005882Y0012073D01*
X0005929Y0011475D02*
X0008128Y0011475D01*
X0007732Y0010876D02*
X0006121Y0010876D01*
X0006316Y0010278D02*
X0007459Y0010278D01*
X0007286Y0009679D02*
X0006510Y0009679D01*
X0010786Y0004293D02*
X0096639Y0004293D01*
X0097463Y0004891D02*
X0019300Y0004891D01*
X0020259Y0005490D02*
X0023051Y0005490D01*
X0022446Y0006088D02*
X0020845Y0006088D01*
X0021249Y0006687D02*
X0021904Y0006687D01*
X0021656Y0007285D02*
X0021529Y0007285D01*
X0021541Y0010278D02*
X0021641Y0010278D01*
X0021889Y0010876D02*
X0021268Y0010876D01*
X0020872Y0011475D02*
X0022409Y0011475D01*
X0023008Y0012073D02*
X0020308Y0012073D01*
X0019373Y0012672D02*
X0024406Y0012672D01*
X0024074Y0015066D02*
X0019643Y0015066D01*
X0020445Y0015664D02*
X0022870Y0015664D01*
X0022272Y0016263D02*
X0020972Y0016263D01*
X0021338Y0016861D02*
X0021832Y0016861D01*
X0021713Y0020452D02*
X0021484Y0020452D01*
X0021179Y0021051D02*
X0021985Y0021051D01*
X0022584Y0021649D02*
X0020732Y0021649D01*
X0020070Y0022248D02*
X0023383Y0022248D01*
X0023652Y0025240D02*
X0019916Y0025240D01*
X0020620Y0025839D02*
X0022696Y0025839D01*
X0022097Y0026437D02*
X0021099Y0026437D01*
X0021427Y0027036D02*
X0021759Y0027036D01*
X0021785Y0030627D02*
X0021395Y0030627D01*
X0021053Y0031226D02*
X0022160Y0031226D01*
X0022759Y0031824D02*
X0020557Y0031824D01*
X0019830Y0032423D02*
X0023805Y0032423D01*
X0023231Y0035415D02*
X0020157Y0035415D01*
X0020791Y0036014D02*
X0022521Y0036014D01*
X0021935Y0036612D02*
X0021211Y0036612D01*
X0021505Y0037211D02*
X0021687Y0037211D01*
X0021610Y0040203D02*
X0021565Y0040203D01*
X0021306Y0040802D02*
X0021858Y0040802D01*
X0022335Y0041400D02*
X0020926Y0041400D01*
X0020382Y0041999D02*
X0022933Y0041999D01*
X0024226Y0042597D02*
X0019519Y0042597D01*
X0019497Y0044991D02*
X0024254Y0044991D01*
X0022945Y0045590D02*
X0020371Y0045590D01*
X0020918Y0046188D02*
X0022346Y0046188D01*
X0021863Y0046787D02*
X0021300Y0046787D01*
X0021562Y0047385D02*
X0021615Y0047385D01*
X0021682Y0050378D02*
X0021509Y0050378D01*
X0021217Y0050976D02*
X0021930Y0050976D01*
X0022510Y0051575D02*
X0020799Y0051575D01*
X0020172Y0052173D02*
X0023203Y0052173D01*
X0024474Y0054900D02*
X0023041Y0055494D01*
X0021944Y0056591D01*
X0021585Y0057457D01*
X0021485Y0057149D01*
X0021178Y0056546D01*
X0020780Y0055999D01*
X0020301Y0055520D01*
X0019754Y0055122D01*
X0019151Y0054815D01*
X0018507Y0054606D01*
X0017838Y0054500D01*
X0014800Y0054500D01*
X0014800Y0058500D01*
X0014200Y0058500D01*
X0014200Y0054500D01*
X0011162Y0054500D01*
X0010493Y0054606D01*
X0009849Y0054815D01*
X0009246Y0055122D01*
X0008699Y0055520D01*
X0008220Y0055999D01*
X0007822Y0056546D01*
X0007515Y0057149D01*
X0007306Y0057793D01*
X0007200Y0058462D01*
X0007200Y0058500D01*
X0014200Y0058500D01*
X0014200Y0059100D01*
X0014200Y0063100D01*
X0011162Y0063100D01*
X0010493Y0062994D01*
X0009849Y0062785D01*
X0009246Y0062478D01*
X0008699Y0062080D01*
X0008220Y0061601D01*
X0007822Y0061054D01*
X0007515Y0060451D01*
X0007306Y0059807D01*
X0007200Y0059138D01*
X0007200Y0059100D01*
X0014200Y0059100D01*
X0014800Y0059100D01*
X0014800Y0063100D01*
X0017838Y0063100D01*
X0018507Y0062994D01*
X0019151Y0062785D01*
X0019754Y0062478D01*
X0020301Y0062080D01*
X0020780Y0061601D01*
X0021178Y0061054D01*
X0021485Y0060451D01*
X0021585Y0060143D01*
X0021944Y0061009D01*
X0023041Y0062106D01*
X0024474Y0062700D01*
X0032026Y0062700D01*
X0033459Y0062106D01*
X0034450Y0061115D01*
X0034450Y0065762D01*
X0034088Y0066123D01*
X0033459Y0065494D01*
X0032026Y0064900D01*
X0024474Y0064900D01*
X0023041Y0065494D01*
X0021944Y0066591D01*
X0021585Y0067457D01*
X0021485Y0067149D01*
X0021178Y0066546D01*
X0020780Y0065999D01*
X0020301Y0065520D01*
X0019754Y0065122D01*
X0019151Y0064815D01*
X0018507Y0064606D01*
X0017838Y0064500D01*
X0014800Y0064500D01*
X0014800Y0068500D01*
X0014200Y0068500D01*
X0014200Y0064500D01*
X0011162Y0064500D01*
X0010493Y0064606D01*
X0009849Y0064815D01*
X0009246Y0065122D01*
X0008699Y0065520D01*
X0008220Y0065999D01*
X0007822Y0066546D01*
X0007515Y0067149D01*
X0007306Y0067793D01*
X0007200Y0068462D01*
X0007200Y0068500D01*
X0014200Y0068500D01*
X0014200Y0069100D01*
X0014200Y0073100D01*
X0011162Y0073100D01*
X0010493Y0072994D01*
X0009849Y0072785D01*
X0009246Y0072478D01*
X0008699Y0072080D01*
X0008220Y0071601D01*
X0007822Y0071054D01*
X0007515Y0070451D01*
X0007306Y0069807D01*
X0007200Y0069138D01*
X0007200Y0069100D01*
X0014200Y0069100D01*
X0014800Y0069100D01*
X0014800Y0073100D01*
X0017838Y0073100D01*
X0018507Y0072994D01*
X0019151Y0072785D01*
X0019754Y0072478D01*
X0020301Y0072080D01*
X0020780Y0071601D01*
X0021178Y0071054D01*
X0021485Y0070451D01*
X0021585Y0070143D01*
X0021944Y0071009D01*
X0023041Y0072106D01*
X0024474Y0072700D01*
X0032026Y0072700D01*
X0033459Y0072106D01*
X0034556Y0071009D01*
X0035150Y0069576D01*
X0035150Y0068738D01*
X0036288Y0067600D01*
X0036950Y0066938D01*
X0036950Y0075762D01*
X0035212Y0077500D01*
X0034933Y0077500D01*
X0034556Y0076591D01*
X0033459Y0075494D01*
X0032026Y0074900D01*
X0024474Y0074900D01*
X0023041Y0075494D01*
X0021944Y0076591D01*
X0021585Y0077457D01*
X0021485Y0077149D01*
X0021178Y0076546D01*
X0020780Y0075999D01*
X0020301Y0075520D01*
X0019754Y0075122D01*
X0019151Y0074815D01*
X0018507Y0074606D01*
X0017838Y0074500D01*
X0014800Y0074500D01*
X0014800Y0078500D01*
X0014200Y0078500D01*
X0014200Y0074500D01*
X0011162Y0074500D01*
X0010493Y0074606D01*
X0009849Y0074815D01*
X0009246Y0075122D01*
X0008699Y0075520D01*
X0008220Y0075999D01*
X0007822Y0076546D01*
X0007515Y0077149D01*
X0007306Y0077793D01*
X0007200Y0078462D01*
X0007200Y0078500D01*
X0014200Y0078500D01*
X0014200Y0079100D01*
X0014200Y0083100D01*
X0011162Y0083100D01*
X0010493Y0082994D01*
X0009849Y0082785D01*
X0009246Y0082478D01*
X0008699Y0082080D01*
X0008220Y0081601D01*
X0007822Y0081054D01*
X0007515Y0080451D01*
X0007306Y0079807D01*
X0007200Y0079138D01*
X0007200Y0079100D01*
X0014200Y0079100D01*
X0014800Y0079100D01*
X0014800Y0083100D01*
X0017838Y0083100D01*
X0018507Y0082994D01*
X0019151Y0082785D01*
X0019754Y0082478D01*
X0020301Y0082080D01*
X0020780Y0081601D01*
X0021178Y0081054D01*
X0021485Y0080451D01*
X0021585Y0080143D01*
X0021944Y0081009D01*
X0023041Y0082106D01*
X0024474Y0082700D01*
X0032026Y0082700D01*
X0033459Y0082106D01*
X0034556Y0081009D01*
X0034933Y0080100D01*
X0036288Y0080100D01*
X0038788Y0077600D01*
X0039550Y0076838D01*
X0039550Y0067250D01*
X0040411Y0067250D01*
X0041311Y0066350D01*
X0042104Y0066350D01*
X0042104Y0067785D01*
X0042631Y0068312D01*
X0048101Y0068312D01*
X0048628Y0067785D01*
X0048628Y0062315D01*
X0048101Y0061788D01*
X0042631Y0061788D01*
X0042104Y0062315D01*
X0042104Y0063750D01*
X0041311Y0063750D01*
X0040411Y0062850D01*
X0038589Y0062850D01*
X0037300Y0064139D01*
X0037300Y0065412D01*
X0037050Y0065662D01*
X0037050Y0060588D01*
X0038239Y0059400D01*
X0038589Y0059750D01*
X0040411Y0059750D01*
X0041311Y0058850D01*
X0042104Y0058850D01*
X0042104Y0060285D01*
X0042631Y0060812D01*
X0048101Y0060812D01*
X0048628Y0060285D01*
X0048628Y0054815D01*
X0048101Y0054288D01*
X0042631Y0054288D01*
X0042104Y0054815D01*
X0042104Y0056250D01*
X0041311Y0056250D01*
X0040411Y0055350D01*
X0038589Y0055350D01*
X0037300Y0056639D01*
X0037300Y0056662D01*
X0036950Y0057012D01*
X0035212Y0058750D01*
X0035150Y0058812D01*
X0035150Y0058738D01*
X0036288Y0057600D01*
X0036288Y0057600D01*
X0037050Y0056838D01*
X0037050Y0053088D01*
X0038239Y0051900D01*
X0038589Y0052250D01*
X0040411Y0052250D01*
X0041311Y0051350D01*
X0042104Y0051350D01*
X0042104Y0052785D01*
X0042631Y0053312D01*
X0048101Y0053312D01*
X0048628Y0052785D01*
X0048628Y0047315D01*
X0048101Y0046788D01*
X0042631Y0046788D01*
X0042104Y0047315D01*
X0042104Y0048750D01*
X0041311Y0048750D01*
X0040411Y0047850D01*
X0038589Y0047850D01*
X0037300Y0049139D01*
X0037300Y0049162D01*
X0036950Y0049512D01*
X0034450Y0052012D01*
X0034450Y0055762D01*
X0034088Y0056123D01*
X0033459Y0055494D01*
X0032026Y0054900D01*
X0024474Y0054900D01*
X0023832Y0055166D02*
X0019814Y0055166D01*
X0020546Y0055765D02*
X0022770Y0055765D01*
X0022172Y0056363D02*
X0021045Y0056363D01*
X0021389Y0056962D02*
X0021790Y0056962D01*
X0021755Y0060553D02*
X0021433Y0060553D01*
X0021107Y0061151D02*
X0022086Y0061151D01*
X0022684Y0061750D02*
X0020631Y0061750D01*
X0019932Y0062348D02*
X0023625Y0062348D01*
X0023410Y0065341D02*
X0020054Y0065341D01*
X0020720Y0065939D02*
X0022595Y0065939D01*
X0021997Y0066538D02*
X0021171Y0066538D01*
X0021478Y0067136D02*
X0021718Y0067136D01*
X0018926Y0064742D02*
X0034450Y0064742D01*
X0034450Y0064144D02*
X0005800Y0064144D01*
X0005800Y0064742D02*
X0010074Y0064742D01*
X0008946Y0065341D02*
X0005800Y0065341D01*
X0005800Y0065939D02*
X0008280Y0065939D01*
X0007829Y0066538D02*
X0005800Y0066538D01*
X0005800Y0067136D02*
X0007522Y0067136D01*
X0007325Y0067735D02*
X0005800Y0067735D01*
X0005800Y0068333D02*
X0007220Y0068333D01*
X0007262Y0069530D02*
X0005800Y0069530D01*
X0005800Y0068932D02*
X0014200Y0068932D01*
X0014200Y0069530D02*
X0014800Y0069530D01*
X0014800Y0070129D02*
X0014200Y0070129D01*
X0014200Y0070727D02*
X0014800Y0070727D01*
X0014800Y0071326D02*
X0014200Y0071326D01*
X0014200Y0071924D02*
X0014800Y0071924D01*
X0014800Y0072523D02*
X0014200Y0072523D01*
X0014200Y0074917D02*
X0014800Y0074917D01*
X0014800Y0075515D02*
X0014200Y0075515D01*
X0014200Y0076114D02*
X0014800Y0076114D01*
X0014800Y0076712D02*
X0014200Y0076712D01*
X0014200Y0077311D02*
X0014800Y0077311D01*
X0014800Y0077909D02*
X0014200Y0077909D01*
X0014200Y0078508D02*
X0005800Y0078508D01*
X0005800Y0079106D02*
X0007200Y0079106D01*
X0007290Y0079705D02*
X0005800Y0079705D01*
X0005800Y0080303D02*
X0007467Y0080303D01*
X0007745Y0080902D02*
X0005800Y0080902D01*
X0005800Y0081501D02*
X0008147Y0081501D01*
X0008725Y0082099D02*
X0005800Y0082099D01*
X0005800Y0082698D02*
X0009678Y0082698D01*
X0005800Y0083296D02*
X0050239Y0083296D01*
X0049944Y0083591D02*
X0051041Y0082494D01*
X0052474Y0081900D01*
X0054026Y0081900D01*
X0055459Y0082494D01*
X0056556Y0083591D01*
X0057150Y0085024D01*
X0057150Y0092576D01*
X0056556Y0094009D01*
X0055459Y0095106D01*
X0054026Y0095700D01*
X0052474Y0095700D01*
X0051041Y0095106D01*
X0049944Y0094009D01*
X0049350Y0092576D01*
X0049350Y0085024D01*
X0049944Y0083591D01*
X0049818Y0083895D02*
X0005800Y0083895D01*
X0005800Y0084493D02*
X0049570Y0084493D01*
X0049350Y0085092D02*
X0005800Y0085092D01*
X0005800Y0085690D02*
X0049350Y0085690D01*
X0049350Y0086289D02*
X0005800Y0086289D01*
X0005800Y0086887D02*
X0049350Y0086887D01*
X0049350Y0087486D02*
X0005800Y0087486D01*
X0005813Y0088084D02*
X0049350Y0088084D01*
X0049350Y0088683D02*
X0005860Y0088683D01*
X0005908Y0089281D02*
X0049350Y0089281D01*
X0049350Y0089880D02*
X0006034Y0089880D01*
X0006228Y0090478D02*
X0049350Y0090478D01*
X0049350Y0091077D02*
X0006423Y0091077D01*
X0006617Y0091675D02*
X0049350Y0091675D01*
X0049350Y0092274D02*
X0006812Y0092274D01*
X0007081Y0092872D02*
X0049473Y0092872D01*
X0049721Y0093471D02*
X0007516Y0093471D01*
X0007951Y0094069D02*
X0050004Y0094069D01*
X0050602Y0094668D02*
X0008385Y0094668D01*
X0008820Y0095266D02*
X0051427Y0095266D01*
X0055073Y0095266D02*
X0061427Y0095266D01*
X0061041Y0095106D02*
X0059944Y0094009D01*
X0059350Y0092576D01*
X0059350Y0085024D01*
X0059944Y0083591D01*
X0061041Y0082494D01*
X0061550Y0082283D01*
X0061550Y0080350D01*
X0060308Y0080350D01*
X0059781Y0079822D01*
X0059781Y0072778D01*
X0060308Y0072250D01*
X0066172Y0072250D01*
X0066699Y0072778D01*
X0066699Y0079822D01*
X0066172Y0080350D01*
X0064950Y0080350D01*
X0064950Y0082283D01*
X0065459Y0082494D01*
X0066556Y0083591D01*
X0067150Y0085024D01*
X0067150Y0092576D01*
X0066556Y0094009D01*
X0065459Y0095106D01*
X0064026Y0095700D01*
X0062474Y0095700D01*
X0061041Y0095106D01*
X0060602Y0094668D02*
X0055898Y0094668D01*
X0056496Y0094069D02*
X0060004Y0094069D01*
X0059721Y0093471D02*
X0056779Y0093471D01*
X0057027Y0092872D02*
X0059473Y0092872D01*
X0059350Y0092274D02*
X0057150Y0092274D01*
X0057150Y0091675D02*
X0059350Y0091675D01*
X0059350Y0091077D02*
X0057150Y0091077D01*
X0057150Y0090478D02*
X0059350Y0090478D01*
X0059350Y0089880D02*
X0057150Y0089880D01*
X0057150Y0089281D02*
X0059350Y0089281D01*
X0059350Y0088683D02*
X0057150Y0088683D01*
X0057150Y0088084D02*
X0059350Y0088084D01*
X0059350Y0087486D02*
X0057150Y0087486D01*
X0057150Y0086887D02*
X0059350Y0086887D01*
X0059350Y0086289D02*
X0057150Y0086289D01*
X0057150Y0085690D02*
X0059350Y0085690D01*
X0059350Y0085092D02*
X0057150Y0085092D01*
X0056930Y0084493D02*
X0059570Y0084493D01*
X0059818Y0083895D02*
X0056682Y0083895D01*
X0056261Y0083296D02*
X0060239Y0083296D01*
X0060837Y0082698D02*
X0055663Y0082698D01*
X0054506Y0082099D02*
X0061550Y0082099D01*
X0061550Y0081501D02*
X0034065Y0081501D01*
X0034601Y0080902D02*
X0061550Y0080902D01*
X0060262Y0080303D02*
X0058738Y0080303D01*
X0059219Y0079705D02*
X0059781Y0079705D01*
X0059781Y0079106D02*
X0059219Y0079106D01*
X0059219Y0078508D02*
X0059781Y0078508D01*
X0059781Y0077909D02*
X0059219Y0077909D01*
X0059219Y0077311D02*
X0059781Y0077311D01*
X0059781Y0076712D02*
X0059219Y0076712D01*
X0059219Y0076114D02*
X0059781Y0076114D01*
X0059781Y0075515D02*
X0059219Y0075515D01*
X0059219Y0074917D02*
X0059781Y0074917D01*
X0059781Y0074318D02*
X0059219Y0074318D01*
X0059219Y0073720D02*
X0059781Y0073720D01*
X0059781Y0073121D02*
X0059219Y0073121D01*
X0058964Y0072523D02*
X0060036Y0072523D01*
X0058214Y0071924D02*
X0079450Y0071924D01*
X0079450Y0071326D02*
X0077563Y0071326D01*
X0078161Y0070727D02*
X0079450Y0070727D01*
X0079450Y0070129D02*
X0078760Y0070129D01*
X0076878Y0068333D02*
X0073349Y0068333D01*
X0073349Y0067735D02*
X0077300Y0067735D01*
X0077300Y0067136D02*
X0073349Y0067136D01*
X0073349Y0066538D02*
X0077401Y0066538D01*
X0077999Y0065939D02*
X0073349Y0065939D01*
X0073349Y0064742D02*
X0083413Y0064742D01*
X0083413Y0064144D02*
X0073349Y0064144D01*
X0073349Y0063545D02*
X0083413Y0063545D01*
X0083413Y0062947D02*
X0073349Y0062947D01*
X0073349Y0062348D02*
X0083413Y0062348D01*
X0083413Y0061750D02*
X0073349Y0061750D01*
X0073274Y0061151D02*
X0083413Y0061151D01*
X0083413Y0060553D02*
X0073349Y0060553D01*
X0073349Y0059954D02*
X0083413Y0059954D01*
X0083413Y0059356D02*
X0073349Y0059356D01*
X0073349Y0058757D02*
X0083413Y0058757D01*
X0083544Y0058159D02*
X0073349Y0058159D01*
X0073349Y0056962D02*
X0094050Y0056962D01*
X0094050Y0057560D02*
X0069790Y0057560D01*
X0069790Y0056962D02*
X0069190Y0056962D01*
X0069190Y0057560D02*
X0065469Y0057560D01*
X0065469Y0056962D02*
X0065631Y0056962D01*
X0065631Y0056363D02*
X0065469Y0056363D01*
X0065469Y0055765D02*
X0065631Y0055765D01*
X0065631Y0055166D02*
X0065469Y0055166D01*
X0065469Y0054568D02*
X0065631Y0054568D01*
X0065701Y0053969D02*
X0065410Y0053969D01*
X0065469Y0053370D02*
X0065631Y0053370D01*
X0065631Y0052772D02*
X0065469Y0052772D01*
X0065469Y0052173D02*
X0065631Y0052173D01*
X0065631Y0051575D02*
X0065469Y0051575D01*
X0065469Y0050976D02*
X0065631Y0050976D01*
X0065631Y0050378D02*
X0065469Y0050378D01*
X0065469Y0049779D02*
X0069190Y0049779D01*
X0069190Y0049181D02*
X0069790Y0049181D01*
X0069790Y0049779D02*
X0083413Y0049779D01*
X0083413Y0049181D02*
X0073349Y0049181D01*
X0073349Y0048582D02*
X0083413Y0048582D01*
X0083413Y0047984D02*
X0073349Y0047984D01*
X0073349Y0047385D02*
X0083413Y0047385D01*
X0083413Y0047266D02*
X0083940Y0046739D01*
X0092560Y0046739D01*
X0093087Y0047266D01*
X0093087Y0054311D01*
X0092560Y0054838D01*
X0083940Y0054838D01*
X0083413Y0054311D01*
X0083413Y0047266D01*
X0083892Y0046787D02*
X0073349Y0046787D01*
X0073264Y0046188D02*
X0094050Y0046188D01*
X0094050Y0045590D02*
X0092831Y0045590D01*
X0093087Y0044991D02*
X0094050Y0044991D01*
X0093939Y0044393D02*
X0093087Y0044393D01*
X0093087Y0043794D02*
X0093340Y0043794D01*
X0094050Y0046787D02*
X0092608Y0046787D01*
X0093087Y0047385D02*
X0094050Y0047385D01*
X0094050Y0047984D02*
X0093087Y0047984D01*
X0093087Y0048582D02*
X0094050Y0048582D01*
X0094050Y0049181D02*
X0093087Y0049181D01*
X0093087Y0049779D02*
X0094050Y0049779D01*
X0094050Y0050378D02*
X0093087Y0050378D01*
X0093087Y0050976D02*
X0094050Y0050976D01*
X0094050Y0051575D02*
X0093087Y0051575D01*
X0093087Y0052173D02*
X0094050Y0052173D01*
X0094050Y0052772D02*
X0093087Y0052772D01*
X0093087Y0053370D02*
X0094050Y0053370D01*
X0094050Y0053969D02*
X0093087Y0053969D01*
X0092830Y0054568D02*
X0094050Y0054568D01*
X0094050Y0055166D02*
X0073349Y0055166D01*
X0073349Y0054568D02*
X0083670Y0054568D01*
X0083413Y0053969D02*
X0073279Y0053969D01*
X0073349Y0053370D02*
X0083413Y0053370D01*
X0083413Y0052772D02*
X0073349Y0052772D01*
X0073349Y0052173D02*
X0083413Y0052173D01*
X0083413Y0051575D02*
X0073349Y0051575D01*
X0073349Y0050976D02*
X0083413Y0050976D01*
X0083413Y0050378D02*
X0073349Y0050378D01*
X0069790Y0050378D02*
X0069190Y0050378D01*
X0069190Y0050976D02*
X0069790Y0050976D01*
X0069790Y0051575D02*
X0069190Y0051575D01*
X0069190Y0052173D02*
X0069790Y0052173D01*
X0069790Y0052772D02*
X0069190Y0052772D01*
X0069190Y0053370D02*
X0069790Y0053370D01*
X0069790Y0053969D02*
X0069190Y0053969D01*
X0069190Y0054568D02*
X0069790Y0054568D01*
X0069790Y0055166D02*
X0069190Y0055166D01*
X0069190Y0055765D02*
X0069790Y0055765D01*
X0069790Y0056363D02*
X0069190Y0056363D01*
X0069190Y0058159D02*
X0069790Y0058159D01*
X0069790Y0058757D02*
X0069190Y0058757D01*
X0069190Y0059356D02*
X0069790Y0059356D01*
X0069790Y0059954D02*
X0069190Y0059954D01*
X0069190Y0060553D02*
X0069790Y0060553D01*
X0069790Y0061151D02*
X0069190Y0061151D01*
X0069190Y0061750D02*
X0069790Y0061750D01*
X0069790Y0062348D02*
X0069190Y0062348D01*
X0069190Y0062947D02*
X0069790Y0062947D01*
X0069790Y0063545D02*
X0069190Y0063545D01*
X0069190Y0064144D02*
X0069790Y0064144D01*
X0069790Y0064742D02*
X0069190Y0064742D01*
X0069190Y0065341D02*
X0065469Y0065341D01*
X0065469Y0065939D02*
X0065631Y0065939D01*
X0065631Y0066538D02*
X0065469Y0066538D01*
X0065469Y0067136D02*
X0065631Y0067136D01*
X0065631Y0067735D02*
X0065469Y0067735D01*
X0065469Y0068333D02*
X0065631Y0068333D01*
X0065631Y0064742D02*
X0065469Y0064742D01*
X0065469Y0064144D02*
X0065631Y0064144D01*
X0065631Y0063545D02*
X0065469Y0063545D01*
X0065469Y0062947D02*
X0065631Y0062947D01*
X0065631Y0062348D02*
X0065469Y0062348D01*
X0065469Y0061750D02*
X0065631Y0061750D01*
X0065706Y0061151D02*
X0065390Y0061151D01*
X0065469Y0060553D02*
X0065631Y0060553D01*
X0065631Y0059954D02*
X0065469Y0059954D01*
X0065469Y0059356D02*
X0065631Y0059356D01*
X0065631Y0058757D02*
X0065469Y0058757D01*
X0065469Y0058159D02*
X0065631Y0058159D01*
X0058551Y0059356D02*
X0056896Y0059356D01*
X0056896Y0059954D02*
X0058551Y0059954D01*
X0058551Y0060553D02*
X0056628Y0060553D01*
X0056896Y0062348D02*
X0058551Y0062348D01*
X0058551Y0061750D02*
X0037050Y0061750D01*
X0037050Y0062348D02*
X0042104Y0062348D01*
X0042104Y0062947D02*
X0040508Y0062947D01*
X0041106Y0063545D02*
X0042104Y0063545D01*
X0042104Y0066538D02*
X0041124Y0066538D01*
X0040525Y0067136D02*
X0042104Y0067136D01*
X0042104Y0067735D02*
X0039550Y0067735D01*
X0039550Y0068333D02*
X0058551Y0068333D01*
X0058551Y0067735D02*
X0056896Y0067735D01*
X0056896Y0067136D02*
X0058551Y0067136D01*
X0057530Y0068932D02*
X0039550Y0068932D01*
X0039550Y0069530D02*
X0056931Y0069530D01*
X0056333Y0070129D02*
X0039550Y0070129D01*
X0039550Y0070727D02*
X0055734Y0070727D01*
X0055136Y0071326D02*
X0039550Y0071326D01*
X0039550Y0071924D02*
X0054537Y0071924D01*
X0052556Y0072523D02*
X0039550Y0072523D01*
X0039550Y0073121D02*
X0052301Y0073121D01*
X0052301Y0073720D02*
X0039550Y0073720D01*
X0039550Y0074318D02*
X0052301Y0074318D01*
X0052301Y0074917D02*
X0039550Y0074917D01*
X0039550Y0075515D02*
X0052301Y0075515D01*
X0052301Y0076114D02*
X0039550Y0076114D01*
X0039550Y0076712D02*
X0052301Y0076712D01*
X0052301Y0077311D02*
X0039078Y0077311D01*
X0038479Y0077909D02*
X0052301Y0077909D01*
X0052301Y0078508D02*
X0037880Y0078508D01*
X0037282Y0079106D02*
X0052301Y0079106D01*
X0052301Y0079705D02*
X0036683Y0079705D01*
X0034849Y0080303D02*
X0052782Y0080303D01*
X0051994Y0082099D02*
X0033466Y0082099D01*
X0032032Y0082698D02*
X0050837Y0082698D01*
X0036950Y0075515D02*
X0033481Y0075515D01*
X0034079Y0076114D02*
X0036598Y0076114D01*
X0035999Y0076712D02*
X0034607Y0076712D01*
X0034855Y0077311D02*
X0035401Y0077311D01*
X0036950Y0074917D02*
X0032067Y0074917D01*
X0032453Y0072523D02*
X0036950Y0072523D01*
X0036950Y0073121D02*
X0005800Y0073121D01*
X0005800Y0072523D02*
X0009335Y0072523D01*
X0008543Y0071924D02*
X0005800Y0071924D01*
X0005800Y0071326D02*
X0008020Y0071326D01*
X0007656Y0070727D02*
X0005800Y0070727D01*
X0005800Y0070129D02*
X0007410Y0070129D01*
X0005800Y0073720D02*
X0036950Y0073720D01*
X0036950Y0074318D02*
X0005800Y0074318D01*
X0005800Y0074917D02*
X0009649Y0074917D01*
X0008705Y0075515D02*
X0005800Y0075515D01*
X0005800Y0076114D02*
X0008136Y0076114D01*
X0007738Y0076712D02*
X0005800Y0076712D01*
X0005800Y0077311D02*
X0007463Y0077311D01*
X0007287Y0077909D02*
X0005800Y0077909D01*
X0014200Y0079106D02*
X0014800Y0079106D01*
X0014800Y0079705D02*
X0014200Y0079705D01*
X0014200Y0080303D02*
X0014800Y0080303D01*
X0014800Y0080902D02*
X0014200Y0080902D01*
X0014200Y0081501D02*
X0014800Y0081501D01*
X0014800Y0082099D02*
X0014200Y0082099D01*
X0014200Y0082698D02*
X0014800Y0082698D01*
X0019322Y0082698D02*
X0024468Y0082698D01*
X0023034Y0082099D02*
X0020275Y0082099D01*
X0020853Y0081501D02*
X0022435Y0081501D01*
X0021899Y0080902D02*
X0021255Y0080902D01*
X0021533Y0080303D02*
X0021651Y0080303D01*
X0021645Y0077311D02*
X0021537Y0077311D01*
X0021262Y0076712D02*
X0021893Y0076712D01*
X0022421Y0076114D02*
X0020864Y0076114D01*
X0020295Y0075515D02*
X0023019Y0075515D01*
X0024433Y0074917D02*
X0019351Y0074917D01*
X0019665Y0072523D02*
X0024047Y0072523D01*
X0022859Y0071924D02*
X0020457Y0071924D01*
X0020980Y0071326D02*
X0022260Y0071326D01*
X0021827Y0070727D02*
X0021344Y0070727D01*
X0014800Y0068333D02*
X0014200Y0068333D01*
X0014200Y0067735D02*
X0014800Y0067735D01*
X0014800Y0067136D02*
X0014200Y0067136D01*
X0014200Y0066538D02*
X0014800Y0066538D01*
X0014800Y0065939D02*
X0014200Y0065939D01*
X0014200Y0065341D02*
X0014800Y0065341D01*
X0014800Y0064742D02*
X0014200Y0064742D01*
X0014200Y0062947D02*
X0014800Y0062947D01*
X0014800Y0062348D02*
X0014200Y0062348D01*
X0014200Y0061750D02*
X0014800Y0061750D01*
X0014800Y0061151D02*
X0014200Y0061151D01*
X0014200Y0060553D02*
X0014800Y0060553D01*
X0014800Y0059954D02*
X0014200Y0059954D01*
X0014200Y0059356D02*
X0014800Y0059356D01*
X0014200Y0058757D02*
X0005800Y0058757D01*
X0005800Y0058159D02*
X0007248Y0058159D01*
X0007382Y0057560D02*
X0005800Y0057560D01*
X0005800Y0056962D02*
X0007611Y0056962D01*
X0007955Y0056363D02*
X0005800Y0056363D01*
X0005800Y0055765D02*
X0008454Y0055765D01*
X0009186Y0055166D02*
X0005800Y0055166D01*
X0005800Y0054568D02*
X0010735Y0054568D01*
X0009824Y0052772D02*
X0005800Y0052772D01*
X0005800Y0053370D02*
X0034450Y0053370D01*
X0034450Y0052772D02*
X0019176Y0052772D01*
X0018265Y0054568D02*
X0034450Y0054568D01*
X0034450Y0055166D02*
X0032668Y0055166D01*
X0033730Y0055765D02*
X0034447Y0055765D01*
X0034450Y0053969D02*
X0005800Y0053969D01*
X0005800Y0052173D02*
X0008828Y0052173D01*
X0008201Y0051575D02*
X0005800Y0051575D01*
X0005800Y0050976D02*
X0007783Y0050976D01*
X0007491Y0050378D02*
X0005800Y0050378D01*
X0005800Y0049779D02*
X0007302Y0049779D01*
X0007207Y0049181D02*
X0005800Y0049181D01*
X0005800Y0048582D02*
X0014200Y0048582D01*
X0014200Y0048500D02*
X0007200Y0048500D01*
X0007200Y0048462D01*
X0007306Y0047793D01*
X0007515Y0047149D01*
X0007822Y0046546D01*
X0008220Y0045999D01*
X0008699Y0045520D01*
X0009246Y0045122D01*
X0009849Y0044815D01*
X0010493Y0044606D01*
X0011162Y0044500D01*
X0014200Y0044500D01*
X0014200Y0048500D01*
X0014200Y0047984D02*
X0014800Y0047984D01*
X0014800Y0047385D02*
X0014200Y0047385D01*
X0014200Y0046787D02*
X0014800Y0046787D01*
X0014800Y0046188D02*
X0014200Y0046188D01*
X0014200Y0045590D02*
X0014800Y0045590D01*
X0014800Y0044991D02*
X0014200Y0044991D01*
X0014200Y0042597D02*
X0014800Y0042597D01*
X0014800Y0041999D02*
X0014200Y0041999D01*
X0014200Y0041400D02*
X0014800Y0041400D01*
X0014800Y0040802D02*
X0014200Y0040802D01*
X0014200Y0040203D02*
X0014800Y0040203D01*
X0014800Y0039605D02*
X0014200Y0039605D01*
X0019154Y0034817D02*
X0036645Y0034817D01*
X0036046Y0035415D02*
X0033269Y0035415D01*
X0033979Y0036014D02*
X0035448Y0036014D01*
X0034849Y0036612D02*
X0034565Y0036612D01*
X0035534Y0039605D02*
X0042314Y0039605D01*
X0042104Y0040203D02*
X0034890Y0040203D01*
X0037928Y0037211D02*
X0038549Y0037211D01*
X0040863Y0040802D02*
X0042104Y0040802D01*
X0042104Y0044393D02*
X0040768Y0044393D01*
X0042104Y0044991D02*
X0038897Y0044991D01*
X0038299Y0045590D02*
X0042409Y0045590D01*
X0042104Y0047385D02*
X0036503Y0047385D01*
X0037102Y0046787D02*
X0058551Y0046787D01*
X0058551Y0047385D02*
X0056896Y0047385D01*
X0056896Y0047984D02*
X0058551Y0047984D01*
X0058667Y0046188D02*
X0037700Y0046188D01*
X0038455Y0047984D02*
X0035905Y0047984D01*
X0035306Y0048582D02*
X0037856Y0048582D01*
X0037281Y0049181D02*
X0035150Y0049181D01*
X0035066Y0049779D02*
X0036682Y0049779D01*
X0036084Y0050378D02*
X0034818Y0050378D01*
X0034570Y0050976D02*
X0035485Y0050976D01*
X0034887Y0051575D02*
X0033990Y0051575D01*
X0034450Y0052173D02*
X0033297Y0052173D01*
X0037050Y0053370D02*
X0058551Y0053370D01*
X0058551Y0052772D02*
X0056896Y0052772D01*
X0056896Y0052173D02*
X0058551Y0052173D01*
X0058609Y0053969D02*
X0037050Y0053969D01*
X0037050Y0054568D02*
X0042351Y0054568D01*
X0042104Y0055166D02*
X0037050Y0055166D01*
X0037050Y0055765D02*
X0038174Y0055765D01*
X0037576Y0056363D02*
X0037050Y0056363D01*
X0037000Y0056962D02*
X0036927Y0056962D01*
X0036401Y0057560D02*
X0036328Y0057560D01*
X0035803Y0058159D02*
X0035730Y0058159D01*
X0035204Y0058757D02*
X0035150Y0058757D01*
X0037086Y0060553D02*
X0042372Y0060553D01*
X0042104Y0059954D02*
X0037684Y0059954D01*
X0037050Y0061151D02*
X0058630Y0061151D01*
X0058551Y0062947D02*
X0056896Y0062947D01*
X0050372Y0062947D02*
X0048628Y0062947D01*
X0048628Y0063545D02*
X0050372Y0063545D01*
X0050372Y0064144D02*
X0048628Y0064144D01*
X0048628Y0064742D02*
X0050372Y0064742D01*
X0050372Y0065341D02*
X0048628Y0065341D01*
X0048628Y0065939D02*
X0050372Y0065939D01*
X0050372Y0066538D02*
X0048628Y0066538D01*
X0048628Y0067136D02*
X0050372Y0067136D01*
X0050372Y0067735D02*
X0048628Y0067735D01*
X0048628Y0062348D02*
X0050372Y0062348D01*
X0050639Y0060553D02*
X0048361Y0060553D01*
X0048628Y0059954D02*
X0050372Y0059954D01*
X0050372Y0059356D02*
X0048628Y0059356D01*
X0048628Y0058757D02*
X0050372Y0058757D01*
X0050372Y0058159D02*
X0048628Y0058159D01*
X0048628Y0057560D02*
X0050372Y0057560D01*
X0050372Y0056962D02*
X0048628Y0056962D01*
X0048628Y0056363D02*
X0050372Y0056363D01*
X0050372Y0055765D02*
X0048628Y0055765D01*
X0048628Y0055166D02*
X0050372Y0055166D01*
X0050619Y0054568D02*
X0048381Y0054568D01*
X0048628Y0052772D02*
X0050372Y0052772D01*
X0050372Y0052173D02*
X0048628Y0052173D01*
X0048628Y0051575D02*
X0050372Y0051575D01*
X0050372Y0050976D02*
X0048628Y0050976D01*
X0048628Y0050378D02*
X0050372Y0050378D01*
X0050372Y0049779D02*
X0048628Y0049779D01*
X0048628Y0049181D02*
X0050372Y0049181D01*
X0050372Y0048582D02*
X0048628Y0048582D01*
X0048628Y0047984D02*
X0050372Y0047984D01*
X0050372Y0047385D02*
X0048628Y0047385D01*
X0048323Y0045590D02*
X0050677Y0045590D01*
X0050372Y0044991D02*
X0048628Y0044991D01*
X0048628Y0044393D02*
X0050372Y0044393D01*
X0050372Y0043794D02*
X0048628Y0043794D01*
X0048628Y0043196D02*
X0050372Y0043196D01*
X0050372Y0042597D02*
X0048628Y0042597D01*
X0048628Y0041999D02*
X0050372Y0041999D01*
X0050372Y0041400D02*
X0048628Y0041400D01*
X0048628Y0040802D02*
X0050372Y0040802D01*
X0050372Y0040203D02*
X0048628Y0040203D01*
X0048418Y0039605D02*
X0050582Y0039605D01*
X0050396Y0037809D02*
X0048604Y0037809D01*
X0048628Y0037211D02*
X0050372Y0037211D01*
X0050372Y0036612D02*
X0048628Y0036612D01*
X0048628Y0036014D02*
X0050372Y0036014D01*
X0050372Y0035415D02*
X0048628Y0035415D01*
X0048628Y0034817D02*
X0050372Y0034817D01*
X0050372Y0034218D02*
X0048628Y0034218D01*
X0048628Y0033620D02*
X0050372Y0033620D01*
X0050372Y0033021D02*
X0048628Y0033021D01*
X0048628Y0032423D02*
X0050372Y0032423D01*
X0050863Y0031824D02*
X0048137Y0031824D01*
X0048286Y0030627D02*
X0050714Y0030627D01*
X0050372Y0030029D02*
X0048628Y0030029D01*
X0048628Y0029430D02*
X0050372Y0029430D01*
X0050372Y0028832D02*
X0048628Y0028832D01*
X0048628Y0028233D02*
X0050372Y0028233D01*
X0050372Y0027634D02*
X0048628Y0027634D01*
X0048628Y0027036D02*
X0050372Y0027036D01*
X0050372Y0026437D02*
X0048628Y0026437D01*
X0048628Y0025839D02*
X0050372Y0025839D01*
X0050372Y0025240D02*
X0048628Y0025240D01*
X0048455Y0024642D02*
X0050545Y0024642D01*
X0050433Y0022846D02*
X0048567Y0022846D01*
X0048628Y0022248D02*
X0050372Y0022248D01*
X0050372Y0021649D02*
X0048628Y0021649D01*
X0048628Y0021051D02*
X0050372Y0021051D01*
X0050372Y0020452D02*
X0048628Y0020452D01*
X0048628Y0019854D02*
X0050372Y0019854D01*
X0050372Y0019255D02*
X0048628Y0019255D01*
X0048628Y0018657D02*
X0050372Y0018657D01*
X0050372Y0018058D02*
X0048628Y0018058D01*
X0048628Y0017460D02*
X0050372Y0017460D01*
X0050825Y0016861D02*
X0048175Y0016861D01*
X0048249Y0015664D02*
X0050751Y0015664D01*
X0050372Y0015066D02*
X0048628Y0015066D01*
X0048628Y0014467D02*
X0050372Y0014467D01*
X0050372Y0013869D02*
X0048628Y0013869D01*
X0048628Y0013270D02*
X0050372Y0013270D01*
X0050372Y0012672D02*
X0048628Y0012672D01*
X0048628Y0012073D02*
X0050372Y0012073D01*
X0050372Y0011475D02*
X0048628Y0011475D01*
X0048628Y0010876D02*
X0050372Y0010876D01*
X0050372Y0010278D02*
X0048628Y0010278D01*
X0048492Y0009679D02*
X0050507Y0009679D01*
X0056760Y0009679D02*
X0058551Y0009679D01*
X0058551Y0009081D02*
X0036619Y0009081D01*
X0037218Y0009679D02*
X0042240Y0009679D01*
X0042104Y0010278D02*
X0037816Y0010278D01*
X0036021Y0008482D02*
X0066011Y0008482D01*
X0065671Y0009081D02*
X0065469Y0009081D01*
X0065469Y0009679D02*
X0065631Y0009679D01*
X0065631Y0010278D02*
X0065469Y0010278D01*
X0065469Y0010876D02*
X0065631Y0010876D01*
X0065631Y0011475D02*
X0065469Y0011475D01*
X0065469Y0012073D02*
X0065631Y0012073D01*
X0065469Y0012672D02*
X0069190Y0012672D01*
X0069190Y0013270D02*
X0069790Y0013270D01*
X0069790Y0012672D02*
X0083413Y0012672D01*
X0083413Y0013270D02*
X0073349Y0013270D01*
X0073349Y0013869D02*
X0083413Y0013869D01*
X0083413Y0014311D02*
X0083413Y0007266D01*
X0083940Y0006739D01*
X0092560Y0006739D01*
X0093087Y0007266D01*
X0093087Y0014311D01*
X0092560Y0014838D01*
X0083940Y0014838D01*
X0083413Y0014311D01*
X0083570Y0014467D02*
X0073349Y0014467D01*
X0073349Y0015066D02*
X0101625Y0015066D01*
X0101625Y0015664D02*
X0073349Y0015664D01*
X0073225Y0016263D02*
X0101625Y0016263D01*
X0101625Y0016861D02*
X0073349Y0016861D01*
X0073349Y0017460D02*
X0101625Y0017460D01*
X0101625Y0018058D02*
X0092856Y0018058D01*
X0093087Y0018657D02*
X0101625Y0018657D01*
X0101625Y0019255D02*
X0093087Y0019255D01*
X0093087Y0019854D02*
X0101625Y0019854D01*
X0101625Y0020452D02*
X0094807Y0020452D01*
X0095405Y0021051D02*
X0101625Y0021051D01*
X0101625Y0021649D02*
X0096004Y0021649D01*
X0096602Y0022248D02*
X0101625Y0022248D01*
X0101625Y0022846D02*
X0097201Y0022846D01*
X0097450Y0023445D02*
X0101625Y0023445D01*
X0101625Y0024043D02*
X0097450Y0024043D01*
X0097450Y0024642D02*
X0101625Y0024642D01*
X0101625Y0025240D02*
X0097450Y0025240D01*
X0097450Y0025839D02*
X0101625Y0025839D01*
X0101625Y0026437D02*
X0097450Y0026437D01*
X0097450Y0027036D02*
X0101625Y0027036D01*
X0101625Y0027634D02*
X0097450Y0027634D01*
X0097450Y0028233D02*
X0101625Y0028233D01*
X0101625Y0028832D02*
X0097450Y0028832D01*
X0097450Y0029430D02*
X0101625Y0029430D01*
X0101625Y0030029D02*
X0097450Y0030029D01*
X0097450Y0030627D02*
X0101625Y0030627D01*
X0101625Y0031226D02*
X0097450Y0031226D01*
X0097450Y0031824D02*
X0101625Y0031824D01*
X0101625Y0032423D02*
X0097450Y0032423D01*
X0097450Y0033021D02*
X0101625Y0033021D01*
X0101625Y0033620D02*
X0097450Y0033620D01*
X0097450Y0034218D02*
X0101625Y0034218D01*
X0101625Y0034817D02*
X0097450Y0034817D01*
X0097450Y0035415D02*
X0101625Y0035415D01*
X0101625Y0036014D02*
X0097450Y0036014D01*
X0097450Y0036612D02*
X0101625Y0036612D01*
X0101625Y0037211D02*
X0097450Y0037211D01*
X0097450Y0037809D02*
X0101625Y0037809D01*
X0101625Y0038408D02*
X0097450Y0038408D01*
X0097450Y0039006D02*
X0101625Y0039006D01*
X0101625Y0039605D02*
X0097450Y0039605D01*
X0097450Y0040203D02*
X0101625Y0040203D01*
X0101625Y0040802D02*
X0097176Y0040802D01*
X0096578Y0041400D02*
X0101625Y0041400D01*
X0101625Y0041999D02*
X0096353Y0041999D01*
X0096951Y0042597D02*
X0101625Y0042597D01*
X0101625Y0043196D02*
X0097450Y0043196D01*
X0097450Y0043794D02*
X0101625Y0043794D01*
X0101625Y0044393D02*
X0097450Y0044393D01*
X0097450Y0044991D02*
X0101625Y0044991D01*
X0101625Y0045590D02*
X0097450Y0045590D01*
X0097450Y0046188D02*
X0101625Y0046188D01*
X0101625Y0046787D02*
X0097450Y0046787D01*
X0097450Y0047385D02*
X0101625Y0047385D01*
X0101625Y0047984D02*
X0097450Y0047984D01*
X0097450Y0048582D02*
X0101625Y0048582D01*
X0101625Y0049181D02*
X0097450Y0049181D01*
X0097450Y0049779D02*
X0101625Y0049779D01*
X0101625Y0050378D02*
X0097450Y0050378D01*
X0097450Y0050976D02*
X0101625Y0050976D01*
X0101625Y0051575D02*
X0097450Y0051575D01*
X0097450Y0052173D02*
X0101625Y0052173D01*
X0101625Y0052772D02*
X0097450Y0052772D01*
X0097450Y0053370D02*
X0101625Y0053370D01*
X0101625Y0053969D02*
X0097450Y0053969D01*
X0097450Y0054568D02*
X0101625Y0054568D01*
X0101625Y0055166D02*
X0097450Y0055166D01*
X0097450Y0055765D02*
X0101625Y0055765D01*
X0101625Y0056363D02*
X0097450Y0056363D01*
X0097450Y0056962D02*
X0101625Y0056962D01*
X0101625Y0057560D02*
X0097450Y0057560D01*
X0097450Y0058159D02*
X0101625Y0058159D01*
X0101625Y0058757D02*
X0097450Y0058757D01*
X0097450Y0059356D02*
X0101625Y0059356D01*
X0101625Y0059954D02*
X0097450Y0059954D01*
X0097450Y0060553D02*
X0101625Y0060553D01*
X0101625Y0061151D02*
X0097053Y0061151D01*
X0096455Y0061750D02*
X0101625Y0061750D01*
X0101625Y0062348D02*
X0095856Y0062348D01*
X0095257Y0062947D02*
X0101625Y0062947D01*
X0101625Y0063545D02*
X0093087Y0063545D01*
X0093087Y0064144D02*
X0101625Y0064144D01*
X0101625Y0064742D02*
X0093087Y0064742D01*
X0093080Y0065341D02*
X0101625Y0065341D01*
X0101625Y0065939D02*
X0089950Y0065939D01*
X0089950Y0066538D02*
X0101625Y0066538D01*
X0101625Y0067136D02*
X0089950Y0067136D01*
X0089950Y0067735D02*
X0101625Y0067735D01*
X0101625Y0068333D02*
X0089950Y0068333D01*
X0089950Y0068932D02*
X0101625Y0068932D01*
X0101625Y0069530D02*
X0089950Y0069530D01*
X0089950Y0070129D02*
X0101625Y0070129D01*
X0101625Y0070727D02*
X0089950Y0070727D01*
X0089950Y0071326D02*
X0101625Y0071326D01*
X0101625Y0071924D02*
X0089950Y0071924D01*
X0089950Y0072523D02*
X0101625Y0072523D01*
X0101625Y0073121D02*
X0089950Y0073121D01*
X0089950Y0073720D02*
X0101625Y0073720D01*
X0101625Y0074318D02*
X0089950Y0074318D01*
X0089537Y0074917D02*
X0101625Y0074917D01*
X0101625Y0075515D02*
X0088939Y0075515D01*
X0088340Y0076114D02*
X0101625Y0076114D01*
X0101625Y0076712D02*
X0087742Y0076712D01*
X0087143Y0077311D02*
X0101625Y0077311D01*
X0101625Y0077909D02*
X0086545Y0077909D01*
X0084658Y0080303D02*
X0101625Y0080303D01*
X0101625Y0079705D02*
X0084199Y0079705D01*
X0084199Y0079106D02*
X0101625Y0079106D01*
X0101625Y0078508D02*
X0084199Y0078508D01*
X0084950Y0080902D02*
X0101625Y0080902D01*
X0101625Y0081501D02*
X0093592Y0081501D01*
X0093588Y0081500D02*
X0094257Y0081606D01*
X0094901Y0081815D01*
X0095504Y0082122D01*
X0096051Y0082520D01*
X0096530Y0082999D01*
X0096928Y0083546D01*
X0097235Y0084149D01*
X0097444Y0084793D01*
X0097550Y0085462D01*
X0097550Y0088500D01*
X0093550Y0088500D01*
X0093550Y0089100D01*
X0092950Y0089100D01*
X0092950Y0096100D01*
X0092912Y0096100D01*
X0092243Y0095994D01*
X0091599Y0095785D01*
X0090996Y0095478D01*
X0090449Y0095080D01*
X0089970Y0094601D01*
X0089572Y0094054D01*
X0089265Y0093451D01*
X0089056Y0092807D01*
X0088950Y0092138D01*
X0088950Y0089100D01*
X0092950Y0089100D01*
X0092950Y0088500D01*
X0088950Y0088500D01*
X0088950Y0085462D01*
X0089056Y0084793D01*
X0089265Y0084149D01*
X0089572Y0083546D01*
X0089970Y0082999D01*
X0090449Y0082520D01*
X0090996Y0082122D01*
X0091599Y0081815D01*
X0092243Y0081606D01*
X0092912Y0081500D01*
X0092950Y0081500D01*
X0092950Y0088500D01*
X0093550Y0088500D01*
X0093550Y0081500D01*
X0093588Y0081500D01*
X0093550Y0081501D02*
X0092950Y0081501D01*
X0092908Y0081501D02*
X0084950Y0081501D01*
X0084950Y0082099D02*
X0091042Y0082099D01*
X0090271Y0082698D02*
X0085663Y0082698D01*
X0086261Y0083296D02*
X0089754Y0083296D01*
X0089395Y0083895D02*
X0086682Y0083895D01*
X0086930Y0084493D02*
X0089153Y0084493D01*
X0089009Y0085092D02*
X0087150Y0085092D01*
X0087150Y0085690D02*
X0088950Y0085690D01*
X0088950Y0086289D02*
X0087150Y0086289D01*
X0087150Y0086887D02*
X0088950Y0086887D01*
X0088950Y0087486D02*
X0087150Y0087486D01*
X0087150Y0088084D02*
X0088950Y0088084D01*
X0088950Y0089281D02*
X0087150Y0089281D01*
X0087150Y0088683D02*
X0092950Y0088683D01*
X0092950Y0089281D02*
X0093550Y0089281D01*
X0093550Y0089100D02*
X0093550Y0096100D01*
X0093588Y0096100D01*
X0094257Y0095994D01*
X0094901Y0095785D01*
X0095504Y0095478D01*
X0096051Y0095080D01*
X0096530Y0094601D01*
X0096928Y0094054D01*
X0097235Y0093451D01*
X0097444Y0092807D01*
X0097550Y0092138D01*
X0097550Y0089100D01*
X0093550Y0089100D01*
X0093550Y0088683D02*
X0101565Y0088683D01*
X0101518Y0089281D02*
X0097550Y0089281D01*
X0097550Y0089880D02*
X0101391Y0089880D01*
X0101197Y0090478D02*
X0097550Y0090478D01*
X0097550Y0091077D02*
X0101002Y0091077D01*
X0100808Y0091675D02*
X0097550Y0091675D01*
X0097529Y0092274D02*
X0100614Y0092274D01*
X0100344Y0092872D02*
X0097423Y0092872D01*
X0097225Y0093471D02*
X0099909Y0093471D01*
X0099475Y0094069D02*
X0096916Y0094069D01*
X0096463Y0094668D02*
X0099040Y0094668D01*
X0098605Y0095266D02*
X0095795Y0095266D01*
X0094655Y0095865D02*
X0097833Y0095865D01*
X0097010Y0096463D02*
X0010416Y0096463D01*
X0011239Y0097062D02*
X0096186Y0097062D01*
X0094714Y0097660D02*
X0012711Y0097660D01*
X0014553Y0098259D02*
X0092872Y0098259D01*
X0092950Y0095865D02*
X0093550Y0095865D01*
X0093550Y0095266D02*
X0092950Y0095266D01*
X0092950Y0094668D02*
X0093550Y0094668D01*
X0093550Y0094069D02*
X0092950Y0094069D01*
X0092950Y0093471D02*
X0093550Y0093471D01*
X0093550Y0092872D02*
X0092950Y0092872D01*
X0092950Y0092274D02*
X0093550Y0092274D01*
X0093550Y0091675D02*
X0092950Y0091675D01*
X0092950Y0091077D02*
X0093550Y0091077D01*
X0093550Y0090478D02*
X0092950Y0090478D01*
X0092950Y0089880D02*
X0093550Y0089880D01*
X0093550Y0088084D02*
X0092950Y0088084D01*
X0092950Y0087486D02*
X0093550Y0087486D01*
X0093550Y0086887D02*
X0092950Y0086887D01*
X0092950Y0086289D02*
X0093550Y0086289D01*
X0093550Y0085690D02*
X0092950Y0085690D01*
X0092950Y0085092D02*
X0093550Y0085092D01*
X0093550Y0084493D02*
X0092950Y0084493D01*
X0092950Y0083895D02*
X0093550Y0083895D01*
X0093550Y0083296D02*
X0092950Y0083296D01*
X0092950Y0082698D02*
X0093550Y0082698D01*
X0093550Y0082099D02*
X0092950Y0082099D01*
X0095458Y0082099D02*
X0101625Y0082099D01*
X0101625Y0082698D02*
X0096229Y0082698D01*
X0096746Y0083296D02*
X0101625Y0083296D01*
X0101625Y0083895D02*
X0097105Y0083895D01*
X0097347Y0084493D02*
X0101625Y0084493D01*
X0101625Y0085092D02*
X0097491Y0085092D01*
X0097550Y0085690D02*
X0101625Y0085690D01*
X0101625Y0086289D02*
X0097550Y0086289D01*
X0097550Y0086887D02*
X0101625Y0086887D01*
X0101625Y0087486D02*
X0097550Y0087486D01*
X0097550Y0088084D02*
X0101612Y0088084D01*
X0091845Y0095865D02*
X0009592Y0095865D01*
X0033641Y0071924D02*
X0036950Y0071924D01*
X0036950Y0071326D02*
X0034240Y0071326D01*
X0034673Y0070727D02*
X0036950Y0070727D01*
X0036950Y0070129D02*
X0034921Y0070129D01*
X0035150Y0069530D02*
X0036950Y0069530D01*
X0036950Y0068932D02*
X0035150Y0068932D01*
X0035555Y0068333D02*
X0036950Y0068333D01*
X0036950Y0067735D02*
X0036154Y0067735D01*
X0036752Y0067136D02*
X0036950Y0067136D01*
X0037050Y0065341D02*
X0037300Y0065341D01*
X0037300Y0064742D02*
X0037050Y0064742D01*
X0037050Y0064144D02*
X0037300Y0064144D01*
X0037050Y0063545D02*
X0037894Y0063545D01*
X0038492Y0062947D02*
X0037050Y0062947D01*
X0034450Y0062947D02*
X0018653Y0062947D01*
X0014800Y0058159D02*
X0014200Y0058159D01*
X0014200Y0057560D02*
X0014800Y0057560D01*
X0014800Y0056962D02*
X0014200Y0056962D01*
X0014200Y0056363D02*
X0014800Y0056363D01*
X0014800Y0055765D02*
X0014200Y0055765D01*
X0014200Y0055166D02*
X0014800Y0055166D01*
X0014800Y0054568D02*
X0014200Y0054568D01*
X0014200Y0052772D02*
X0014800Y0052772D01*
X0014800Y0052173D02*
X0014200Y0052173D01*
X0014200Y0051575D02*
X0014800Y0051575D01*
X0014800Y0050976D02*
X0014200Y0050976D01*
X0014200Y0050378D02*
X0014800Y0050378D01*
X0014800Y0049779D02*
X0014200Y0049779D01*
X0014200Y0049181D02*
X0014800Y0049181D01*
X0009503Y0044991D02*
X0005800Y0044991D01*
X0005800Y0044393D02*
X0035819Y0044393D01*
X0036417Y0043794D02*
X0005800Y0043794D01*
X0005800Y0045590D02*
X0008629Y0045590D01*
X0008082Y0046188D02*
X0005800Y0046188D01*
X0005800Y0046787D02*
X0007700Y0046787D01*
X0007438Y0047385D02*
X0005800Y0047385D01*
X0005800Y0047984D02*
X0007276Y0047984D01*
X0007234Y0059356D02*
X0005800Y0059356D01*
X0005800Y0059954D02*
X0007354Y0059954D01*
X0007567Y0060553D02*
X0005800Y0060553D01*
X0005800Y0061151D02*
X0007893Y0061151D01*
X0008369Y0061750D02*
X0005800Y0061750D01*
X0005800Y0062348D02*
X0009068Y0062348D01*
X0010347Y0062947D02*
X0005800Y0062947D01*
X0005800Y0063545D02*
X0034450Y0063545D01*
X0034450Y0062348D02*
X0032875Y0062348D01*
X0033816Y0061750D02*
X0034450Y0061750D01*
X0034450Y0061151D02*
X0034414Y0061151D01*
X0034450Y0065341D02*
X0033090Y0065341D01*
X0033905Y0065939D02*
X0034272Y0065939D01*
X0040806Y0059356D02*
X0042104Y0059356D01*
X0042104Y0055765D02*
X0040826Y0055765D01*
X0042104Y0052772D02*
X0037366Y0052772D01*
X0037965Y0052173D02*
X0038512Y0052173D01*
X0040488Y0052173D02*
X0042104Y0052173D01*
X0042104Y0051575D02*
X0041086Y0051575D01*
X0041144Y0048582D02*
X0042104Y0048582D01*
X0042104Y0047984D02*
X0040545Y0047984D01*
X0035220Y0044991D02*
X0032246Y0044991D01*
X0033555Y0045590D02*
X0034622Y0045590D01*
X0038418Y0033021D02*
X0018336Y0033021D01*
X0014800Y0028233D02*
X0014200Y0028233D01*
X0014200Y0027634D02*
X0014800Y0027634D01*
X0014800Y0027036D02*
X0014200Y0027036D01*
X0014200Y0026437D02*
X0014800Y0026437D01*
X0014800Y0025839D02*
X0014200Y0025839D01*
X0014200Y0025240D02*
X0014800Y0025240D01*
X0014800Y0024642D02*
X0014200Y0024642D01*
X0014200Y0022846D02*
X0014800Y0022846D01*
X0014800Y0022248D02*
X0014200Y0022248D01*
X0014200Y0021649D02*
X0014800Y0021649D01*
X0014800Y0021051D02*
X0014200Y0021051D01*
X0014200Y0020452D02*
X0014800Y0020452D01*
X0014800Y0019854D02*
X0014200Y0019854D01*
X0014200Y0019255D02*
X0014800Y0019255D01*
X0018961Y0022846D02*
X0042165Y0022846D01*
X0042104Y0022248D02*
X0040413Y0022248D01*
X0041012Y0021649D02*
X0042104Y0021649D01*
X0042104Y0018657D02*
X0041218Y0018657D01*
X0040620Y0018058D02*
X0042104Y0018058D01*
X0042104Y0014467D02*
X0040694Y0014467D01*
X0041293Y0013869D02*
X0042104Y0013869D01*
X0042104Y0010876D02*
X0040937Y0010876D01*
X0035935Y0012073D02*
X0033492Y0012073D01*
X0034091Y0011475D02*
X0035336Y0011475D01*
X0034738Y0010876D02*
X0034611Y0010876D01*
X0035422Y0007884D02*
X0083413Y0007884D01*
X0083413Y0008482D02*
X0072969Y0008482D01*
X0073309Y0009081D02*
X0083413Y0009081D01*
X0083413Y0009679D02*
X0073349Y0009679D01*
X0073349Y0010278D02*
X0083413Y0010278D01*
X0083413Y0010876D02*
X0073349Y0010876D01*
X0073349Y0011475D02*
X0083413Y0011475D01*
X0083413Y0012073D02*
X0073349Y0012073D01*
X0069790Y0012073D02*
X0069190Y0012073D01*
X0069190Y0011475D02*
X0069790Y0011475D01*
X0069790Y0010876D02*
X0069190Y0010876D01*
X0069190Y0010278D02*
X0069790Y0010278D01*
X0069790Y0009679D02*
X0069190Y0009679D01*
X0069190Y0009081D02*
X0069790Y0009081D01*
X0069790Y0008482D02*
X0069190Y0008482D01*
X0065631Y0013270D02*
X0065469Y0013270D01*
X0065469Y0013869D02*
X0065631Y0013869D01*
X0065631Y0014467D02*
X0065469Y0014467D01*
X0065469Y0015066D02*
X0065631Y0015066D01*
X0065631Y0015664D02*
X0065469Y0015664D01*
X0065278Y0016263D02*
X0065755Y0016263D01*
X0065631Y0016861D02*
X0065469Y0016861D01*
X0065469Y0017460D02*
X0065631Y0017460D01*
X0065631Y0018058D02*
X0065469Y0018058D01*
X0065469Y0018657D02*
X0065631Y0018657D01*
X0065631Y0019255D02*
X0065469Y0019255D01*
X0065469Y0019854D02*
X0069190Y0019854D01*
X0069190Y0020452D02*
X0069790Y0020452D01*
X0069790Y0019854D02*
X0083413Y0019854D01*
X0083413Y0020452D02*
X0073349Y0020452D01*
X0073349Y0021051D02*
X0083413Y0021051D01*
X0083413Y0021649D02*
X0073349Y0021649D01*
X0073349Y0022248D02*
X0083413Y0022248D01*
X0083413Y0022846D02*
X0073349Y0022846D01*
X0073329Y0023445D02*
X0083413Y0023445D01*
X0083413Y0024043D02*
X0073299Y0024043D01*
X0073349Y0024642D02*
X0083413Y0024642D01*
X0083413Y0025240D02*
X0073349Y0025240D01*
X0073349Y0025839D02*
X0083918Y0025839D01*
X0083940Y0026739D02*
X0092560Y0026739D01*
X0093087Y0027266D01*
X0093087Y0034311D01*
X0092560Y0034838D01*
X0083940Y0034838D01*
X0083413Y0034311D01*
X0083413Y0027266D01*
X0083940Y0026739D01*
X0083643Y0027036D02*
X0073349Y0027036D01*
X0073349Y0026437D02*
X0094050Y0026437D01*
X0094050Y0025839D02*
X0092582Y0025839D01*
X0093087Y0025240D02*
X0094050Y0025240D01*
X0094050Y0024642D02*
X0093087Y0024642D01*
X0093087Y0024043D02*
X0093589Y0024043D01*
X0094050Y0027036D02*
X0092857Y0027036D01*
X0093087Y0027634D02*
X0094050Y0027634D01*
X0094050Y0028233D02*
X0093087Y0028233D01*
X0093087Y0028832D02*
X0094050Y0028832D01*
X0094050Y0029430D02*
X0093087Y0029430D01*
X0093087Y0030029D02*
X0094050Y0030029D01*
X0094050Y0030627D02*
X0093087Y0030627D01*
X0093087Y0031226D02*
X0094050Y0031226D01*
X0094050Y0031824D02*
X0093087Y0031824D01*
X0093087Y0032423D02*
X0094050Y0032423D01*
X0094050Y0033021D02*
X0093087Y0033021D01*
X0093087Y0033620D02*
X0094050Y0033620D01*
X0094050Y0034218D02*
X0093087Y0034218D01*
X0092581Y0034817D02*
X0094050Y0034817D01*
X0094050Y0035415D02*
X0073349Y0035415D01*
X0073349Y0036014D02*
X0094050Y0036014D01*
X0094050Y0036612D02*
X0073349Y0036612D01*
X0073349Y0037211D02*
X0094050Y0037211D01*
X0094050Y0037809D02*
X0092607Y0037809D01*
X0093087Y0038408D02*
X0094050Y0038408D01*
X0094050Y0039006D02*
X0093087Y0039006D01*
X0093087Y0039605D02*
X0093565Y0039605D01*
X0083893Y0037809D02*
X0073349Y0037809D01*
X0073339Y0038408D02*
X0083413Y0038408D01*
X0083413Y0039006D02*
X0073289Y0039006D01*
X0073349Y0039605D02*
X0080584Y0039605D01*
X0079985Y0040203D02*
X0073349Y0040203D01*
X0073349Y0040802D02*
X0079800Y0040802D01*
X0079800Y0041400D02*
X0073349Y0041400D01*
X0073349Y0041999D02*
X0079800Y0041999D01*
X0080186Y0042597D02*
X0069790Y0042597D01*
X0069790Y0041999D02*
X0069190Y0041999D01*
X0069190Y0042597D02*
X0065469Y0042597D01*
X0065469Y0041999D02*
X0065631Y0041999D01*
X0065631Y0041400D02*
X0065469Y0041400D01*
X0065469Y0040802D02*
X0065631Y0040802D01*
X0065631Y0040203D02*
X0065469Y0040203D01*
X0065469Y0039605D02*
X0065631Y0039605D01*
X0065691Y0039006D02*
X0065447Y0039006D01*
X0065469Y0038408D02*
X0065641Y0038408D01*
X0065631Y0037809D02*
X0065469Y0037809D01*
X0065469Y0037211D02*
X0065631Y0037211D01*
X0065631Y0036612D02*
X0065469Y0036612D01*
X0065469Y0036014D02*
X0065631Y0036014D01*
X0065631Y0035415D02*
X0065469Y0035415D01*
X0065469Y0034817D02*
X0069190Y0034817D01*
X0069190Y0035415D02*
X0069790Y0035415D01*
X0069790Y0034817D02*
X0083919Y0034817D01*
X0083413Y0034218D02*
X0073349Y0034218D01*
X0073349Y0033620D02*
X0083413Y0033620D01*
X0083413Y0033021D02*
X0073349Y0033021D01*
X0073349Y0032423D02*
X0083413Y0032423D01*
X0083413Y0031824D02*
X0073349Y0031824D01*
X0073247Y0031226D02*
X0083413Y0031226D01*
X0083413Y0030627D02*
X0073349Y0030627D01*
X0073349Y0030029D02*
X0083413Y0030029D01*
X0083413Y0029430D02*
X0073349Y0029430D01*
X0073349Y0028832D02*
X0083413Y0028832D01*
X0083413Y0028233D02*
X0073349Y0028233D01*
X0069790Y0028233D02*
X0069190Y0028233D01*
X0069190Y0027634D02*
X0065469Y0027634D01*
X0065469Y0027036D02*
X0065631Y0027036D01*
X0065631Y0026437D02*
X0065469Y0026437D01*
X0065469Y0025839D02*
X0065631Y0025839D01*
X0065631Y0025240D02*
X0065469Y0025240D01*
X0065469Y0024642D02*
X0065631Y0024642D01*
X0065681Y0024043D02*
X0065469Y0024043D01*
X0065469Y0023445D02*
X0065651Y0023445D01*
X0065631Y0022846D02*
X0065469Y0022846D01*
X0065469Y0022248D02*
X0065631Y0022248D01*
X0065631Y0021649D02*
X0065469Y0021649D01*
X0065469Y0021051D02*
X0065631Y0021051D01*
X0065631Y0020452D02*
X0065469Y0020452D01*
X0069190Y0021051D02*
X0069790Y0021051D01*
X0069790Y0021649D02*
X0069190Y0021649D01*
X0069190Y0022248D02*
X0069790Y0022248D01*
X0069790Y0022846D02*
X0069190Y0022846D01*
X0069190Y0023445D02*
X0069790Y0023445D01*
X0069790Y0024043D02*
X0069190Y0024043D01*
X0069190Y0024642D02*
X0069790Y0024642D01*
X0069790Y0025240D02*
X0069190Y0025240D01*
X0069190Y0025839D02*
X0069790Y0025839D01*
X0069790Y0026437D02*
X0069190Y0026437D01*
X0069190Y0027036D02*
X0069790Y0027036D01*
X0069790Y0027634D02*
X0083413Y0027634D01*
X0083413Y0019255D02*
X0073349Y0019255D01*
X0073349Y0018657D02*
X0083413Y0018657D01*
X0083644Y0018058D02*
X0073349Y0018058D01*
X0069790Y0018058D02*
X0069190Y0018058D01*
X0069190Y0017460D02*
X0069790Y0017460D01*
X0069790Y0016861D02*
X0069190Y0016861D01*
X0069190Y0016263D02*
X0069790Y0016263D01*
X0069790Y0015664D02*
X0069190Y0015664D01*
X0069190Y0015066D02*
X0069790Y0015066D01*
X0069790Y0014467D02*
X0069190Y0014467D01*
X0069190Y0013869D02*
X0069790Y0013869D01*
X0069790Y0018657D02*
X0069190Y0018657D01*
X0069190Y0019255D02*
X0069790Y0019255D01*
X0069790Y0028832D02*
X0069190Y0028832D01*
X0069190Y0029430D02*
X0069790Y0029430D01*
X0069790Y0030029D02*
X0069190Y0030029D01*
X0069190Y0030627D02*
X0069790Y0030627D01*
X0069790Y0031226D02*
X0069190Y0031226D01*
X0069190Y0031824D02*
X0069790Y0031824D01*
X0069790Y0032423D02*
X0069190Y0032423D01*
X0069190Y0033021D02*
X0069790Y0033021D01*
X0069790Y0033620D02*
X0069190Y0033620D01*
X0069190Y0034218D02*
X0069790Y0034218D01*
X0069790Y0036014D02*
X0069190Y0036014D01*
X0069190Y0036612D02*
X0069790Y0036612D01*
X0069790Y0037211D02*
X0069190Y0037211D01*
X0069190Y0037809D02*
X0069790Y0037809D01*
X0069790Y0038408D02*
X0069190Y0038408D01*
X0069190Y0039006D02*
X0069790Y0039006D01*
X0069790Y0039605D02*
X0069190Y0039605D01*
X0069190Y0040203D02*
X0069790Y0040203D01*
X0069790Y0040802D02*
X0069190Y0040802D01*
X0069190Y0041400D02*
X0069790Y0041400D01*
X0069790Y0043196D02*
X0069190Y0043196D01*
X0069190Y0043794D02*
X0069790Y0043794D01*
X0069790Y0044393D02*
X0069190Y0044393D01*
X0069190Y0044991D02*
X0069790Y0044991D01*
X0069790Y0045590D02*
X0069190Y0045590D01*
X0069190Y0046188D02*
X0069790Y0046188D01*
X0069790Y0046787D02*
X0069190Y0046787D01*
X0069190Y0047385D02*
X0069790Y0047385D01*
X0069790Y0047984D02*
X0069190Y0047984D01*
X0069190Y0048582D02*
X0069790Y0048582D01*
X0065716Y0046188D02*
X0065353Y0046188D01*
X0065469Y0045590D02*
X0065631Y0045590D01*
X0065631Y0044991D02*
X0065469Y0044991D01*
X0065469Y0044393D02*
X0065631Y0044393D01*
X0065631Y0043794D02*
X0065469Y0043794D01*
X0065469Y0043196D02*
X0065631Y0043196D01*
X0065631Y0046787D02*
X0065469Y0046787D01*
X0065469Y0047385D02*
X0065631Y0047385D01*
X0065631Y0047984D02*
X0065469Y0047984D01*
X0065469Y0048582D02*
X0065631Y0048582D01*
X0065631Y0049181D02*
X0065469Y0049181D01*
X0058551Y0045590D02*
X0056591Y0045590D01*
X0056896Y0044991D02*
X0058551Y0044991D01*
X0058551Y0044393D02*
X0056896Y0044393D01*
X0056872Y0037809D02*
X0058551Y0037809D01*
X0058551Y0037211D02*
X0056896Y0037211D01*
X0065469Y0034218D02*
X0065631Y0034218D01*
X0065631Y0033620D02*
X0065469Y0033620D01*
X0065469Y0033021D02*
X0065631Y0033021D01*
X0065631Y0032423D02*
X0065469Y0032423D01*
X0065469Y0031824D02*
X0065631Y0031824D01*
X0065734Y0031226D02*
X0065316Y0031226D01*
X0065469Y0030627D02*
X0065631Y0030627D01*
X0065631Y0030029D02*
X0065469Y0030029D01*
X0065469Y0029430D02*
X0065631Y0029430D01*
X0065631Y0028832D02*
X0065469Y0028832D01*
X0065469Y0028233D02*
X0065631Y0028233D01*
X0073349Y0043196D02*
X0080785Y0043196D01*
X0083413Y0043794D02*
X0073349Y0043794D01*
X0073349Y0044393D02*
X0083413Y0044393D01*
X0083413Y0044991D02*
X0073349Y0044991D01*
X0073349Y0045590D02*
X0083669Y0045590D01*
X0073349Y0055765D02*
X0094050Y0055765D01*
X0094050Y0056363D02*
X0073349Y0056363D01*
X0069790Y0065341D02*
X0083420Y0065341D01*
X0081599Y0066538D02*
X0086550Y0066538D01*
X0086550Y0067136D02*
X0081700Y0067136D01*
X0081700Y0067735D02*
X0086550Y0067735D01*
X0086550Y0068333D02*
X0082050Y0068333D01*
X0082050Y0068932D02*
X0086550Y0068932D01*
X0086550Y0069530D02*
X0082050Y0069530D01*
X0082050Y0070129D02*
X0086550Y0070129D01*
X0086550Y0070727D02*
X0082050Y0070727D01*
X0082050Y0071326D02*
X0086550Y0071326D01*
X0086550Y0071924D02*
X0082050Y0071924D01*
X0083944Y0072523D02*
X0086550Y0072523D01*
X0086524Y0073121D02*
X0084199Y0073121D01*
X0084199Y0073720D02*
X0085926Y0073720D01*
X0085327Y0074318D02*
X0084199Y0074318D01*
X0077536Y0072523D02*
X0076464Y0072523D01*
X0076719Y0072778D02*
X0076192Y0072250D01*
X0070328Y0072250D01*
X0069801Y0072778D01*
X0069801Y0079822D01*
X0070328Y0080350D01*
X0071560Y0080350D01*
X0071560Y0082279D01*
X0071041Y0082494D01*
X0069944Y0083591D01*
X0069350Y0085024D01*
X0069350Y0092576D01*
X0069944Y0094009D01*
X0071041Y0095106D01*
X0072474Y0095700D01*
X0074026Y0095700D01*
X0075459Y0095106D01*
X0076556Y0094009D01*
X0077150Y0092576D01*
X0077150Y0085024D01*
X0076556Y0083591D01*
X0075459Y0082494D01*
X0074960Y0082287D01*
X0074960Y0080350D01*
X0076192Y0080350D01*
X0076719Y0079822D01*
X0076719Y0072778D01*
X0076719Y0073121D02*
X0077281Y0073121D01*
X0077281Y0073720D02*
X0076719Y0073720D01*
X0076719Y0074318D02*
X0077281Y0074318D01*
X0077281Y0074917D02*
X0076719Y0074917D01*
X0076719Y0075515D02*
X0077281Y0075515D01*
X0077281Y0076114D02*
X0076719Y0076114D01*
X0076719Y0076712D02*
X0077281Y0076712D01*
X0077281Y0077311D02*
X0076719Y0077311D01*
X0076719Y0077909D02*
X0077281Y0077909D01*
X0077281Y0078508D02*
X0076719Y0078508D01*
X0076719Y0079106D02*
X0077281Y0079106D01*
X0077281Y0079705D02*
X0076719Y0079705D01*
X0076238Y0080303D02*
X0077762Y0080303D01*
X0080448Y0080902D02*
X0074960Y0080902D01*
X0074960Y0081501D02*
X0081046Y0081501D01*
X0081550Y0082099D02*
X0074960Y0082099D01*
X0075663Y0082698D02*
X0080837Y0082698D01*
X0080239Y0083296D02*
X0076261Y0083296D01*
X0076682Y0083895D02*
X0079818Y0083895D01*
X0079570Y0084493D02*
X0076930Y0084493D01*
X0077150Y0085092D02*
X0079350Y0085092D01*
X0079350Y0085690D02*
X0077150Y0085690D01*
X0077150Y0086289D02*
X0079350Y0086289D01*
X0079350Y0086887D02*
X0077150Y0086887D01*
X0077150Y0087486D02*
X0079350Y0087486D01*
X0079350Y0088084D02*
X0077150Y0088084D01*
X0077150Y0088683D02*
X0079350Y0088683D01*
X0079350Y0089281D02*
X0077150Y0089281D01*
X0077150Y0089880D02*
X0079350Y0089880D01*
X0079350Y0090478D02*
X0077150Y0090478D01*
X0077150Y0091077D02*
X0079350Y0091077D01*
X0079350Y0091675D02*
X0077150Y0091675D01*
X0077150Y0092274D02*
X0079350Y0092274D01*
X0079473Y0092872D02*
X0077027Y0092872D01*
X0076779Y0093471D02*
X0079721Y0093471D01*
X0080004Y0094069D02*
X0076496Y0094069D01*
X0075898Y0094668D02*
X0080602Y0094668D01*
X0081427Y0095266D02*
X0075073Y0095266D01*
X0071427Y0095266D02*
X0065073Y0095266D01*
X0065898Y0094668D02*
X0070602Y0094668D01*
X0070004Y0094069D02*
X0066496Y0094069D01*
X0066779Y0093471D02*
X0069721Y0093471D01*
X0069473Y0092872D02*
X0067027Y0092872D01*
X0067150Y0092274D02*
X0069350Y0092274D01*
X0069350Y0091675D02*
X0067150Y0091675D01*
X0067150Y0091077D02*
X0069350Y0091077D01*
X0069350Y0090478D02*
X0067150Y0090478D01*
X0067150Y0089880D02*
X0069350Y0089880D01*
X0069350Y0089281D02*
X0067150Y0089281D01*
X0067150Y0088683D02*
X0069350Y0088683D01*
X0069350Y0088084D02*
X0067150Y0088084D01*
X0067150Y0087486D02*
X0069350Y0087486D01*
X0069350Y0086887D02*
X0067150Y0086887D01*
X0067150Y0086289D02*
X0069350Y0086289D01*
X0069350Y0085690D02*
X0067150Y0085690D01*
X0067150Y0085092D02*
X0069350Y0085092D01*
X0069570Y0084493D02*
X0066930Y0084493D01*
X0066682Y0083895D02*
X0069818Y0083895D01*
X0070239Y0083296D02*
X0066261Y0083296D01*
X0065663Y0082698D02*
X0070837Y0082698D01*
X0071560Y0082099D02*
X0064950Y0082099D01*
X0064950Y0081501D02*
X0071560Y0081501D01*
X0071560Y0080902D02*
X0064950Y0080902D01*
X0066218Y0080303D02*
X0070282Y0080303D01*
X0069801Y0079705D02*
X0066699Y0079705D01*
X0066699Y0079106D02*
X0069801Y0079106D01*
X0069801Y0078508D02*
X0066699Y0078508D01*
X0066699Y0077909D02*
X0069801Y0077909D01*
X0069801Y0077311D02*
X0066699Y0077311D01*
X0066699Y0076712D02*
X0069801Y0076712D01*
X0069801Y0076114D02*
X0066699Y0076114D01*
X0066699Y0075515D02*
X0069801Y0075515D01*
X0069801Y0074917D02*
X0066699Y0074917D01*
X0066699Y0074318D02*
X0069801Y0074318D01*
X0069801Y0073720D02*
X0066699Y0073720D01*
X0066699Y0073121D02*
X0069801Y0073121D01*
X0070056Y0072523D02*
X0066444Y0072523D01*
X0081000Y0065939D02*
X0086550Y0065939D01*
X0093087Y0059954D02*
X0093442Y0059954D01*
X0093087Y0059356D02*
X0094040Y0059356D01*
X0094050Y0058757D02*
X0093087Y0058757D01*
X0092956Y0058159D02*
X0094050Y0058159D01*
X0088950Y0089880D02*
X0087150Y0089880D01*
X0087150Y0090478D02*
X0088950Y0090478D01*
X0088950Y0091077D02*
X0087150Y0091077D01*
X0087150Y0091675D02*
X0088950Y0091675D01*
X0088971Y0092274D02*
X0087150Y0092274D01*
X0087027Y0092872D02*
X0089077Y0092872D01*
X0089275Y0093471D02*
X0086779Y0093471D01*
X0086496Y0094069D02*
X0089584Y0094069D01*
X0090037Y0094668D02*
X0085898Y0094668D01*
X0085073Y0095266D02*
X0090705Y0095266D01*
X0058551Y0055765D02*
X0056896Y0055765D01*
X0056896Y0055166D02*
X0058551Y0055166D01*
X0058551Y0054568D02*
X0056649Y0054568D01*
X0042104Y0030029D02*
X0036360Y0030029D01*
X0036958Y0029430D02*
X0038269Y0029430D01*
X0035676Y0027036D02*
X0034741Y0027036D01*
X0034403Y0026437D02*
X0036274Y0026437D01*
X0038100Y0025839D02*
X0033804Y0025839D01*
X0032848Y0025240D02*
X0042104Y0025240D01*
X0042104Y0025839D02*
X0040900Y0025839D01*
X0042277Y0024642D02*
X0018618Y0024642D01*
X0033117Y0022248D02*
X0038587Y0022248D01*
X0037988Y0021649D02*
X0033916Y0021649D01*
X0034515Y0021051D02*
X0036162Y0021051D01*
X0035564Y0020452D02*
X0034787Y0020452D01*
X0036847Y0018058D02*
X0038380Y0018058D01*
X0037782Y0018657D02*
X0037445Y0018657D01*
X0040731Y0029430D02*
X0042104Y0029430D01*
X0056896Y0010278D02*
X0058551Y0010278D01*
X0034844Y0007285D02*
X0083413Y0007285D01*
X0093087Y0007285D02*
X0099714Y0007285D01*
X0100149Y0007884D02*
X0093087Y0007884D01*
X0093087Y0008482D02*
X0100526Y0008482D01*
X0100721Y0009081D02*
X0093087Y0009081D01*
X0093087Y0009679D02*
X0100915Y0009679D01*
X0101109Y0010278D02*
X0093087Y0010278D01*
X0093087Y0010876D02*
X0101304Y0010876D01*
X0101496Y0011475D02*
X0093087Y0011475D01*
X0093087Y0012073D02*
X0101544Y0012073D01*
X0101591Y0012672D02*
X0093087Y0012672D01*
X0093087Y0013270D02*
X0101625Y0013270D01*
X0101625Y0013869D02*
X0093087Y0013869D01*
X0092930Y0014467D02*
X0101625Y0014467D01*
X0099279Y0006687D02*
X0034596Y0006687D01*
X0034054Y0006088D02*
X0098844Y0006088D01*
X0098286Y0005490D02*
X0033449Y0005490D01*
X0014800Y0005490D02*
X0014200Y0005490D01*
X0014200Y0006088D02*
X0014800Y0006088D01*
X0014800Y0006687D02*
X0014200Y0006687D01*
X0014200Y0007285D02*
X0014800Y0007285D01*
X0014800Y0007884D02*
X0014200Y0007884D01*
X0014200Y0008482D02*
X0014800Y0008482D01*
X0014800Y0004891D02*
X0014200Y0004891D01*
X0013540Y0003096D02*
X0093885Y0003096D01*
X0095727Y0003694D02*
X0011698Y0003694D01*
D18*
X0028250Y0008800D02*
X0034500Y0008800D01*
X0038250Y0012550D01*
X0039500Y0012550D01*
X0045366Y0012550D01*
X0045366Y0020050D02*
X0039500Y0020050D01*
X0037000Y0020050D01*
X0035750Y0018800D01*
X0028250Y0018800D01*
X0037000Y0027550D02*
X0035750Y0028800D01*
X0028250Y0028800D01*
X0037000Y0027550D02*
X0039500Y0027550D01*
X0045366Y0027550D01*
X0045366Y0035050D02*
X0039500Y0035050D01*
X0038250Y0035050D01*
X0034500Y0038800D01*
X0028250Y0038800D01*
X0028250Y0048800D02*
X0033250Y0048800D01*
X0039500Y0042550D01*
X0045366Y0042550D01*
X0045366Y0050050D02*
X0039500Y0050050D01*
X0038250Y0050050D01*
X0035750Y0052550D01*
X0035750Y0056300D01*
X0033250Y0058800D01*
X0028250Y0058800D01*
X0035750Y0060050D02*
X0035750Y0066300D01*
X0033250Y0068800D01*
X0028250Y0068800D01*
X0035750Y0060050D02*
X0038250Y0057550D01*
X0039500Y0057550D01*
X0045366Y0057550D01*
X0045366Y0065050D02*
X0039500Y0065050D01*
X0038250Y0066300D01*
X0038250Y0076300D01*
X0035750Y0078800D01*
X0028250Y0078800D01*
X0055760Y0076300D02*
X0055760Y0072540D01*
X0058250Y0070050D01*
X0077000Y0070050D01*
X0079500Y0067550D01*
X0080750Y0068800D01*
X0080750Y0076300D01*
M02*
