G75*
%MOIN*%
%OFA0B0*%
%FSLAX25Y25*%
%IPPOS*%
%LPD*%
%AMOC8*
5,1,8,0,0,1.08239X$1,22.5*
%
%ADD10C,0.00000*%
%ADD11C,0.00800*%
%ADD12C,0.00300*%
%ADD13R,0.00680X0.00020*%
%ADD14R,0.01200X0.00020*%
%ADD15R,0.01540X0.00020*%
%ADD16R,0.01820X0.00020*%
%ADD17R,0.02060X0.00020*%
%ADD18R,0.02300X0.00020*%
%ADD19R,0.02500X0.00020*%
%ADD20R,0.02660X0.00020*%
%ADD21R,0.02840X0.00020*%
%ADD22R,0.03000X0.00020*%
%ADD23R,0.03140X0.00020*%
%ADD24R,0.03300X0.00020*%
%ADD25R,0.03440X0.00020*%
%ADD26R,0.03560X0.00020*%
%ADD27R,0.03700X0.00020*%
%ADD28R,0.03820X0.00020*%
%ADD29R,0.03940X0.00020*%
%ADD30R,0.04060X0.00020*%
%ADD31R,0.04140X0.00020*%
%ADD32R,0.04260X0.00020*%
%ADD33R,0.04380X0.00020*%
%ADD34R,0.04460X0.00020*%
%ADD35R,0.04580X0.00020*%
%ADD36R,0.04660X0.00020*%
%ADD37R,0.04760X0.00020*%
%ADD38R,0.04860X0.00020*%
%ADD39R,0.04940X0.00020*%
%ADD40R,0.05020X0.00020*%
%ADD41R,0.05100X0.00020*%
%ADD42R,0.05180X0.00020*%
%ADD43R,0.05280X0.00020*%
%ADD44R,0.05360X0.00020*%
%ADD45R,0.05440X0.00020*%
%ADD46R,0.05520X0.00020*%
%ADD47R,0.05580X0.00020*%
%ADD48R,0.05660X0.00020*%
%ADD49R,0.05740X0.00020*%
%ADD50R,0.05820X0.00020*%
%ADD51R,0.05900X0.00020*%
%ADD52R,0.05940X0.00020*%
%ADD53R,0.06020X0.00020*%
%ADD54R,0.06100X0.00020*%
%ADD55R,0.06180X0.00020*%
%ADD56R,0.06220X0.00020*%
%ADD57R,0.06300X0.00020*%
%ADD58R,0.06360X0.00020*%
%ADD59R,0.06420X0.00020*%
%ADD60R,0.06500X0.00020*%
%ADD61R,0.06540X0.00020*%
%ADD62R,0.06620X0.00020*%
%ADD63R,0.06660X0.00020*%
%ADD64R,0.06740X0.00020*%
%ADD65R,0.06780X0.00020*%
%ADD66R,0.06860X0.00020*%
%ADD67R,0.06900X0.00020*%
%ADD68R,0.06960X0.00020*%
%ADD69R,0.07020X0.00020*%
%ADD70R,0.07060X0.00020*%
%ADD71R,0.07140X0.00020*%
%ADD72R,0.07180X0.00020*%
%ADD73R,0.07220X0.00020*%
%ADD74R,0.07300X0.00020*%
%ADD75R,0.07340X0.00020*%
%ADD76R,0.07380X0.00020*%
%ADD77R,0.07440X0.00020*%
%ADD78R,0.07500X0.00020*%
%ADD79R,0.07540X0.00020*%
%ADD80R,0.07580X0.00020*%
%ADD81R,0.07620X0.00020*%
%ADD82R,0.07700X0.00020*%
%ADD83R,0.07740X0.00020*%
%ADD84R,0.07780X0.00020*%
%ADD85R,0.07820X0.00020*%
%ADD86R,0.07860X0.00020*%
%ADD87R,0.07940X0.00020*%
%ADD88R,0.07980X0.00020*%
%ADD89R,0.08020X0.00020*%
%ADD90R,0.08060X0.00020*%
%ADD91R,0.08100X0.00020*%
%ADD92R,0.08140X0.00020*%
%ADD93R,0.08180X0.00020*%
%ADD94R,0.08220X0.00020*%
%ADD95R,0.08260X0.00020*%
%ADD96R,0.08300X0.00020*%
%ADD97R,0.08340X0.00020*%
%ADD98R,0.08380X0.00020*%
%ADD99R,0.08420X0.00020*%
%ADD100R,0.08460X0.00020*%
%ADD101R,0.08500X0.00020*%
%ADD102R,0.08540X0.00020*%
%ADD103R,0.08580X0.00020*%
%ADD104R,0.08620X0.00020*%
%ADD105R,0.08660X0.00020*%
%ADD106R,0.08700X0.00020*%
%ADD107R,0.08740X0.00020*%
%ADD108R,0.08780X0.00020*%
%ADD109R,0.08820X0.00020*%
%ADD110R,0.08860X0.00020*%
%ADD111R,0.08900X0.00020*%
%ADD112R,0.08940X0.00020*%
%ADD113R,0.08980X0.00020*%
%ADD114R,0.09020X0.00020*%
%ADD115R,0.09060X0.00020*%
%ADD116R,0.09100X0.00020*%
%ADD117R,0.09140X0.00020*%
%ADD118R,0.09180X0.00020*%
%ADD119R,0.09220X0.00020*%
%ADD120R,0.09260X0.00020*%
%ADD121R,0.09260X0.00020*%
%ADD122R,0.09300X0.00020*%
%ADD123R,0.09340X0.00020*%
%ADD124R,0.09380X0.00020*%
%ADD125R,0.09420X0.00020*%
%ADD126R,0.09440X0.00020*%
%ADD127R,0.09460X0.00020*%
%ADD128R,0.09500X0.00020*%
%ADD129R,0.09540X0.00020*%
%ADD130R,0.09580X0.00020*%
%ADD131R,0.09580X0.00020*%
%ADD132R,0.09620X0.00020*%
%ADD133R,0.09660X0.00020*%
%ADD134R,0.09700X0.00020*%
%ADD135R,0.09740X0.00020*%
%ADD136R,0.09780X0.00020*%
%ADD137R,0.09800X0.00020*%
%ADD138R,0.09820X0.00020*%
%ADD139R,0.09860X0.00020*%
%ADD140R,0.09900X0.00020*%
%ADD141R,0.09900X0.00020*%
%ADD142R,0.09940X0.00020*%
%ADD143R,0.09980X0.00020*%
%ADD144R,0.10020X0.00020*%
%ADD145R,0.10060X0.00020*%
%ADD146R,0.10060X0.00020*%
%ADD147R,0.10100X0.00020*%
%ADD148R,0.10140X0.00020*%
%ADD149R,0.10140X0.00020*%
%ADD150R,0.10180X0.00020*%
%ADD151R,0.10180X0.00020*%
%ADD152R,0.10220X0.00020*%
%ADD153R,0.10260X0.00020*%
%ADD154R,0.10260X0.00020*%
%ADD155R,0.10300X0.00020*%
%ADD156R,0.10340X0.00020*%
%ADD157R,0.10340X0.00020*%
%ADD158R,0.10380X0.00020*%
%ADD159R,0.10380X0.00020*%
%ADD160R,0.10420X0.00020*%
%ADD161R,0.10420X0.00020*%
%ADD162R,0.10460X0.00020*%
%ADD163R,0.10500X0.00020*%
%ADD164R,0.10500X0.00020*%
%ADD165R,0.10540X0.00020*%
%ADD166R,0.10540X0.00020*%
%ADD167R,0.10580X0.00020*%
%ADD168R,0.10620X0.00020*%
%ADD169R,0.00980X0.00020*%
%ADD170R,0.04040X0.00020*%
%ADD171R,0.01000X0.00020*%
%ADD172R,0.00900X0.00020*%
%ADD173R,0.03820X0.00020*%
%ADD174R,0.03820X0.00020*%
%ADD175R,0.00840X0.00020*%
%ADD176R,0.03700X0.00020*%
%ADD177R,0.03680X0.00020*%
%ADD178R,0.00800X0.00020*%
%ADD179R,0.03620X0.00020*%
%ADD180R,0.03600X0.00020*%
%ADD181R,0.00820X0.00020*%
%ADD182R,0.00780X0.00020*%
%ADD183R,0.03540X0.00020*%
%ADD184R,0.03520X0.00020*%
%ADD185R,0.00800X0.00020*%
%ADD186R,0.00760X0.00020*%
%ADD187R,0.03480X0.00020*%
%ADD188R,0.00780X0.00020*%
%ADD189R,0.00740X0.00020*%
%ADD190R,0.03420X0.00020*%
%ADD191R,0.03440X0.00020*%
%ADD192R,0.00760X0.00020*%
%ADD193R,0.00740X0.00020*%
%ADD194R,0.03380X0.00020*%
%ADD195R,0.00720X0.00020*%
%ADD196R,0.03340X0.00020*%
%ADD197R,0.03340X0.00020*%
%ADD198R,0.00720X0.00020*%
%ADD199R,0.03320X0.00020*%
%ADD200R,0.00700X0.00020*%
%ADD201R,0.03260X0.00020*%
%ADD202R,0.00720X0.00020*%
%ADD203R,0.00700X0.00020*%
%ADD204R,0.03220X0.00020*%
%ADD205R,0.03200X0.00020*%
%ADD206R,0.00720X0.00020*%
%ADD207R,0.03180X0.00020*%
%ADD208R,0.03160X0.00020*%
%ADD209R,0.03120X0.00020*%
%ADD210R,0.03120X0.00020*%
%ADD211R,0.00680X0.00020*%
%ADD212R,0.03080X0.00020*%
%ADD213R,0.03060X0.00020*%
%ADD214R,0.03040X0.00020*%
%ADD215R,0.03020X0.00020*%
%ADD216R,0.02980X0.00020*%
%ADD217R,0.02960X0.00020*%
%ADD218R,0.02940X0.00020*%
%ADD219R,0.02920X0.00020*%
%ADD220R,0.02900X0.00020*%
%ADD221R,0.00020X0.00020*%
%ADD222R,0.02880X0.00020*%
%ADD223R,0.02860X0.00020*%
%ADD224R,0.00020X0.00020*%
%ADD225R,0.00660X0.00020*%
%ADD226R,0.00040X0.00020*%
%ADD227R,0.02840X0.00020*%
%ADD228R,0.00060X0.00020*%
%ADD229R,0.02820X0.00020*%
%ADD230R,0.02800X0.00020*%
%ADD231R,0.00660X0.00020*%
%ADD232R,0.00080X0.00020*%
%ADD233R,0.02780X0.00020*%
%ADD234R,0.00100X0.00020*%
%ADD235R,0.00100X0.00020*%
%ADD236R,0.02760X0.00020*%
%ADD237R,0.02740X0.00020*%
%ADD238R,0.00120X0.00020*%
%ADD239R,0.02740X0.00020*%
%ADD240R,0.00120X0.00020*%
%ADD241R,0.02720X0.00020*%
%ADD242R,0.00140X0.00020*%
%ADD243R,0.00140X0.00020*%
%ADD244R,0.02700X0.00020*%
%ADD245R,0.00140X0.00020*%
%ADD246R,0.02680X0.00020*%
%ADD247R,0.00160X0.00020*%
%ADD248R,0.02680X0.00020*%
%ADD249R,0.00180X0.00020*%
%ADD250R,0.02640X0.00020*%
%ADD251R,0.00200X0.00020*%
%ADD252R,0.02620X0.00020*%
%ADD253R,0.02620X0.00020*%
%ADD254R,0.00180X0.00020*%
%ADD255R,0.00200X0.00020*%
%ADD256R,0.02600X0.00020*%
%ADD257R,0.00220X0.00020*%
%ADD258R,0.00240X0.00020*%
%ADD259R,0.02580X0.00020*%
%ADD260R,0.02560X0.00020*%
%ADD261R,0.00220X0.00020*%
%ADD262R,0.00240X0.00020*%
%ADD263R,0.02560X0.00020*%
%ADD264R,0.02540X0.00020*%
%ADD265R,0.00260X0.00020*%
%ADD266R,0.02520X0.00020*%
%ADD267R,0.00280X0.00020*%
%ADD268R,0.00260X0.00020*%
%ADD269R,0.00300X0.00020*%
%ADD270R,0.02480X0.00020*%
%ADD271R,0.00320X0.00020*%
%ADD272R,0.02460X0.00020*%
%ADD273R,0.00020X0.00020*%
%ADD274R,0.00320X0.00020*%
%ADD275R,0.00040X0.00020*%
%ADD276R,0.02440X0.00020*%
%ADD277R,0.00300X0.00020*%
%ADD278R,0.00320X0.00020*%
%ADD279R,0.02440X0.00020*%
%ADD280R,0.00040X0.00020*%
%ADD281R,0.00320X0.00020*%
%ADD282R,0.02420X0.00020*%
%ADD283R,0.00340X0.00020*%
%ADD284R,0.02400X0.00020*%
%ADD285R,0.00340X0.00020*%
%ADD286R,0.00360X0.00020*%
%ADD287R,0.02400X0.00020*%
%ADD288R,0.02380X0.00020*%
%ADD289R,0.00340X0.00020*%
%ADD290R,0.00360X0.00020*%
%ADD291R,0.02360X0.00020*%
%ADD292R,0.00380X0.00020*%
%ADD293R,0.00380X0.00020*%
%ADD294R,0.02340X0.00020*%
%ADD295R,0.00060X0.00020*%
%ADD296R,0.00400X0.00020*%
%ADD297R,0.02320X0.00020*%
%ADD298R,0.02320X0.00020*%
%ADD299R,0.00420X0.00020*%
%ADD300R,0.00420X0.00020*%
%ADD301R,0.00440X0.00020*%
%ADD302R,0.02280X0.00020*%
%ADD303R,0.00080X0.00020*%
%ADD304R,0.02260X0.00020*%
%ADD305R,0.00420X0.00020*%
%ADD306R,0.00440X0.00020*%
%ADD307R,0.02260X0.00020*%
%ADD308R,0.00460X0.00020*%
%ADD309R,0.00460X0.00020*%
%ADD310R,0.02240X0.00020*%
%ADD311R,0.00480X0.00020*%
%ADD312R,0.02220X0.00020*%
%ADD313R,0.02200X0.00020*%
%ADD314R,0.00500X0.00020*%
%ADD315R,0.00500X0.00020*%
%ADD316R,0.02180X0.00020*%
%ADD317R,0.00120X0.00020*%
%ADD318R,0.00520X0.00020*%
%ADD319R,0.02160X0.00020*%
%ADD320R,0.00520X0.00020*%
%ADD321R,0.00140X0.00020*%
%ADD322R,0.02140X0.00020*%
%ADD323R,0.00520X0.00020*%
%ADD324R,0.02140X0.00020*%
%ADD325R,0.00520X0.00020*%
%ADD326R,0.02140X0.00020*%
%ADD327R,0.00540X0.00020*%
%ADD328R,0.00540X0.00020*%
%ADD329R,0.02120X0.00020*%
%ADD330R,0.00540X0.00020*%
%ADD331R,0.00560X0.00020*%
%ADD332R,0.02100X0.00020*%
%ADD333R,0.02080X0.00020*%
%ADD334R,0.00640X0.00020*%
%ADD335R,0.00560X0.00020*%
%ADD336R,0.02080X0.00020*%
%ADD337R,0.00160X0.00020*%
%ADD338R,0.02060X0.00020*%
%ADD339R,0.00580X0.00020*%
%ADD340R,0.00580X0.00020*%
%ADD341R,0.02040X0.00020*%
%ADD342R,0.00600X0.00020*%
%ADD343R,0.02040X0.00020*%
%ADD344R,0.02020X0.00020*%
%ADD345R,0.02020X0.00020*%
%ADD346R,0.02000X0.00020*%
%ADD347R,0.00620X0.00020*%
%ADD348R,0.00620X0.00020*%
%ADD349R,0.01980X0.00020*%
%ADD350R,0.02000X0.00020*%
%ADD351R,0.00620X0.00020*%
%ADD352R,0.00640X0.00020*%
%ADD353R,0.01980X0.00020*%
%ADD354R,0.01960X0.00020*%
%ADD355R,0.01960X0.00020*%
%ADD356R,0.01940X0.00020*%
%ADD357R,0.01920X0.00020*%
%ADD358R,0.01900X0.00020*%
%ADD359R,0.01900X0.00020*%
%ADD360R,0.00220X0.00020*%
%ADD361R,0.01880X0.00020*%
%ADD362R,0.00220X0.00020*%
%ADD363R,0.01860X0.00020*%
%ADD364R,0.01880X0.00020*%
%ADD365R,0.01860X0.00020*%
%ADD366R,0.01840X0.00020*%
%ADD367R,0.01840X0.00020*%
%ADD368R,0.00740X0.00020*%
%ADD369R,0.01820X0.00020*%
%ADD370R,0.01800X0.00020*%
%ADD371R,0.01780X0.00020*%
%ADD372R,0.01780X0.00020*%
%ADD373R,0.01760X0.00020*%
%ADD374R,0.01740X0.00020*%
%ADD375R,0.01740X0.00020*%
%ADD376R,0.01720X0.00020*%
%ADD377R,0.00640X0.00020*%
%ADD378R,0.01720X0.00020*%
%ADD379R,0.00280X0.00020*%
%ADD380R,0.01720X0.00020*%
%ADD381R,0.00820X0.00020*%
%ADD382R,0.00640X0.00020*%
%ADD383R,0.00820X0.00020*%
%ADD384R,0.01700X0.00020*%
%ADD385R,0.00820X0.00020*%
%ADD386R,0.01680X0.00020*%
%ADD387R,0.01660X0.00020*%
%ADD388R,0.00860X0.00020*%
%ADD389R,0.00840X0.00020*%
%ADD390R,0.01660X0.00020*%
%ADD391R,0.01640X0.00020*%
%ADD392R,0.00860X0.00020*%
%ADD393R,0.01620X0.00020*%
%ADD394R,0.01640X0.00020*%
%ADD395R,0.00880X0.00020*%
%ADD396R,0.01620X0.00020*%
%ADD397R,0.01600X0.00020*%
%ADD398R,0.00880X0.00020*%
%ADD399R,0.01600X0.00020*%
%ADD400R,0.00900X0.00020*%
%ADD401R,0.01580X0.00020*%
%ADD402R,0.01560X0.00020*%
%ADD403R,0.01580X0.00020*%
%ADD404R,0.00920X0.00020*%
%ADD405R,0.01560X0.00020*%
%ADD406R,0.00920X0.00020*%
%ADD407R,0.00920X0.00020*%
%ADD408R,0.01540X0.00020*%
%ADD409R,0.00920X0.00020*%
%ADD410R,0.01540X0.00020*%
%ADD411R,0.00940X0.00020*%
%ADD412R,0.00620X0.00020*%
%ADD413R,0.00940X0.00020*%
%ADD414R,0.01520X0.00020*%
%ADD415R,0.00940X0.00020*%
%ADD416R,0.00960X0.00020*%
%ADD417R,0.01500X0.00020*%
%ADD418R,0.00960X0.00020*%
%ADD419R,0.01500X0.00020*%
%ADD420R,0.01480X0.00020*%
%ADD421R,0.01480X0.00020*%
%ADD422R,0.00980X0.00020*%
%ADD423R,0.01460X0.00020*%
%ADD424R,0.01440X0.00020*%
%ADD425R,0.01460X0.00020*%
%ADD426R,0.01420X0.00020*%
%ADD427R,0.00600X0.00020*%
%ADD428R,0.01000X0.00020*%
%ADD429R,0.01420X0.00020*%
%ADD430R,0.01420X0.00020*%
%ADD431R,0.01020X0.00020*%
%ADD432R,0.01020X0.00020*%
%ADD433R,0.01400X0.00020*%
%ADD434R,0.01020X0.00020*%
%ADD435R,0.01040X0.00020*%
%ADD436R,0.01380X0.00020*%
%ADD437R,0.00400X0.00020*%
%ADD438R,0.01400X0.00020*%
%ADD439R,0.01040X0.00020*%
%ADD440R,0.01380X0.00020*%
%ADD441R,0.01360X0.00020*%
%ADD442R,0.01060X0.00020*%
%ADD443R,0.01060X0.00020*%
%ADD444R,0.01340X0.00020*%
%ADD445R,0.01080X0.00020*%
%ADD446R,0.01320X0.00020*%
%ADD447R,0.01080X0.00020*%
%ADD448R,0.01320X0.00020*%
%ADD449R,0.00420X0.00020*%
%ADD450R,0.01300X0.00020*%
%ADD451R,0.01100X0.00020*%
%ADD452R,0.01300X0.00020*%
%ADD453R,0.01280X0.00020*%
%ADD454R,0.01100X0.00020*%
%ADD455R,0.01120X0.00020*%
%ADD456R,0.01260X0.00020*%
%ADD457R,0.01120X0.00020*%
%ADD458R,0.00440X0.00020*%
%ADD459R,0.01120X0.00020*%
%ADD460R,0.01260X0.00020*%
%ADD461R,0.01120X0.00020*%
%ADD462R,0.01240X0.00020*%
%ADD463R,0.01140X0.00020*%
%ADD464R,0.01240X0.00020*%
%ADD465R,0.01240X0.00020*%
%ADD466R,0.01140X0.00020*%
%ADD467R,0.01220X0.00020*%
%ADD468R,0.01140X0.00020*%
%ADD469R,0.01160X0.00020*%
%ADD470R,0.01200X0.00020*%
%ADD471R,0.01160X0.00020*%
%ADD472R,0.01180X0.00020*%
%ADD473R,0.01180X0.00020*%
%ADD474R,0.00480X0.00020*%
%ADD475R,0.01220X0.00020*%
%ADD476R,0.01220X0.00020*%
%ADD477R,0.01240X0.00020*%
%ADD478R,0.01280X0.00020*%
%ADD479R,0.01020X0.00020*%
%ADD480R,0.01320X0.00020*%
%ADD481R,0.01320X0.00020*%
%ADD482R,0.00940X0.00020*%
%ADD483R,0.01340X0.00020*%
%ADD484R,0.01340X0.00020*%
%ADD485R,0.01360X0.00020*%
%ADD486R,0.01440X0.00020*%
%ADD487R,0.01520X0.00020*%
%ADD488R,0.01520X0.00020*%
%ADD489R,0.01520X0.00020*%
%ADD490R,0.01540X0.00020*%
%ADD491R,0.01620X0.00020*%
%ADD492R,0.01620X0.00020*%
%ADD493R,0.01680X0.00020*%
%ADD494R,0.01700X0.00020*%
%ADD495R,0.00740X0.00020*%
%ADD496R,0.01740X0.00020*%
%ADD497R,0.01740X0.00020*%
%ADD498R,0.01760X0.00020*%
%ADD499R,0.01800X0.00020*%
%ADD500R,0.01820X0.00020*%
%ADD501R,0.01820X0.00020*%
%ADD502R,0.01840X0.00020*%
%ADD503R,0.01920X0.00020*%
%ADD504R,0.00840X0.00020*%
%ADD505R,0.00040X0.00020*%
%ADD506R,0.01920X0.00020*%
%ADD507R,0.01920X0.00020*%
%ADD508R,0.01940X0.00020*%
%ADD509R,0.01940X0.00020*%
%ADD510R,0.02020X0.00020*%
%ADD511R,0.02100X0.00020*%
%ADD512R,0.02120X0.00020*%
%ADD513R,0.02140X0.00020*%
%ADD514R,0.02120X0.00020*%
%ADD515R,0.02160X0.00020*%
%ADD516R,0.02180X0.00020*%
%ADD517R,0.02200X0.00020*%
%ADD518R,0.02220X0.00020*%
%ADD519R,0.02220X0.00020*%
%ADD520R,0.02240X0.00020*%
%ADD521R,0.02280X0.00020*%
%ADD522R,0.02300X0.00020*%
%ADD523R,0.02320X0.00020*%
%ADD524R,0.02320X0.00020*%
%ADD525R,0.02340X0.00020*%
%ADD526R,0.02340X0.00020*%
%ADD527R,0.02360X0.00020*%
%ADD528R,0.02440X0.00020*%
%ADD529R,0.02460X0.00020*%
%ADD530R,0.02480X0.00020*%
%ADD531R,0.02020X0.00020*%
%ADD532R,0.02540X0.00020*%
%ADD533R,0.02580X0.00020*%
%ADD534R,0.02600X0.00020*%
%ADD535R,0.02620X0.00020*%
%ADD536R,0.02640X0.00020*%
%ADD537R,0.02760X0.00020*%
%ADD538R,0.02780X0.00020*%
%ADD539R,0.01420X0.00020*%
%ADD540R,0.00440X0.00020*%
%ADD541R,0.02820X0.00020*%
%ADD542R,0.02860X0.00020*%
%ADD543R,0.02900X0.00020*%
%ADD544R,0.02920X0.00020*%
%ADD545R,0.02920X0.00020*%
%ADD546R,0.02960X0.00020*%
%ADD547R,0.03000X0.00020*%
%ADD548R,0.00020X0.00020*%
%ADD549R,0.03040X0.00020*%
%ADD550R,0.03040X0.00020*%
%ADD551R,0.03080X0.00020*%
%ADD552R,0.03100X0.00020*%
%ADD553R,0.03120X0.00020*%
%ADD554R,0.03160X0.00020*%
%ADD555R,0.01040X0.00020*%
%ADD556R,0.03200X0.00020*%
%ADD557R,0.03220X0.00020*%
%ADD558R,0.00540X0.00020*%
%ADD559R,0.03260X0.00020*%
%ADD560R,0.03280X0.00020*%
%ADD561R,0.03360X0.00020*%
%ADD562R,0.03400X0.00020*%
%ADD563R,0.03460X0.00020*%
%ADD564R,0.03500X0.00020*%
%ADD565R,0.03580X0.00020*%
%ADD566R,0.03660X0.00020*%
%ADD567R,0.03760X0.00020*%
%ADD568R,0.02880X0.00020*%
%ADD569R,0.03920X0.00020*%
%ADD570R,0.10240X0.00020*%
%ADD571R,0.10020X0.00020*%
%ADD572R,0.09940X0.00020*%
%ADD573R,0.09860X0.00020*%
%ADD574R,0.09780X0.00020*%
%ADD575R,0.09660X0.00020*%
%ADD576R,0.09420X0.00020*%
%ADD577R,0.09400X0.00020*%
%ADD578R,0.09020X0.00020*%
%ADD579R,0.08980X0.00020*%
%ADD580R,0.07940X0.00020*%
%ADD581R,0.07900X0.00020*%
%ADD582R,0.07660X0.00020*%
%ADD583R,0.07420X0.00020*%
%ADD584R,0.07260X0.00020*%
%ADD585R,0.07100X0.00020*%
%ADD586R,0.06940X0.00020*%
%ADD587R,0.06820X0.00020*%
%ADD588R,0.06600X0.00020*%
%ADD589R,0.06460X0.00020*%
%ADD590R,0.06340X0.00020*%
%ADD591R,0.06140X0.00020*%
%ADD592R,0.05860X0.00020*%
%ADD593R,0.05500X0.00020*%
%ADD594R,0.05420X0.00020*%
%ADD595R,0.05340X0.00020*%
%ADD596R,0.05260X0.00020*%
%ADD597R,0.04840X0.00020*%
%ADD598R,0.04740X0.00020*%
%ADD599R,0.04540X0.00020*%
%ADD600R,0.04340X0.00020*%
%ADD601R,0.04020X0.00020*%
%ADD602R,0.03800X0.00020*%
%ADD603R,0.03680X0.00020*%
%ADD604R,0.03540X0.00020*%
%ADD605R,0.03420X0.00020*%
%ADD606R,0.03280X0.00020*%
%ADD607R,0.02980X0.00020*%
%ADD608C,0.00200*%
%ADD609C,0.00250*%
%ADD610C,0.00984*%
%ADD611C,0.00600*%
%ADD612C,0.00500*%
D10*
X0004500Y0013111D02*
X0004500Y0087914D01*
X0004503Y0088199D01*
X0004514Y0088485D01*
X0004531Y0088770D01*
X0004555Y0089054D01*
X0004586Y0089338D01*
X0004624Y0089621D01*
X0004669Y0089902D01*
X0004720Y0090183D01*
X0004778Y0090463D01*
X0004843Y0090741D01*
X0004915Y0091017D01*
X0004993Y0091291D01*
X0005078Y0091564D01*
X0005170Y0091834D01*
X0005268Y0092102D01*
X0005372Y0092368D01*
X0005483Y0092631D01*
X0005600Y0092891D01*
X0005723Y0093149D01*
X0005853Y0093403D01*
X0005989Y0093654D01*
X0006130Y0093902D01*
X0006278Y0094146D01*
X0006431Y0094387D01*
X0006591Y0094623D01*
X0006756Y0094856D01*
X0006926Y0095085D01*
X0007102Y0095310D01*
X0007284Y0095530D01*
X0007470Y0095746D01*
X0007662Y0095957D01*
X0007859Y0096164D01*
X0008061Y0096366D01*
X0008268Y0096563D01*
X0008479Y0096755D01*
X0008695Y0096941D01*
X0008915Y0097123D01*
X0009140Y0097299D01*
X0009369Y0097469D01*
X0009602Y0097634D01*
X0009838Y0097794D01*
X0010079Y0097947D01*
X0010323Y0098095D01*
X0010571Y0098236D01*
X0010822Y0098372D01*
X0011076Y0098502D01*
X0011334Y0098625D01*
X0011594Y0098742D01*
X0011857Y0098853D01*
X0012123Y0098957D01*
X0012391Y0099055D01*
X0012661Y0099147D01*
X0012934Y0099232D01*
X0013208Y0099310D01*
X0013484Y0099382D01*
X0013762Y0099447D01*
X0014042Y0099505D01*
X0014323Y0099556D01*
X0014604Y0099601D01*
X0014887Y0099639D01*
X0015171Y0099670D01*
X0015455Y0099694D01*
X0015740Y0099711D01*
X0016026Y0099722D01*
X0016311Y0099725D01*
X0091114Y0099725D01*
X0091399Y0099722D01*
X0091685Y0099711D01*
X0091970Y0099694D01*
X0092254Y0099670D01*
X0092538Y0099639D01*
X0092821Y0099601D01*
X0093102Y0099556D01*
X0093383Y0099505D01*
X0093663Y0099447D01*
X0093941Y0099382D01*
X0094217Y0099310D01*
X0094491Y0099232D01*
X0094764Y0099147D01*
X0095034Y0099055D01*
X0095302Y0098957D01*
X0095568Y0098853D01*
X0095831Y0098742D01*
X0096091Y0098625D01*
X0096349Y0098502D01*
X0096603Y0098372D01*
X0096854Y0098236D01*
X0097102Y0098095D01*
X0097346Y0097947D01*
X0097587Y0097794D01*
X0097823Y0097634D01*
X0098056Y0097469D01*
X0098285Y0097299D01*
X0098510Y0097123D01*
X0098730Y0096941D01*
X0098946Y0096755D01*
X0099157Y0096563D01*
X0099364Y0096366D01*
X0099566Y0096164D01*
X0099763Y0095957D01*
X0099955Y0095746D01*
X0100141Y0095530D01*
X0100323Y0095310D01*
X0100499Y0095085D01*
X0100669Y0094856D01*
X0100834Y0094623D01*
X0100994Y0094387D01*
X0101147Y0094146D01*
X0101295Y0093902D01*
X0101436Y0093654D01*
X0101572Y0093403D01*
X0101702Y0093149D01*
X0101825Y0092891D01*
X0101942Y0092631D01*
X0102053Y0092368D01*
X0102157Y0092102D01*
X0102255Y0091834D01*
X0102347Y0091564D01*
X0102432Y0091291D01*
X0102510Y0091017D01*
X0102582Y0090741D01*
X0102647Y0090463D01*
X0102705Y0090183D01*
X0102756Y0089902D01*
X0102801Y0089621D01*
X0102839Y0089338D01*
X0102870Y0089054D01*
X0102894Y0088770D01*
X0102911Y0088485D01*
X0102922Y0088199D01*
X0102925Y0087914D01*
X0102925Y0013111D01*
X0102922Y0012826D01*
X0102911Y0012540D01*
X0102894Y0012255D01*
X0102870Y0011971D01*
X0102839Y0011687D01*
X0102801Y0011404D01*
X0102756Y0011123D01*
X0102705Y0010842D01*
X0102647Y0010562D01*
X0102582Y0010284D01*
X0102510Y0010008D01*
X0102432Y0009734D01*
X0102347Y0009461D01*
X0102255Y0009191D01*
X0102157Y0008923D01*
X0102053Y0008657D01*
X0101942Y0008394D01*
X0101825Y0008134D01*
X0101702Y0007876D01*
X0101572Y0007622D01*
X0101436Y0007371D01*
X0101295Y0007123D01*
X0101147Y0006879D01*
X0100994Y0006638D01*
X0100834Y0006402D01*
X0100669Y0006169D01*
X0100499Y0005940D01*
X0100323Y0005715D01*
X0100141Y0005495D01*
X0099955Y0005279D01*
X0099763Y0005068D01*
X0099566Y0004861D01*
X0099364Y0004659D01*
X0099157Y0004462D01*
X0098946Y0004270D01*
X0098730Y0004084D01*
X0098510Y0003902D01*
X0098285Y0003726D01*
X0098056Y0003556D01*
X0097823Y0003391D01*
X0097587Y0003231D01*
X0097346Y0003078D01*
X0097102Y0002930D01*
X0096854Y0002789D01*
X0096603Y0002653D01*
X0096349Y0002523D01*
X0096091Y0002400D01*
X0095831Y0002283D01*
X0095568Y0002172D01*
X0095302Y0002068D01*
X0095034Y0001970D01*
X0094764Y0001878D01*
X0094491Y0001793D01*
X0094217Y0001715D01*
X0093941Y0001643D01*
X0093663Y0001578D01*
X0093383Y0001520D01*
X0093102Y0001469D01*
X0092821Y0001424D01*
X0092538Y0001386D01*
X0092254Y0001355D01*
X0091970Y0001331D01*
X0091685Y0001314D01*
X0091399Y0001303D01*
X0091114Y0001300D01*
X0016311Y0001300D01*
X0016026Y0001303D01*
X0015740Y0001314D01*
X0015455Y0001331D01*
X0015171Y0001355D01*
X0014887Y0001386D01*
X0014604Y0001424D01*
X0014323Y0001469D01*
X0014042Y0001520D01*
X0013762Y0001578D01*
X0013484Y0001643D01*
X0013208Y0001715D01*
X0012934Y0001793D01*
X0012661Y0001878D01*
X0012391Y0001970D01*
X0012123Y0002068D01*
X0011857Y0002172D01*
X0011594Y0002283D01*
X0011334Y0002400D01*
X0011076Y0002523D01*
X0010822Y0002653D01*
X0010571Y0002789D01*
X0010323Y0002930D01*
X0010079Y0003078D01*
X0009838Y0003231D01*
X0009602Y0003391D01*
X0009369Y0003556D01*
X0009140Y0003726D01*
X0008915Y0003902D01*
X0008695Y0004084D01*
X0008479Y0004270D01*
X0008268Y0004462D01*
X0008061Y0004659D01*
X0007859Y0004861D01*
X0007662Y0005068D01*
X0007470Y0005279D01*
X0007284Y0005495D01*
X0007102Y0005715D01*
X0006926Y0005940D01*
X0006756Y0006169D01*
X0006591Y0006402D01*
X0006431Y0006638D01*
X0006278Y0006879D01*
X0006130Y0007123D01*
X0005989Y0007371D01*
X0005853Y0007622D01*
X0005723Y0007876D01*
X0005600Y0008134D01*
X0005483Y0008394D01*
X0005372Y0008657D01*
X0005268Y0008923D01*
X0005170Y0009191D01*
X0005078Y0009461D01*
X0004993Y0009734D01*
X0004915Y0010008D01*
X0004843Y0010284D01*
X0004778Y0010562D01*
X0004720Y0010842D01*
X0004669Y0011123D01*
X0004624Y0011404D01*
X0004586Y0011687D01*
X0004555Y0011971D01*
X0004531Y0012255D01*
X0004514Y0012540D01*
X0004503Y0012826D01*
X0004500Y0013111D01*
D11*
X0017000Y0003800D02*
X0018250Y0002550D01*
X0059500Y0002550D01*
X0059500Y0007550D01*
X0070750Y0007550D01*
X0070750Y0002550D01*
X0059500Y0002550D01*
X0057000Y0003800D02*
X0040750Y0003800D01*
X0040750Y0006300D01*
X0040750Y0008800D01*
X0057000Y0008800D01*
X0057000Y0003800D01*
X0040750Y0006300D02*
X0038250Y0006300D01*
X0035750Y0003800D01*
X0030750Y0003800D01*
X0085750Y0073800D02*
X0099500Y0073800D01*
X0099500Y0081300D01*
X0085750Y0081300D01*
X0085750Y0073800D01*
D12*
X0096558Y0062264D02*
X0095942Y0061134D01*
X0094400Y0061545D02*
X0094402Y0061621D01*
X0094408Y0061697D01*
X0094417Y0061773D01*
X0094430Y0061848D01*
X0094447Y0061923D01*
X0094468Y0061996D01*
X0094492Y0062069D01*
X0094519Y0062140D01*
X0094551Y0062209D01*
X0094585Y0062278D01*
X0094623Y0062344D01*
X0094664Y0062408D01*
X0094708Y0062470D01*
X0095941Y0061134D02*
X0095912Y0061088D01*
X0095880Y0061045D01*
X0095846Y0061003D01*
X0095808Y0060964D01*
X0095769Y0060927D01*
X0095727Y0060893D01*
X0095682Y0060861D01*
X0095636Y0060833D01*
X0095588Y0060808D01*
X0095539Y0060785D01*
X0095488Y0060767D01*
X0095436Y0060751D01*
X0095384Y0060739D01*
X0095330Y0060730D01*
X0095276Y0060725D01*
X0095222Y0060723D01*
X0095166Y0060725D01*
X0095110Y0060731D01*
X0095055Y0060740D01*
X0095000Y0060753D01*
X0094947Y0060770D01*
X0094895Y0060791D01*
X0094844Y0060815D01*
X0094795Y0060843D01*
X0094748Y0060873D01*
X0094703Y0060907D01*
X0094661Y0060944D01*
X0094621Y0060984D01*
X0094584Y0061026D01*
X0094550Y0061071D01*
X0094520Y0061118D01*
X0094492Y0061167D01*
X0094468Y0061218D01*
X0094447Y0061270D01*
X0094430Y0061323D01*
X0094417Y0061378D01*
X0094408Y0061433D01*
X0094402Y0061489D01*
X0094400Y0061545D01*
X0097586Y0060620D02*
X0097642Y0060678D01*
X0097695Y0060738D01*
X0097746Y0060801D01*
X0097793Y0060867D01*
X0097837Y0060934D01*
X0097878Y0061004D01*
X0097916Y0061075D01*
X0097950Y0061148D01*
X0097981Y0061222D01*
X0098009Y0061298D01*
X0098033Y0061375D01*
X0098053Y0061453D01*
X0098070Y0061532D01*
X0098083Y0061612D01*
X0098093Y0061692D01*
X0098098Y0061772D01*
X0098100Y0061853D01*
X0098098Y0061909D01*
X0098092Y0061965D01*
X0098083Y0062020D01*
X0098070Y0062075D01*
X0098053Y0062128D01*
X0098032Y0062180D01*
X0098008Y0062231D01*
X0097980Y0062280D01*
X0097950Y0062327D01*
X0097916Y0062372D01*
X0097879Y0062414D01*
X0097839Y0062454D01*
X0097797Y0062491D01*
X0097752Y0062525D01*
X0097705Y0062555D01*
X0097656Y0062583D01*
X0097605Y0062607D01*
X0097553Y0062628D01*
X0097500Y0062645D01*
X0097445Y0062658D01*
X0097390Y0062667D01*
X0097334Y0062673D01*
X0097278Y0062675D01*
X0097224Y0062673D01*
X0097170Y0062668D01*
X0097116Y0062659D01*
X0097064Y0062647D01*
X0097012Y0062631D01*
X0096961Y0062613D01*
X0096912Y0062590D01*
X0096864Y0062565D01*
X0096818Y0062537D01*
X0096773Y0062505D01*
X0096731Y0062471D01*
X0096692Y0062434D01*
X0096654Y0062395D01*
X0096620Y0062353D01*
X0096588Y0062310D01*
X0096559Y0062264D01*
X0096558Y0058904D02*
X0095942Y0057774D01*
X0094400Y0058185D02*
X0094402Y0058261D01*
X0094408Y0058337D01*
X0094417Y0058413D01*
X0094430Y0058488D01*
X0094447Y0058563D01*
X0094468Y0058636D01*
X0094492Y0058709D01*
X0094519Y0058780D01*
X0094551Y0058849D01*
X0094585Y0058918D01*
X0094623Y0058984D01*
X0094664Y0059048D01*
X0094708Y0059110D01*
X0095941Y0057774D02*
X0095912Y0057728D01*
X0095880Y0057685D01*
X0095846Y0057643D01*
X0095808Y0057604D01*
X0095769Y0057567D01*
X0095727Y0057533D01*
X0095682Y0057501D01*
X0095636Y0057473D01*
X0095588Y0057448D01*
X0095539Y0057425D01*
X0095488Y0057407D01*
X0095436Y0057391D01*
X0095384Y0057379D01*
X0095330Y0057370D01*
X0095276Y0057365D01*
X0095222Y0057363D01*
X0095166Y0057365D01*
X0095110Y0057371D01*
X0095055Y0057380D01*
X0095000Y0057393D01*
X0094947Y0057410D01*
X0094895Y0057431D01*
X0094844Y0057455D01*
X0094795Y0057483D01*
X0094748Y0057513D01*
X0094703Y0057547D01*
X0094661Y0057584D01*
X0094621Y0057624D01*
X0094584Y0057666D01*
X0094550Y0057711D01*
X0094520Y0057758D01*
X0094492Y0057807D01*
X0094468Y0057858D01*
X0094447Y0057910D01*
X0094430Y0057963D01*
X0094417Y0058018D01*
X0094408Y0058073D01*
X0094402Y0058129D01*
X0094400Y0058185D01*
X0097586Y0057260D02*
X0097642Y0057318D01*
X0097695Y0057378D01*
X0097746Y0057441D01*
X0097793Y0057507D01*
X0097837Y0057574D01*
X0097878Y0057644D01*
X0097916Y0057715D01*
X0097950Y0057788D01*
X0097981Y0057862D01*
X0098009Y0057938D01*
X0098033Y0058015D01*
X0098053Y0058093D01*
X0098070Y0058172D01*
X0098083Y0058252D01*
X0098093Y0058332D01*
X0098098Y0058412D01*
X0098100Y0058493D01*
X0098098Y0058549D01*
X0098092Y0058605D01*
X0098083Y0058660D01*
X0098070Y0058715D01*
X0098053Y0058768D01*
X0098032Y0058820D01*
X0098008Y0058871D01*
X0097980Y0058920D01*
X0097950Y0058967D01*
X0097916Y0059012D01*
X0097879Y0059054D01*
X0097839Y0059094D01*
X0097797Y0059131D01*
X0097752Y0059165D01*
X0097705Y0059195D01*
X0097656Y0059223D01*
X0097605Y0059247D01*
X0097553Y0059268D01*
X0097500Y0059285D01*
X0097445Y0059298D01*
X0097390Y0059307D01*
X0097334Y0059313D01*
X0097278Y0059315D01*
X0097224Y0059313D01*
X0097170Y0059308D01*
X0097116Y0059299D01*
X0097064Y0059287D01*
X0097012Y0059271D01*
X0096961Y0059253D01*
X0096912Y0059230D01*
X0096864Y0059205D01*
X0096818Y0059177D01*
X0096773Y0059145D01*
X0096731Y0059111D01*
X0096692Y0059074D01*
X0096654Y0059035D01*
X0096620Y0058993D01*
X0096588Y0058950D01*
X0096559Y0058904D01*
X0098100Y0056031D02*
X0098100Y0054387D01*
X0094400Y0054387D01*
X0094400Y0056031D01*
X0096044Y0055620D02*
X0096044Y0054387D01*
X0096456Y0051916D02*
X0098100Y0052738D01*
X0096456Y0051710D02*
X0096456Y0050682D01*
X0096456Y0051710D02*
X0096454Y0051773D01*
X0096448Y0051836D01*
X0096438Y0051899D01*
X0096425Y0051961D01*
X0096408Y0052022D01*
X0096387Y0052081D01*
X0096362Y0052140D01*
X0096334Y0052196D01*
X0096302Y0052251D01*
X0096267Y0052304D01*
X0096229Y0052354D01*
X0096188Y0052403D01*
X0096144Y0052448D01*
X0096097Y0052491D01*
X0096048Y0052530D01*
X0095996Y0052567D01*
X0095942Y0052600D01*
X0095886Y0052630D01*
X0095829Y0052657D01*
X0095770Y0052680D01*
X0095709Y0052699D01*
X0095648Y0052714D01*
X0095586Y0052726D01*
X0095523Y0052734D01*
X0095460Y0052738D01*
X0095396Y0052738D01*
X0095333Y0052734D01*
X0095270Y0052726D01*
X0095208Y0052714D01*
X0095147Y0052699D01*
X0095086Y0052680D01*
X0095027Y0052657D01*
X0094970Y0052630D01*
X0094914Y0052600D01*
X0094860Y0052567D01*
X0094808Y0052530D01*
X0094759Y0052491D01*
X0094712Y0052448D01*
X0094668Y0052403D01*
X0094627Y0052354D01*
X0094589Y0052304D01*
X0094554Y0052251D01*
X0094522Y0052196D01*
X0094494Y0052140D01*
X0094469Y0052081D01*
X0094448Y0052022D01*
X0094431Y0051961D01*
X0094418Y0051899D01*
X0094408Y0051836D01*
X0094402Y0051773D01*
X0094400Y0051710D01*
X0094400Y0050682D01*
X0098100Y0050682D01*
X0097072Y0048875D02*
X0095428Y0048875D01*
X0095428Y0048876D02*
X0095366Y0048874D01*
X0095304Y0048869D01*
X0095243Y0048859D01*
X0095182Y0048846D01*
X0095122Y0048829D01*
X0095063Y0048809D01*
X0095006Y0048785D01*
X0094950Y0048758D01*
X0094896Y0048728D01*
X0094844Y0048694D01*
X0094794Y0048657D01*
X0094746Y0048617D01*
X0094701Y0048575D01*
X0094659Y0048530D01*
X0094619Y0048482D01*
X0094582Y0048432D01*
X0094548Y0048380D01*
X0094518Y0048326D01*
X0094491Y0048270D01*
X0094467Y0048213D01*
X0094447Y0048154D01*
X0094430Y0048094D01*
X0094417Y0048033D01*
X0094407Y0047972D01*
X0094402Y0047910D01*
X0094400Y0047848D01*
X0094400Y0046820D01*
X0098100Y0046820D01*
X0098100Y0047848D01*
X0098098Y0047910D01*
X0098093Y0047972D01*
X0098083Y0048033D01*
X0098070Y0048094D01*
X0098053Y0048154D01*
X0098033Y0048213D01*
X0098009Y0048270D01*
X0097982Y0048326D01*
X0097952Y0048380D01*
X0097918Y0048432D01*
X0097881Y0048482D01*
X0097841Y0048530D01*
X0097799Y0048575D01*
X0097754Y0048617D01*
X0097706Y0048657D01*
X0097656Y0048694D01*
X0097604Y0048728D01*
X0097550Y0048758D01*
X0097494Y0048785D01*
X0097437Y0048809D01*
X0097378Y0048829D01*
X0097318Y0048846D01*
X0097257Y0048859D01*
X0097196Y0048869D01*
X0097134Y0048874D01*
X0097072Y0048876D01*
X0097072Y0045035D02*
X0095428Y0045035D01*
X0095428Y0045036D02*
X0095366Y0045034D01*
X0095304Y0045029D01*
X0095243Y0045019D01*
X0095182Y0045006D01*
X0095122Y0044989D01*
X0095063Y0044969D01*
X0095006Y0044945D01*
X0094950Y0044918D01*
X0094896Y0044888D01*
X0094844Y0044854D01*
X0094794Y0044817D01*
X0094746Y0044777D01*
X0094701Y0044735D01*
X0094659Y0044690D01*
X0094619Y0044642D01*
X0094582Y0044592D01*
X0094548Y0044540D01*
X0094518Y0044486D01*
X0094491Y0044430D01*
X0094467Y0044373D01*
X0094447Y0044314D01*
X0094430Y0044254D01*
X0094417Y0044193D01*
X0094407Y0044132D01*
X0094402Y0044070D01*
X0094400Y0044008D01*
X0094400Y0042980D01*
X0098100Y0042980D01*
X0098100Y0044008D01*
X0098098Y0044070D01*
X0098093Y0044132D01*
X0098083Y0044193D01*
X0098070Y0044254D01*
X0098053Y0044314D01*
X0098033Y0044373D01*
X0098009Y0044430D01*
X0097982Y0044486D01*
X0097952Y0044540D01*
X0097918Y0044592D01*
X0097881Y0044642D01*
X0097841Y0044690D01*
X0097799Y0044735D01*
X0097754Y0044777D01*
X0097706Y0044817D01*
X0097656Y0044854D01*
X0097604Y0044888D01*
X0097550Y0044918D01*
X0097494Y0044945D01*
X0097437Y0044969D01*
X0097378Y0044989D01*
X0097318Y0045006D01*
X0097257Y0045019D01*
X0097196Y0045029D01*
X0097134Y0045034D01*
X0097072Y0045036D01*
X0098100Y0041521D02*
X0094400Y0040288D01*
X0098100Y0039054D01*
X0097175Y0039363D02*
X0097175Y0041213D01*
X0098100Y0035974D02*
X0098100Y0035152D01*
X0098098Y0035096D01*
X0098092Y0035040D01*
X0098083Y0034985D01*
X0098070Y0034930D01*
X0098053Y0034877D01*
X0098032Y0034825D01*
X0098008Y0034774D01*
X0097980Y0034725D01*
X0097950Y0034678D01*
X0097916Y0034633D01*
X0097879Y0034591D01*
X0097839Y0034551D01*
X0097797Y0034514D01*
X0097752Y0034480D01*
X0097705Y0034450D01*
X0097656Y0034422D01*
X0097605Y0034398D01*
X0097553Y0034377D01*
X0097500Y0034360D01*
X0097445Y0034347D01*
X0097390Y0034338D01*
X0097334Y0034332D01*
X0097278Y0034330D01*
X0095222Y0034330D01*
X0095166Y0034332D01*
X0095110Y0034338D01*
X0095055Y0034347D01*
X0095000Y0034360D01*
X0094947Y0034377D01*
X0094895Y0034398D01*
X0094844Y0034422D01*
X0094795Y0034450D01*
X0094748Y0034480D01*
X0094703Y0034514D01*
X0094661Y0034551D01*
X0094621Y0034591D01*
X0094584Y0034633D01*
X0094550Y0034678D01*
X0094520Y0034725D01*
X0094492Y0034774D01*
X0094468Y0034824D01*
X0094447Y0034877D01*
X0094430Y0034930D01*
X0094417Y0034985D01*
X0094408Y0035040D01*
X0094402Y0035096D01*
X0094400Y0035152D01*
X0094400Y0035974D01*
X0096044Y0032487D02*
X0098100Y0030740D01*
X0098100Y0032795D01*
X0095222Y0030740D02*
X0095158Y0030763D01*
X0095095Y0030789D01*
X0095034Y0030819D01*
X0094975Y0030852D01*
X0094918Y0030889D01*
X0094863Y0030929D01*
X0094811Y0030972D01*
X0094761Y0031018D01*
X0094713Y0031066D01*
X0094669Y0031117D01*
X0094627Y0031171D01*
X0094589Y0031227D01*
X0094554Y0031285D01*
X0094522Y0031345D01*
X0094494Y0031407D01*
X0094469Y0031470D01*
X0094448Y0031535D01*
X0094431Y0031601D01*
X0094417Y0031667D01*
X0094408Y0031734D01*
X0094402Y0031802D01*
X0094400Y0031870D01*
X0094402Y0031928D01*
X0094407Y0031986D01*
X0094416Y0032043D01*
X0094429Y0032100D01*
X0094445Y0032156D01*
X0094465Y0032211D01*
X0094488Y0032264D01*
X0094514Y0032316D01*
X0094544Y0032366D01*
X0094577Y0032414D01*
X0094612Y0032460D01*
X0094651Y0032503D01*
X0094692Y0032544D01*
X0094735Y0032583D01*
X0094781Y0032618D01*
X0094829Y0032651D01*
X0094879Y0032681D01*
X0094931Y0032707D01*
X0094984Y0032730D01*
X0095039Y0032750D01*
X0095095Y0032766D01*
X0095152Y0032779D01*
X0095209Y0032788D01*
X0095267Y0032793D01*
X0095325Y0032795D01*
X0095325Y0032796D02*
X0095387Y0032794D01*
X0095449Y0032788D01*
X0095510Y0032779D01*
X0095570Y0032765D01*
X0095630Y0032748D01*
X0095688Y0032727D01*
X0095745Y0032703D01*
X0095800Y0032675D01*
X0095854Y0032644D01*
X0095905Y0032609D01*
X0095954Y0032572D01*
X0096001Y0032531D01*
X0096045Y0032488D01*
X0094400Y0029299D02*
X0094400Y0028477D01*
X0094400Y0028888D02*
X0098100Y0028888D01*
X0098100Y0028477D02*
X0098100Y0029299D01*
X0094400Y0025355D02*
X0094400Y0023300D01*
X0094400Y0024328D02*
X0098100Y0024328D01*
X0098100Y0022174D02*
X0098100Y0021352D01*
X0098098Y0021296D01*
X0098092Y0021240D01*
X0098083Y0021185D01*
X0098070Y0021130D01*
X0098053Y0021077D01*
X0098032Y0021025D01*
X0098008Y0020974D01*
X0097980Y0020925D01*
X0097950Y0020878D01*
X0097916Y0020833D01*
X0097879Y0020791D01*
X0097839Y0020751D01*
X0097797Y0020714D01*
X0097752Y0020680D01*
X0097705Y0020650D01*
X0097656Y0020622D01*
X0097605Y0020598D01*
X0097553Y0020577D01*
X0097500Y0020560D01*
X0097445Y0020547D01*
X0097390Y0020538D01*
X0097334Y0020532D01*
X0097278Y0020530D01*
X0095222Y0020530D01*
X0095166Y0020532D01*
X0095110Y0020538D01*
X0095055Y0020547D01*
X0095000Y0020560D01*
X0094947Y0020577D01*
X0094895Y0020598D01*
X0094844Y0020622D01*
X0094795Y0020650D01*
X0094748Y0020680D01*
X0094703Y0020714D01*
X0094661Y0020751D01*
X0094621Y0020791D01*
X0094584Y0020833D01*
X0094550Y0020878D01*
X0094520Y0020925D01*
X0094492Y0020974D01*
X0094468Y0021024D01*
X0094447Y0021077D01*
X0094430Y0021130D01*
X0094417Y0021185D01*
X0094408Y0021240D01*
X0094402Y0021296D01*
X0094400Y0021352D01*
X0094400Y0022174D01*
X0094400Y0019191D02*
X0094400Y0017547D01*
X0098100Y0017547D01*
X0098100Y0019191D01*
X0096044Y0018780D02*
X0096044Y0017547D01*
X0098100Y0016071D02*
X0098100Y0014427D01*
X0094400Y0014427D01*
X0094400Y0012951D02*
X0094400Y0011307D01*
X0098100Y0011307D01*
X0098100Y0012951D01*
X0096044Y0012540D02*
X0096044Y0011307D01*
X0096558Y0009344D02*
X0095942Y0008214D01*
X0094400Y0008625D02*
X0094402Y0008701D01*
X0094408Y0008777D01*
X0094417Y0008853D01*
X0094430Y0008928D01*
X0094447Y0009003D01*
X0094468Y0009076D01*
X0094492Y0009149D01*
X0094519Y0009220D01*
X0094551Y0009289D01*
X0094585Y0009358D01*
X0094623Y0009424D01*
X0094664Y0009488D01*
X0094708Y0009550D01*
X0095941Y0008214D02*
X0095912Y0008168D01*
X0095880Y0008125D01*
X0095846Y0008083D01*
X0095808Y0008044D01*
X0095769Y0008007D01*
X0095727Y0007973D01*
X0095682Y0007941D01*
X0095636Y0007913D01*
X0095588Y0007888D01*
X0095539Y0007865D01*
X0095488Y0007847D01*
X0095436Y0007831D01*
X0095384Y0007819D01*
X0095330Y0007810D01*
X0095276Y0007805D01*
X0095222Y0007803D01*
X0095166Y0007805D01*
X0095110Y0007811D01*
X0095055Y0007820D01*
X0095000Y0007833D01*
X0094947Y0007850D01*
X0094895Y0007871D01*
X0094844Y0007895D01*
X0094795Y0007923D01*
X0094748Y0007953D01*
X0094703Y0007987D01*
X0094661Y0008024D01*
X0094621Y0008064D01*
X0094584Y0008106D01*
X0094550Y0008151D01*
X0094520Y0008198D01*
X0094492Y0008247D01*
X0094468Y0008298D01*
X0094447Y0008350D01*
X0094430Y0008403D01*
X0094417Y0008458D01*
X0094408Y0008513D01*
X0094402Y0008569D01*
X0094400Y0008625D01*
X0097586Y0007700D02*
X0097642Y0007758D01*
X0097695Y0007818D01*
X0097746Y0007881D01*
X0097793Y0007947D01*
X0097837Y0008014D01*
X0097878Y0008084D01*
X0097916Y0008155D01*
X0097950Y0008228D01*
X0097981Y0008302D01*
X0098009Y0008378D01*
X0098033Y0008455D01*
X0098053Y0008533D01*
X0098070Y0008612D01*
X0098083Y0008692D01*
X0098093Y0008772D01*
X0098098Y0008852D01*
X0098100Y0008933D01*
X0098098Y0008989D01*
X0098092Y0009045D01*
X0098083Y0009100D01*
X0098070Y0009155D01*
X0098053Y0009208D01*
X0098032Y0009260D01*
X0098008Y0009311D01*
X0097980Y0009360D01*
X0097950Y0009407D01*
X0097916Y0009452D01*
X0097879Y0009494D01*
X0097839Y0009534D01*
X0097797Y0009571D01*
X0097752Y0009605D01*
X0097705Y0009635D01*
X0097656Y0009663D01*
X0097605Y0009687D01*
X0097553Y0009708D01*
X0097500Y0009725D01*
X0097445Y0009738D01*
X0097390Y0009747D01*
X0097334Y0009753D01*
X0097278Y0009755D01*
X0097224Y0009753D01*
X0097170Y0009748D01*
X0097116Y0009739D01*
X0097064Y0009727D01*
X0097012Y0009711D01*
X0096961Y0009693D01*
X0096912Y0009670D01*
X0096864Y0009645D01*
X0096818Y0009617D01*
X0096773Y0009585D01*
X0096731Y0009551D01*
X0096692Y0009514D01*
X0096654Y0009475D01*
X0096620Y0009433D01*
X0096588Y0009390D01*
X0096559Y0009344D01*
X0083100Y0011450D02*
X0080200Y0011450D01*
X0080200Y0012256D01*
X0080202Y0012311D01*
X0080208Y0012366D01*
X0080217Y0012420D01*
X0080230Y0012473D01*
X0080247Y0012526D01*
X0080267Y0012577D01*
X0080290Y0012627D01*
X0080317Y0012675D01*
X0080348Y0012721D01*
X0080381Y0012765D01*
X0080417Y0012806D01*
X0080456Y0012845D01*
X0080497Y0012881D01*
X0080541Y0012914D01*
X0080587Y0012945D01*
X0080635Y0012972D01*
X0080685Y0012995D01*
X0080736Y0013015D01*
X0080789Y0013032D01*
X0080842Y0013045D01*
X0080896Y0013054D01*
X0080951Y0013060D01*
X0081006Y0013062D01*
X0081061Y0013060D01*
X0081116Y0013054D01*
X0081170Y0013045D01*
X0081223Y0013032D01*
X0081276Y0013015D01*
X0081327Y0012995D01*
X0081377Y0012972D01*
X0081425Y0012945D01*
X0081471Y0012914D01*
X0081515Y0012881D01*
X0081556Y0012845D01*
X0081595Y0012806D01*
X0081631Y0012765D01*
X0081664Y0012721D01*
X0081695Y0012675D01*
X0081722Y0012627D01*
X0081745Y0012577D01*
X0081765Y0012526D01*
X0081782Y0012473D01*
X0081795Y0012420D01*
X0081804Y0012366D01*
X0081810Y0012311D01*
X0081812Y0012256D01*
X0081811Y0012256D02*
X0081811Y0011450D01*
X0081811Y0012417D02*
X0083100Y0013061D01*
X0083100Y0014310D02*
X0083100Y0015921D01*
X0083100Y0015115D02*
X0080200Y0015115D01*
X0080844Y0014310D01*
X0080200Y0031450D02*
X0080200Y0032256D01*
X0080202Y0032311D01*
X0080208Y0032366D01*
X0080217Y0032420D01*
X0080230Y0032473D01*
X0080247Y0032526D01*
X0080267Y0032577D01*
X0080290Y0032627D01*
X0080317Y0032675D01*
X0080348Y0032721D01*
X0080381Y0032765D01*
X0080417Y0032806D01*
X0080456Y0032845D01*
X0080497Y0032881D01*
X0080541Y0032914D01*
X0080587Y0032945D01*
X0080635Y0032972D01*
X0080685Y0032995D01*
X0080736Y0033015D01*
X0080789Y0033032D01*
X0080842Y0033045D01*
X0080896Y0033054D01*
X0080951Y0033060D01*
X0081006Y0033062D01*
X0081061Y0033060D01*
X0081116Y0033054D01*
X0081170Y0033045D01*
X0081223Y0033032D01*
X0081276Y0033015D01*
X0081327Y0032995D01*
X0081377Y0032972D01*
X0081425Y0032945D01*
X0081471Y0032914D01*
X0081515Y0032881D01*
X0081556Y0032845D01*
X0081595Y0032806D01*
X0081631Y0032765D01*
X0081664Y0032721D01*
X0081695Y0032675D01*
X0081722Y0032627D01*
X0081745Y0032577D01*
X0081765Y0032526D01*
X0081782Y0032473D01*
X0081795Y0032420D01*
X0081804Y0032366D01*
X0081810Y0032311D01*
X0081812Y0032256D01*
X0081811Y0032256D02*
X0081811Y0031450D01*
X0081811Y0032417D02*
X0083100Y0033061D01*
X0083100Y0034310D02*
X0083100Y0035921D01*
X0083100Y0034310D02*
X0081489Y0035679D01*
X0080200Y0035196D02*
X0080202Y0035137D01*
X0080207Y0035079D01*
X0080217Y0035021D01*
X0080229Y0034964D01*
X0080246Y0034908D01*
X0080265Y0034853D01*
X0080289Y0034799D01*
X0080315Y0034747D01*
X0080345Y0034697D01*
X0080378Y0034648D01*
X0080414Y0034602D01*
X0080453Y0034558D01*
X0080494Y0034517D01*
X0080538Y0034478D01*
X0080584Y0034442D01*
X0080633Y0034410D01*
X0080683Y0034380D01*
X0080735Y0034353D01*
X0080789Y0034330D01*
X0080844Y0034310D01*
X0081489Y0035679D02*
X0081452Y0035716D01*
X0081412Y0035750D01*
X0081370Y0035782D01*
X0081325Y0035810D01*
X0081279Y0035836D01*
X0081232Y0035858D01*
X0081183Y0035877D01*
X0081133Y0035893D01*
X0081082Y0035905D01*
X0081030Y0035914D01*
X0080978Y0035919D01*
X0080925Y0035921D01*
X0080873Y0035919D01*
X0080822Y0035914D01*
X0080771Y0035904D01*
X0080721Y0035892D01*
X0080672Y0035875D01*
X0080624Y0035855D01*
X0080578Y0035832D01*
X0080533Y0035806D01*
X0080491Y0035776D01*
X0080450Y0035744D01*
X0080412Y0035709D01*
X0080377Y0035671D01*
X0080345Y0035630D01*
X0080315Y0035588D01*
X0080289Y0035543D01*
X0080266Y0035497D01*
X0080246Y0035449D01*
X0080229Y0035400D01*
X0080217Y0035350D01*
X0080207Y0035299D01*
X0080202Y0035248D01*
X0080200Y0035196D01*
X0080200Y0031450D02*
X0083100Y0031450D01*
X0083100Y0051450D02*
X0080200Y0051450D01*
X0080200Y0052256D01*
X0080202Y0052311D01*
X0080208Y0052366D01*
X0080217Y0052420D01*
X0080230Y0052473D01*
X0080247Y0052526D01*
X0080267Y0052577D01*
X0080290Y0052627D01*
X0080317Y0052675D01*
X0080348Y0052721D01*
X0080381Y0052765D01*
X0080417Y0052806D01*
X0080456Y0052845D01*
X0080497Y0052881D01*
X0080541Y0052914D01*
X0080587Y0052945D01*
X0080635Y0052972D01*
X0080685Y0052995D01*
X0080736Y0053015D01*
X0080789Y0053032D01*
X0080842Y0053045D01*
X0080896Y0053054D01*
X0080951Y0053060D01*
X0081006Y0053062D01*
X0081061Y0053060D01*
X0081116Y0053054D01*
X0081170Y0053045D01*
X0081223Y0053032D01*
X0081276Y0053015D01*
X0081327Y0052995D01*
X0081377Y0052972D01*
X0081425Y0052945D01*
X0081471Y0052914D01*
X0081515Y0052881D01*
X0081556Y0052845D01*
X0081595Y0052806D01*
X0081631Y0052765D01*
X0081664Y0052721D01*
X0081695Y0052675D01*
X0081722Y0052627D01*
X0081745Y0052577D01*
X0081765Y0052526D01*
X0081782Y0052473D01*
X0081795Y0052420D01*
X0081804Y0052366D01*
X0081810Y0052311D01*
X0081812Y0052256D01*
X0081811Y0052256D02*
X0081811Y0051450D01*
X0081811Y0052417D02*
X0083100Y0053061D01*
X0083100Y0054310D02*
X0083100Y0055115D01*
X0083098Y0055170D01*
X0083092Y0055225D01*
X0083083Y0055279D01*
X0083070Y0055332D01*
X0083053Y0055385D01*
X0083033Y0055436D01*
X0083010Y0055486D01*
X0082983Y0055534D01*
X0082952Y0055580D01*
X0082919Y0055624D01*
X0082883Y0055665D01*
X0082844Y0055704D01*
X0082803Y0055740D01*
X0082759Y0055773D01*
X0082713Y0055804D01*
X0082665Y0055831D01*
X0082615Y0055854D01*
X0082564Y0055874D01*
X0082511Y0055891D01*
X0082458Y0055904D01*
X0082404Y0055913D01*
X0082349Y0055919D01*
X0082294Y0055921D01*
X0082239Y0055919D01*
X0082184Y0055913D01*
X0082130Y0055904D01*
X0082077Y0055891D01*
X0082024Y0055874D01*
X0081973Y0055854D01*
X0081923Y0055831D01*
X0081875Y0055804D01*
X0081829Y0055773D01*
X0081785Y0055740D01*
X0081744Y0055704D01*
X0081705Y0055665D01*
X0081669Y0055624D01*
X0081636Y0055580D01*
X0081605Y0055534D01*
X0081578Y0055486D01*
X0081555Y0055436D01*
X0081535Y0055385D01*
X0081518Y0055332D01*
X0081505Y0055279D01*
X0081496Y0055225D01*
X0081490Y0055170D01*
X0081488Y0055115D01*
X0081489Y0055277D02*
X0081489Y0054632D01*
X0081488Y0055277D02*
X0081486Y0055326D01*
X0081480Y0055375D01*
X0081471Y0055424D01*
X0081458Y0055471D01*
X0081441Y0055518D01*
X0081421Y0055563D01*
X0081398Y0055606D01*
X0081371Y0055648D01*
X0081341Y0055687D01*
X0081308Y0055724D01*
X0081272Y0055758D01*
X0081234Y0055789D01*
X0081194Y0055818D01*
X0081152Y0055843D01*
X0081107Y0055865D01*
X0081062Y0055883D01*
X0081015Y0055898D01*
X0080967Y0055909D01*
X0080918Y0055917D01*
X0080869Y0055921D01*
X0080819Y0055921D01*
X0080770Y0055917D01*
X0080721Y0055909D01*
X0080673Y0055898D01*
X0080626Y0055883D01*
X0080581Y0055865D01*
X0080536Y0055843D01*
X0080494Y0055818D01*
X0080454Y0055789D01*
X0080416Y0055758D01*
X0080380Y0055724D01*
X0080347Y0055687D01*
X0080317Y0055648D01*
X0080290Y0055606D01*
X0080267Y0055563D01*
X0080247Y0055518D01*
X0080230Y0055471D01*
X0080217Y0055424D01*
X0080208Y0055375D01*
X0080202Y0055326D01*
X0080200Y0055277D01*
X0080200Y0054310D01*
D13*
X0048990Y0075120D03*
X0048970Y0075060D03*
X0048950Y0074980D03*
X0048930Y0074920D03*
X0048910Y0074860D03*
X0048890Y0074780D03*
X0048870Y0074720D03*
X0048850Y0074680D03*
X0048850Y0074660D03*
X0048830Y0074620D03*
X0048810Y0074560D03*
X0048790Y0074520D03*
X0048770Y0074460D03*
X0048750Y0074420D03*
X0048730Y0074360D03*
X0048710Y0074320D03*
X0048690Y0074280D03*
X0048690Y0074260D03*
X0048670Y0074220D03*
X0048650Y0074180D03*
X0046050Y0076720D03*
X0045230Y0076960D03*
X0045610Y0078420D03*
X0043490Y0075080D03*
X0041770Y0076920D03*
X0041750Y0076960D03*
X0041750Y0076980D03*
X0040410Y0079260D03*
X0039270Y0079420D03*
X0039270Y0075080D03*
X0038310Y0074260D03*
X0038330Y0074220D03*
X0038350Y0074180D03*
X0038350Y0074160D03*
X0038370Y0074120D03*
X0038410Y0074060D03*
X0043510Y0070620D03*
D14*
X0043510Y0070640D03*
X0043490Y0076100D03*
X0041030Y0076000D03*
X0039270Y0076100D03*
D15*
X0043500Y0076780D03*
X0045900Y0075520D03*
X0043500Y0070660D03*
D16*
X0043500Y0070680D03*
X0045860Y0075180D03*
X0043500Y0077380D03*
X0039260Y0077380D03*
X0043500Y0082560D03*
D17*
X0043500Y0082540D03*
X0047720Y0078600D03*
X0047720Y0077840D03*
X0045820Y0074940D03*
X0043500Y0070700D03*
D18*
X0043500Y0070720D03*
X0041220Y0074680D03*
X0045780Y0074680D03*
X0047720Y0078280D03*
X0047720Y0078320D03*
X0047720Y0078420D03*
X0043500Y0082520D03*
D19*
X0043500Y0078640D03*
X0045740Y0074500D03*
X0043500Y0070740D03*
X0041240Y0074500D03*
D20*
X0043500Y0070760D03*
X0045720Y0074360D03*
X0045720Y0074380D03*
X0043500Y0078880D03*
X0043500Y0082480D03*
D21*
X0043490Y0079120D03*
X0043510Y0070780D03*
D22*
X0043510Y0070800D03*
X0041330Y0074140D03*
X0043490Y0079300D03*
D23*
X0043500Y0079420D03*
X0043500Y0082420D03*
X0043500Y0070820D03*
D24*
X0043500Y0070840D03*
X0041380Y0074000D03*
D25*
X0043510Y0070860D03*
D26*
X0043510Y0070880D03*
D27*
X0043500Y0070900D03*
D28*
X0043500Y0070920D03*
D29*
X0043500Y0070940D03*
X0043500Y0082300D03*
D30*
X0041380Y0073820D03*
X0043500Y0070960D03*
D31*
X0043500Y0070980D03*
X0043500Y0082260D03*
D32*
X0043500Y0082240D03*
X0043500Y0071000D03*
D33*
X0043500Y0071020D03*
D34*
X0043500Y0071040D03*
X0043500Y0082200D03*
D35*
X0043500Y0071060D03*
D36*
X0043500Y0071080D03*
X0043500Y0082160D03*
D37*
X0043510Y0071100D03*
D38*
X0043500Y0071120D03*
D39*
X0043500Y0071140D03*
X0043500Y0082100D03*
D40*
X0043500Y0082080D03*
X0043500Y0071160D03*
D41*
X0043500Y0071180D03*
X0043500Y0082060D03*
D42*
X0043500Y0082040D03*
X0043500Y0071200D03*
D43*
X0043510Y0071220D03*
D44*
X0043510Y0071240D03*
D45*
X0043510Y0071260D03*
D46*
X0043510Y0071280D03*
D47*
X0043500Y0071300D03*
X0043500Y0081940D03*
D48*
X0043500Y0081920D03*
X0043500Y0071320D03*
D49*
X0043500Y0071340D03*
X0043500Y0081900D03*
D50*
X0043500Y0081880D03*
X0043500Y0071360D03*
D51*
X0043500Y0071380D03*
D52*
X0043500Y0071400D03*
X0043500Y0081840D03*
D53*
X0043500Y0081820D03*
X0043500Y0071420D03*
D54*
X0043500Y0071440D03*
X0043500Y0081800D03*
D55*
X0043500Y0071460D03*
D56*
X0043500Y0071480D03*
X0043500Y0081760D03*
D57*
X0043500Y0081740D03*
X0043500Y0071500D03*
D58*
X0043510Y0071520D03*
D59*
X0043500Y0071540D03*
X0043500Y0081700D03*
D60*
X0043500Y0071560D03*
D61*
X0043500Y0071580D03*
X0043500Y0081660D03*
D62*
X0043500Y0071600D03*
D63*
X0043500Y0071620D03*
X0043500Y0081620D03*
D64*
X0043500Y0081600D03*
X0043500Y0071640D03*
D65*
X0043500Y0071660D03*
X0043500Y0081580D03*
D66*
X0043500Y0071680D03*
D67*
X0043500Y0071700D03*
X0043500Y0081540D03*
D68*
X0043510Y0071720D03*
D69*
X0043500Y0071740D03*
X0043500Y0081500D03*
D70*
X0043500Y0081480D03*
X0043500Y0071760D03*
D71*
X0043500Y0071780D03*
D72*
X0043500Y0071800D03*
X0043500Y0081440D03*
D73*
X0043500Y0081420D03*
X0043500Y0071820D03*
D74*
X0043500Y0071840D03*
D75*
X0043500Y0071860D03*
X0043500Y0081380D03*
D76*
X0043500Y0081360D03*
X0043500Y0071880D03*
D77*
X0043510Y0071900D03*
D78*
X0043500Y0071920D03*
X0043500Y0081320D03*
D79*
X0043500Y0081300D03*
X0043500Y0071940D03*
D80*
X0043500Y0071960D03*
X0043500Y0081280D03*
D81*
X0043500Y0081260D03*
X0043500Y0071980D03*
D82*
X0043500Y0072000D03*
D83*
X0043500Y0072020D03*
X0043500Y0081220D03*
D84*
X0043500Y0081200D03*
X0043500Y0072040D03*
D85*
X0043500Y0072060D03*
X0043500Y0081180D03*
D86*
X0043500Y0081160D03*
X0043500Y0072080D03*
D87*
X0043500Y0072100D03*
D88*
X0043500Y0072120D03*
D89*
X0043500Y0072140D03*
X0043500Y0081100D03*
D90*
X0043500Y0081080D03*
X0043500Y0072160D03*
D91*
X0043500Y0072180D03*
X0043500Y0081060D03*
D92*
X0043500Y0081040D03*
X0043500Y0072200D03*
D93*
X0043500Y0072220D03*
X0043500Y0081020D03*
D94*
X0043500Y0081000D03*
X0043500Y0072240D03*
D95*
X0043500Y0072260D03*
X0043500Y0080980D03*
D96*
X0043500Y0080960D03*
X0043500Y0072280D03*
D97*
X0043500Y0072300D03*
X0043500Y0080940D03*
D98*
X0043500Y0080920D03*
X0043500Y0072320D03*
D99*
X0043500Y0072340D03*
X0043500Y0080900D03*
D100*
X0043500Y0080880D03*
X0043500Y0072360D03*
D101*
X0043500Y0072380D03*
X0043500Y0080860D03*
D102*
X0043500Y0080840D03*
X0043500Y0072400D03*
D103*
X0043500Y0072420D03*
X0043500Y0080820D03*
D104*
X0043500Y0080800D03*
X0043500Y0072440D03*
D105*
X0043500Y0072460D03*
X0043500Y0080780D03*
D106*
X0043500Y0080760D03*
X0043500Y0072480D03*
D107*
X0043500Y0072500D03*
X0043500Y0080740D03*
D108*
X0043500Y0080720D03*
X0043500Y0072520D03*
D109*
X0043500Y0072540D03*
X0043500Y0080700D03*
D110*
X0043500Y0080680D03*
X0043500Y0072560D03*
D111*
X0043500Y0072580D03*
X0043500Y0080660D03*
D112*
X0043500Y0080640D03*
X0043500Y0072600D03*
D113*
X0043500Y0072620D03*
X0043500Y0080620D03*
D114*
X0043500Y0072640D03*
D115*
X0043500Y0072660D03*
X0043500Y0072680D03*
X0043500Y0080560D03*
D116*
X0043500Y0080540D03*
X0043500Y0072700D03*
D117*
X0043500Y0072720D03*
X0043500Y0080520D03*
D118*
X0043500Y0080500D03*
X0043500Y0072740D03*
D119*
X0043500Y0072760D03*
X0043500Y0080460D03*
X0043500Y0080480D03*
D120*
X0043500Y0072780D03*
D121*
X0043500Y0072800D03*
X0043500Y0080440D03*
D122*
X0043500Y0080420D03*
X0043500Y0072820D03*
D123*
X0043500Y0072840D03*
X0043500Y0080400D03*
D124*
X0043500Y0080380D03*
X0043500Y0072860D03*
D125*
X0043500Y0072880D03*
D126*
X0043510Y0072900D03*
D127*
X0043500Y0072920D03*
X0043500Y0080320D03*
D128*
X0043500Y0080300D03*
X0043500Y0072940D03*
D129*
X0043500Y0072960D03*
X0043500Y0080260D03*
X0043500Y0080280D03*
D130*
X0043500Y0072980D03*
D131*
X0043500Y0073000D03*
X0043500Y0080240D03*
D132*
X0043500Y0080220D03*
X0043500Y0073020D03*
D133*
X0043500Y0073040D03*
X0043500Y0080200D03*
D134*
X0043500Y0080160D03*
X0043500Y0073080D03*
X0043500Y0073060D03*
D135*
X0043500Y0073100D03*
X0043500Y0080140D03*
D136*
X0043500Y0080120D03*
X0043500Y0073120D03*
D137*
X0043510Y0073140D03*
D138*
X0043500Y0073160D03*
X0043500Y0080080D03*
D139*
X0043500Y0080060D03*
X0043500Y0073180D03*
D140*
X0043500Y0073200D03*
D141*
X0043500Y0073220D03*
X0043500Y0080020D03*
D142*
X0043500Y0080000D03*
X0043500Y0073240D03*
D143*
X0043500Y0073260D03*
X0043500Y0073280D03*
X0043500Y0079960D03*
D144*
X0043500Y0079940D03*
X0043500Y0073300D03*
D145*
X0043500Y0073320D03*
D146*
X0043500Y0073340D03*
X0043500Y0079900D03*
D147*
X0043500Y0079880D03*
X0043500Y0079860D03*
X0043500Y0073360D03*
D148*
X0043500Y0073380D03*
D149*
X0043500Y0073400D03*
X0043500Y0079840D03*
D150*
X0043500Y0079820D03*
X0043500Y0073420D03*
D151*
X0043500Y0073440D03*
X0043500Y0079800D03*
D152*
X0043500Y0079780D03*
X0043500Y0073460D03*
D153*
X0043500Y0073480D03*
D154*
X0043500Y0073500D03*
X0043500Y0079740D03*
D155*
X0043500Y0079720D03*
X0043500Y0073520D03*
D156*
X0043500Y0073540D03*
D157*
X0043500Y0073560D03*
D158*
X0043500Y0073580D03*
D159*
X0043500Y0073600D03*
D160*
X0043500Y0073620D03*
D161*
X0043500Y0073640D03*
D162*
X0043500Y0073660D03*
D163*
X0043500Y0073680D03*
D164*
X0043500Y0073700D03*
D165*
X0043500Y0073720D03*
D166*
X0043500Y0073740D03*
D167*
X0043500Y0073760D03*
X0043500Y0073780D03*
D168*
X0043500Y0073800D03*
D169*
X0041000Y0076280D03*
X0038680Y0073820D03*
X0046000Y0076280D03*
X0047720Y0075680D03*
X0047720Y0075660D03*
X0047720Y0075620D03*
D170*
X0045610Y0073820D03*
D171*
X0045990Y0076260D03*
X0048310Y0073820D03*
X0043490Y0075660D03*
X0043490Y0075680D03*
X0040990Y0076260D03*
X0039270Y0075680D03*
X0039270Y0075660D03*
D172*
X0039260Y0075500D03*
X0038620Y0073840D03*
X0040980Y0076400D03*
X0041440Y0077840D03*
X0041380Y0078040D03*
X0043500Y0075500D03*
X0045540Y0077800D03*
X0045560Y0077840D03*
X0045580Y0077900D03*
X0045600Y0078040D03*
X0046620Y0079400D03*
X0047720Y0079340D03*
X0047720Y0075500D03*
X0048380Y0073840D03*
D173*
X0041380Y0073840D03*
D174*
X0045600Y0073840D03*
D175*
X0043490Y0075360D03*
X0043490Y0075380D03*
X0040970Y0076460D03*
X0040970Y0076480D03*
X0041530Y0077580D03*
X0041510Y0077620D03*
X0040390Y0079360D03*
X0039270Y0079360D03*
X0039270Y0075380D03*
X0039270Y0075360D03*
X0038590Y0073860D03*
X0045470Y0077620D03*
X0045610Y0078160D03*
X0046610Y0079360D03*
X0048410Y0073860D03*
D176*
X0041380Y0073860D03*
D177*
X0045610Y0073860D03*
D178*
X0043490Y0075320D03*
X0040970Y0076520D03*
X0041590Y0077420D03*
X0041570Y0077460D03*
X0041570Y0077480D03*
X0039270Y0075320D03*
X0038550Y0073880D03*
X0045410Y0077460D03*
X0045610Y0078220D03*
X0046030Y0076560D03*
X0046030Y0076520D03*
D179*
X0041380Y0073880D03*
D180*
X0045610Y0073880D03*
D181*
X0048440Y0073880D03*
X0045440Y0077520D03*
X0045600Y0078180D03*
X0041560Y0077520D03*
X0041540Y0077560D03*
D182*
X0041600Y0077400D03*
X0041620Y0077340D03*
X0041380Y0078240D03*
X0038540Y0073900D03*
X0047720Y0075240D03*
X0047720Y0075300D03*
D183*
X0041380Y0073900D03*
D184*
X0045610Y0073900D03*
D185*
X0043490Y0075300D03*
X0040970Y0076540D03*
X0041590Y0077440D03*
X0040390Y0079340D03*
X0039270Y0075300D03*
X0045390Y0077400D03*
X0045410Y0077440D03*
X0045610Y0078200D03*
X0045610Y0078240D03*
X0046030Y0076540D03*
X0048470Y0073900D03*
D186*
X0046030Y0076580D03*
X0045350Y0077280D03*
X0045610Y0078280D03*
X0048330Y0079620D03*
X0043490Y0075220D03*
X0041650Y0077260D03*
X0041650Y0077280D03*
X0041630Y0077320D03*
X0039270Y0075220D03*
X0038510Y0073920D03*
D187*
X0041390Y0073920D03*
X0045610Y0073920D03*
D188*
X0047720Y0075260D03*
X0047720Y0075280D03*
X0048480Y0073920D03*
X0045360Y0077320D03*
X0045380Y0077360D03*
X0045380Y0077380D03*
X0045400Y0077420D03*
X0045600Y0078260D03*
X0046600Y0079320D03*
X0047720Y0079380D03*
X0043500Y0075280D03*
X0043500Y0075260D03*
X0041620Y0077360D03*
X0041600Y0077380D03*
X0041380Y0078260D03*
X0041380Y0078280D03*
X0040400Y0079320D03*
X0039260Y0079380D03*
X0040960Y0076580D03*
X0040960Y0076560D03*
X0039260Y0075280D03*
X0039260Y0075260D03*
D189*
X0038500Y0073940D03*
X0043500Y0075200D03*
X0040400Y0079300D03*
D190*
X0041380Y0073940D03*
D191*
X0045610Y0073940D03*
D192*
X0043490Y0075240D03*
X0045330Y0077240D03*
X0045350Y0077300D03*
X0045370Y0077340D03*
X0045610Y0078300D03*
X0046590Y0079300D03*
X0046030Y0076600D03*
X0048510Y0073940D03*
X0041630Y0077300D03*
X0040950Y0076600D03*
X0039270Y0075240D03*
D193*
X0038480Y0073960D03*
X0040960Y0076620D03*
X0041680Y0077160D03*
X0041680Y0077180D03*
X0041660Y0077220D03*
X0041380Y0078320D03*
X0041380Y0078360D03*
X0038660Y0079620D03*
X0045320Y0077220D03*
X0045340Y0077260D03*
X0046040Y0076620D03*
X0047720Y0075220D03*
X0047720Y0075180D03*
X0048540Y0073980D03*
X0048520Y0073960D03*
D194*
X0045600Y0073960D03*
X0041380Y0073960D03*
D195*
X0039270Y0075160D03*
X0039270Y0075180D03*
X0038470Y0073980D03*
X0045270Y0077060D03*
X0045270Y0077080D03*
D196*
X0041380Y0073980D03*
D197*
X0045600Y0073980D03*
D198*
X0048550Y0074000D03*
X0045290Y0077100D03*
X0045290Y0077140D03*
X0045610Y0078340D03*
X0041710Y0077100D03*
X0041690Y0077140D03*
X0040950Y0076640D03*
X0038450Y0074000D03*
D199*
X0043490Y0079540D03*
X0045610Y0074000D03*
D200*
X0043500Y0075120D03*
X0045240Y0076980D03*
X0045260Y0077020D03*
X0046040Y0076680D03*
X0046040Y0076660D03*
X0047720Y0075160D03*
X0047720Y0075120D03*
X0048640Y0074160D03*
X0048620Y0074120D03*
X0048600Y0074080D03*
X0048580Y0074060D03*
X0046580Y0079260D03*
X0041740Y0077020D03*
X0041720Y0077060D03*
X0040940Y0076680D03*
X0041380Y0078380D03*
X0041380Y0078420D03*
X0039260Y0075120D03*
X0038400Y0074080D03*
X0038440Y0074020D03*
D201*
X0041380Y0074020D03*
X0045620Y0074020D03*
D202*
X0043490Y0075160D03*
X0043490Y0075180D03*
X0041710Y0077080D03*
X0041690Y0077120D03*
X0040950Y0076660D03*
X0040410Y0079280D03*
X0045610Y0078380D03*
X0045610Y0078360D03*
X0045310Y0077180D03*
X0045290Y0077120D03*
X0046590Y0079280D03*
X0048550Y0074020D03*
D203*
X0048600Y0074100D03*
X0048660Y0074200D03*
X0047720Y0075100D03*
X0047720Y0075140D03*
X0045240Y0077000D03*
X0045260Y0077040D03*
X0045600Y0078400D03*
X0048360Y0079600D03*
X0043500Y0075140D03*
X0041740Y0077000D03*
X0041720Y0077040D03*
X0041380Y0078400D03*
X0039260Y0075140D03*
X0038420Y0074040D03*
D204*
X0041360Y0074040D03*
D205*
X0045630Y0074040D03*
D206*
X0048570Y0074040D03*
X0039270Y0079400D03*
D207*
X0041360Y0074060D03*
D208*
X0045630Y0074060D03*
D209*
X0041350Y0074080D03*
D210*
X0045630Y0074080D03*
D211*
X0043490Y0075100D03*
X0045210Y0076900D03*
X0045230Y0076940D03*
X0046050Y0076700D03*
X0045610Y0078440D03*
X0041770Y0076940D03*
X0040950Y0076700D03*
X0039270Y0075100D03*
X0038170Y0074600D03*
X0038230Y0074440D03*
X0038270Y0074340D03*
X0038290Y0074300D03*
X0038330Y0074200D03*
X0038370Y0074140D03*
X0038390Y0074100D03*
X0038630Y0079600D03*
X0048950Y0075000D03*
X0048910Y0074840D03*
X0048890Y0074800D03*
X0048870Y0074740D03*
X0048830Y0074600D03*
X0048790Y0074500D03*
X0048770Y0074440D03*
X0048750Y0074400D03*
X0048730Y0074340D03*
X0048710Y0074300D03*
X0048670Y0074240D03*
X0048630Y0074140D03*
X0049010Y0075200D03*
D212*
X0045650Y0074100D03*
X0041350Y0074100D03*
D213*
X0041340Y0074120D03*
D214*
X0045650Y0074120D03*
D215*
X0045660Y0074140D03*
D216*
X0041320Y0074160D03*
D217*
X0045670Y0074160D03*
X0043490Y0079260D03*
D218*
X0041320Y0074180D03*
D219*
X0045670Y0074180D03*
D220*
X0045680Y0074200D03*
X0041320Y0074200D03*
D221*
X0039260Y0074220D03*
X0037700Y0077620D03*
X0040840Y0077620D03*
X0044260Y0074560D03*
X0044240Y0074520D03*
X0043500Y0074220D03*
X0046160Y0077620D03*
X0046460Y0078680D03*
D222*
X0043490Y0079160D03*
X0041310Y0074220D03*
D223*
X0045680Y0074220D03*
D224*
X0047720Y0074220D03*
X0049280Y0077620D03*
X0048980Y0078680D03*
X0040520Y0078680D03*
X0038020Y0078680D03*
D225*
X0040420Y0079240D03*
X0041380Y0078440D03*
X0041780Y0076900D03*
X0041800Y0076840D03*
X0040940Y0076740D03*
X0037960Y0075300D03*
X0038000Y0075140D03*
X0038040Y0075000D03*
X0038060Y0074940D03*
X0038080Y0074840D03*
X0038100Y0074800D03*
X0038120Y0074740D03*
X0038140Y0074700D03*
X0038160Y0074640D03*
X0038200Y0074540D03*
X0038200Y0074500D03*
X0038240Y0074400D03*
X0038320Y0074240D03*
X0046580Y0079240D03*
X0047720Y0075040D03*
X0048840Y0074640D03*
X0048860Y0074700D03*
X0048800Y0074540D03*
X0048920Y0074900D03*
X0048940Y0074940D03*
X0048960Y0075040D03*
X0048980Y0075100D03*
X0049000Y0075140D03*
X0049020Y0075240D03*
X0049040Y0075300D03*
X0049040Y0075340D03*
X0049060Y0075400D03*
D226*
X0047710Y0074240D03*
X0044290Y0074600D03*
X0043490Y0074240D03*
X0042710Y0074600D03*
X0039270Y0074240D03*
X0040510Y0078700D03*
X0038010Y0078700D03*
X0045610Y0079300D03*
X0046470Y0078700D03*
X0048970Y0078700D03*
X0049290Y0077600D03*
D227*
X0045690Y0074240D03*
X0041310Y0074240D03*
D228*
X0042660Y0074680D03*
X0043500Y0074260D03*
X0044300Y0074620D03*
X0044320Y0074660D03*
X0047720Y0074260D03*
X0049300Y0077560D03*
X0048960Y0078720D03*
X0046480Y0078720D03*
X0041380Y0079260D03*
X0041380Y0079280D03*
X0040520Y0078720D03*
X0040840Y0077580D03*
X0040840Y0077560D03*
X0038020Y0078720D03*
X0037700Y0077580D03*
X0037700Y0077560D03*
X0039260Y0074260D03*
D229*
X0041300Y0074260D03*
X0039740Y0079680D03*
X0043500Y0082460D03*
X0047260Y0079680D03*
D230*
X0043490Y0079080D03*
X0043490Y0079060D03*
X0045690Y0074260D03*
D231*
X0047720Y0075060D03*
X0047720Y0075080D03*
X0048880Y0074760D03*
X0048900Y0074820D03*
X0048920Y0074880D03*
X0048940Y0074960D03*
X0048960Y0075020D03*
X0048980Y0075080D03*
X0049000Y0075160D03*
X0049000Y0075180D03*
X0049020Y0075220D03*
X0049020Y0075260D03*
X0049040Y0075320D03*
X0049060Y0075380D03*
X0049060Y0075420D03*
X0049080Y0075480D03*
X0048820Y0074580D03*
X0048780Y0074480D03*
X0048740Y0074380D03*
X0045180Y0076820D03*
X0045200Y0076860D03*
X0045200Y0076880D03*
X0045220Y0076920D03*
X0045600Y0078460D03*
X0047720Y0079420D03*
X0048400Y0079580D03*
X0043500Y0082620D03*
X0041380Y0078480D03*
X0041380Y0078460D03*
X0041780Y0076880D03*
X0041800Y0076860D03*
X0040940Y0076720D03*
X0039260Y0075060D03*
X0038120Y0074760D03*
X0038100Y0074780D03*
X0038100Y0074820D03*
X0038080Y0074860D03*
X0038080Y0074880D03*
X0038060Y0074920D03*
X0038060Y0074960D03*
X0038040Y0074980D03*
X0038040Y0075020D03*
X0038020Y0075060D03*
X0038020Y0075080D03*
X0038000Y0075160D03*
X0037980Y0075220D03*
X0037940Y0075380D03*
X0038120Y0074720D03*
X0038140Y0074680D03*
X0038140Y0074660D03*
X0038160Y0074620D03*
X0038180Y0074580D03*
X0038180Y0074560D03*
X0038200Y0074520D03*
X0038220Y0074480D03*
X0038220Y0074460D03*
X0038240Y0074420D03*
X0038260Y0074380D03*
X0038260Y0074360D03*
X0038280Y0074320D03*
X0038300Y0074280D03*
X0043500Y0075060D03*
D232*
X0043490Y0074280D03*
X0042670Y0074660D03*
X0044330Y0074680D03*
X0044350Y0074720D03*
X0046150Y0077560D03*
X0045610Y0079260D03*
X0040850Y0077520D03*
X0037690Y0077520D03*
X0039270Y0074280D03*
D233*
X0041300Y0074280D03*
X0045700Y0074280D03*
X0047280Y0079660D03*
X0039700Y0079660D03*
D234*
X0040500Y0078760D03*
X0041380Y0079220D03*
X0038020Y0078760D03*
X0042620Y0074760D03*
X0042640Y0074720D03*
X0044380Y0074780D03*
X0046140Y0077520D03*
X0046480Y0078760D03*
X0048960Y0078760D03*
X0048960Y0078780D03*
X0049300Y0077520D03*
X0047720Y0074280D03*
D235*
X0047720Y0074300D03*
X0044360Y0074740D03*
X0044340Y0074700D03*
X0043500Y0074300D03*
X0042600Y0074800D03*
X0039260Y0074300D03*
X0041380Y0079240D03*
X0046140Y0077500D03*
X0049300Y0077500D03*
D236*
X0041290Y0074300D03*
D237*
X0045700Y0074300D03*
X0043500Y0079000D03*
D238*
X0042570Y0074860D03*
X0044370Y0074760D03*
X0039270Y0074320D03*
X0038030Y0078780D03*
D239*
X0041280Y0074320D03*
D240*
X0042590Y0074820D03*
X0042610Y0074780D03*
X0043490Y0074320D03*
X0040850Y0077480D03*
X0040510Y0078780D03*
X0037690Y0077480D03*
X0045610Y0079220D03*
X0046490Y0078780D03*
X0049310Y0077480D03*
D241*
X0045710Y0074320D03*
X0043490Y0078960D03*
X0043490Y0078980D03*
D242*
X0041380Y0079180D03*
X0040860Y0077460D03*
X0042560Y0074880D03*
X0044420Y0074860D03*
X0046140Y0077460D03*
X0046140Y0077480D03*
X0047720Y0074360D03*
X0047720Y0074320D03*
X0037680Y0077460D03*
D243*
X0037680Y0077440D03*
X0038040Y0078800D03*
X0040860Y0077440D03*
X0041380Y0079200D03*
X0042580Y0074840D03*
X0044440Y0074900D03*
X0046140Y0077440D03*
X0046480Y0078800D03*
X0048960Y0078800D03*
X0047720Y0074340D03*
X0039260Y0074340D03*
D244*
X0041280Y0074340D03*
X0043500Y0078940D03*
D245*
X0040500Y0078800D03*
X0043500Y0074340D03*
D246*
X0045710Y0074340D03*
X0043490Y0078900D03*
D247*
X0045610Y0079160D03*
X0045610Y0079180D03*
X0046490Y0078820D03*
X0046130Y0077420D03*
X0044470Y0074960D03*
X0044450Y0074920D03*
X0044430Y0074880D03*
X0043490Y0074360D03*
X0042550Y0074920D03*
X0039270Y0074360D03*
X0040490Y0078820D03*
X0038030Y0078820D03*
X0048950Y0078820D03*
X0049310Y0077420D03*
D248*
X0043490Y0078920D03*
X0041270Y0074360D03*
D249*
X0042520Y0074960D03*
X0042520Y0074980D03*
X0042500Y0075020D03*
X0043500Y0074380D03*
X0044480Y0074980D03*
X0047720Y0074380D03*
X0040860Y0077420D03*
X0041380Y0079160D03*
X0037680Y0077420D03*
X0039260Y0074380D03*
D250*
X0041270Y0074380D03*
X0043490Y0078860D03*
D251*
X0044530Y0075100D03*
X0043490Y0074400D03*
X0042490Y0075040D03*
X0039270Y0074400D03*
D252*
X0041260Y0074400D03*
D253*
X0045720Y0074400D03*
D254*
X0044480Y0075000D03*
X0044500Y0075040D03*
X0042500Y0075000D03*
X0040860Y0077400D03*
X0040500Y0078840D03*
X0041380Y0079140D03*
X0038040Y0078840D03*
X0037680Y0077400D03*
X0045600Y0079140D03*
X0046500Y0078840D03*
X0047720Y0079540D03*
X0048940Y0078840D03*
X0049320Y0077400D03*
X0047720Y0074400D03*
X0046140Y0077400D03*
D255*
X0046130Y0077380D03*
X0046130Y0077360D03*
X0046490Y0078860D03*
X0045610Y0079120D03*
X0048950Y0078860D03*
X0049310Y0077380D03*
X0044510Y0075060D03*
X0044490Y0075020D03*
X0043490Y0074420D03*
X0042470Y0075060D03*
X0042470Y0075080D03*
X0042450Y0075120D03*
X0040870Y0077360D03*
X0040870Y0077380D03*
X0040490Y0078860D03*
X0038050Y0078860D03*
X0037670Y0077380D03*
X0037670Y0077360D03*
X0039270Y0074420D03*
D256*
X0041270Y0074420D03*
X0045730Y0074420D03*
X0043490Y0078780D03*
D257*
X0041380Y0079080D03*
X0041380Y0079120D03*
X0040480Y0078880D03*
X0044520Y0075080D03*
X0046120Y0077320D03*
X0047720Y0074420D03*
X0049320Y0077360D03*
D258*
X0048930Y0078900D03*
X0048910Y0078940D03*
X0046510Y0078900D03*
X0044590Y0075240D03*
X0044570Y0075200D03*
X0043490Y0074440D03*
X0042410Y0075200D03*
X0040870Y0077300D03*
X0040490Y0078900D03*
X0039270Y0074440D03*
D259*
X0041260Y0074440D03*
D260*
X0045730Y0074440D03*
X0043490Y0078740D03*
D261*
X0041380Y0079100D03*
X0038080Y0078940D03*
X0046120Y0077340D03*
X0047720Y0074440D03*
X0049320Y0077340D03*
D262*
X0049330Y0077320D03*
X0048930Y0078920D03*
X0045610Y0079060D03*
X0045610Y0079080D03*
X0044570Y0075180D03*
X0043490Y0074460D03*
X0042430Y0075160D03*
X0042430Y0075180D03*
X0042410Y0075220D03*
X0040870Y0077320D03*
X0039270Y0074460D03*
X0037670Y0077320D03*
X0038070Y0078920D03*
X0038090Y0078960D03*
D263*
X0041250Y0074460D03*
X0043490Y0078720D03*
D264*
X0045740Y0074460D03*
D265*
X0044580Y0075220D03*
X0044600Y0075260D03*
X0044600Y0075280D03*
X0043500Y0074480D03*
X0042400Y0075260D03*
X0042380Y0075280D03*
X0040880Y0077280D03*
X0040480Y0078920D03*
X0041380Y0079060D03*
X0038100Y0078980D03*
X0037660Y0077280D03*
X0037660Y0077260D03*
X0039260Y0074480D03*
X0046120Y0077280D03*
X0046500Y0078920D03*
X0048900Y0078960D03*
X0047720Y0074480D03*
X0047720Y0074460D03*
D266*
X0045750Y0074480D03*
X0041250Y0074480D03*
X0043490Y0078660D03*
X0043490Y0078680D03*
D267*
X0045610Y0079040D03*
X0046510Y0078940D03*
X0046110Y0077240D03*
X0044630Y0075340D03*
X0044610Y0075300D03*
X0043490Y0074500D03*
X0042370Y0075300D03*
X0042350Y0075340D03*
X0039270Y0074500D03*
X0037670Y0077200D03*
X0037670Y0077240D03*
X0040470Y0078940D03*
X0048850Y0079040D03*
X0049330Y0077240D03*
D268*
X0049320Y0077300D03*
X0048880Y0079000D03*
X0046120Y0077300D03*
X0047720Y0074500D03*
X0042400Y0075240D03*
X0041380Y0079040D03*
X0038140Y0079040D03*
X0038120Y0079000D03*
X0037660Y0077300D03*
D269*
X0037660Y0077180D03*
X0039260Y0079520D03*
X0041380Y0079020D03*
X0041380Y0078980D03*
X0040880Y0077220D03*
X0042320Y0075420D03*
X0042340Y0075380D03*
X0043500Y0074520D03*
X0044640Y0075360D03*
X0044660Y0075420D03*
X0044680Y0075460D03*
X0047720Y0074520D03*
X0049320Y0077180D03*
X0049320Y0077220D03*
X0048840Y0079060D03*
X0048820Y0079080D03*
X0047720Y0079520D03*
X0046520Y0078960D03*
X0039260Y0074520D03*
D270*
X0041250Y0074520D03*
X0045750Y0074520D03*
X0043490Y0078620D03*
D271*
X0044670Y0075440D03*
X0039270Y0074540D03*
X0037670Y0077100D03*
X0037670Y0077140D03*
D272*
X0041240Y0074540D03*
D273*
X0042740Y0074540D03*
X0040840Y0077600D03*
X0037700Y0077600D03*
D274*
X0040890Y0077200D03*
X0042290Y0075500D03*
X0043490Y0074540D03*
X0044690Y0075500D03*
X0044710Y0075540D03*
X0046110Y0077200D03*
X0048790Y0079140D03*
D275*
X0046150Y0077600D03*
X0044250Y0074540D03*
D276*
X0045750Y0074540D03*
D277*
X0044660Y0075400D03*
X0042340Y0075400D03*
X0042320Y0075440D03*
X0040880Y0077240D03*
X0041380Y0079000D03*
X0038200Y0079140D03*
X0038180Y0079100D03*
X0045600Y0079000D03*
X0048820Y0079100D03*
X0049320Y0077200D03*
X0047720Y0074540D03*
D278*
X0049330Y0077160D03*
X0040470Y0078960D03*
X0040470Y0078980D03*
X0038230Y0079180D03*
X0037670Y0077160D03*
X0037670Y0077120D03*
X0039270Y0074560D03*
D279*
X0041230Y0074560D03*
X0043490Y0078560D03*
D280*
X0045610Y0079280D03*
X0049290Y0077580D03*
X0044270Y0074580D03*
X0042730Y0074560D03*
X0042710Y0074580D03*
X0042690Y0074620D03*
D281*
X0043490Y0074560D03*
X0042310Y0075460D03*
X0042310Y0075480D03*
X0042290Y0075520D03*
X0044690Y0075480D03*
X0046110Y0077220D03*
X0045610Y0078960D03*
X0045610Y0078980D03*
X0048810Y0079120D03*
X0038210Y0079160D03*
X0038190Y0079120D03*
D282*
X0043500Y0078520D03*
X0045760Y0074580D03*
X0045760Y0074560D03*
D283*
X0044720Y0075560D03*
X0042260Y0075560D03*
X0042260Y0075580D03*
X0040880Y0077180D03*
X0041380Y0078960D03*
X0038260Y0079220D03*
X0037680Y0077080D03*
X0037680Y0077060D03*
X0037680Y0077020D03*
X0039260Y0074580D03*
X0046520Y0078980D03*
X0048760Y0079180D03*
X0048780Y0079160D03*
X0049320Y0077120D03*
X0049320Y0077080D03*
X0049320Y0077060D03*
X0047720Y0074580D03*
X0047720Y0074560D03*
D284*
X0043490Y0078460D03*
X0043490Y0078480D03*
X0041230Y0074580D03*
D285*
X0043500Y0074580D03*
X0044700Y0075520D03*
X0046100Y0077160D03*
X0046100Y0077180D03*
D286*
X0045610Y0078940D03*
X0048750Y0079200D03*
X0049310Y0077040D03*
X0049310Y0077000D03*
X0044750Y0075640D03*
X0044730Y0075600D03*
X0043490Y0074600D03*
X0042250Y0075600D03*
X0042230Y0075640D03*
X0040890Y0077140D03*
X0040470Y0079000D03*
X0038270Y0079240D03*
X0037690Y0077000D03*
X0037690Y0076940D03*
X0039270Y0074600D03*
D287*
X0041230Y0074600D03*
X0043490Y0078500D03*
D288*
X0043500Y0078440D03*
X0045760Y0074600D03*
D289*
X0047720Y0074600D03*
X0049320Y0077100D03*
X0049320Y0077140D03*
X0046520Y0079000D03*
X0042280Y0075540D03*
X0041380Y0078940D03*
X0038240Y0079200D03*
X0037680Y0077040D03*
D290*
X0037690Y0076980D03*
X0037690Y0076960D03*
X0038290Y0079260D03*
X0040890Y0077160D03*
X0042230Y0075660D03*
X0042250Y0075620D03*
X0043490Y0074620D03*
X0044730Y0075580D03*
X0044750Y0075620D03*
X0044770Y0075680D03*
X0045610Y0078920D03*
X0048710Y0079260D03*
X0048730Y0079220D03*
X0049310Y0077020D03*
X0049310Y0076980D03*
X0039270Y0074620D03*
D291*
X0041230Y0074620D03*
X0043490Y0078420D03*
X0045770Y0074620D03*
D292*
X0044760Y0075660D03*
X0044780Y0075720D03*
X0044800Y0075760D03*
X0046100Y0077120D03*
X0046520Y0079020D03*
X0048700Y0079280D03*
X0049300Y0076960D03*
X0049300Y0076920D03*
X0047720Y0074660D03*
X0047720Y0074620D03*
X0042220Y0075680D03*
X0042200Y0075720D03*
X0040900Y0077120D03*
X0041380Y0078880D03*
X0041380Y0078920D03*
X0040460Y0079020D03*
X0038300Y0079280D03*
D293*
X0038320Y0079300D03*
X0041380Y0078900D03*
X0042200Y0075740D03*
X0042220Y0075700D03*
X0043500Y0074640D03*
X0044780Y0075700D03*
X0046100Y0077140D03*
X0045600Y0078900D03*
X0047720Y0079500D03*
X0048680Y0079300D03*
X0048720Y0079240D03*
X0049300Y0076940D03*
X0047720Y0074640D03*
X0039260Y0074640D03*
D294*
X0041220Y0074640D03*
X0045780Y0074640D03*
D295*
X0044300Y0074640D03*
X0042680Y0074640D03*
D296*
X0043490Y0074660D03*
X0042190Y0075760D03*
X0042190Y0075780D03*
X0042170Y0075820D03*
X0044810Y0075780D03*
X0046090Y0077080D03*
X0045610Y0078860D03*
X0045610Y0078880D03*
X0039270Y0074680D03*
X0039270Y0074660D03*
X0037690Y0076860D03*
X0037690Y0076880D03*
X0037690Y0076920D03*
X0038330Y0079320D03*
D297*
X0041210Y0074660D03*
X0043490Y0078320D03*
X0043490Y0078360D03*
D298*
X0045770Y0074660D03*
X0039270Y0078320D03*
X0039270Y0078360D03*
D299*
X0038360Y0079360D03*
X0040460Y0079060D03*
X0040900Y0077080D03*
X0040900Y0077060D03*
X0042140Y0075880D03*
X0042160Y0075860D03*
X0043500Y0074680D03*
X0044840Y0075860D03*
X0044840Y0075880D03*
X0044860Y0075920D03*
X0046540Y0079060D03*
X0048660Y0079320D03*
X0049300Y0076880D03*
X0049300Y0076860D03*
X0049300Y0076820D03*
X0037700Y0076820D03*
X0037700Y0076780D03*
X0037700Y0076760D03*
D300*
X0038380Y0079380D03*
X0041380Y0078860D03*
X0041380Y0078820D03*
X0044820Y0075820D03*
X0047720Y0074680D03*
D301*
X0049290Y0076740D03*
X0049290Y0076800D03*
X0046090Y0077040D03*
X0044890Y0076000D03*
X0044870Y0075940D03*
X0043490Y0074700D03*
X0042130Y0075940D03*
X0040910Y0077040D03*
X0039270Y0074700D03*
X0037710Y0076700D03*
X0037710Y0076740D03*
X0038390Y0079400D03*
X0045610Y0078800D03*
D302*
X0041210Y0074700D03*
X0039270Y0078440D03*
D303*
X0040510Y0078740D03*
X0040850Y0077540D03*
X0038030Y0078740D03*
X0037690Y0077540D03*
X0042630Y0074740D03*
X0042650Y0074700D03*
X0046150Y0077540D03*
X0046470Y0078740D03*
X0045610Y0079240D03*
X0048970Y0078740D03*
X0049290Y0077540D03*
D304*
X0047720Y0078240D03*
X0047720Y0078440D03*
X0045780Y0074700D03*
X0043500Y0078240D03*
X0039260Y0078240D03*
D305*
X0041380Y0078840D03*
X0047720Y0074700D03*
D306*
X0049290Y0076760D03*
X0049290Y0076780D03*
X0048630Y0079360D03*
X0048610Y0079380D03*
X0046090Y0077060D03*
X0044870Y0075960D03*
X0043490Y0074720D03*
X0042130Y0075920D03*
X0042110Y0075960D03*
X0042110Y0075980D03*
X0039270Y0074720D03*
X0037710Y0076680D03*
X0037710Y0076720D03*
X0045610Y0078820D03*
D307*
X0047720Y0078460D03*
X0047720Y0078260D03*
X0047720Y0078220D03*
X0045780Y0074720D03*
X0041200Y0074720D03*
D308*
X0042100Y0076020D03*
X0042080Y0076060D03*
X0040900Y0077020D03*
X0041380Y0078760D03*
X0041380Y0078780D03*
X0038420Y0079420D03*
X0037720Y0076660D03*
X0037720Y0076620D03*
X0044880Y0075980D03*
X0044900Y0076020D03*
X0046080Y0077020D03*
X0045600Y0078780D03*
X0046540Y0079080D03*
X0047720Y0079480D03*
X0048580Y0079420D03*
X0049280Y0076720D03*
X0049280Y0076680D03*
X0049280Y0076660D03*
X0047720Y0074760D03*
X0047720Y0074720D03*
D309*
X0047720Y0074740D03*
X0049280Y0076640D03*
X0049280Y0076700D03*
X0048600Y0079400D03*
X0046540Y0079100D03*
X0046080Y0077000D03*
X0044900Y0076040D03*
X0043500Y0074740D03*
X0042100Y0076000D03*
X0042080Y0076040D03*
X0041380Y0078800D03*
X0040440Y0079100D03*
X0037720Y0076640D03*
X0037720Y0076600D03*
X0039260Y0074740D03*
D310*
X0041210Y0074740D03*
X0039270Y0078200D03*
X0043490Y0078200D03*
X0045790Y0074740D03*
X0047710Y0078200D03*
D311*
X0045610Y0078760D03*
X0044930Y0076120D03*
X0044910Y0076080D03*
X0044910Y0076060D03*
X0043490Y0074780D03*
X0043490Y0074760D03*
X0042070Y0076080D03*
X0042050Y0076120D03*
X0040910Y0076980D03*
X0039270Y0074780D03*
X0039270Y0074760D03*
X0037730Y0076520D03*
X0037730Y0076560D03*
X0037730Y0076580D03*
X0039270Y0079480D03*
X0049270Y0076620D03*
X0049270Y0076580D03*
X0049270Y0076560D03*
D312*
X0043500Y0078160D03*
X0041200Y0074760D03*
X0039260Y0078160D03*
X0039260Y0078480D03*
D313*
X0039270Y0078120D03*
X0041190Y0074780D03*
X0043490Y0078120D03*
X0045790Y0074780D03*
X0045790Y0074760D03*
D314*
X0044940Y0076160D03*
X0044960Y0076180D03*
X0044980Y0076260D03*
X0046080Y0076960D03*
X0046080Y0076980D03*
X0045600Y0078720D03*
X0046540Y0079120D03*
X0048540Y0079460D03*
X0049260Y0076520D03*
X0049260Y0076480D03*
X0047720Y0074820D03*
X0047720Y0074780D03*
X0042040Y0076160D03*
X0042040Y0076180D03*
X0042020Y0076220D03*
X0040920Y0076960D03*
X0041380Y0078720D03*
X0040440Y0079120D03*
X0038460Y0079460D03*
X0037740Y0076480D03*
X0037740Y0076460D03*
X0037740Y0076420D03*
D315*
X0037740Y0076440D03*
X0037740Y0076500D03*
X0039260Y0074800D03*
X0040920Y0076940D03*
X0042020Y0076200D03*
X0043500Y0074800D03*
X0044940Y0076140D03*
X0044960Y0076200D03*
X0046080Y0076940D03*
X0047720Y0074800D03*
X0049260Y0076500D03*
X0049260Y0076540D03*
X0048560Y0079440D03*
X0041380Y0078740D03*
X0041380Y0078700D03*
D316*
X0043500Y0078100D03*
X0041200Y0074800D03*
X0045800Y0074800D03*
X0047720Y0078100D03*
X0047720Y0078500D03*
D317*
X0045610Y0079200D03*
X0044410Y0074840D03*
X0044390Y0074800D03*
X0040850Y0077500D03*
X0037690Y0077500D03*
D318*
X0038470Y0079480D03*
X0037770Y0076260D03*
X0039270Y0074820D03*
X0044970Y0076220D03*
X0046070Y0076920D03*
D319*
X0043490Y0078060D03*
X0041190Y0074820D03*
X0039270Y0078060D03*
X0039270Y0078520D03*
D320*
X0037750Y0076380D03*
X0037750Y0076360D03*
X0041990Y0076280D03*
X0042010Y0076260D03*
X0043490Y0074820D03*
X0044990Y0076280D03*
X0045610Y0078680D03*
X0049250Y0076460D03*
X0049250Y0076420D03*
D321*
X0049300Y0077460D03*
X0044400Y0074820D03*
D322*
X0045800Y0074820D03*
X0043500Y0078020D03*
D323*
X0044970Y0076240D03*
X0040430Y0079140D03*
X0039270Y0074840D03*
D324*
X0041180Y0074840D03*
X0039260Y0078000D03*
X0047720Y0078000D03*
X0047720Y0078040D03*
X0047720Y0078540D03*
D325*
X0046550Y0079140D03*
X0045610Y0078700D03*
X0045010Y0076340D03*
X0044990Y0076300D03*
X0043490Y0074840D03*
X0042010Y0076240D03*
X0041990Y0076300D03*
X0037750Y0076340D03*
X0037750Y0076400D03*
X0049250Y0076400D03*
X0049250Y0076440D03*
D326*
X0045800Y0074840D03*
D327*
X0047720Y0074840D03*
X0049220Y0076240D03*
X0049240Y0076340D03*
X0046080Y0076900D03*
X0041980Y0076340D03*
X0041960Y0076400D03*
X0040920Y0076900D03*
X0041380Y0078640D03*
X0037760Y0076300D03*
X0037780Y0076240D03*
X0037780Y0076200D03*
D328*
X0037780Y0076220D03*
X0037780Y0076180D03*
X0037760Y0076280D03*
X0037760Y0076320D03*
X0039260Y0074860D03*
X0040920Y0076920D03*
X0041960Y0076380D03*
X0041980Y0076360D03*
X0041980Y0076320D03*
X0041380Y0078660D03*
X0041380Y0078680D03*
X0039260Y0079460D03*
X0045040Y0076420D03*
X0045020Y0076380D03*
X0045020Y0076360D03*
X0047720Y0074880D03*
X0047720Y0074860D03*
X0049220Y0076220D03*
X0049220Y0076260D03*
X0049240Y0076320D03*
X0049240Y0076360D03*
X0049240Y0076380D03*
X0048520Y0079480D03*
X0047720Y0079460D03*
X0046560Y0079160D03*
D329*
X0043490Y0077980D03*
X0043490Y0077960D03*
X0041190Y0074860D03*
X0045810Y0074860D03*
D330*
X0045000Y0076320D03*
X0043500Y0074880D03*
X0043500Y0074860D03*
X0045600Y0078660D03*
D331*
X0045610Y0078620D03*
X0046070Y0076880D03*
X0046070Y0076860D03*
X0045050Y0076460D03*
X0041950Y0076420D03*
X0041930Y0076460D03*
X0041930Y0076480D03*
X0040930Y0076860D03*
X0040930Y0076880D03*
X0040430Y0079160D03*
X0040430Y0079180D03*
X0038510Y0079520D03*
X0037790Y0076160D03*
X0037790Y0076120D03*
X0039270Y0074920D03*
X0039270Y0074880D03*
X0048470Y0079520D03*
X0049230Y0076280D03*
X0049210Y0076180D03*
X0049210Y0076160D03*
D332*
X0047720Y0077920D03*
X0047720Y0077960D03*
X0047720Y0078580D03*
X0041180Y0074880D03*
X0039260Y0078580D03*
D333*
X0039270Y0077920D03*
X0039270Y0077880D03*
X0043490Y0077880D03*
X0043490Y0077920D03*
X0045810Y0074880D03*
D334*
X0045170Y0076800D03*
X0045190Y0076840D03*
X0045610Y0078500D03*
X0043490Y0075040D03*
X0041830Y0076740D03*
X0041810Y0076800D03*
X0041390Y0078500D03*
X0039270Y0075040D03*
X0038070Y0074900D03*
X0038030Y0075040D03*
X0038010Y0075100D03*
X0037990Y0075200D03*
X0037970Y0075240D03*
X0037930Y0075400D03*
X0037930Y0075440D03*
X0037910Y0075500D03*
X0037890Y0075600D03*
X0049070Y0075440D03*
X0049090Y0075500D03*
X0049090Y0075540D03*
X0049110Y0075600D03*
X0049110Y0075640D03*
D335*
X0049210Y0076140D03*
X0049210Y0076200D03*
X0049230Y0076300D03*
X0047710Y0074900D03*
X0045030Y0076400D03*
X0045050Y0076440D03*
X0045070Y0076500D03*
X0045610Y0078640D03*
X0041950Y0076440D03*
X0043490Y0074900D03*
X0039270Y0074900D03*
X0037790Y0076100D03*
X0037790Y0076140D03*
D336*
X0039270Y0077900D03*
X0039270Y0078600D03*
X0041170Y0074900D03*
X0043490Y0077900D03*
X0045810Y0074900D03*
D337*
X0044450Y0074940D03*
X0042550Y0074900D03*
X0042530Y0074940D03*
X0039270Y0079540D03*
X0049310Y0077440D03*
D338*
X0047720Y0077860D03*
X0047720Y0077880D03*
X0047720Y0078620D03*
X0045820Y0074920D03*
X0043500Y0077860D03*
X0041180Y0074920D03*
X0039260Y0077860D03*
D339*
X0041380Y0078580D03*
X0041380Y0078620D03*
X0041900Y0076560D03*
X0041920Y0076520D03*
X0043500Y0074920D03*
X0045060Y0076480D03*
X0045080Y0076520D03*
X0046060Y0076820D03*
X0046560Y0079180D03*
X0049200Y0076120D03*
X0049200Y0076080D03*
X0049200Y0076060D03*
X0049180Y0075980D03*
X0047720Y0074960D03*
X0047720Y0074920D03*
X0037820Y0075960D03*
X0037820Y0075980D03*
X0037800Y0076020D03*
X0037800Y0076060D03*
X0037800Y0076080D03*
D340*
X0037800Y0076040D03*
X0037820Y0076000D03*
X0037820Y0075940D03*
X0039260Y0074940D03*
X0040920Y0076840D03*
X0041900Y0076540D03*
X0041920Y0076500D03*
X0041380Y0078600D03*
X0038540Y0079540D03*
X0043500Y0074940D03*
X0045080Y0076540D03*
X0046060Y0076840D03*
X0045600Y0078600D03*
X0047720Y0074940D03*
X0049180Y0076000D03*
X0049200Y0076100D03*
D341*
X0043490Y0077800D03*
X0043490Y0077840D03*
X0041170Y0074940D03*
X0039270Y0077800D03*
X0039270Y0077840D03*
D342*
X0038570Y0079560D03*
X0040930Y0076820D03*
X0041870Y0076620D03*
X0041890Y0076580D03*
X0043490Y0074980D03*
X0043490Y0074960D03*
X0045090Y0076560D03*
X0045090Y0076580D03*
X0045110Y0076620D03*
X0045610Y0078560D03*
X0045610Y0078580D03*
X0049190Y0076020D03*
X0049170Y0075960D03*
X0049170Y0075920D03*
X0049150Y0075820D03*
X0039270Y0074980D03*
X0039270Y0074960D03*
X0037850Y0075780D03*
X0037850Y0075820D03*
X0037830Y0075860D03*
X0037830Y0075880D03*
X0037830Y0075920D03*
D343*
X0039270Y0077820D03*
X0039270Y0078620D03*
X0041170Y0074960D03*
X0043490Y0077820D03*
D344*
X0045820Y0074960D03*
X0047720Y0077760D03*
X0047720Y0077780D03*
X0047720Y0077820D03*
D345*
X0043500Y0077780D03*
X0041160Y0074980D03*
X0039260Y0077780D03*
D346*
X0039270Y0077760D03*
X0039270Y0077720D03*
X0039270Y0078660D03*
X0043490Y0077760D03*
X0043490Y0077720D03*
X0045830Y0074980D03*
D347*
X0045120Y0076660D03*
X0047720Y0075020D03*
X0047720Y0074980D03*
X0049120Y0075660D03*
X0049120Y0075680D03*
X0048420Y0079560D03*
X0041380Y0078560D03*
X0041380Y0078520D03*
X0040420Y0079220D03*
X0037880Y0075680D03*
X0037880Y0075660D03*
X0037880Y0075620D03*
X0037920Y0075460D03*
D348*
X0037900Y0075540D03*
X0037860Y0075740D03*
X0039260Y0075000D03*
X0041840Y0076700D03*
X0043500Y0075000D03*
X0045140Y0076700D03*
X0046060Y0076800D03*
X0045600Y0078540D03*
X0049140Y0075800D03*
X0049140Y0075740D03*
D349*
X0047720Y0077700D03*
X0047720Y0077740D03*
X0043500Y0077700D03*
X0041160Y0075000D03*
X0039260Y0077700D03*
D350*
X0039270Y0077740D03*
X0043490Y0077740D03*
X0045830Y0075000D03*
D351*
X0045120Y0076640D03*
X0047720Y0075000D03*
X0049120Y0075700D03*
X0047720Y0079440D03*
X0041380Y0078540D03*
X0037880Y0075640D03*
D352*
X0037910Y0075520D03*
X0037910Y0075480D03*
X0037930Y0075420D03*
X0037970Y0075280D03*
X0037970Y0075260D03*
X0037990Y0075180D03*
X0038010Y0075120D03*
X0039270Y0075020D03*
X0040930Y0076760D03*
X0041810Y0076820D03*
X0041830Y0076780D03*
X0041830Y0076760D03*
X0043490Y0075020D03*
X0045170Y0076780D03*
X0045610Y0078480D03*
X0045610Y0078520D03*
X0046570Y0079220D03*
X0049130Y0075720D03*
X0049110Y0075620D03*
X0049090Y0075560D03*
X0049090Y0075520D03*
X0049070Y0075460D03*
X0049030Y0075280D03*
X0038590Y0079580D03*
D353*
X0041160Y0075020D03*
X0047720Y0077680D03*
X0047720Y0077720D03*
X0047720Y0078660D03*
X0047720Y0078680D03*
D354*
X0045830Y0075020D03*
X0043490Y0077660D03*
X0043490Y0077680D03*
X0039270Y0077680D03*
X0039270Y0077660D03*
X0039270Y0078680D03*
D355*
X0039270Y0077640D03*
X0041150Y0075040D03*
X0043490Y0077640D03*
X0045830Y0075040D03*
D356*
X0045840Y0075060D03*
X0047720Y0077620D03*
X0047720Y0077660D03*
X0041160Y0075060D03*
X0039260Y0077620D03*
D357*
X0041150Y0075080D03*
X0043490Y0077560D03*
X0043490Y0077580D03*
D358*
X0045840Y0075080D03*
X0047720Y0077520D03*
X0047720Y0077560D03*
X0047720Y0077580D03*
D359*
X0047720Y0077540D03*
X0047720Y0078740D03*
X0045840Y0075100D03*
X0043500Y0077540D03*
X0041140Y0075100D03*
X0039260Y0077540D03*
D360*
X0037660Y0077340D03*
X0038060Y0078900D03*
X0040860Y0077340D03*
X0042440Y0075140D03*
X0042460Y0075100D03*
X0044540Y0075140D03*
X0045600Y0079100D03*
D361*
X0043490Y0077520D03*
X0043490Y0077480D03*
X0041150Y0075120D03*
X0039270Y0077480D03*
X0039270Y0077520D03*
X0045850Y0075120D03*
D362*
X0044560Y0075160D03*
X0044540Y0075120D03*
X0046500Y0078880D03*
X0048940Y0078880D03*
X0038040Y0078880D03*
D363*
X0041140Y0075140D03*
X0047720Y0077440D03*
D364*
X0047710Y0077500D03*
X0045850Y0075140D03*
X0043490Y0077500D03*
X0039270Y0077500D03*
X0039270Y0078740D03*
D365*
X0039260Y0078760D03*
X0039260Y0077460D03*
X0041140Y0075160D03*
X0043500Y0077460D03*
X0047720Y0077460D03*
X0047720Y0077480D03*
X0047720Y0077420D03*
X0047720Y0078760D03*
D366*
X0045850Y0075160D03*
D367*
X0043490Y0077420D03*
X0041130Y0075180D03*
X0039270Y0077420D03*
X0039270Y0078780D03*
D368*
X0041380Y0078340D03*
X0041380Y0078300D03*
X0041660Y0077240D03*
X0041680Y0077200D03*
X0039260Y0075200D03*
X0045320Y0077200D03*
X0046040Y0076640D03*
X0047720Y0075200D03*
X0047720Y0079400D03*
D369*
X0045860Y0075200D03*
X0041140Y0075200D03*
D370*
X0041130Y0075220D03*
X0039270Y0077320D03*
X0039270Y0077360D03*
X0043490Y0077360D03*
X0043490Y0077320D03*
D371*
X0043500Y0077280D03*
X0045860Y0075220D03*
X0047720Y0077260D03*
X0047720Y0077280D03*
X0047720Y0077320D03*
X0047720Y0078820D03*
X0039260Y0078820D03*
X0039260Y0077280D03*
D372*
X0039260Y0077300D03*
X0041120Y0075240D03*
X0043500Y0077300D03*
X0045860Y0075240D03*
X0047720Y0077300D03*
D373*
X0045870Y0075280D03*
X0045870Y0075260D03*
X0043490Y0077260D03*
X0041130Y0075260D03*
X0039270Y0077260D03*
D374*
X0039260Y0077220D03*
X0041120Y0075280D03*
X0047720Y0077180D03*
X0047720Y0077220D03*
X0047720Y0078860D03*
D375*
X0047720Y0078840D03*
X0047720Y0077240D03*
X0047720Y0077200D03*
X0041120Y0075300D03*
X0039260Y0077200D03*
D376*
X0039270Y0077140D03*
X0045870Y0075300D03*
D377*
X0046050Y0076760D03*
X0049050Y0075360D03*
X0037950Y0075360D03*
X0037950Y0075320D03*
D378*
X0041110Y0075320D03*
X0043490Y0077160D03*
X0043490Y0077180D03*
D379*
X0044650Y0075380D03*
X0044630Y0075320D03*
X0042370Y0075320D03*
X0042350Y0075360D03*
X0040870Y0077260D03*
X0037670Y0077220D03*
X0038130Y0079020D03*
X0038150Y0079060D03*
X0038170Y0079080D03*
X0045610Y0079020D03*
X0046110Y0077260D03*
X0048890Y0078980D03*
X0048870Y0079020D03*
X0049330Y0077280D03*
X0049330Y0077260D03*
D380*
X0045870Y0075320D03*
X0039270Y0077160D03*
X0039270Y0077180D03*
X0039270Y0078860D03*
D381*
X0041380Y0078220D03*
X0041380Y0078180D03*
X0041380Y0078160D03*
X0045420Y0077480D03*
X0046020Y0076480D03*
X0047720Y0075360D03*
X0047720Y0075320D03*
X0047720Y0079360D03*
D382*
X0046050Y0076740D03*
X0045150Y0076740D03*
X0037950Y0075340D03*
D383*
X0039260Y0075340D03*
X0041560Y0077500D03*
X0041540Y0077540D03*
X0043500Y0075340D03*
X0045440Y0077540D03*
X0046600Y0079340D03*
D384*
X0047720Y0077140D03*
X0047720Y0077100D03*
X0045880Y0075340D03*
X0043500Y0077140D03*
X0041120Y0075340D03*
D385*
X0041380Y0078200D03*
X0045420Y0077500D03*
X0046020Y0076500D03*
X0047720Y0075340D03*
D386*
X0043490Y0077060D03*
X0043490Y0077080D03*
X0041110Y0075380D03*
X0041110Y0075360D03*
X0039270Y0077060D03*
X0039270Y0077080D03*
D387*
X0045880Y0075380D03*
X0045880Y0075360D03*
X0047720Y0077020D03*
X0047720Y0077060D03*
X0047720Y0077080D03*
D388*
X0047720Y0075420D03*
X0047720Y0075380D03*
X0046020Y0076460D03*
X0045480Y0077660D03*
X0045500Y0077680D03*
X0045600Y0078120D03*
X0043500Y0075420D03*
X0041500Y0077660D03*
X0041500Y0077680D03*
X0041480Y0077720D03*
X0041380Y0078080D03*
X0041380Y0078120D03*
X0039260Y0075420D03*
D389*
X0039270Y0075400D03*
X0040970Y0076500D03*
X0041530Y0077600D03*
X0041510Y0077640D03*
X0038730Y0079640D03*
X0043490Y0075400D03*
X0045470Y0077600D03*
X0045610Y0078140D03*
X0048270Y0079640D03*
D390*
X0047720Y0078900D03*
X0046760Y0079640D03*
X0047720Y0077040D03*
X0043500Y0077040D03*
X0041100Y0075400D03*
X0039260Y0077040D03*
X0040220Y0079640D03*
D391*
X0039270Y0077000D03*
X0043490Y0077000D03*
X0045890Y0075400D03*
D392*
X0046020Y0076440D03*
X0047720Y0075440D03*
X0047720Y0075400D03*
X0045480Y0077640D03*
X0045500Y0077700D03*
X0041480Y0077700D03*
X0041380Y0078100D03*
X0041380Y0078140D03*
X0040980Y0076440D03*
D393*
X0041100Y0075420D03*
X0039260Y0076960D03*
X0043500Y0076960D03*
D394*
X0043490Y0076980D03*
X0043490Y0077020D03*
X0045890Y0075420D03*
X0047730Y0078920D03*
X0039270Y0078920D03*
X0039270Y0077020D03*
X0039270Y0076980D03*
D395*
X0039270Y0075440D03*
X0041470Y0077740D03*
X0041450Y0077800D03*
X0039270Y0079340D03*
X0043490Y0075440D03*
X0045510Y0077740D03*
X0045610Y0078100D03*
X0046010Y0076400D03*
D396*
X0041100Y0075440D03*
D397*
X0039270Y0076900D03*
X0039270Y0076940D03*
X0039270Y0078940D03*
X0043490Y0076940D03*
X0043490Y0076900D03*
X0045890Y0075440D03*
D398*
X0046010Y0076420D03*
X0045510Y0077720D03*
X0045530Y0077760D03*
X0045530Y0077780D03*
X0045550Y0077820D03*
X0045610Y0078060D03*
X0045610Y0078080D03*
X0046610Y0079380D03*
X0043490Y0075460D03*
X0040970Y0076420D03*
X0041470Y0077760D03*
X0041450Y0077780D03*
X0040370Y0079380D03*
X0039270Y0075460D03*
D399*
X0039270Y0076920D03*
X0041090Y0075460D03*
X0043490Y0076920D03*
X0045890Y0075460D03*
D400*
X0047720Y0075460D03*
X0047720Y0075480D03*
X0047720Y0075520D03*
X0045560Y0077860D03*
X0043500Y0075480D03*
X0040980Y0076380D03*
X0041440Y0077820D03*
X0041420Y0077860D03*
X0041420Y0077880D03*
X0041380Y0078020D03*
X0041380Y0078060D03*
X0039260Y0075480D03*
D401*
X0039260Y0076880D03*
X0039260Y0078960D03*
X0041100Y0075480D03*
X0043500Y0076860D03*
X0043500Y0076880D03*
X0045900Y0075480D03*
X0047720Y0076860D03*
X0047720Y0076880D03*
X0047720Y0078960D03*
D402*
X0043490Y0076840D03*
X0041090Y0075500D03*
X0039270Y0076840D03*
D403*
X0045900Y0075500D03*
X0047720Y0076840D03*
X0047720Y0076900D03*
D404*
X0045570Y0077880D03*
X0039270Y0079320D03*
X0039270Y0075520D03*
D405*
X0039270Y0076820D03*
X0039270Y0076860D03*
X0039270Y0078980D03*
X0041090Y0075520D03*
X0043490Y0076820D03*
D406*
X0043490Y0075520D03*
X0040990Y0076360D03*
X0041410Y0077920D03*
X0041390Y0077960D03*
X0045590Y0077920D03*
X0045610Y0077980D03*
X0045610Y0078020D03*
X0046010Y0076380D03*
X0046010Y0076360D03*
D407*
X0040370Y0079400D03*
X0039270Y0075540D03*
D408*
X0039260Y0076800D03*
X0041080Y0075540D03*
X0047720Y0076800D03*
D409*
X0045590Y0077940D03*
X0045610Y0078000D03*
X0043490Y0075540D03*
X0041410Y0077900D03*
X0041390Y0077940D03*
D410*
X0043500Y0076800D03*
X0045900Y0075540D03*
D411*
X0047720Y0075540D03*
X0047720Y0075600D03*
X0041380Y0078000D03*
X0040980Y0076340D03*
D412*
X0040940Y0076780D03*
X0041840Y0076720D03*
X0041860Y0076680D03*
X0041860Y0076660D03*
X0045140Y0076680D03*
X0045140Y0076720D03*
X0045160Y0076760D03*
X0046060Y0076780D03*
X0049160Y0075880D03*
X0049160Y0075860D03*
X0049140Y0075780D03*
X0049140Y0075760D03*
X0049100Y0075580D03*
X0037900Y0075580D03*
X0037900Y0075560D03*
X0037860Y0075720D03*
X0037860Y0075760D03*
D413*
X0039260Y0075560D03*
X0041380Y0077980D03*
X0040360Y0079420D03*
X0046620Y0079420D03*
X0047720Y0079320D03*
X0047720Y0075580D03*
X0047720Y0075560D03*
D414*
X0045910Y0075560D03*
X0045910Y0075580D03*
X0043490Y0076760D03*
X0041090Y0075560D03*
X0043510Y0082580D03*
D415*
X0045600Y0077960D03*
X0046000Y0076320D03*
X0043500Y0075580D03*
X0043500Y0075560D03*
D416*
X0043490Y0075620D03*
X0040990Y0076320D03*
X0039270Y0075620D03*
X0039270Y0075580D03*
D417*
X0041080Y0075580D03*
X0043500Y0076720D03*
X0047720Y0076720D03*
X0047720Y0076680D03*
X0047720Y0079020D03*
D418*
X0043490Y0075600D03*
X0040990Y0076300D03*
X0039270Y0075600D03*
X0039270Y0079300D03*
D419*
X0039260Y0076700D03*
X0041080Y0075600D03*
X0043500Y0076700D03*
X0047720Y0076700D03*
X0047720Y0076740D03*
D420*
X0045910Y0075600D03*
X0043490Y0076640D03*
X0039270Y0076640D03*
D421*
X0039270Y0076660D03*
X0039270Y0076680D03*
X0041070Y0075620D03*
X0043490Y0076660D03*
X0043490Y0076680D03*
X0045910Y0075620D03*
X0039270Y0079020D03*
D422*
X0040360Y0079440D03*
X0039260Y0075640D03*
X0043500Y0075640D03*
X0046000Y0076300D03*
X0047720Y0075640D03*
X0047720Y0079300D03*
D423*
X0047720Y0079040D03*
X0047720Y0076640D03*
X0047720Y0076600D03*
X0045920Y0075640D03*
X0041080Y0075640D03*
X0039260Y0079040D03*
D424*
X0039270Y0076580D03*
X0039270Y0076560D03*
X0041070Y0075680D03*
X0041070Y0075660D03*
X0043490Y0076560D03*
X0043490Y0076580D03*
X0047710Y0076580D03*
D425*
X0047720Y0076620D03*
X0047720Y0076660D03*
X0045920Y0075660D03*
X0043500Y0076620D03*
X0039260Y0076620D03*
D426*
X0045920Y0075680D03*
X0047720Y0076520D03*
X0047720Y0076560D03*
X0047720Y0079060D03*
D427*
X0048450Y0079540D03*
X0046570Y0079200D03*
X0045110Y0076600D03*
X0041890Y0076600D03*
X0041870Y0076640D03*
X0040930Y0076800D03*
X0040430Y0079200D03*
X0039270Y0079440D03*
X0037830Y0075900D03*
X0037850Y0075840D03*
X0037850Y0075800D03*
X0037870Y0075700D03*
X0049150Y0075840D03*
X0049170Y0075900D03*
X0049170Y0075940D03*
X0049190Y0076040D03*
D428*
X0045990Y0076240D03*
X0043490Y0075700D03*
X0046630Y0079440D03*
X0039270Y0075700D03*
D429*
X0039260Y0076540D03*
X0041060Y0075700D03*
X0043500Y0076540D03*
D430*
X0045920Y0075700D03*
X0047720Y0076500D03*
X0047720Y0076540D03*
X0040280Y0079600D03*
D431*
X0047720Y0075740D03*
X0047720Y0075700D03*
D432*
X0046640Y0079460D03*
X0043500Y0075720D03*
X0041000Y0076220D03*
X0039260Y0075720D03*
X0039260Y0079280D03*
D433*
X0039270Y0079080D03*
X0039270Y0076520D03*
X0039270Y0076480D03*
X0041070Y0075720D03*
X0043490Y0076480D03*
X0043490Y0076520D03*
X0045930Y0075720D03*
D434*
X0047720Y0075720D03*
X0047720Y0079280D03*
D435*
X0045990Y0076200D03*
X0043490Y0075740D03*
X0041010Y0076200D03*
X0039270Y0075740D03*
D436*
X0041060Y0075740D03*
X0043500Y0076440D03*
X0047720Y0076440D03*
D437*
X0046090Y0077100D03*
X0044830Y0075840D03*
X0044810Y0075800D03*
X0044790Y0075740D03*
X0042170Y0075800D03*
X0040890Y0077100D03*
X0040450Y0079040D03*
X0039270Y0079500D03*
X0038350Y0079340D03*
X0037690Y0076900D03*
X0037690Y0076840D03*
X0046530Y0079040D03*
X0049310Y0076900D03*
D438*
X0045930Y0075740D03*
X0043490Y0076500D03*
X0039270Y0076500D03*
D439*
X0039270Y0075780D03*
X0039270Y0075760D03*
X0043490Y0075760D03*
X0043490Y0075780D03*
X0045990Y0076220D03*
X0047710Y0075760D03*
D440*
X0047720Y0076420D03*
X0047720Y0076460D03*
X0047720Y0076480D03*
X0047720Y0079080D03*
X0043500Y0076460D03*
X0041060Y0075760D03*
X0039260Y0076460D03*
D441*
X0039270Y0076420D03*
X0041050Y0075780D03*
X0043490Y0076420D03*
X0045930Y0075780D03*
X0045930Y0075760D03*
X0046690Y0079580D03*
X0040290Y0079580D03*
D442*
X0039260Y0079260D03*
X0041000Y0076180D03*
X0045980Y0076180D03*
X0045980Y0076160D03*
X0047720Y0075820D03*
X0047720Y0075780D03*
X0047720Y0079260D03*
D443*
X0047720Y0075800D03*
X0043500Y0075800D03*
X0039260Y0075800D03*
D444*
X0041060Y0075800D03*
X0045940Y0075800D03*
X0047720Y0076340D03*
X0047720Y0076400D03*
X0047720Y0079100D03*
D445*
X0046650Y0079480D03*
X0043490Y0075860D03*
X0043490Y0075820D03*
X0041010Y0076160D03*
X0039270Y0075860D03*
X0039270Y0075820D03*
X0040350Y0079480D03*
D446*
X0041050Y0075820D03*
X0043490Y0076320D03*
X0045950Y0075820D03*
D447*
X0043490Y0075840D03*
X0041010Y0076140D03*
X0039270Y0075840D03*
D448*
X0041050Y0075840D03*
X0043490Y0076340D03*
D449*
X0042140Y0075900D03*
X0042160Y0075840D03*
X0045600Y0078840D03*
X0048640Y0079340D03*
X0049300Y0076840D03*
X0037700Y0076800D03*
D450*
X0043500Y0076300D03*
X0045940Y0075840D03*
X0047720Y0076300D03*
X0047720Y0079140D03*
D451*
X0047720Y0079240D03*
X0047720Y0075900D03*
X0047720Y0075840D03*
X0045980Y0076140D03*
X0039260Y0079240D03*
D452*
X0039260Y0076280D03*
X0041040Y0075860D03*
X0043500Y0076280D03*
X0047720Y0076280D03*
X0047720Y0076260D03*
X0047720Y0076320D03*
X0046680Y0079560D03*
D453*
X0045950Y0075880D03*
X0045950Y0075860D03*
X0043490Y0076220D03*
X0043490Y0076260D03*
X0041050Y0075880D03*
X0039270Y0076220D03*
X0039270Y0076260D03*
X0040310Y0079560D03*
D454*
X0041020Y0076120D03*
X0039260Y0075880D03*
X0043500Y0075880D03*
X0045980Y0076120D03*
X0047720Y0075880D03*
X0047720Y0075860D03*
D455*
X0045970Y0076100D03*
X0040330Y0079500D03*
X0039270Y0075940D03*
X0039270Y0075900D03*
D456*
X0039260Y0076200D03*
X0041040Y0075900D03*
X0043500Y0076200D03*
X0045960Y0075900D03*
X0047720Y0076200D03*
X0047720Y0076240D03*
D457*
X0046650Y0079500D03*
X0043490Y0075940D03*
X0043490Y0075900D03*
X0041010Y0076100D03*
D458*
X0044850Y0075900D03*
D459*
X0045970Y0076080D03*
X0039270Y0075920D03*
D460*
X0041040Y0075920D03*
X0047720Y0076180D03*
X0047720Y0076220D03*
X0047720Y0079160D03*
D461*
X0043490Y0075920D03*
D462*
X0045950Y0075920D03*
D463*
X0047720Y0075920D03*
X0047720Y0075960D03*
X0047720Y0075980D03*
X0047720Y0079220D03*
X0041020Y0076080D03*
X0041020Y0076060D03*
X0039260Y0075960D03*
X0039260Y0079220D03*
D464*
X0039270Y0076140D03*
X0041030Y0075940D03*
X0043490Y0076140D03*
X0046670Y0079540D03*
D465*
X0045950Y0075940D03*
D466*
X0047720Y0075940D03*
D467*
X0045960Y0075960D03*
X0045960Y0075980D03*
X0043500Y0076120D03*
X0041040Y0075960D03*
X0039260Y0076120D03*
X0039260Y0079180D03*
D468*
X0043500Y0075960D03*
D469*
X0043490Y0075980D03*
X0043490Y0076020D03*
X0045970Y0076060D03*
X0039270Y0076020D03*
X0039270Y0075980D03*
D470*
X0039270Y0076060D03*
X0039270Y0076080D03*
X0041030Y0075980D03*
X0043490Y0076060D03*
X0043490Y0076080D03*
D471*
X0043490Y0076000D03*
X0041030Y0076040D03*
X0039270Y0076000D03*
X0045970Y0076040D03*
X0047710Y0076000D03*
D472*
X0047720Y0076040D03*
X0045960Y0076000D03*
X0043500Y0076040D03*
X0039260Y0076040D03*
X0039260Y0079200D03*
X0043500Y0082600D03*
X0047720Y0079200D03*
D473*
X0046660Y0079520D03*
X0045960Y0076020D03*
X0047720Y0076020D03*
X0047720Y0076060D03*
X0047720Y0076080D03*
X0041020Y0076020D03*
X0040320Y0079520D03*
D474*
X0038430Y0079440D03*
X0037730Y0076540D03*
X0040910Y0077000D03*
X0042050Y0076140D03*
X0042070Y0076100D03*
X0044930Y0076100D03*
X0045610Y0078740D03*
X0049270Y0076600D03*
D475*
X0047720Y0076140D03*
X0047720Y0076100D03*
X0040320Y0079540D03*
D476*
X0047720Y0079180D03*
X0047720Y0076160D03*
X0047720Y0076120D03*
D477*
X0043490Y0076160D03*
X0043490Y0076180D03*
X0039270Y0076180D03*
X0039270Y0076160D03*
X0039270Y0079160D03*
D478*
X0039270Y0079140D03*
X0039270Y0076240D03*
X0043490Y0076240D03*
D479*
X0041000Y0076240D03*
D480*
X0039270Y0076300D03*
X0039270Y0076340D03*
D481*
X0039270Y0076320D03*
X0039270Y0079120D03*
D482*
X0046000Y0076340D03*
D483*
X0047720Y0076360D03*
X0047720Y0076380D03*
X0047720Y0079120D03*
X0039260Y0076380D03*
X0039260Y0076360D03*
D484*
X0043500Y0076360D03*
X0043500Y0076380D03*
D485*
X0043490Y0076400D03*
X0039270Y0076400D03*
X0039270Y0076440D03*
X0039270Y0079100D03*
D486*
X0039270Y0076600D03*
X0043490Y0076600D03*
X0046710Y0079600D03*
D487*
X0046730Y0079620D03*
X0039270Y0076760D03*
X0039270Y0076720D03*
D488*
X0039270Y0076740D03*
X0039270Y0079000D03*
X0047730Y0079000D03*
D489*
X0043490Y0076740D03*
D490*
X0040260Y0079620D03*
X0039260Y0076780D03*
X0047720Y0076780D03*
X0047720Y0076760D03*
X0047720Y0076820D03*
X0047720Y0078980D03*
D491*
X0047720Y0076980D03*
X0047720Y0076960D03*
X0047720Y0076920D03*
D492*
X0047720Y0076940D03*
X0047720Y0077000D03*
X0047720Y0078940D03*
D493*
X0043490Y0077100D03*
X0039270Y0077100D03*
X0039270Y0078900D03*
D494*
X0039260Y0078880D03*
X0039260Y0077120D03*
X0043500Y0077120D03*
X0047720Y0077120D03*
X0047720Y0077160D03*
X0047720Y0078880D03*
D495*
X0045600Y0078320D03*
X0045300Y0077160D03*
D496*
X0043500Y0077200D03*
D497*
X0043500Y0077220D03*
D498*
X0043490Y0077240D03*
X0039270Y0077240D03*
X0039270Y0078840D03*
D499*
X0039270Y0078800D03*
X0039270Y0077340D03*
X0043490Y0077340D03*
D500*
X0047720Y0077340D03*
X0047720Y0077400D03*
X0047720Y0078800D03*
D501*
X0047720Y0078780D03*
X0047720Y0077380D03*
X0047720Y0077360D03*
D502*
X0043490Y0077400D03*
X0043490Y0077440D03*
X0039270Y0077440D03*
X0039270Y0077400D03*
D503*
X0039270Y0077560D03*
X0039270Y0077580D03*
X0039270Y0078720D03*
X0047730Y0078720D03*
D504*
X0045450Y0077580D03*
X0045450Y0077560D03*
D505*
X0046150Y0077580D03*
D506*
X0039270Y0077600D03*
D507*
X0043490Y0077600D03*
D508*
X0047720Y0077600D03*
X0047720Y0077640D03*
X0047720Y0078700D03*
X0039260Y0078700D03*
D509*
X0043500Y0077620D03*
D510*
X0047720Y0077800D03*
X0047720Y0078640D03*
D511*
X0047720Y0077940D03*
X0047720Y0077900D03*
X0043500Y0077940D03*
X0039260Y0077940D03*
D512*
X0039270Y0077960D03*
X0039270Y0077980D03*
X0039270Y0078560D03*
D513*
X0039260Y0078020D03*
X0047720Y0078020D03*
X0047720Y0077980D03*
X0047720Y0078560D03*
D514*
X0043490Y0078000D03*
D515*
X0043490Y0078040D03*
X0039270Y0078040D03*
X0039270Y0078540D03*
D516*
X0039260Y0078080D03*
X0043500Y0078080D03*
X0047720Y0078080D03*
X0047720Y0078060D03*
X0047720Y0078120D03*
X0047720Y0078520D03*
D517*
X0043490Y0078140D03*
X0039270Y0078140D03*
X0039270Y0078100D03*
X0039270Y0078500D03*
D518*
X0047720Y0078140D03*
D519*
X0047720Y0078160D03*
X0047720Y0078180D03*
X0047720Y0078480D03*
D520*
X0043490Y0078220D03*
X0043490Y0078180D03*
X0039270Y0078180D03*
X0039270Y0078220D03*
X0039270Y0078460D03*
D521*
X0039270Y0078420D03*
X0039270Y0078280D03*
X0039270Y0078260D03*
X0043490Y0078260D03*
X0043490Y0078280D03*
D522*
X0043500Y0078300D03*
X0047720Y0078300D03*
X0047720Y0078340D03*
X0047720Y0078400D03*
X0039260Y0078300D03*
D523*
X0039270Y0078340D03*
X0039270Y0078400D03*
D524*
X0043490Y0078340D03*
D525*
X0047720Y0078360D03*
X0047720Y0078380D03*
X0039260Y0078380D03*
D526*
X0043500Y0078380D03*
D527*
X0043490Y0078400D03*
D528*
X0043490Y0078540D03*
D529*
X0043500Y0078580D03*
D530*
X0043490Y0078600D03*
X0043510Y0082500D03*
D531*
X0039260Y0078640D03*
D532*
X0043500Y0078700D03*
D533*
X0043500Y0078760D03*
D534*
X0043490Y0078800D03*
D535*
X0043500Y0078820D03*
D536*
X0043490Y0078840D03*
D537*
X0043490Y0079020D03*
D538*
X0043500Y0079040D03*
D539*
X0039260Y0079060D03*
D540*
X0040450Y0079080D03*
D541*
X0043500Y0079100D03*
D542*
X0043500Y0079140D03*
D543*
X0043500Y0079180D03*
D544*
X0043490Y0079200D03*
D545*
X0043490Y0079220D03*
D546*
X0043490Y0079240D03*
D547*
X0043490Y0079280D03*
D548*
X0041380Y0079300D03*
D549*
X0043490Y0079320D03*
D550*
X0043490Y0079340D03*
D551*
X0043490Y0079360D03*
D552*
X0043500Y0079380D03*
D553*
X0043490Y0079400D03*
D554*
X0043490Y0079440D03*
D555*
X0040350Y0079460D03*
D556*
X0043490Y0079460D03*
D557*
X0043500Y0079480D03*
D558*
X0038500Y0079500D03*
X0048500Y0079500D03*
D559*
X0043500Y0079500D03*
D560*
X0043490Y0079520D03*
D561*
X0043490Y0079560D03*
D562*
X0043490Y0079580D03*
D563*
X0043500Y0079600D03*
D564*
X0043500Y0079620D03*
D565*
X0043500Y0079640D03*
D566*
X0043500Y0079660D03*
D567*
X0043490Y0079680D03*
D568*
X0039790Y0079700D03*
X0047210Y0079700D03*
D569*
X0043490Y0079700D03*
D570*
X0043490Y0079760D03*
D571*
X0043500Y0079920D03*
D572*
X0043500Y0079980D03*
D573*
X0043500Y0080040D03*
D574*
X0043500Y0080100D03*
D575*
X0043500Y0080180D03*
D576*
X0043500Y0080340D03*
D577*
X0043490Y0080360D03*
D578*
X0043500Y0080580D03*
D579*
X0043500Y0080600D03*
D580*
X0043500Y0081120D03*
D581*
X0043500Y0081140D03*
D582*
X0043500Y0081240D03*
D583*
X0043500Y0081340D03*
D584*
X0043500Y0081400D03*
D585*
X0043500Y0081460D03*
D586*
X0043500Y0081520D03*
D587*
X0043500Y0081560D03*
D588*
X0043510Y0081640D03*
D589*
X0043500Y0081680D03*
D590*
X0043500Y0081720D03*
D591*
X0043500Y0081780D03*
D592*
X0043500Y0081860D03*
D593*
X0043500Y0081960D03*
D594*
X0043500Y0081980D03*
D595*
X0043500Y0082000D03*
D596*
X0043500Y0082020D03*
D597*
X0043510Y0082120D03*
D598*
X0043500Y0082140D03*
D599*
X0043500Y0082180D03*
D600*
X0043500Y0082220D03*
D601*
X0043500Y0082280D03*
D602*
X0043510Y0082320D03*
D603*
X0043510Y0082340D03*
D604*
X0043500Y0082360D03*
D605*
X0043500Y0082380D03*
D606*
X0043510Y0082400D03*
D607*
X0043500Y0082440D03*
D608*
X0043326Y0086400D02*
X0042660Y0086400D01*
X0042660Y0088800D01*
X0043326Y0088800D01*
X0043376Y0088798D01*
X0043425Y0088793D01*
X0043474Y0088783D01*
X0043523Y0088770D01*
X0043570Y0088754D01*
X0043615Y0088734D01*
X0043660Y0088711D01*
X0043702Y0088684D01*
X0043742Y0088654D01*
X0043780Y0088622D01*
X0043815Y0088587D01*
X0043847Y0088549D01*
X0043877Y0088509D01*
X0043904Y0088467D01*
X0043927Y0088422D01*
X0043947Y0088377D01*
X0043963Y0088330D01*
X0043976Y0088281D01*
X0043986Y0088232D01*
X0043991Y0088183D01*
X0043993Y0088133D01*
X0043993Y0087067D01*
X0043991Y0087017D01*
X0043986Y0086968D01*
X0043976Y0086919D01*
X0043963Y0086870D01*
X0043947Y0086823D01*
X0043927Y0086778D01*
X0043904Y0086734D01*
X0043877Y0086691D01*
X0043847Y0086651D01*
X0043815Y0086613D01*
X0043780Y0086578D01*
X0043742Y0086546D01*
X0043702Y0086516D01*
X0043660Y0086489D01*
X0043615Y0086466D01*
X0043570Y0086446D01*
X0043523Y0086430D01*
X0043474Y0086417D01*
X0043425Y0086407D01*
X0043376Y0086402D01*
X0043326Y0086400D01*
X0041590Y0086400D02*
X0041057Y0087467D01*
X0040923Y0087467D02*
X0040257Y0087467D01*
X0040923Y0087466D02*
X0040973Y0087468D01*
X0041022Y0087473D01*
X0041071Y0087483D01*
X0041120Y0087496D01*
X0041167Y0087512D01*
X0041212Y0087532D01*
X0041257Y0087555D01*
X0041299Y0087582D01*
X0041339Y0087612D01*
X0041377Y0087644D01*
X0041412Y0087679D01*
X0041444Y0087717D01*
X0041474Y0087757D01*
X0041501Y0087800D01*
X0041524Y0087844D01*
X0041544Y0087889D01*
X0041560Y0087936D01*
X0041573Y0087985D01*
X0041583Y0088034D01*
X0041588Y0088083D01*
X0041590Y0088133D01*
X0041588Y0088183D01*
X0041583Y0088232D01*
X0041573Y0088281D01*
X0041560Y0088330D01*
X0041544Y0088377D01*
X0041524Y0088422D01*
X0041501Y0088467D01*
X0041474Y0088509D01*
X0041444Y0088549D01*
X0041412Y0088587D01*
X0041377Y0088622D01*
X0041339Y0088654D01*
X0041299Y0088684D01*
X0041256Y0088711D01*
X0041212Y0088734D01*
X0041167Y0088754D01*
X0041120Y0088770D01*
X0041071Y0088783D01*
X0041022Y0088793D01*
X0040973Y0088798D01*
X0040923Y0088800D01*
X0040257Y0088800D01*
X0040257Y0086400D01*
X0039291Y0086400D02*
X0038491Y0088800D01*
X0037691Y0086400D01*
X0037891Y0087000D02*
X0039091Y0087000D01*
X0036817Y0087067D02*
X0036817Y0088133D01*
X0036818Y0088133D02*
X0036816Y0088183D01*
X0036811Y0088232D01*
X0036801Y0088281D01*
X0036788Y0088330D01*
X0036772Y0088377D01*
X0036752Y0088422D01*
X0036729Y0088467D01*
X0036702Y0088509D01*
X0036672Y0088549D01*
X0036640Y0088587D01*
X0036605Y0088622D01*
X0036567Y0088654D01*
X0036527Y0088684D01*
X0036485Y0088711D01*
X0036440Y0088734D01*
X0036395Y0088754D01*
X0036348Y0088770D01*
X0036299Y0088783D01*
X0036250Y0088793D01*
X0036201Y0088798D01*
X0036151Y0088800D01*
X0036101Y0088798D01*
X0036052Y0088793D01*
X0036003Y0088783D01*
X0035954Y0088770D01*
X0035907Y0088754D01*
X0035862Y0088734D01*
X0035818Y0088711D01*
X0035775Y0088684D01*
X0035735Y0088654D01*
X0035697Y0088622D01*
X0035662Y0088587D01*
X0035630Y0088549D01*
X0035600Y0088509D01*
X0035573Y0088467D01*
X0035550Y0088422D01*
X0035530Y0088377D01*
X0035514Y0088330D01*
X0035501Y0088281D01*
X0035491Y0088232D01*
X0035486Y0088183D01*
X0035484Y0088133D01*
X0035484Y0087067D01*
X0035486Y0087017D01*
X0035491Y0086968D01*
X0035501Y0086919D01*
X0035514Y0086870D01*
X0035530Y0086823D01*
X0035550Y0086778D01*
X0035573Y0086734D01*
X0035600Y0086691D01*
X0035630Y0086651D01*
X0035662Y0086613D01*
X0035697Y0086578D01*
X0035735Y0086546D01*
X0035775Y0086516D01*
X0035818Y0086489D01*
X0035862Y0086466D01*
X0035907Y0086446D01*
X0035954Y0086430D01*
X0036003Y0086417D01*
X0036052Y0086407D01*
X0036101Y0086402D01*
X0036151Y0086400D01*
X0036201Y0086402D01*
X0036250Y0086407D01*
X0036299Y0086417D01*
X0036348Y0086430D01*
X0036395Y0086446D01*
X0036440Y0086466D01*
X0036485Y0086489D01*
X0036527Y0086516D01*
X0036567Y0086546D01*
X0036605Y0086578D01*
X0036640Y0086613D01*
X0036672Y0086651D01*
X0036702Y0086691D01*
X0036729Y0086734D01*
X0036752Y0086778D01*
X0036772Y0086823D01*
X0036788Y0086870D01*
X0036801Y0086919D01*
X0036811Y0086968D01*
X0036816Y0087017D01*
X0036818Y0087067D01*
X0033923Y0086400D02*
X0033973Y0086402D01*
X0034022Y0086407D01*
X0034071Y0086417D01*
X0034120Y0086430D01*
X0034167Y0086446D01*
X0034212Y0086466D01*
X0034257Y0086489D01*
X0034299Y0086516D01*
X0034339Y0086546D01*
X0034377Y0086578D01*
X0034412Y0086613D01*
X0034444Y0086651D01*
X0034474Y0086691D01*
X0034501Y0086734D01*
X0034524Y0086778D01*
X0034544Y0086823D01*
X0034560Y0086870D01*
X0034573Y0086919D01*
X0034583Y0086968D01*
X0034588Y0087017D01*
X0034590Y0087067D01*
X0034588Y0087117D01*
X0034583Y0087166D01*
X0034573Y0087215D01*
X0034560Y0087264D01*
X0034544Y0087311D01*
X0034524Y0087356D01*
X0034501Y0087401D01*
X0034474Y0087443D01*
X0034444Y0087483D01*
X0034412Y0087521D01*
X0034377Y0087556D01*
X0034339Y0087588D01*
X0034299Y0087618D01*
X0034256Y0087645D01*
X0034212Y0087668D01*
X0034167Y0087688D01*
X0034120Y0087704D01*
X0034071Y0087717D01*
X0034022Y0087727D01*
X0033973Y0087732D01*
X0033923Y0087734D01*
X0033923Y0087733D02*
X0033256Y0087733D01*
X0033923Y0087734D02*
X0033968Y0087736D01*
X0034013Y0087742D01*
X0034057Y0087751D01*
X0034101Y0087764D01*
X0034143Y0087781D01*
X0034183Y0087802D01*
X0034221Y0087825D01*
X0034258Y0087852D01*
X0034292Y0087882D01*
X0034323Y0087915D01*
X0034352Y0087950D01*
X0034377Y0087988D01*
X0034399Y0088027D01*
X0034418Y0088068D01*
X0034433Y0088111D01*
X0034444Y0088155D01*
X0034452Y0088199D01*
X0034456Y0088244D01*
X0034456Y0088290D01*
X0034452Y0088335D01*
X0034444Y0088379D01*
X0034433Y0088423D01*
X0034418Y0088466D01*
X0034399Y0088507D01*
X0034377Y0088546D01*
X0034352Y0088584D01*
X0034323Y0088619D01*
X0034292Y0088652D01*
X0034258Y0088682D01*
X0034221Y0088709D01*
X0034183Y0088732D01*
X0034143Y0088753D01*
X0034101Y0088770D01*
X0034057Y0088783D01*
X0034013Y0088792D01*
X0033968Y0088798D01*
X0033923Y0088800D01*
X0033256Y0088800D01*
X0033256Y0086400D01*
X0033923Y0086400D01*
X0030904Y0086400D02*
X0030371Y0087467D01*
X0030237Y0087467D02*
X0029571Y0087467D01*
X0030237Y0087466D02*
X0030287Y0087468D01*
X0030336Y0087473D01*
X0030385Y0087483D01*
X0030434Y0087496D01*
X0030481Y0087512D01*
X0030526Y0087532D01*
X0030571Y0087555D01*
X0030613Y0087582D01*
X0030653Y0087612D01*
X0030691Y0087644D01*
X0030726Y0087679D01*
X0030758Y0087717D01*
X0030788Y0087757D01*
X0030815Y0087800D01*
X0030838Y0087844D01*
X0030858Y0087889D01*
X0030874Y0087936D01*
X0030887Y0087985D01*
X0030897Y0088034D01*
X0030902Y0088083D01*
X0030904Y0088133D01*
X0030902Y0088183D01*
X0030897Y0088232D01*
X0030887Y0088281D01*
X0030874Y0088330D01*
X0030858Y0088377D01*
X0030838Y0088422D01*
X0030815Y0088467D01*
X0030788Y0088509D01*
X0030758Y0088549D01*
X0030726Y0088587D01*
X0030691Y0088622D01*
X0030653Y0088654D01*
X0030613Y0088684D01*
X0030570Y0088711D01*
X0030526Y0088734D01*
X0030481Y0088754D01*
X0030434Y0088770D01*
X0030385Y0088783D01*
X0030336Y0088793D01*
X0030287Y0088798D01*
X0030237Y0088800D01*
X0029571Y0088800D01*
X0029571Y0086400D01*
X0028599Y0086400D02*
X0027532Y0086400D01*
X0027532Y0088800D01*
X0028599Y0088800D01*
X0028332Y0087733D02*
X0027532Y0087733D01*
X0026365Y0088133D02*
X0026365Y0087067D01*
X0026366Y0087067D02*
X0026364Y0087017D01*
X0026359Y0086968D01*
X0026349Y0086919D01*
X0026336Y0086870D01*
X0026320Y0086823D01*
X0026300Y0086778D01*
X0026277Y0086734D01*
X0026250Y0086691D01*
X0026220Y0086651D01*
X0026188Y0086613D01*
X0026153Y0086578D01*
X0026115Y0086546D01*
X0026075Y0086516D01*
X0026033Y0086489D01*
X0025988Y0086466D01*
X0025943Y0086446D01*
X0025896Y0086430D01*
X0025847Y0086417D01*
X0025798Y0086407D01*
X0025749Y0086402D01*
X0025699Y0086400D01*
X0025032Y0086400D01*
X0025032Y0088800D01*
X0025699Y0088800D01*
X0025749Y0088798D01*
X0025798Y0088793D01*
X0025847Y0088783D01*
X0025896Y0088770D01*
X0025943Y0088754D01*
X0025988Y0088734D01*
X0026033Y0088711D01*
X0026075Y0088684D01*
X0026115Y0088654D01*
X0026153Y0088622D01*
X0026188Y0088587D01*
X0026220Y0088549D01*
X0026250Y0088509D01*
X0026277Y0088467D01*
X0026300Y0088422D01*
X0026320Y0088377D01*
X0026336Y0088330D01*
X0026349Y0088281D01*
X0026359Y0088232D01*
X0026364Y0088183D01*
X0026366Y0088133D01*
X0023869Y0088800D02*
X0023869Y0086400D01*
X0022536Y0088800D01*
X0022536Y0086400D01*
X0021585Y0086400D02*
X0020785Y0088800D01*
X0019985Y0086400D01*
X0020185Y0087000D02*
X0021385Y0087000D01*
X0018557Y0087467D02*
X0017890Y0087467D01*
X0018557Y0087466D02*
X0018607Y0087468D01*
X0018656Y0087473D01*
X0018705Y0087483D01*
X0018754Y0087496D01*
X0018801Y0087512D01*
X0018846Y0087532D01*
X0018891Y0087555D01*
X0018933Y0087582D01*
X0018973Y0087612D01*
X0019011Y0087644D01*
X0019046Y0087679D01*
X0019078Y0087717D01*
X0019108Y0087757D01*
X0019135Y0087800D01*
X0019158Y0087844D01*
X0019178Y0087889D01*
X0019194Y0087936D01*
X0019207Y0087985D01*
X0019217Y0088034D01*
X0019222Y0088083D01*
X0019224Y0088133D01*
X0019222Y0088183D01*
X0019217Y0088232D01*
X0019207Y0088281D01*
X0019194Y0088330D01*
X0019178Y0088377D01*
X0019158Y0088422D01*
X0019135Y0088467D01*
X0019108Y0088509D01*
X0019078Y0088549D01*
X0019046Y0088587D01*
X0019011Y0088622D01*
X0018973Y0088654D01*
X0018933Y0088684D01*
X0018890Y0088711D01*
X0018846Y0088734D01*
X0018801Y0088754D01*
X0018754Y0088770D01*
X0018705Y0088783D01*
X0018656Y0088793D01*
X0018607Y0088798D01*
X0018557Y0088800D01*
X0017890Y0088800D01*
X0017890Y0086400D01*
X0016905Y0086400D02*
X0015305Y0088800D01*
X0014559Y0088800D02*
X0013492Y0088800D01*
X0013492Y0086400D01*
X0014559Y0086400D01*
X0015305Y0086400D02*
X0016905Y0088800D01*
X0017091Y0091400D02*
X0017091Y0092867D01*
X0017824Y0092867D01*
X0017824Y0092622D01*
X0018590Y0092867D02*
X0019201Y0092867D01*
X0019237Y0092865D01*
X0019273Y0092860D01*
X0019308Y0092851D01*
X0019341Y0092839D01*
X0019374Y0092824D01*
X0019405Y0092805D01*
X0019434Y0092784D01*
X0019461Y0092760D01*
X0019485Y0092733D01*
X0019506Y0092704D01*
X0019525Y0092673D01*
X0019540Y0092640D01*
X0019552Y0092607D01*
X0019561Y0092572D01*
X0019566Y0092536D01*
X0019568Y0092500D01*
X0019568Y0091400D01*
X0018590Y0091400D02*
X0018590Y0092867D01*
X0020534Y0092378D02*
X0020534Y0091767D01*
X0020534Y0092133D02*
X0021512Y0092133D01*
X0021512Y0092378D01*
X0021510Y0092421D01*
X0021505Y0092463D01*
X0021495Y0092505D01*
X0021483Y0092545D01*
X0021466Y0092585D01*
X0021446Y0092623D01*
X0021424Y0092658D01*
X0021398Y0092692D01*
X0021369Y0092724D01*
X0021337Y0092753D01*
X0021303Y0092779D01*
X0021268Y0092801D01*
X0021230Y0092821D01*
X0021190Y0092838D01*
X0021150Y0092850D01*
X0021108Y0092860D01*
X0021066Y0092865D01*
X0021023Y0092867D01*
X0020980Y0092865D01*
X0020938Y0092860D01*
X0020896Y0092850D01*
X0020856Y0092838D01*
X0020816Y0092821D01*
X0020779Y0092801D01*
X0020743Y0092779D01*
X0020709Y0092753D01*
X0020677Y0092724D01*
X0020648Y0092692D01*
X0020622Y0092658D01*
X0020600Y0092623D01*
X0020580Y0092585D01*
X0020563Y0092545D01*
X0020551Y0092505D01*
X0020541Y0092463D01*
X0020536Y0092421D01*
X0020534Y0092378D01*
X0020534Y0091767D02*
X0020536Y0091731D01*
X0020541Y0091695D01*
X0020550Y0091660D01*
X0020562Y0091627D01*
X0020577Y0091594D01*
X0020596Y0091563D01*
X0020617Y0091534D01*
X0020641Y0091507D01*
X0020668Y0091483D01*
X0020697Y0091462D01*
X0020728Y0091443D01*
X0020761Y0091428D01*
X0020794Y0091416D01*
X0020829Y0091407D01*
X0020865Y0091402D01*
X0020901Y0091400D01*
X0021512Y0091400D01*
X0024191Y0091400D02*
X0023458Y0093600D01*
X0024924Y0093600D02*
X0024191Y0091400D01*
X0025829Y0092867D02*
X0026318Y0092867D01*
X0026354Y0092865D01*
X0026390Y0092860D01*
X0026425Y0092851D01*
X0026458Y0092839D01*
X0026491Y0092824D01*
X0026522Y0092805D01*
X0026551Y0092784D01*
X0026578Y0092760D01*
X0026602Y0092733D01*
X0026623Y0092704D01*
X0026642Y0092673D01*
X0026657Y0092640D01*
X0026669Y0092607D01*
X0026678Y0092572D01*
X0026683Y0092536D01*
X0026685Y0092500D01*
X0026685Y0091400D01*
X0026135Y0091400D01*
X0026096Y0091402D01*
X0026056Y0091407D01*
X0026018Y0091416D01*
X0025980Y0091429D01*
X0025944Y0091445D01*
X0025910Y0091464D01*
X0025877Y0091486D01*
X0025847Y0091512D01*
X0025819Y0091540D01*
X0025793Y0091570D01*
X0025771Y0091603D01*
X0025752Y0091637D01*
X0025736Y0091673D01*
X0025723Y0091711D01*
X0025714Y0091749D01*
X0025709Y0091789D01*
X0025707Y0091828D01*
X0025709Y0091867D01*
X0025714Y0091907D01*
X0025723Y0091945D01*
X0025736Y0091983D01*
X0025752Y0092019D01*
X0025771Y0092053D01*
X0025793Y0092086D01*
X0025819Y0092116D01*
X0025847Y0092144D01*
X0025877Y0092170D01*
X0025910Y0092192D01*
X0025944Y0092211D01*
X0025980Y0092227D01*
X0026018Y0092240D01*
X0026056Y0092249D01*
X0026096Y0092254D01*
X0026135Y0092256D01*
X0026685Y0092256D01*
X0027734Y0092867D02*
X0027734Y0091400D01*
X0028712Y0091400D02*
X0028712Y0092500D01*
X0028710Y0092536D01*
X0028705Y0092572D01*
X0028696Y0092607D01*
X0028684Y0092640D01*
X0028669Y0092673D01*
X0028650Y0092704D01*
X0028629Y0092733D01*
X0028605Y0092760D01*
X0028578Y0092784D01*
X0028549Y0092805D01*
X0028518Y0092824D01*
X0028485Y0092839D01*
X0028452Y0092851D01*
X0028417Y0092860D01*
X0028381Y0092865D01*
X0028345Y0092867D01*
X0027734Y0092867D01*
X0030946Y0093600D02*
X0030946Y0091400D01*
X0031679Y0092378D02*
X0032412Y0093600D01*
X0032412Y0091400D01*
X0033494Y0091767D02*
X0033494Y0092867D01*
X0034472Y0092867D02*
X0034472Y0091400D01*
X0033861Y0091400D01*
X0033825Y0091402D01*
X0033789Y0091407D01*
X0033754Y0091416D01*
X0033721Y0091428D01*
X0033688Y0091443D01*
X0033657Y0091462D01*
X0033628Y0091483D01*
X0033601Y0091507D01*
X0033577Y0091534D01*
X0033556Y0091563D01*
X0033537Y0091594D01*
X0033522Y0091627D01*
X0033510Y0091660D01*
X0033501Y0091695D01*
X0033496Y0091731D01*
X0033494Y0091767D01*
X0031679Y0092378D02*
X0030946Y0093600D01*
X0035466Y0093600D02*
X0035466Y0091767D01*
X0035465Y0091767D02*
X0035467Y0091731D01*
X0035472Y0091695D01*
X0035481Y0091660D01*
X0035493Y0091627D01*
X0035508Y0091594D01*
X0035527Y0091563D01*
X0035548Y0091534D01*
X0035572Y0091507D01*
X0035599Y0091483D01*
X0035628Y0091462D01*
X0035659Y0091443D01*
X0035692Y0091428D01*
X0035725Y0091416D01*
X0035760Y0091407D01*
X0035796Y0091402D01*
X0035832Y0091400D01*
X0036579Y0091767D02*
X0036579Y0092500D01*
X0036578Y0092500D02*
X0036580Y0092536D01*
X0036585Y0092572D01*
X0036594Y0092607D01*
X0036606Y0092640D01*
X0036621Y0092673D01*
X0036640Y0092704D01*
X0036661Y0092733D01*
X0036685Y0092760D01*
X0036712Y0092784D01*
X0036741Y0092805D01*
X0036772Y0092824D01*
X0036805Y0092839D01*
X0036838Y0092851D01*
X0036873Y0092860D01*
X0036909Y0092865D01*
X0036945Y0092867D01*
X0037557Y0092867D01*
X0037557Y0093600D02*
X0037557Y0091400D01*
X0036945Y0091400D01*
X0036909Y0091402D01*
X0036873Y0091407D01*
X0036838Y0091416D01*
X0036805Y0091428D01*
X0036772Y0091443D01*
X0036741Y0091462D01*
X0036712Y0091483D01*
X0036685Y0091507D01*
X0036661Y0091534D01*
X0036640Y0091563D01*
X0036621Y0091594D01*
X0036606Y0091627D01*
X0036594Y0091660D01*
X0036585Y0091695D01*
X0036580Y0091731D01*
X0036578Y0091767D01*
X0038534Y0091767D02*
X0038534Y0092378D01*
X0038534Y0092133D02*
X0039512Y0092133D01*
X0039512Y0092378D01*
X0039510Y0092421D01*
X0039505Y0092463D01*
X0039495Y0092505D01*
X0039483Y0092545D01*
X0039466Y0092585D01*
X0039446Y0092623D01*
X0039424Y0092658D01*
X0039398Y0092692D01*
X0039369Y0092724D01*
X0039337Y0092753D01*
X0039303Y0092779D01*
X0039268Y0092801D01*
X0039230Y0092821D01*
X0039190Y0092838D01*
X0039150Y0092850D01*
X0039108Y0092860D01*
X0039066Y0092865D01*
X0039023Y0092867D01*
X0038980Y0092865D01*
X0038938Y0092860D01*
X0038896Y0092850D01*
X0038856Y0092838D01*
X0038816Y0092821D01*
X0038779Y0092801D01*
X0038743Y0092779D01*
X0038709Y0092753D01*
X0038677Y0092724D01*
X0038648Y0092692D01*
X0038622Y0092658D01*
X0038600Y0092623D01*
X0038580Y0092585D01*
X0038563Y0092545D01*
X0038551Y0092505D01*
X0038541Y0092463D01*
X0038536Y0092421D01*
X0038534Y0092378D01*
X0038534Y0091767D02*
X0038536Y0091731D01*
X0038541Y0091695D01*
X0038550Y0091660D01*
X0038562Y0091627D01*
X0038577Y0091594D01*
X0038596Y0091563D01*
X0038617Y0091534D01*
X0038641Y0091507D01*
X0038668Y0091483D01*
X0038697Y0091462D01*
X0038728Y0091443D01*
X0038761Y0091428D01*
X0038794Y0091416D01*
X0038829Y0091407D01*
X0038865Y0091402D01*
X0038901Y0091400D01*
X0039512Y0091400D01*
X0040491Y0091400D02*
X0040491Y0092867D01*
X0041224Y0092867D01*
X0041224Y0092622D01*
X0042101Y0092256D02*
X0042713Y0092011D01*
X0042745Y0091996D01*
X0042775Y0091978D01*
X0042802Y0091957D01*
X0042828Y0091932D01*
X0042850Y0091905D01*
X0042869Y0091876D01*
X0042885Y0091844D01*
X0042898Y0091811D01*
X0042906Y0091777D01*
X0042911Y0091742D01*
X0042912Y0091707D01*
X0042909Y0091672D01*
X0042902Y0091638D01*
X0042891Y0091604D01*
X0042877Y0091572D01*
X0042859Y0091542D01*
X0042838Y0091514D01*
X0042814Y0091488D01*
X0042787Y0091465D01*
X0042758Y0091445D01*
X0042727Y0091429D01*
X0042694Y0091416D01*
X0042660Y0091407D01*
X0042626Y0091401D01*
X0042590Y0091400D01*
X0042774Y0092745D02*
X0042708Y0092772D01*
X0042642Y0092796D01*
X0042574Y0092817D01*
X0042505Y0092834D01*
X0042436Y0092848D01*
X0042365Y0092858D01*
X0042295Y0092864D01*
X0042224Y0092867D01*
X0042188Y0092866D01*
X0042154Y0092860D01*
X0042120Y0092851D01*
X0042087Y0092838D01*
X0042056Y0092822D01*
X0042027Y0092802D01*
X0042000Y0092779D01*
X0041976Y0092753D01*
X0041955Y0092725D01*
X0041937Y0092695D01*
X0041923Y0092663D01*
X0041912Y0092629D01*
X0041905Y0092595D01*
X0041902Y0092560D01*
X0041903Y0092525D01*
X0041908Y0092490D01*
X0041916Y0092456D01*
X0041929Y0092423D01*
X0041945Y0092391D01*
X0041964Y0092362D01*
X0041986Y0092335D01*
X0042012Y0092310D01*
X0042039Y0092289D01*
X0042069Y0092271D01*
X0042101Y0092256D01*
X0041918Y0091522D02*
X0041999Y0091495D01*
X0042082Y0091471D01*
X0042165Y0091451D01*
X0042249Y0091433D01*
X0042334Y0091420D01*
X0042419Y0091410D01*
X0042505Y0091403D01*
X0042590Y0091400D01*
X0058872Y0071200D02*
X0059483Y0071200D01*
X0058872Y0071200D02*
X0058872Y0069000D01*
X0058872Y0069978D02*
X0059483Y0069978D01*
X0059605Y0069978D02*
X0060094Y0069000D01*
X0061018Y0069000D02*
X0062240Y0069000D01*
X0061629Y0069000D02*
X0061629Y0071200D01*
X0061018Y0070711D01*
X0059483Y0071200D02*
X0059531Y0071198D01*
X0059579Y0071192D01*
X0059626Y0071183D01*
X0059672Y0071170D01*
X0059717Y0071153D01*
X0059760Y0071133D01*
X0059802Y0071110D01*
X0059842Y0071083D01*
X0059880Y0071054D01*
X0059915Y0071021D01*
X0059948Y0070986D01*
X0059977Y0070948D01*
X0060004Y0070908D01*
X0060027Y0070866D01*
X0060047Y0070823D01*
X0060064Y0070778D01*
X0060077Y0070732D01*
X0060086Y0070685D01*
X0060092Y0070637D01*
X0060094Y0070589D01*
X0060092Y0070541D01*
X0060086Y0070493D01*
X0060077Y0070446D01*
X0060064Y0070400D01*
X0060047Y0070355D01*
X0060027Y0070312D01*
X0060004Y0070270D01*
X0059977Y0070230D01*
X0059948Y0070192D01*
X0059915Y0070157D01*
X0059880Y0070124D01*
X0059842Y0070095D01*
X0059802Y0070068D01*
X0059760Y0070045D01*
X0059717Y0070025D01*
X0059672Y0070008D01*
X0059626Y0069995D01*
X0059579Y0069986D01*
X0059531Y0069980D01*
X0059483Y0069978D01*
X0063178Y0070222D02*
X0063178Y0069611D01*
X0063180Y0069563D01*
X0063186Y0069515D01*
X0063195Y0069468D01*
X0063208Y0069422D01*
X0063225Y0069377D01*
X0063245Y0069334D01*
X0063268Y0069292D01*
X0063295Y0069252D01*
X0063324Y0069214D01*
X0063357Y0069179D01*
X0063392Y0069146D01*
X0063430Y0069117D01*
X0063470Y0069090D01*
X0063512Y0069067D01*
X0063555Y0069047D01*
X0063600Y0069030D01*
X0063646Y0069017D01*
X0063693Y0069008D01*
X0063741Y0069002D01*
X0063789Y0069000D01*
X0063837Y0069002D01*
X0063885Y0069008D01*
X0063932Y0069017D01*
X0063978Y0069030D01*
X0064023Y0069047D01*
X0064066Y0069067D01*
X0064108Y0069090D01*
X0064148Y0069117D01*
X0064186Y0069146D01*
X0064221Y0069179D01*
X0064254Y0069214D01*
X0064283Y0069252D01*
X0064310Y0069292D01*
X0064333Y0069334D01*
X0064353Y0069377D01*
X0064370Y0069422D01*
X0064383Y0069468D01*
X0064392Y0069515D01*
X0064398Y0069563D01*
X0064400Y0069611D01*
X0064400Y0069733D01*
X0064398Y0069776D01*
X0064393Y0069818D01*
X0064383Y0069860D01*
X0064371Y0069900D01*
X0064354Y0069940D01*
X0064334Y0069978D01*
X0064312Y0070013D01*
X0064286Y0070047D01*
X0064257Y0070079D01*
X0064225Y0070108D01*
X0064191Y0070134D01*
X0064156Y0070156D01*
X0064118Y0070176D01*
X0064078Y0070193D01*
X0064038Y0070205D01*
X0063996Y0070215D01*
X0063954Y0070220D01*
X0063911Y0070222D01*
X0063178Y0070222D01*
X0063180Y0070283D01*
X0063186Y0070345D01*
X0063195Y0070405D01*
X0063209Y0070465D01*
X0063226Y0070524D01*
X0063247Y0070582D01*
X0063271Y0070638D01*
X0063299Y0070693D01*
X0063330Y0070746D01*
X0063365Y0070797D01*
X0063402Y0070845D01*
X0063443Y0070891D01*
X0063487Y0070935D01*
X0063533Y0070976D01*
X0063581Y0071013D01*
X0063632Y0071048D01*
X0063685Y0071079D01*
X0063740Y0071107D01*
X0063796Y0071131D01*
X0063854Y0071152D01*
X0063913Y0071169D01*
X0063973Y0071183D01*
X0064033Y0071192D01*
X0064095Y0071198D01*
X0064156Y0071200D01*
X0073872Y0071200D02*
X0073872Y0069000D01*
X0073872Y0069978D02*
X0074483Y0069978D01*
X0074605Y0069978D02*
X0075094Y0069000D01*
X0076018Y0069000D02*
X0077240Y0069000D01*
X0076629Y0069000D02*
X0076629Y0071200D01*
X0076018Y0070711D01*
X0074483Y0071200D02*
X0074531Y0071198D01*
X0074579Y0071192D01*
X0074626Y0071183D01*
X0074672Y0071170D01*
X0074717Y0071153D01*
X0074760Y0071133D01*
X0074802Y0071110D01*
X0074842Y0071083D01*
X0074880Y0071054D01*
X0074915Y0071021D01*
X0074948Y0070986D01*
X0074977Y0070948D01*
X0075004Y0070908D01*
X0075027Y0070866D01*
X0075047Y0070823D01*
X0075064Y0070778D01*
X0075077Y0070732D01*
X0075086Y0070685D01*
X0075092Y0070637D01*
X0075094Y0070589D01*
X0075092Y0070541D01*
X0075086Y0070493D01*
X0075077Y0070446D01*
X0075064Y0070400D01*
X0075047Y0070355D01*
X0075027Y0070312D01*
X0075004Y0070270D01*
X0074977Y0070230D01*
X0074948Y0070192D01*
X0074915Y0070157D01*
X0074880Y0070124D01*
X0074842Y0070095D01*
X0074802Y0070068D01*
X0074760Y0070045D01*
X0074717Y0070025D01*
X0074672Y0070008D01*
X0074626Y0069995D01*
X0074579Y0069986D01*
X0074531Y0069980D01*
X0074483Y0069978D01*
X0074483Y0071200D02*
X0073872Y0071200D01*
X0078178Y0071200D02*
X0078178Y0070222D01*
X0078911Y0070222D01*
X0078954Y0070220D01*
X0078996Y0070215D01*
X0079038Y0070205D01*
X0079078Y0070193D01*
X0079118Y0070176D01*
X0079156Y0070156D01*
X0079191Y0070134D01*
X0079225Y0070108D01*
X0079257Y0070079D01*
X0079286Y0070047D01*
X0079312Y0070013D01*
X0079334Y0069978D01*
X0079354Y0069940D01*
X0079371Y0069900D01*
X0079383Y0069860D01*
X0079393Y0069818D01*
X0079398Y0069776D01*
X0079400Y0069733D01*
X0079400Y0069489D01*
X0079398Y0069446D01*
X0079393Y0069404D01*
X0079383Y0069362D01*
X0079371Y0069322D01*
X0079354Y0069282D01*
X0079334Y0069244D01*
X0079312Y0069209D01*
X0079286Y0069175D01*
X0079257Y0069143D01*
X0079225Y0069114D01*
X0079191Y0069088D01*
X0079155Y0069066D01*
X0079118Y0069046D01*
X0079078Y0069029D01*
X0079038Y0069017D01*
X0078996Y0069007D01*
X0078954Y0069002D01*
X0078911Y0069000D01*
X0078178Y0069000D01*
X0078178Y0071200D02*
X0079400Y0071200D01*
X0076718Y0064850D02*
X0075496Y0064850D01*
X0075496Y0064606D01*
X0076718Y0064850D02*
X0076107Y0062650D01*
X0074572Y0062650D02*
X0074083Y0063628D01*
X0073961Y0063628D02*
X0073350Y0063628D01*
X0073961Y0063628D02*
X0074009Y0063630D01*
X0074057Y0063636D01*
X0074104Y0063645D01*
X0074150Y0063658D01*
X0074195Y0063675D01*
X0074238Y0063695D01*
X0074280Y0063718D01*
X0074320Y0063745D01*
X0074358Y0063774D01*
X0074393Y0063807D01*
X0074426Y0063842D01*
X0074455Y0063880D01*
X0074482Y0063920D01*
X0074505Y0063962D01*
X0074525Y0064005D01*
X0074542Y0064050D01*
X0074555Y0064096D01*
X0074564Y0064143D01*
X0074570Y0064191D01*
X0074572Y0064239D01*
X0074570Y0064287D01*
X0074564Y0064335D01*
X0074555Y0064382D01*
X0074542Y0064428D01*
X0074525Y0064473D01*
X0074505Y0064516D01*
X0074482Y0064558D01*
X0074455Y0064598D01*
X0074426Y0064636D01*
X0074393Y0064671D01*
X0074358Y0064704D01*
X0074320Y0064733D01*
X0074280Y0064760D01*
X0074238Y0064783D01*
X0074195Y0064803D01*
X0074150Y0064820D01*
X0074104Y0064833D01*
X0074057Y0064842D01*
X0074009Y0064848D01*
X0073961Y0064850D01*
X0073350Y0064850D01*
X0073350Y0062650D01*
X0073350Y0057350D02*
X0073961Y0057350D01*
X0073350Y0057350D02*
X0073350Y0055150D01*
X0073350Y0056128D02*
X0073961Y0056128D01*
X0074083Y0056128D02*
X0074572Y0055150D01*
X0073961Y0056128D02*
X0074009Y0056130D01*
X0074057Y0056136D01*
X0074104Y0056145D01*
X0074150Y0056158D01*
X0074195Y0056175D01*
X0074238Y0056195D01*
X0074280Y0056218D01*
X0074320Y0056245D01*
X0074358Y0056274D01*
X0074393Y0056307D01*
X0074426Y0056342D01*
X0074455Y0056380D01*
X0074482Y0056420D01*
X0074505Y0056462D01*
X0074525Y0056505D01*
X0074542Y0056550D01*
X0074555Y0056596D01*
X0074564Y0056643D01*
X0074570Y0056691D01*
X0074572Y0056739D01*
X0074570Y0056787D01*
X0074564Y0056835D01*
X0074555Y0056882D01*
X0074542Y0056928D01*
X0074525Y0056973D01*
X0074505Y0057016D01*
X0074482Y0057058D01*
X0074455Y0057098D01*
X0074426Y0057136D01*
X0074393Y0057171D01*
X0074358Y0057204D01*
X0074320Y0057233D01*
X0074280Y0057260D01*
X0074238Y0057283D01*
X0074195Y0057303D01*
X0074150Y0057320D01*
X0074104Y0057333D01*
X0074057Y0057342D01*
X0074009Y0057348D01*
X0073961Y0057350D01*
X0075618Y0056861D02*
X0075620Y0056818D01*
X0075625Y0056776D01*
X0075635Y0056734D01*
X0075647Y0056694D01*
X0075664Y0056654D01*
X0075684Y0056617D01*
X0075706Y0056581D01*
X0075732Y0056547D01*
X0075761Y0056515D01*
X0075793Y0056486D01*
X0075827Y0056460D01*
X0075863Y0056438D01*
X0075900Y0056418D01*
X0075940Y0056401D01*
X0075980Y0056389D01*
X0076022Y0056379D01*
X0076064Y0056374D01*
X0076107Y0056372D01*
X0076150Y0056374D01*
X0076192Y0056379D01*
X0076234Y0056389D01*
X0076274Y0056401D01*
X0076314Y0056418D01*
X0076352Y0056438D01*
X0076387Y0056460D01*
X0076421Y0056486D01*
X0076453Y0056515D01*
X0076482Y0056547D01*
X0076508Y0056581D01*
X0076530Y0056617D01*
X0076550Y0056654D01*
X0076567Y0056694D01*
X0076579Y0056734D01*
X0076589Y0056776D01*
X0076594Y0056818D01*
X0076596Y0056861D01*
X0076594Y0056904D01*
X0076589Y0056946D01*
X0076579Y0056988D01*
X0076567Y0057028D01*
X0076550Y0057068D01*
X0076530Y0057106D01*
X0076508Y0057141D01*
X0076482Y0057175D01*
X0076453Y0057207D01*
X0076421Y0057236D01*
X0076387Y0057262D01*
X0076352Y0057284D01*
X0076314Y0057304D01*
X0076274Y0057321D01*
X0076234Y0057333D01*
X0076192Y0057343D01*
X0076150Y0057348D01*
X0076107Y0057350D01*
X0076064Y0057348D01*
X0076022Y0057343D01*
X0075980Y0057333D01*
X0075940Y0057321D01*
X0075900Y0057304D01*
X0075863Y0057284D01*
X0075827Y0057262D01*
X0075793Y0057236D01*
X0075761Y0057207D01*
X0075732Y0057175D01*
X0075706Y0057141D01*
X0075684Y0057106D01*
X0075664Y0057068D01*
X0075647Y0057028D01*
X0075635Y0056988D01*
X0075625Y0056946D01*
X0075620Y0056904D01*
X0075618Y0056861D01*
X0075496Y0055761D02*
X0075498Y0055713D01*
X0075504Y0055665D01*
X0075513Y0055618D01*
X0075526Y0055572D01*
X0075543Y0055527D01*
X0075563Y0055484D01*
X0075586Y0055442D01*
X0075613Y0055402D01*
X0075642Y0055364D01*
X0075675Y0055329D01*
X0075710Y0055296D01*
X0075748Y0055267D01*
X0075788Y0055240D01*
X0075830Y0055217D01*
X0075873Y0055197D01*
X0075918Y0055180D01*
X0075964Y0055167D01*
X0076011Y0055158D01*
X0076059Y0055152D01*
X0076107Y0055150D01*
X0076155Y0055152D01*
X0076203Y0055158D01*
X0076250Y0055167D01*
X0076296Y0055180D01*
X0076341Y0055197D01*
X0076384Y0055217D01*
X0076426Y0055240D01*
X0076466Y0055267D01*
X0076504Y0055296D01*
X0076539Y0055329D01*
X0076572Y0055364D01*
X0076601Y0055402D01*
X0076628Y0055442D01*
X0076651Y0055484D01*
X0076671Y0055527D01*
X0076688Y0055572D01*
X0076701Y0055618D01*
X0076710Y0055665D01*
X0076716Y0055713D01*
X0076718Y0055761D01*
X0076716Y0055809D01*
X0076710Y0055857D01*
X0076701Y0055904D01*
X0076688Y0055950D01*
X0076671Y0055995D01*
X0076651Y0056038D01*
X0076628Y0056080D01*
X0076601Y0056120D01*
X0076572Y0056158D01*
X0076539Y0056193D01*
X0076504Y0056226D01*
X0076466Y0056255D01*
X0076426Y0056282D01*
X0076384Y0056305D01*
X0076341Y0056325D01*
X0076296Y0056342D01*
X0076250Y0056355D01*
X0076203Y0056364D01*
X0076155Y0056370D01*
X0076107Y0056372D01*
X0076059Y0056370D01*
X0076011Y0056364D01*
X0075964Y0056355D01*
X0075918Y0056342D01*
X0075873Y0056325D01*
X0075830Y0056305D01*
X0075788Y0056282D01*
X0075748Y0056255D01*
X0075710Y0056226D01*
X0075675Y0056193D01*
X0075642Y0056158D01*
X0075613Y0056120D01*
X0075586Y0056080D01*
X0075563Y0056038D01*
X0075543Y0055995D01*
X0075526Y0055950D01*
X0075513Y0055904D01*
X0075504Y0055857D01*
X0075498Y0055809D01*
X0075496Y0055761D01*
X0073961Y0049850D02*
X0073350Y0049850D01*
X0073350Y0047650D01*
X0073350Y0048628D02*
X0073961Y0048628D01*
X0074083Y0048628D02*
X0074572Y0047650D01*
X0075740Y0047650D02*
X0075801Y0047652D01*
X0075863Y0047658D01*
X0075923Y0047667D01*
X0075983Y0047681D01*
X0076042Y0047698D01*
X0076100Y0047719D01*
X0076156Y0047743D01*
X0076211Y0047771D01*
X0076264Y0047802D01*
X0076315Y0047837D01*
X0076363Y0047874D01*
X0076409Y0047915D01*
X0076453Y0047959D01*
X0076494Y0048005D01*
X0076531Y0048053D01*
X0076566Y0048104D01*
X0076597Y0048157D01*
X0076625Y0048212D01*
X0076649Y0048268D01*
X0076670Y0048326D01*
X0076687Y0048385D01*
X0076701Y0048445D01*
X0076710Y0048505D01*
X0076716Y0048567D01*
X0076718Y0048628D01*
X0076718Y0049239D01*
X0076716Y0049287D01*
X0076710Y0049335D01*
X0076701Y0049382D01*
X0076688Y0049428D01*
X0076671Y0049473D01*
X0076651Y0049516D01*
X0076628Y0049558D01*
X0076601Y0049598D01*
X0076572Y0049636D01*
X0076539Y0049671D01*
X0076504Y0049704D01*
X0076466Y0049733D01*
X0076426Y0049760D01*
X0076384Y0049783D01*
X0076341Y0049803D01*
X0076296Y0049820D01*
X0076250Y0049833D01*
X0076203Y0049842D01*
X0076155Y0049848D01*
X0076107Y0049850D01*
X0076059Y0049848D01*
X0076011Y0049842D01*
X0075964Y0049833D01*
X0075918Y0049820D01*
X0075873Y0049803D01*
X0075830Y0049783D01*
X0075788Y0049760D01*
X0075748Y0049733D01*
X0075710Y0049704D01*
X0075675Y0049671D01*
X0075642Y0049636D01*
X0075613Y0049598D01*
X0075586Y0049558D01*
X0075563Y0049516D01*
X0075543Y0049473D01*
X0075526Y0049428D01*
X0075513Y0049382D01*
X0075504Y0049335D01*
X0075498Y0049287D01*
X0075496Y0049239D01*
X0075496Y0049117D01*
X0075498Y0049074D01*
X0075503Y0049032D01*
X0075513Y0048990D01*
X0075525Y0048950D01*
X0075542Y0048910D01*
X0075562Y0048873D01*
X0075584Y0048837D01*
X0075610Y0048803D01*
X0075639Y0048771D01*
X0075671Y0048742D01*
X0075705Y0048716D01*
X0075740Y0048694D01*
X0075778Y0048674D01*
X0075818Y0048657D01*
X0075858Y0048645D01*
X0075900Y0048635D01*
X0075942Y0048630D01*
X0075985Y0048628D01*
X0076718Y0048628D01*
X0073961Y0048628D02*
X0074009Y0048630D01*
X0074057Y0048636D01*
X0074104Y0048645D01*
X0074150Y0048658D01*
X0074195Y0048675D01*
X0074238Y0048695D01*
X0074280Y0048718D01*
X0074320Y0048745D01*
X0074358Y0048774D01*
X0074393Y0048807D01*
X0074426Y0048842D01*
X0074455Y0048880D01*
X0074482Y0048920D01*
X0074505Y0048962D01*
X0074525Y0049005D01*
X0074542Y0049050D01*
X0074555Y0049096D01*
X0074564Y0049143D01*
X0074570Y0049191D01*
X0074572Y0049239D01*
X0074570Y0049287D01*
X0074564Y0049335D01*
X0074555Y0049382D01*
X0074542Y0049428D01*
X0074525Y0049473D01*
X0074505Y0049516D01*
X0074482Y0049558D01*
X0074455Y0049598D01*
X0074426Y0049636D01*
X0074393Y0049671D01*
X0074358Y0049704D01*
X0074320Y0049733D01*
X0074280Y0049760D01*
X0074238Y0049783D01*
X0074195Y0049803D01*
X0074150Y0049820D01*
X0074104Y0049833D01*
X0074057Y0049842D01*
X0074009Y0049848D01*
X0073961Y0049850D01*
X0073961Y0042350D02*
X0073350Y0042350D01*
X0073350Y0040150D01*
X0073350Y0041128D02*
X0073961Y0041128D01*
X0074083Y0041128D02*
X0074572Y0040150D01*
X0075496Y0040150D02*
X0076718Y0040150D01*
X0076107Y0040150D02*
X0076107Y0042350D01*
X0075496Y0041861D01*
X0078878Y0041250D02*
X0078876Y0041168D01*
X0078871Y0041086D01*
X0078861Y0041004D01*
X0078848Y0040923D01*
X0078832Y0040842D01*
X0078811Y0040763D01*
X0078787Y0040684D01*
X0078760Y0040606D01*
X0078729Y0040530D01*
X0078695Y0040456D01*
X0078695Y0040455D02*
X0078680Y0040418D01*
X0078662Y0040382D01*
X0078641Y0040348D01*
X0078617Y0040316D01*
X0078590Y0040286D01*
X0078561Y0040259D01*
X0078530Y0040234D01*
X0078496Y0040212D01*
X0078461Y0040194D01*
X0078424Y0040178D01*
X0078386Y0040166D01*
X0078347Y0040157D01*
X0078307Y0040152D01*
X0078267Y0040150D01*
X0078227Y0040152D01*
X0078187Y0040157D01*
X0078148Y0040166D01*
X0078110Y0040178D01*
X0078073Y0040194D01*
X0078038Y0040212D01*
X0078004Y0040234D01*
X0077973Y0040259D01*
X0077944Y0040286D01*
X0077917Y0040316D01*
X0077893Y0040348D01*
X0077872Y0040382D01*
X0077854Y0040418D01*
X0077839Y0040455D01*
X0077778Y0040639D02*
X0078756Y0041861D01*
X0078695Y0042045D02*
X0078680Y0042082D01*
X0078662Y0042118D01*
X0078641Y0042152D01*
X0078617Y0042184D01*
X0078590Y0042214D01*
X0078561Y0042241D01*
X0078530Y0042266D01*
X0078496Y0042288D01*
X0078461Y0042306D01*
X0078424Y0042322D01*
X0078386Y0042334D01*
X0078347Y0042343D01*
X0078307Y0042348D01*
X0078267Y0042350D01*
X0078227Y0042348D01*
X0078187Y0042343D01*
X0078148Y0042334D01*
X0078110Y0042322D01*
X0078073Y0042306D01*
X0078038Y0042288D01*
X0078004Y0042266D01*
X0077973Y0042241D01*
X0077944Y0042214D01*
X0077917Y0042184D01*
X0077893Y0042152D01*
X0077872Y0042118D01*
X0077854Y0042082D01*
X0077839Y0042045D01*
X0078695Y0042044D02*
X0078729Y0041970D01*
X0078760Y0041894D01*
X0078787Y0041816D01*
X0078811Y0041737D01*
X0078832Y0041658D01*
X0078848Y0041577D01*
X0078861Y0041496D01*
X0078871Y0041414D01*
X0078876Y0041332D01*
X0078878Y0041250D01*
X0077656Y0041250D02*
X0077658Y0041332D01*
X0077663Y0041414D01*
X0077673Y0041496D01*
X0077686Y0041577D01*
X0077702Y0041658D01*
X0077723Y0041737D01*
X0077747Y0041816D01*
X0077774Y0041894D01*
X0077805Y0041970D01*
X0077839Y0042044D01*
X0077656Y0041250D02*
X0077658Y0041168D01*
X0077663Y0041086D01*
X0077673Y0041004D01*
X0077686Y0040923D01*
X0077702Y0040842D01*
X0077723Y0040763D01*
X0077747Y0040684D01*
X0077774Y0040606D01*
X0077805Y0040530D01*
X0077839Y0040456D01*
X0073961Y0041128D02*
X0074009Y0041130D01*
X0074057Y0041136D01*
X0074104Y0041145D01*
X0074150Y0041158D01*
X0074195Y0041175D01*
X0074238Y0041195D01*
X0074280Y0041218D01*
X0074320Y0041245D01*
X0074358Y0041274D01*
X0074393Y0041307D01*
X0074426Y0041342D01*
X0074455Y0041380D01*
X0074482Y0041420D01*
X0074505Y0041462D01*
X0074525Y0041505D01*
X0074542Y0041550D01*
X0074555Y0041596D01*
X0074564Y0041643D01*
X0074570Y0041691D01*
X0074572Y0041739D01*
X0074570Y0041787D01*
X0074564Y0041835D01*
X0074555Y0041882D01*
X0074542Y0041928D01*
X0074525Y0041973D01*
X0074505Y0042016D01*
X0074482Y0042058D01*
X0074455Y0042098D01*
X0074426Y0042136D01*
X0074393Y0042171D01*
X0074358Y0042204D01*
X0074320Y0042233D01*
X0074280Y0042260D01*
X0074238Y0042283D01*
X0074195Y0042303D01*
X0074150Y0042320D01*
X0074104Y0042333D01*
X0074057Y0042342D01*
X0074009Y0042348D01*
X0073961Y0042350D01*
X0073961Y0034850D02*
X0073350Y0034850D01*
X0073350Y0032650D01*
X0073350Y0033628D02*
X0073961Y0033628D01*
X0074083Y0033628D02*
X0074572Y0032650D01*
X0075496Y0032650D02*
X0076718Y0032650D01*
X0076107Y0032650D02*
X0076107Y0034850D01*
X0075496Y0034361D01*
X0073961Y0034850D02*
X0074009Y0034848D01*
X0074057Y0034842D01*
X0074104Y0034833D01*
X0074150Y0034820D01*
X0074195Y0034803D01*
X0074238Y0034783D01*
X0074280Y0034760D01*
X0074320Y0034733D01*
X0074358Y0034704D01*
X0074393Y0034671D01*
X0074426Y0034636D01*
X0074455Y0034598D01*
X0074482Y0034558D01*
X0074505Y0034516D01*
X0074525Y0034473D01*
X0074542Y0034428D01*
X0074555Y0034382D01*
X0074564Y0034335D01*
X0074570Y0034287D01*
X0074572Y0034239D01*
X0074570Y0034191D01*
X0074564Y0034143D01*
X0074555Y0034096D01*
X0074542Y0034050D01*
X0074525Y0034005D01*
X0074505Y0033962D01*
X0074482Y0033920D01*
X0074455Y0033880D01*
X0074426Y0033842D01*
X0074393Y0033807D01*
X0074358Y0033774D01*
X0074320Y0033745D01*
X0074280Y0033718D01*
X0074238Y0033695D01*
X0074195Y0033675D01*
X0074150Y0033658D01*
X0074104Y0033645D01*
X0074057Y0033636D01*
X0074009Y0033630D01*
X0073961Y0033628D01*
X0077656Y0034361D02*
X0078267Y0034850D01*
X0078267Y0032650D01*
X0077656Y0032650D02*
X0078878Y0032650D01*
X0076107Y0027350D02*
X0075496Y0026861D01*
X0076107Y0027350D02*
X0076107Y0025150D01*
X0075496Y0025150D02*
X0076718Y0025150D01*
X0077656Y0025150D02*
X0078878Y0025150D01*
X0077656Y0025150D02*
X0078695Y0026372D01*
X0078328Y0027350D02*
X0078276Y0027348D01*
X0078224Y0027342D01*
X0078172Y0027333D01*
X0078122Y0027319D01*
X0078072Y0027302D01*
X0078024Y0027281D01*
X0077978Y0027257D01*
X0077934Y0027230D01*
X0077891Y0027199D01*
X0077851Y0027165D01*
X0077814Y0027129D01*
X0077780Y0027089D01*
X0077748Y0027047D01*
X0077720Y0027004D01*
X0077695Y0026958D01*
X0077673Y0026910D01*
X0077655Y0026861D01*
X0078695Y0026372D02*
X0078728Y0026406D01*
X0078758Y0026443D01*
X0078786Y0026483D01*
X0078810Y0026524D01*
X0078830Y0026567D01*
X0078847Y0026612D01*
X0078861Y0026658D01*
X0078870Y0026705D01*
X0078876Y0026752D01*
X0078878Y0026800D01*
X0078876Y0026845D01*
X0078870Y0026891D01*
X0078861Y0026935D01*
X0078848Y0026979D01*
X0078832Y0027021D01*
X0078812Y0027062D01*
X0078788Y0027101D01*
X0078762Y0027138D01*
X0078733Y0027173D01*
X0078701Y0027205D01*
X0078666Y0027234D01*
X0078629Y0027260D01*
X0078590Y0027284D01*
X0078549Y0027304D01*
X0078507Y0027320D01*
X0078463Y0027333D01*
X0078419Y0027342D01*
X0078373Y0027348D01*
X0078328Y0027350D01*
X0074572Y0025150D02*
X0074083Y0026128D01*
X0073961Y0026128D02*
X0073350Y0026128D01*
X0073961Y0026128D02*
X0074009Y0026130D01*
X0074057Y0026136D01*
X0074104Y0026145D01*
X0074150Y0026158D01*
X0074195Y0026175D01*
X0074238Y0026195D01*
X0074280Y0026218D01*
X0074320Y0026245D01*
X0074358Y0026274D01*
X0074393Y0026307D01*
X0074426Y0026342D01*
X0074455Y0026380D01*
X0074482Y0026420D01*
X0074505Y0026462D01*
X0074525Y0026505D01*
X0074542Y0026550D01*
X0074555Y0026596D01*
X0074564Y0026643D01*
X0074570Y0026691D01*
X0074572Y0026739D01*
X0074570Y0026787D01*
X0074564Y0026835D01*
X0074555Y0026882D01*
X0074542Y0026928D01*
X0074525Y0026973D01*
X0074505Y0027016D01*
X0074482Y0027058D01*
X0074455Y0027098D01*
X0074426Y0027136D01*
X0074393Y0027171D01*
X0074358Y0027204D01*
X0074320Y0027233D01*
X0074280Y0027260D01*
X0074238Y0027283D01*
X0074195Y0027303D01*
X0074150Y0027320D01*
X0074104Y0027333D01*
X0074057Y0027342D01*
X0074009Y0027348D01*
X0073961Y0027350D01*
X0073350Y0027350D01*
X0073350Y0025150D01*
X0073350Y0021100D02*
X0073961Y0021100D01*
X0073350Y0021100D02*
X0073350Y0018900D01*
X0073350Y0019878D02*
X0073961Y0019878D01*
X0074083Y0019878D02*
X0074572Y0018900D01*
X0075496Y0018900D02*
X0076718Y0018900D01*
X0076107Y0018900D02*
X0076107Y0021100D01*
X0075496Y0020611D01*
X0073961Y0021100D02*
X0074009Y0021098D01*
X0074057Y0021092D01*
X0074104Y0021083D01*
X0074150Y0021070D01*
X0074195Y0021053D01*
X0074238Y0021033D01*
X0074280Y0021010D01*
X0074320Y0020983D01*
X0074358Y0020954D01*
X0074393Y0020921D01*
X0074426Y0020886D01*
X0074455Y0020848D01*
X0074482Y0020808D01*
X0074505Y0020766D01*
X0074525Y0020723D01*
X0074542Y0020678D01*
X0074555Y0020632D01*
X0074564Y0020585D01*
X0074570Y0020537D01*
X0074572Y0020489D01*
X0074570Y0020441D01*
X0074564Y0020393D01*
X0074555Y0020346D01*
X0074542Y0020300D01*
X0074525Y0020255D01*
X0074505Y0020212D01*
X0074482Y0020170D01*
X0074455Y0020130D01*
X0074426Y0020092D01*
X0074393Y0020057D01*
X0074358Y0020024D01*
X0074320Y0019995D01*
X0074280Y0019968D01*
X0074238Y0019945D01*
X0074195Y0019925D01*
X0074150Y0019908D01*
X0074104Y0019895D01*
X0074057Y0019886D01*
X0074009Y0019880D01*
X0073961Y0019878D01*
X0077656Y0018900D02*
X0078267Y0018900D01*
X0078315Y0018902D01*
X0078363Y0018908D01*
X0078410Y0018917D01*
X0078456Y0018930D01*
X0078501Y0018947D01*
X0078544Y0018967D01*
X0078586Y0018990D01*
X0078626Y0019017D01*
X0078664Y0019046D01*
X0078699Y0019079D01*
X0078732Y0019114D01*
X0078761Y0019152D01*
X0078788Y0019192D01*
X0078811Y0019234D01*
X0078831Y0019277D01*
X0078848Y0019322D01*
X0078861Y0019368D01*
X0078870Y0019415D01*
X0078876Y0019463D01*
X0078878Y0019511D01*
X0078876Y0019559D01*
X0078870Y0019607D01*
X0078861Y0019654D01*
X0078848Y0019700D01*
X0078831Y0019745D01*
X0078811Y0019788D01*
X0078788Y0019830D01*
X0078761Y0019870D01*
X0078732Y0019908D01*
X0078699Y0019943D01*
X0078664Y0019976D01*
X0078626Y0020005D01*
X0078586Y0020032D01*
X0078544Y0020055D01*
X0078501Y0020075D01*
X0078456Y0020092D01*
X0078410Y0020105D01*
X0078363Y0020114D01*
X0078315Y0020120D01*
X0078267Y0020122D01*
X0078389Y0020122D02*
X0077900Y0020122D01*
X0078389Y0020122D02*
X0078432Y0020124D01*
X0078474Y0020129D01*
X0078516Y0020139D01*
X0078556Y0020151D01*
X0078596Y0020168D01*
X0078634Y0020188D01*
X0078669Y0020210D01*
X0078703Y0020236D01*
X0078735Y0020265D01*
X0078764Y0020297D01*
X0078790Y0020331D01*
X0078812Y0020367D01*
X0078832Y0020404D01*
X0078849Y0020444D01*
X0078861Y0020484D01*
X0078871Y0020526D01*
X0078876Y0020568D01*
X0078878Y0020611D01*
X0078876Y0020654D01*
X0078871Y0020696D01*
X0078861Y0020738D01*
X0078849Y0020778D01*
X0078832Y0020818D01*
X0078812Y0020856D01*
X0078790Y0020891D01*
X0078764Y0020925D01*
X0078735Y0020957D01*
X0078703Y0020986D01*
X0078669Y0021012D01*
X0078634Y0021034D01*
X0078596Y0021054D01*
X0078556Y0021071D01*
X0078516Y0021083D01*
X0078474Y0021093D01*
X0078432Y0021098D01*
X0078389Y0021100D01*
X0077656Y0021100D01*
X0078145Y0012350D02*
X0077656Y0010639D01*
X0078878Y0010639D01*
X0078511Y0011128D02*
X0078511Y0010150D01*
X0076718Y0010150D02*
X0075496Y0010150D01*
X0076107Y0010150D02*
X0076107Y0012350D01*
X0075496Y0011861D01*
X0074083Y0011128D02*
X0074572Y0010150D01*
X0073961Y0011128D02*
X0073350Y0011128D01*
X0073961Y0011128D02*
X0074009Y0011130D01*
X0074057Y0011136D01*
X0074104Y0011145D01*
X0074150Y0011158D01*
X0074195Y0011175D01*
X0074238Y0011195D01*
X0074280Y0011218D01*
X0074320Y0011245D01*
X0074358Y0011274D01*
X0074393Y0011307D01*
X0074426Y0011342D01*
X0074455Y0011380D01*
X0074482Y0011420D01*
X0074505Y0011462D01*
X0074525Y0011505D01*
X0074542Y0011550D01*
X0074555Y0011596D01*
X0074564Y0011643D01*
X0074570Y0011691D01*
X0074572Y0011739D01*
X0074570Y0011787D01*
X0074564Y0011835D01*
X0074555Y0011882D01*
X0074542Y0011928D01*
X0074525Y0011973D01*
X0074505Y0012016D01*
X0074482Y0012058D01*
X0074455Y0012098D01*
X0074426Y0012136D01*
X0074393Y0012171D01*
X0074358Y0012204D01*
X0074320Y0012233D01*
X0074280Y0012260D01*
X0074238Y0012283D01*
X0074195Y0012303D01*
X0074150Y0012320D01*
X0074104Y0012333D01*
X0074057Y0012342D01*
X0074009Y0012348D01*
X0073961Y0012350D01*
X0073350Y0012350D01*
X0073350Y0010150D01*
X0067550Y0005679D02*
X0067550Y0004701D01*
X0067548Y0004653D01*
X0067542Y0004605D01*
X0067533Y0004558D01*
X0067520Y0004512D01*
X0067503Y0004467D01*
X0067483Y0004424D01*
X0067460Y0004382D01*
X0067433Y0004342D01*
X0067404Y0004304D01*
X0067371Y0004269D01*
X0067336Y0004236D01*
X0067298Y0004207D01*
X0067258Y0004180D01*
X0067216Y0004157D01*
X0067173Y0004137D01*
X0067128Y0004120D01*
X0067082Y0004107D01*
X0067035Y0004098D01*
X0066987Y0004092D01*
X0066939Y0004090D01*
X0066328Y0004090D01*
X0066328Y0006290D01*
X0066939Y0006290D01*
X0066987Y0006288D01*
X0067035Y0006282D01*
X0067082Y0006273D01*
X0067128Y0006260D01*
X0067173Y0006243D01*
X0067216Y0006223D01*
X0067258Y0006200D01*
X0067298Y0006173D01*
X0067336Y0006144D01*
X0067371Y0006111D01*
X0067404Y0006076D01*
X0067433Y0006038D01*
X0067460Y0005998D01*
X0067483Y0005956D01*
X0067503Y0005913D01*
X0067520Y0005868D01*
X0067533Y0005822D01*
X0067542Y0005775D01*
X0067548Y0005727D01*
X0067550Y0005679D01*
X0065246Y0006290D02*
X0065246Y0004090D01*
X0064024Y0006290D01*
X0064024Y0004090D01*
X0062942Y0004090D02*
X0062209Y0004090D01*
X0062166Y0004092D01*
X0062124Y0004097D01*
X0062082Y0004107D01*
X0062042Y0004119D01*
X0062002Y0004136D01*
X0061965Y0004156D01*
X0061929Y0004178D01*
X0061895Y0004204D01*
X0061863Y0004233D01*
X0061834Y0004265D01*
X0061808Y0004299D01*
X0061786Y0004335D01*
X0061766Y0004372D01*
X0061749Y0004412D01*
X0061737Y0004452D01*
X0061727Y0004494D01*
X0061722Y0004536D01*
X0061720Y0004579D01*
X0061720Y0005801D01*
X0061722Y0005844D01*
X0061727Y0005886D01*
X0061737Y0005928D01*
X0061749Y0005968D01*
X0061766Y0006008D01*
X0061786Y0006045D01*
X0061808Y0006081D01*
X0061834Y0006115D01*
X0061863Y0006147D01*
X0061895Y0006176D01*
X0061929Y0006202D01*
X0061964Y0006224D01*
X0062002Y0006244D01*
X0062042Y0006261D01*
X0062082Y0006273D01*
X0062124Y0006283D01*
X0062166Y0006288D01*
X0062209Y0006290D01*
X0062942Y0006290D01*
X0062942Y0005312D02*
X0062942Y0004090D01*
X0062942Y0005312D02*
X0062576Y0005312D01*
X0054515Y0006117D02*
X0053843Y0006483D01*
X0054087Y0007400D02*
X0054146Y0007398D01*
X0054205Y0007392D01*
X0054263Y0007383D01*
X0054320Y0007370D01*
X0054377Y0007353D01*
X0054432Y0007332D01*
X0054486Y0007309D01*
X0054538Y0007281D01*
X0054589Y0007250D01*
X0054637Y0007217D01*
X0053843Y0006483D02*
X0053807Y0006506D01*
X0053773Y0006533D01*
X0053741Y0006562D01*
X0053712Y0006594D01*
X0053686Y0006628D01*
X0053663Y0006664D01*
X0053644Y0006703D01*
X0053627Y0006742D01*
X0053615Y0006783D01*
X0053605Y0006825D01*
X0053600Y0006868D01*
X0053598Y0006911D01*
X0053600Y0006954D01*
X0053605Y0006996D01*
X0053615Y0007038D01*
X0053627Y0007078D01*
X0053644Y0007118D01*
X0053664Y0007156D01*
X0053686Y0007191D01*
X0053712Y0007225D01*
X0053741Y0007257D01*
X0053773Y0007286D01*
X0053807Y0007312D01*
X0053843Y0007334D01*
X0053880Y0007354D01*
X0053920Y0007371D01*
X0053960Y0007383D01*
X0054002Y0007393D01*
X0054044Y0007398D01*
X0054087Y0007400D01*
X0053538Y0005506D02*
X0053583Y0005462D01*
X0053631Y0005422D01*
X0053681Y0005385D01*
X0053734Y0005351D01*
X0053789Y0005320D01*
X0053845Y0005292D01*
X0053903Y0005268D01*
X0053962Y0005247D01*
X0054023Y0005230D01*
X0054084Y0005217D01*
X0054146Y0005208D01*
X0054208Y0005202D01*
X0054271Y0005200D01*
X0054314Y0005202D01*
X0054356Y0005207D01*
X0054398Y0005217D01*
X0054438Y0005229D01*
X0054478Y0005246D01*
X0054516Y0005266D01*
X0054551Y0005288D01*
X0054585Y0005314D01*
X0054617Y0005343D01*
X0054646Y0005375D01*
X0054672Y0005409D01*
X0054694Y0005444D01*
X0054714Y0005482D01*
X0054731Y0005522D01*
X0054743Y0005562D01*
X0054753Y0005604D01*
X0054758Y0005646D01*
X0054760Y0005689D01*
X0054758Y0005732D01*
X0054753Y0005775D01*
X0054743Y0005817D01*
X0054731Y0005858D01*
X0054714Y0005897D01*
X0054695Y0005936D01*
X0054672Y0005972D01*
X0054646Y0006006D01*
X0054617Y0006038D01*
X0054585Y0006067D01*
X0054551Y0006094D01*
X0054515Y0006117D01*
X0052599Y0005200D02*
X0052599Y0007400D01*
X0051377Y0007400D02*
X0052599Y0005200D01*
X0051377Y0005200D02*
X0051377Y0007400D01*
X0050433Y0007400D02*
X0049944Y0007400D01*
X0050188Y0007400D02*
X0050188Y0005200D01*
X0049944Y0005200D02*
X0050433Y0005200D01*
X0048565Y0006178D02*
X0047954Y0006178D01*
X0048565Y0006178D02*
X0048613Y0006180D01*
X0048661Y0006186D01*
X0048708Y0006195D01*
X0048754Y0006208D01*
X0048799Y0006225D01*
X0048842Y0006245D01*
X0048884Y0006268D01*
X0048924Y0006295D01*
X0048962Y0006324D01*
X0048997Y0006357D01*
X0049030Y0006392D01*
X0049059Y0006430D01*
X0049086Y0006470D01*
X0049109Y0006512D01*
X0049129Y0006555D01*
X0049146Y0006600D01*
X0049159Y0006646D01*
X0049168Y0006693D01*
X0049174Y0006741D01*
X0049176Y0006789D01*
X0049174Y0006837D01*
X0049168Y0006885D01*
X0049159Y0006932D01*
X0049146Y0006978D01*
X0049129Y0007023D01*
X0049109Y0007066D01*
X0049086Y0007108D01*
X0049059Y0007148D01*
X0049030Y0007186D01*
X0048997Y0007221D01*
X0048962Y0007254D01*
X0048924Y0007283D01*
X0048884Y0007310D01*
X0048842Y0007333D01*
X0048799Y0007353D01*
X0048754Y0007370D01*
X0048708Y0007383D01*
X0048661Y0007392D01*
X0048613Y0007398D01*
X0048565Y0007400D01*
X0047954Y0007400D01*
X0047954Y0005200D01*
X0047005Y0004956D02*
X0046028Y0004956D01*
X0045184Y0005811D02*
X0045184Y0006789D01*
X0045183Y0006789D02*
X0045181Y0006837D01*
X0045175Y0006885D01*
X0045166Y0006932D01*
X0045153Y0006978D01*
X0045136Y0007023D01*
X0045116Y0007066D01*
X0045093Y0007108D01*
X0045066Y0007148D01*
X0045037Y0007186D01*
X0045004Y0007221D01*
X0044969Y0007254D01*
X0044931Y0007283D01*
X0044891Y0007310D01*
X0044849Y0007333D01*
X0044806Y0007353D01*
X0044761Y0007370D01*
X0044715Y0007383D01*
X0044668Y0007392D01*
X0044620Y0007398D01*
X0044572Y0007400D01*
X0044524Y0007398D01*
X0044476Y0007392D01*
X0044429Y0007383D01*
X0044383Y0007370D01*
X0044338Y0007353D01*
X0044295Y0007333D01*
X0044253Y0007310D01*
X0044213Y0007283D01*
X0044175Y0007254D01*
X0044140Y0007221D01*
X0044107Y0007186D01*
X0044078Y0007148D01*
X0044051Y0007108D01*
X0044028Y0007066D01*
X0044008Y0007023D01*
X0043991Y0006978D01*
X0043978Y0006932D01*
X0043969Y0006885D01*
X0043963Y0006837D01*
X0043961Y0006789D01*
X0043961Y0005811D01*
X0043963Y0005763D01*
X0043969Y0005715D01*
X0043978Y0005668D01*
X0043991Y0005622D01*
X0044008Y0005577D01*
X0044028Y0005534D01*
X0044051Y0005492D01*
X0044078Y0005452D01*
X0044107Y0005414D01*
X0044140Y0005379D01*
X0044175Y0005346D01*
X0044213Y0005317D01*
X0044253Y0005290D01*
X0044295Y0005267D01*
X0044338Y0005247D01*
X0044383Y0005230D01*
X0044429Y0005217D01*
X0044476Y0005208D01*
X0044524Y0005202D01*
X0044572Y0005200D01*
X0044620Y0005202D01*
X0044668Y0005208D01*
X0044715Y0005217D01*
X0044761Y0005230D01*
X0044806Y0005247D01*
X0044849Y0005267D01*
X0044891Y0005290D01*
X0044931Y0005317D01*
X0044969Y0005346D01*
X0045004Y0005379D01*
X0045037Y0005414D01*
X0045066Y0005452D01*
X0045093Y0005492D01*
X0045116Y0005534D01*
X0045136Y0005577D01*
X0045153Y0005622D01*
X0045166Y0005668D01*
X0045175Y0005715D01*
X0045181Y0005763D01*
X0045183Y0005811D01*
X0043089Y0005200D02*
X0042600Y0005200D01*
X0042844Y0005200D02*
X0042844Y0007400D01*
X0042600Y0007400D02*
X0043089Y0007400D01*
X0042806Y0013813D02*
X0041583Y0013813D01*
X0042194Y0013813D02*
X0042194Y0016013D01*
X0041583Y0015524D01*
X0040574Y0015402D02*
X0040574Y0014424D01*
X0040573Y0014424D02*
X0040571Y0014376D01*
X0040565Y0014328D01*
X0040556Y0014281D01*
X0040543Y0014235D01*
X0040526Y0014190D01*
X0040506Y0014147D01*
X0040483Y0014105D01*
X0040456Y0014065D01*
X0040427Y0014027D01*
X0040394Y0013992D01*
X0040359Y0013959D01*
X0040321Y0013930D01*
X0040281Y0013903D01*
X0040239Y0013880D01*
X0040196Y0013860D01*
X0040151Y0013843D01*
X0040105Y0013830D01*
X0040058Y0013821D01*
X0040010Y0013815D01*
X0039962Y0013813D01*
X0039351Y0013813D01*
X0039351Y0016013D01*
X0039962Y0016013D01*
X0040010Y0016011D01*
X0040058Y0016005D01*
X0040105Y0015996D01*
X0040151Y0015983D01*
X0040196Y0015966D01*
X0040239Y0015946D01*
X0040281Y0015923D01*
X0040321Y0015896D01*
X0040359Y0015867D01*
X0040394Y0015834D01*
X0040427Y0015799D01*
X0040456Y0015761D01*
X0040483Y0015721D01*
X0040506Y0015679D01*
X0040526Y0015636D01*
X0040543Y0015591D01*
X0040556Y0015545D01*
X0040565Y0015498D01*
X0040571Y0015450D01*
X0040573Y0015402D01*
X0038461Y0016013D02*
X0037484Y0016013D01*
X0037484Y0013813D01*
X0038461Y0013813D01*
X0038217Y0015035D02*
X0037484Y0015035D01*
X0036589Y0013813D02*
X0035612Y0013813D01*
X0035612Y0016013D01*
X0035612Y0021313D02*
X0036589Y0021313D01*
X0037484Y0021313D02*
X0037484Y0023513D01*
X0038461Y0023513D01*
X0039351Y0023513D02*
X0039962Y0023513D01*
X0039351Y0023513D02*
X0039351Y0021313D01*
X0039962Y0021313D01*
X0040010Y0021315D01*
X0040058Y0021321D01*
X0040105Y0021330D01*
X0040151Y0021343D01*
X0040196Y0021360D01*
X0040239Y0021380D01*
X0040281Y0021403D01*
X0040321Y0021430D01*
X0040359Y0021459D01*
X0040394Y0021492D01*
X0040427Y0021527D01*
X0040456Y0021565D01*
X0040483Y0021605D01*
X0040506Y0021647D01*
X0040526Y0021690D01*
X0040543Y0021735D01*
X0040556Y0021781D01*
X0040565Y0021828D01*
X0040571Y0021876D01*
X0040573Y0021924D01*
X0040574Y0021924D02*
X0040574Y0022902D01*
X0040573Y0022902D02*
X0040571Y0022950D01*
X0040565Y0022998D01*
X0040556Y0023045D01*
X0040543Y0023091D01*
X0040526Y0023136D01*
X0040506Y0023179D01*
X0040483Y0023221D01*
X0040456Y0023261D01*
X0040427Y0023299D01*
X0040394Y0023334D01*
X0040359Y0023367D01*
X0040321Y0023396D01*
X0040281Y0023423D01*
X0040239Y0023446D01*
X0040196Y0023466D01*
X0040151Y0023483D01*
X0040105Y0023496D01*
X0040058Y0023505D01*
X0040010Y0023511D01*
X0039962Y0023513D01*
X0038217Y0022535D02*
X0037484Y0022535D01*
X0037484Y0021313D02*
X0038461Y0021313D01*
X0035612Y0021313D02*
X0035612Y0023513D01*
X0035612Y0028813D02*
X0036589Y0028813D01*
X0037484Y0028813D02*
X0037484Y0031013D01*
X0038461Y0031013D01*
X0039351Y0031013D02*
X0039962Y0031013D01*
X0039351Y0031013D02*
X0039351Y0028813D01*
X0039962Y0028813D01*
X0040010Y0028815D01*
X0040058Y0028821D01*
X0040105Y0028830D01*
X0040151Y0028843D01*
X0040196Y0028860D01*
X0040239Y0028880D01*
X0040281Y0028903D01*
X0040321Y0028930D01*
X0040359Y0028959D01*
X0040394Y0028992D01*
X0040427Y0029027D01*
X0040456Y0029065D01*
X0040483Y0029105D01*
X0040506Y0029147D01*
X0040526Y0029190D01*
X0040543Y0029235D01*
X0040556Y0029281D01*
X0040565Y0029328D01*
X0040571Y0029376D01*
X0040573Y0029424D01*
X0040574Y0029424D02*
X0040574Y0030402D01*
X0040573Y0030402D02*
X0040571Y0030450D01*
X0040565Y0030498D01*
X0040556Y0030545D01*
X0040543Y0030591D01*
X0040526Y0030636D01*
X0040506Y0030679D01*
X0040483Y0030721D01*
X0040456Y0030761D01*
X0040427Y0030799D01*
X0040394Y0030834D01*
X0040359Y0030867D01*
X0040321Y0030896D01*
X0040281Y0030923D01*
X0040239Y0030946D01*
X0040196Y0030966D01*
X0040151Y0030983D01*
X0040105Y0030996D01*
X0040058Y0031005D01*
X0040010Y0031011D01*
X0039962Y0031013D01*
X0041583Y0031013D02*
X0042317Y0031013D01*
X0042360Y0031011D01*
X0042402Y0031006D01*
X0042444Y0030996D01*
X0042484Y0030984D01*
X0042524Y0030967D01*
X0042562Y0030947D01*
X0042597Y0030925D01*
X0042631Y0030899D01*
X0042663Y0030870D01*
X0042692Y0030838D01*
X0042718Y0030804D01*
X0042740Y0030769D01*
X0042760Y0030731D01*
X0042777Y0030691D01*
X0042789Y0030651D01*
X0042799Y0030609D01*
X0042804Y0030567D01*
X0042806Y0030524D01*
X0042804Y0030481D01*
X0042799Y0030439D01*
X0042789Y0030397D01*
X0042777Y0030357D01*
X0042760Y0030317D01*
X0042740Y0030280D01*
X0042718Y0030244D01*
X0042692Y0030210D01*
X0042663Y0030178D01*
X0042631Y0030149D01*
X0042597Y0030123D01*
X0042562Y0030101D01*
X0042524Y0030081D01*
X0042484Y0030064D01*
X0042444Y0030052D01*
X0042402Y0030042D01*
X0042360Y0030037D01*
X0042317Y0030035D01*
X0041828Y0030035D01*
X0042194Y0030035D02*
X0042242Y0030033D01*
X0042290Y0030027D01*
X0042337Y0030018D01*
X0042383Y0030005D01*
X0042428Y0029988D01*
X0042471Y0029968D01*
X0042513Y0029945D01*
X0042553Y0029918D01*
X0042591Y0029889D01*
X0042626Y0029856D01*
X0042659Y0029821D01*
X0042688Y0029783D01*
X0042715Y0029743D01*
X0042738Y0029701D01*
X0042758Y0029658D01*
X0042775Y0029613D01*
X0042788Y0029567D01*
X0042797Y0029520D01*
X0042803Y0029472D01*
X0042805Y0029424D01*
X0042803Y0029376D01*
X0042797Y0029328D01*
X0042788Y0029281D01*
X0042775Y0029235D01*
X0042758Y0029190D01*
X0042738Y0029147D01*
X0042715Y0029105D01*
X0042688Y0029065D01*
X0042659Y0029027D01*
X0042626Y0028992D01*
X0042591Y0028959D01*
X0042553Y0028930D01*
X0042513Y0028903D01*
X0042471Y0028880D01*
X0042428Y0028860D01*
X0042383Y0028843D01*
X0042337Y0028830D01*
X0042290Y0028821D01*
X0042242Y0028815D01*
X0042194Y0028813D01*
X0041583Y0028813D01*
X0038461Y0028813D02*
X0037484Y0028813D01*
X0035612Y0028813D02*
X0035612Y0031013D01*
X0037484Y0030035D02*
X0038217Y0030035D01*
X0038461Y0036313D02*
X0037484Y0036313D01*
X0037484Y0038513D01*
X0038461Y0038513D01*
X0039351Y0038513D02*
X0039962Y0038513D01*
X0039351Y0038513D02*
X0039351Y0036313D01*
X0039962Y0036313D01*
X0040010Y0036315D01*
X0040058Y0036321D01*
X0040105Y0036330D01*
X0040151Y0036343D01*
X0040196Y0036360D01*
X0040239Y0036380D01*
X0040281Y0036403D01*
X0040321Y0036430D01*
X0040359Y0036459D01*
X0040394Y0036492D01*
X0040427Y0036527D01*
X0040456Y0036565D01*
X0040483Y0036605D01*
X0040506Y0036647D01*
X0040526Y0036690D01*
X0040543Y0036735D01*
X0040556Y0036781D01*
X0040565Y0036828D01*
X0040571Y0036876D01*
X0040573Y0036924D01*
X0040574Y0036924D02*
X0040574Y0037902D01*
X0040573Y0037902D02*
X0040571Y0037950D01*
X0040565Y0037998D01*
X0040556Y0038045D01*
X0040543Y0038091D01*
X0040526Y0038136D01*
X0040506Y0038179D01*
X0040483Y0038221D01*
X0040456Y0038261D01*
X0040427Y0038299D01*
X0040394Y0038334D01*
X0040359Y0038367D01*
X0040321Y0038396D01*
X0040281Y0038423D01*
X0040239Y0038446D01*
X0040196Y0038466D01*
X0040151Y0038483D01*
X0040105Y0038496D01*
X0040058Y0038505D01*
X0040010Y0038511D01*
X0039962Y0038513D01*
X0038217Y0037535D02*
X0037484Y0037535D01*
X0036589Y0036313D02*
X0035612Y0036313D01*
X0035612Y0038513D01*
X0035612Y0043813D02*
X0036589Y0043813D01*
X0037484Y0043813D02*
X0037484Y0046013D01*
X0038461Y0046013D01*
X0039351Y0046013D02*
X0039962Y0046013D01*
X0039351Y0046013D02*
X0039351Y0043813D01*
X0039962Y0043813D01*
X0040010Y0043815D01*
X0040058Y0043821D01*
X0040105Y0043830D01*
X0040151Y0043843D01*
X0040196Y0043860D01*
X0040239Y0043880D01*
X0040281Y0043903D01*
X0040321Y0043930D01*
X0040359Y0043959D01*
X0040394Y0043992D01*
X0040427Y0044027D01*
X0040456Y0044065D01*
X0040483Y0044105D01*
X0040506Y0044147D01*
X0040526Y0044190D01*
X0040543Y0044235D01*
X0040556Y0044281D01*
X0040565Y0044328D01*
X0040571Y0044376D01*
X0040573Y0044424D01*
X0040574Y0044424D02*
X0040574Y0045402D01*
X0040573Y0045402D02*
X0040571Y0045450D01*
X0040565Y0045498D01*
X0040556Y0045545D01*
X0040543Y0045591D01*
X0040526Y0045636D01*
X0040506Y0045679D01*
X0040483Y0045721D01*
X0040456Y0045761D01*
X0040427Y0045799D01*
X0040394Y0045834D01*
X0040359Y0045867D01*
X0040321Y0045896D01*
X0040281Y0045923D01*
X0040239Y0045946D01*
X0040196Y0045966D01*
X0040151Y0045983D01*
X0040105Y0045996D01*
X0040058Y0046005D01*
X0040010Y0046011D01*
X0039962Y0046013D01*
X0041583Y0046013D02*
X0041583Y0045035D01*
X0042317Y0045035D01*
X0042360Y0045033D01*
X0042402Y0045028D01*
X0042444Y0045018D01*
X0042484Y0045006D01*
X0042524Y0044989D01*
X0042562Y0044969D01*
X0042597Y0044947D01*
X0042631Y0044921D01*
X0042663Y0044892D01*
X0042692Y0044860D01*
X0042718Y0044826D01*
X0042740Y0044791D01*
X0042760Y0044753D01*
X0042777Y0044713D01*
X0042789Y0044673D01*
X0042799Y0044631D01*
X0042804Y0044589D01*
X0042806Y0044546D01*
X0042806Y0044302D01*
X0042804Y0044259D01*
X0042799Y0044217D01*
X0042789Y0044175D01*
X0042777Y0044135D01*
X0042760Y0044095D01*
X0042740Y0044057D01*
X0042718Y0044022D01*
X0042692Y0043988D01*
X0042663Y0043956D01*
X0042631Y0043927D01*
X0042597Y0043901D01*
X0042561Y0043879D01*
X0042524Y0043859D01*
X0042484Y0043842D01*
X0042444Y0043830D01*
X0042402Y0043820D01*
X0042360Y0043815D01*
X0042317Y0043813D01*
X0041583Y0043813D01*
X0041583Y0046013D02*
X0042806Y0046013D01*
X0038217Y0045035D02*
X0037484Y0045035D01*
X0037484Y0043813D02*
X0038461Y0043813D01*
X0035612Y0043813D02*
X0035612Y0046013D01*
X0035612Y0051313D02*
X0036589Y0051313D01*
X0037484Y0051313D02*
X0037484Y0053513D01*
X0038461Y0053513D01*
X0039351Y0053513D02*
X0039962Y0053513D01*
X0039351Y0053513D02*
X0039351Y0051313D01*
X0039962Y0051313D01*
X0040010Y0051315D01*
X0040058Y0051321D01*
X0040105Y0051330D01*
X0040151Y0051343D01*
X0040196Y0051360D01*
X0040239Y0051380D01*
X0040281Y0051403D01*
X0040321Y0051430D01*
X0040359Y0051459D01*
X0040394Y0051492D01*
X0040427Y0051527D01*
X0040456Y0051565D01*
X0040483Y0051605D01*
X0040506Y0051647D01*
X0040526Y0051690D01*
X0040543Y0051735D01*
X0040556Y0051781D01*
X0040565Y0051828D01*
X0040571Y0051876D01*
X0040573Y0051924D01*
X0040574Y0051924D02*
X0040574Y0052902D01*
X0040573Y0052902D02*
X0040571Y0052950D01*
X0040565Y0052998D01*
X0040556Y0053045D01*
X0040543Y0053091D01*
X0040526Y0053136D01*
X0040506Y0053179D01*
X0040483Y0053221D01*
X0040456Y0053261D01*
X0040427Y0053299D01*
X0040394Y0053334D01*
X0040359Y0053367D01*
X0040321Y0053396D01*
X0040281Y0053423D01*
X0040239Y0053446D01*
X0040196Y0053466D01*
X0040151Y0053483D01*
X0040105Y0053496D01*
X0040058Y0053505D01*
X0040010Y0053511D01*
X0039962Y0053513D01*
X0041583Y0052535D02*
X0041583Y0051924D01*
X0041583Y0052535D02*
X0042317Y0052535D01*
X0041583Y0052535D02*
X0041585Y0052596D01*
X0041591Y0052658D01*
X0041600Y0052718D01*
X0041614Y0052778D01*
X0041631Y0052837D01*
X0041652Y0052895D01*
X0041676Y0052951D01*
X0041704Y0053006D01*
X0041735Y0053059D01*
X0041770Y0053110D01*
X0041807Y0053158D01*
X0041848Y0053204D01*
X0041892Y0053248D01*
X0041938Y0053289D01*
X0041986Y0053326D01*
X0042037Y0053361D01*
X0042090Y0053392D01*
X0042145Y0053420D01*
X0042201Y0053444D01*
X0042259Y0053465D01*
X0042318Y0053482D01*
X0042378Y0053496D01*
X0042438Y0053505D01*
X0042500Y0053511D01*
X0042561Y0053513D01*
X0042317Y0052535D02*
X0042360Y0052533D01*
X0042402Y0052528D01*
X0042444Y0052518D01*
X0042484Y0052506D01*
X0042524Y0052489D01*
X0042562Y0052469D01*
X0042597Y0052447D01*
X0042631Y0052421D01*
X0042663Y0052392D01*
X0042692Y0052360D01*
X0042718Y0052326D01*
X0042740Y0052291D01*
X0042760Y0052253D01*
X0042777Y0052213D01*
X0042789Y0052173D01*
X0042799Y0052131D01*
X0042804Y0052089D01*
X0042806Y0052046D01*
X0042806Y0051924D01*
X0042805Y0051924D02*
X0042803Y0051876D01*
X0042797Y0051828D01*
X0042788Y0051781D01*
X0042775Y0051735D01*
X0042758Y0051690D01*
X0042738Y0051647D01*
X0042715Y0051605D01*
X0042688Y0051565D01*
X0042659Y0051527D01*
X0042626Y0051492D01*
X0042591Y0051459D01*
X0042553Y0051430D01*
X0042513Y0051403D01*
X0042471Y0051380D01*
X0042428Y0051360D01*
X0042383Y0051343D01*
X0042337Y0051330D01*
X0042290Y0051321D01*
X0042242Y0051315D01*
X0042194Y0051313D01*
X0042146Y0051315D01*
X0042098Y0051321D01*
X0042051Y0051330D01*
X0042005Y0051343D01*
X0041960Y0051360D01*
X0041917Y0051380D01*
X0041875Y0051403D01*
X0041835Y0051430D01*
X0041797Y0051459D01*
X0041762Y0051492D01*
X0041729Y0051527D01*
X0041700Y0051565D01*
X0041673Y0051605D01*
X0041650Y0051647D01*
X0041630Y0051690D01*
X0041613Y0051735D01*
X0041600Y0051781D01*
X0041591Y0051828D01*
X0041585Y0051876D01*
X0041583Y0051924D01*
X0038461Y0051313D02*
X0037484Y0051313D01*
X0037484Y0052535D02*
X0038217Y0052535D01*
X0035612Y0053513D02*
X0035612Y0051313D01*
X0035612Y0058813D02*
X0036589Y0058813D01*
X0037484Y0058813D02*
X0037484Y0061013D01*
X0038461Y0061013D01*
X0039351Y0061013D02*
X0039962Y0061013D01*
X0039351Y0061013D02*
X0039351Y0058813D01*
X0039962Y0058813D01*
X0040010Y0058815D01*
X0040058Y0058821D01*
X0040105Y0058830D01*
X0040151Y0058843D01*
X0040196Y0058860D01*
X0040239Y0058880D01*
X0040281Y0058903D01*
X0040321Y0058930D01*
X0040359Y0058959D01*
X0040394Y0058992D01*
X0040427Y0059027D01*
X0040456Y0059065D01*
X0040483Y0059105D01*
X0040506Y0059147D01*
X0040526Y0059190D01*
X0040543Y0059235D01*
X0040556Y0059281D01*
X0040565Y0059328D01*
X0040571Y0059376D01*
X0040573Y0059424D01*
X0040574Y0059424D02*
X0040574Y0060402D01*
X0040573Y0060402D02*
X0040571Y0060450D01*
X0040565Y0060498D01*
X0040556Y0060545D01*
X0040543Y0060591D01*
X0040526Y0060636D01*
X0040506Y0060679D01*
X0040483Y0060721D01*
X0040456Y0060761D01*
X0040427Y0060799D01*
X0040394Y0060834D01*
X0040359Y0060867D01*
X0040321Y0060896D01*
X0040281Y0060923D01*
X0040239Y0060946D01*
X0040196Y0060966D01*
X0040151Y0060983D01*
X0040105Y0060996D01*
X0040058Y0061005D01*
X0040010Y0061011D01*
X0039962Y0061013D01*
X0041583Y0061013D02*
X0041583Y0060769D01*
X0041583Y0061013D02*
X0042806Y0061013D01*
X0042194Y0058813D01*
X0038461Y0058813D02*
X0037484Y0058813D01*
X0035612Y0058813D02*
X0035612Y0061013D01*
X0037484Y0060035D02*
X0038217Y0060035D01*
X0038461Y0066313D02*
X0037484Y0066313D01*
X0037484Y0068513D01*
X0038461Y0068513D01*
X0039351Y0068513D02*
X0039962Y0068513D01*
X0039351Y0068513D02*
X0039351Y0066313D01*
X0039962Y0066313D01*
X0040010Y0066315D01*
X0040058Y0066321D01*
X0040105Y0066330D01*
X0040151Y0066343D01*
X0040196Y0066360D01*
X0040239Y0066380D01*
X0040281Y0066403D01*
X0040321Y0066430D01*
X0040359Y0066459D01*
X0040394Y0066492D01*
X0040427Y0066527D01*
X0040456Y0066565D01*
X0040483Y0066605D01*
X0040506Y0066647D01*
X0040526Y0066690D01*
X0040543Y0066735D01*
X0040556Y0066781D01*
X0040565Y0066828D01*
X0040571Y0066876D01*
X0040573Y0066924D01*
X0040574Y0066924D02*
X0040574Y0067902D01*
X0040573Y0067902D02*
X0040571Y0067950D01*
X0040565Y0067998D01*
X0040556Y0068045D01*
X0040543Y0068091D01*
X0040526Y0068136D01*
X0040506Y0068179D01*
X0040483Y0068221D01*
X0040456Y0068261D01*
X0040427Y0068299D01*
X0040394Y0068334D01*
X0040359Y0068367D01*
X0040321Y0068396D01*
X0040281Y0068423D01*
X0040239Y0068446D01*
X0040196Y0068466D01*
X0040151Y0068483D01*
X0040105Y0068496D01*
X0040058Y0068505D01*
X0040010Y0068511D01*
X0039962Y0068513D01*
X0038217Y0067535D02*
X0037484Y0067535D01*
X0036589Y0066313D02*
X0035612Y0066313D01*
X0035612Y0068513D01*
X0041705Y0068024D02*
X0041707Y0067981D01*
X0041712Y0067939D01*
X0041722Y0067897D01*
X0041734Y0067857D01*
X0041751Y0067817D01*
X0041771Y0067780D01*
X0041793Y0067744D01*
X0041819Y0067710D01*
X0041848Y0067678D01*
X0041880Y0067649D01*
X0041914Y0067623D01*
X0041950Y0067601D01*
X0041987Y0067581D01*
X0042027Y0067564D01*
X0042067Y0067552D01*
X0042109Y0067542D01*
X0042151Y0067537D01*
X0042194Y0067535D01*
X0042237Y0067537D01*
X0042279Y0067542D01*
X0042321Y0067552D01*
X0042361Y0067564D01*
X0042401Y0067581D01*
X0042439Y0067601D01*
X0042474Y0067623D01*
X0042508Y0067649D01*
X0042540Y0067678D01*
X0042569Y0067710D01*
X0042595Y0067744D01*
X0042617Y0067780D01*
X0042637Y0067817D01*
X0042654Y0067857D01*
X0042666Y0067897D01*
X0042676Y0067939D01*
X0042681Y0067981D01*
X0042683Y0068024D01*
X0042681Y0068067D01*
X0042676Y0068109D01*
X0042666Y0068151D01*
X0042654Y0068191D01*
X0042637Y0068231D01*
X0042617Y0068269D01*
X0042595Y0068304D01*
X0042569Y0068338D01*
X0042540Y0068370D01*
X0042508Y0068399D01*
X0042474Y0068425D01*
X0042439Y0068447D01*
X0042401Y0068467D01*
X0042361Y0068484D01*
X0042321Y0068496D01*
X0042279Y0068506D01*
X0042237Y0068511D01*
X0042194Y0068513D01*
X0042151Y0068511D01*
X0042109Y0068506D01*
X0042067Y0068496D01*
X0042027Y0068484D01*
X0041987Y0068467D01*
X0041950Y0068447D01*
X0041914Y0068425D01*
X0041880Y0068399D01*
X0041848Y0068370D01*
X0041819Y0068338D01*
X0041793Y0068304D01*
X0041771Y0068269D01*
X0041751Y0068231D01*
X0041734Y0068191D01*
X0041722Y0068151D01*
X0041712Y0068109D01*
X0041707Y0068067D01*
X0041705Y0068024D01*
X0041583Y0066924D02*
X0041585Y0066876D01*
X0041591Y0066828D01*
X0041600Y0066781D01*
X0041613Y0066735D01*
X0041630Y0066690D01*
X0041650Y0066647D01*
X0041673Y0066605D01*
X0041700Y0066565D01*
X0041729Y0066527D01*
X0041762Y0066492D01*
X0041797Y0066459D01*
X0041835Y0066430D01*
X0041875Y0066403D01*
X0041917Y0066380D01*
X0041960Y0066360D01*
X0042005Y0066343D01*
X0042051Y0066330D01*
X0042098Y0066321D01*
X0042146Y0066315D01*
X0042194Y0066313D01*
X0042242Y0066315D01*
X0042290Y0066321D01*
X0042337Y0066330D01*
X0042383Y0066343D01*
X0042428Y0066360D01*
X0042471Y0066380D01*
X0042513Y0066403D01*
X0042553Y0066430D01*
X0042591Y0066459D01*
X0042626Y0066492D01*
X0042659Y0066527D01*
X0042688Y0066565D01*
X0042715Y0066605D01*
X0042738Y0066647D01*
X0042758Y0066690D01*
X0042775Y0066735D01*
X0042788Y0066781D01*
X0042797Y0066828D01*
X0042803Y0066876D01*
X0042805Y0066924D01*
X0042803Y0066972D01*
X0042797Y0067020D01*
X0042788Y0067067D01*
X0042775Y0067113D01*
X0042758Y0067158D01*
X0042738Y0067201D01*
X0042715Y0067243D01*
X0042688Y0067283D01*
X0042659Y0067321D01*
X0042626Y0067356D01*
X0042591Y0067389D01*
X0042553Y0067418D01*
X0042513Y0067445D01*
X0042471Y0067468D01*
X0042428Y0067488D01*
X0042383Y0067505D01*
X0042337Y0067518D01*
X0042290Y0067527D01*
X0042242Y0067533D01*
X0042194Y0067535D01*
X0042146Y0067533D01*
X0042098Y0067527D01*
X0042051Y0067518D01*
X0042005Y0067505D01*
X0041960Y0067488D01*
X0041917Y0067468D01*
X0041875Y0067445D01*
X0041835Y0067418D01*
X0041797Y0067389D01*
X0041762Y0067356D01*
X0041729Y0067321D01*
X0041700Y0067283D01*
X0041673Y0067243D01*
X0041650Y0067201D01*
X0041630Y0067158D01*
X0041613Y0067113D01*
X0041600Y0067067D01*
X0041591Y0067020D01*
X0041585Y0066972D01*
X0041583Y0066924D01*
X0016029Y0091400D02*
X0016029Y0092500D01*
X0016029Y0092256D02*
X0015479Y0092256D01*
X0016029Y0092500D02*
X0016027Y0092536D01*
X0016022Y0092572D01*
X0016013Y0092607D01*
X0016001Y0092640D01*
X0015986Y0092673D01*
X0015967Y0092704D01*
X0015946Y0092733D01*
X0015922Y0092760D01*
X0015895Y0092784D01*
X0015866Y0092805D01*
X0015835Y0092824D01*
X0015802Y0092839D01*
X0015769Y0092851D01*
X0015734Y0092860D01*
X0015698Y0092865D01*
X0015662Y0092867D01*
X0015173Y0092867D01*
X0015479Y0092256D02*
X0015440Y0092254D01*
X0015400Y0092249D01*
X0015362Y0092240D01*
X0015324Y0092227D01*
X0015288Y0092211D01*
X0015254Y0092192D01*
X0015221Y0092170D01*
X0015191Y0092144D01*
X0015163Y0092116D01*
X0015137Y0092086D01*
X0015115Y0092053D01*
X0015096Y0092019D01*
X0015080Y0091983D01*
X0015067Y0091945D01*
X0015058Y0091907D01*
X0015053Y0091867D01*
X0015051Y0091828D01*
X0015053Y0091789D01*
X0015058Y0091749D01*
X0015067Y0091711D01*
X0015080Y0091673D01*
X0015096Y0091637D01*
X0015115Y0091603D01*
X0015137Y0091570D01*
X0015163Y0091540D01*
X0015191Y0091512D01*
X0015221Y0091486D01*
X0015254Y0091464D01*
X0015288Y0091445D01*
X0015324Y0091429D01*
X0015362Y0091416D01*
X0015400Y0091407D01*
X0015440Y0091402D01*
X0015479Y0091400D01*
X0016029Y0091400D01*
X0014083Y0091889D02*
X0014083Y0093600D01*
X0014083Y0091889D02*
X0014081Y0091846D01*
X0014076Y0091804D01*
X0014066Y0091762D01*
X0014054Y0091722D01*
X0014037Y0091682D01*
X0014017Y0091645D01*
X0013995Y0091609D01*
X0013969Y0091575D01*
X0013940Y0091543D01*
X0013908Y0091514D01*
X0013874Y0091488D01*
X0013839Y0091466D01*
X0013801Y0091446D01*
X0013761Y0091429D01*
X0013721Y0091417D01*
X0013679Y0091407D01*
X0013637Y0091402D01*
X0013594Y0091400D01*
X0013350Y0091400D01*
X0011155Y0088133D02*
X0011155Y0087067D01*
X0011156Y0087067D02*
X0011154Y0087017D01*
X0011149Y0086968D01*
X0011139Y0086919D01*
X0011126Y0086870D01*
X0011110Y0086823D01*
X0011090Y0086778D01*
X0011067Y0086734D01*
X0011040Y0086691D01*
X0011010Y0086651D01*
X0010978Y0086613D01*
X0010943Y0086578D01*
X0010905Y0086546D01*
X0010865Y0086516D01*
X0010823Y0086489D01*
X0010778Y0086466D01*
X0010733Y0086446D01*
X0010686Y0086430D01*
X0010637Y0086417D01*
X0010588Y0086407D01*
X0010539Y0086402D01*
X0010489Y0086400D01*
X0010439Y0086402D01*
X0010390Y0086407D01*
X0010341Y0086417D01*
X0010292Y0086430D01*
X0010245Y0086446D01*
X0010200Y0086466D01*
X0010156Y0086489D01*
X0010113Y0086516D01*
X0010073Y0086546D01*
X0010035Y0086578D01*
X0010000Y0086613D01*
X0009968Y0086651D01*
X0009938Y0086691D01*
X0009911Y0086734D01*
X0009888Y0086778D01*
X0009868Y0086823D01*
X0009852Y0086870D01*
X0009839Y0086919D01*
X0009829Y0086968D01*
X0009824Y0087017D01*
X0009822Y0087067D01*
X0009822Y0088133D01*
X0009824Y0088183D01*
X0009829Y0088232D01*
X0009839Y0088281D01*
X0009852Y0088330D01*
X0009868Y0088377D01*
X0009888Y0088422D01*
X0009911Y0088467D01*
X0009938Y0088509D01*
X0009968Y0088549D01*
X0010000Y0088587D01*
X0010035Y0088622D01*
X0010073Y0088654D01*
X0010113Y0088684D01*
X0010156Y0088711D01*
X0010200Y0088734D01*
X0010245Y0088754D01*
X0010292Y0088770D01*
X0010341Y0088783D01*
X0010390Y0088793D01*
X0010439Y0088798D01*
X0010489Y0088800D01*
X0010539Y0088798D01*
X0010588Y0088793D01*
X0010637Y0088783D01*
X0010686Y0088770D01*
X0010733Y0088754D01*
X0010778Y0088734D01*
X0010823Y0088711D01*
X0010865Y0088684D01*
X0010905Y0088654D01*
X0010943Y0088622D01*
X0010978Y0088587D01*
X0011010Y0088549D01*
X0011040Y0088509D01*
X0011067Y0088467D01*
X0011090Y0088422D01*
X0011110Y0088377D01*
X0011126Y0088330D01*
X0011139Y0088281D01*
X0011149Y0088232D01*
X0011154Y0088183D01*
X0011156Y0088133D01*
X0008883Y0088800D02*
X0008350Y0088800D01*
X0008617Y0088800D02*
X0008617Y0086400D01*
X0008883Y0086400D02*
X0008350Y0086400D01*
X0013492Y0087733D02*
X0014292Y0087733D01*
X0042072Y0038513D02*
X0041583Y0036802D01*
X0042806Y0036802D01*
X0042439Y0037291D02*
X0042439Y0036313D01*
X0042256Y0023513D02*
X0042301Y0023511D01*
X0042347Y0023505D01*
X0042391Y0023496D01*
X0042435Y0023483D01*
X0042477Y0023467D01*
X0042518Y0023447D01*
X0042557Y0023423D01*
X0042594Y0023397D01*
X0042629Y0023368D01*
X0042661Y0023336D01*
X0042690Y0023301D01*
X0042716Y0023264D01*
X0042740Y0023225D01*
X0042760Y0023184D01*
X0042776Y0023142D01*
X0042789Y0023098D01*
X0042798Y0023054D01*
X0042804Y0023008D01*
X0042806Y0022963D01*
X0042622Y0022535D02*
X0041583Y0021313D01*
X0042806Y0021313D01*
X0041583Y0023024D02*
X0041601Y0023073D01*
X0041623Y0023121D01*
X0041648Y0023167D01*
X0041676Y0023210D01*
X0041708Y0023252D01*
X0041742Y0023292D01*
X0041779Y0023328D01*
X0041819Y0023362D01*
X0041862Y0023393D01*
X0041906Y0023420D01*
X0041952Y0023444D01*
X0042000Y0023465D01*
X0042050Y0023482D01*
X0042100Y0023496D01*
X0042152Y0023505D01*
X0042204Y0023511D01*
X0042256Y0023513D01*
X0042806Y0022963D02*
X0042804Y0022915D01*
X0042798Y0022868D01*
X0042789Y0022821D01*
X0042775Y0022775D01*
X0042758Y0022730D01*
X0042738Y0022687D01*
X0042714Y0022646D01*
X0042686Y0022606D01*
X0042656Y0022569D01*
X0042623Y0022535D01*
D609*
X0048909Y0020050D02*
X0049598Y0020739D01*
X0050189Y0020148D01*
X0049500Y0019459D01*
X0048909Y0020050D01*
X0049598Y0013239D02*
X0048909Y0012550D01*
X0049500Y0011959D01*
X0050189Y0012648D01*
X0049598Y0013239D01*
X0049500Y0026959D02*
X0048909Y0027550D01*
X0049598Y0028239D01*
X0050189Y0027648D01*
X0049500Y0026959D01*
X0049500Y0034459D02*
X0048909Y0035050D01*
X0049598Y0035739D01*
X0050189Y0035148D01*
X0049500Y0034459D01*
X0049500Y0041959D02*
X0048909Y0042550D01*
X0049598Y0043239D01*
X0050189Y0042648D01*
X0049500Y0041959D01*
X0049500Y0049459D02*
X0048909Y0050050D01*
X0049598Y0050739D01*
X0050189Y0050148D01*
X0049500Y0049459D01*
X0049500Y0056959D02*
X0048909Y0057550D01*
X0049598Y0058239D01*
X0050189Y0057648D01*
X0049500Y0056959D01*
X0049500Y0064459D02*
X0048909Y0065050D01*
X0049598Y0065739D01*
X0050189Y0065148D01*
X0049500Y0064459D01*
D610*
X0050583Y0063475D03*
X0050583Y0055975D03*
X0050583Y0048475D03*
X0050583Y0040975D03*
X0050583Y0033475D03*
X0050583Y0025975D03*
X0050583Y0018475D03*
X0050583Y0010975D03*
D611*
X0009500Y0011300D02*
X0009500Y0006300D01*
X0012000Y0003800D01*
X0017000Y0003800D01*
X0019500Y0006300D01*
X0019500Y0011300D01*
X0017000Y0013800D01*
X0019500Y0016300D01*
X0019500Y0021300D01*
X0017000Y0023800D01*
X0019500Y0026300D01*
X0019500Y0031300D01*
X0017000Y0033800D01*
X0019500Y0036300D01*
X0019500Y0041300D01*
X0017000Y0043800D01*
X0019500Y0046300D01*
X0019500Y0051300D01*
X0017000Y0053800D01*
X0019500Y0056300D01*
X0019500Y0061300D01*
X0017000Y0063800D01*
X0019500Y0066300D01*
X0019500Y0071300D01*
X0017000Y0073800D01*
X0019500Y0076300D01*
X0019500Y0081300D01*
X0017000Y0083800D01*
X0012000Y0083800D01*
X0009500Y0081300D01*
X0009500Y0076300D01*
X0012000Y0073800D01*
X0009500Y0071300D01*
X0009500Y0066300D01*
X0012000Y0063800D01*
X0009500Y0061300D01*
X0009500Y0056300D01*
X0012000Y0053800D01*
X0009500Y0051300D01*
X0009500Y0046300D01*
X0012000Y0043800D01*
X0009500Y0041300D01*
X0009500Y0036300D01*
X0012000Y0033800D01*
X0009500Y0031300D01*
X0009500Y0026300D01*
X0012000Y0023800D01*
X0009500Y0021300D01*
X0009500Y0016300D01*
X0012000Y0013800D01*
X0009500Y0011300D01*
X0023250Y0011300D02*
X0023250Y0006300D01*
X0025750Y0003800D01*
X0030750Y0003800D01*
X0033250Y0006300D01*
X0033250Y0011300D01*
X0030750Y0013800D01*
X0033250Y0016300D01*
X0033250Y0021300D01*
X0030750Y0023800D01*
X0033250Y0026300D01*
X0033250Y0031300D01*
X0030750Y0033800D01*
X0033250Y0036300D01*
X0033250Y0041300D01*
X0030750Y0043800D01*
X0033250Y0046300D01*
X0033250Y0051300D01*
X0030750Y0053800D01*
X0033250Y0056300D01*
X0033250Y0061300D01*
X0030750Y0063800D01*
X0033250Y0066300D01*
X0033250Y0071300D01*
X0030750Y0073800D01*
X0033250Y0076300D01*
X0033250Y0081300D01*
X0030750Y0083800D01*
X0025750Y0083800D01*
X0023250Y0081300D01*
X0023250Y0076300D01*
X0025750Y0073800D01*
X0023250Y0071300D01*
X0023250Y0066300D01*
X0025750Y0063800D01*
X0023250Y0061300D01*
X0023250Y0056300D01*
X0025750Y0053800D01*
X0023250Y0051300D01*
X0023250Y0046300D01*
X0025750Y0043800D01*
X0023250Y0041300D01*
X0023250Y0036300D01*
X0025750Y0033800D01*
X0023250Y0031300D01*
X0023250Y0026300D01*
X0025750Y0023800D01*
X0023250Y0021300D01*
X0023250Y0016300D01*
X0025750Y0013800D01*
X0023250Y0011300D01*
X0050750Y0083800D02*
X0048250Y0086300D01*
X0048250Y0091300D01*
X0050750Y0093800D01*
X0055750Y0093800D01*
X0058250Y0091300D01*
X0060750Y0093800D01*
X0065750Y0093800D01*
X0068250Y0091300D01*
X0070750Y0093800D01*
X0075750Y0093800D01*
X0078250Y0091300D01*
X0080750Y0093800D01*
X0085750Y0093800D01*
X0088250Y0091300D01*
X0090750Y0093800D01*
X0095750Y0093800D01*
X0098250Y0091300D01*
X0098250Y0086300D01*
X0095750Y0083800D01*
X0090750Y0083800D01*
X0088250Y0086300D01*
X0085750Y0083800D01*
X0080750Y0083800D01*
X0078250Y0086300D01*
X0075750Y0083800D01*
X0070750Y0083800D01*
X0068250Y0086300D01*
X0065750Y0083800D01*
X0060750Y0083800D01*
X0058250Y0086300D01*
X0055750Y0083800D01*
X0050750Y0083800D01*
D612*
X0053000Y0082050D02*
X0055500Y0082050D01*
X0054500Y0080050D02*
X0053000Y0080050D01*
X0053000Y0082050D01*
X0054500Y0080050D02*
X0054560Y0080048D01*
X0054621Y0080043D01*
X0054680Y0080034D01*
X0054739Y0080021D01*
X0054798Y0080005D01*
X0054855Y0079985D01*
X0054910Y0079962D01*
X0054965Y0079935D01*
X0055017Y0079906D01*
X0055068Y0079873D01*
X0055117Y0079837D01*
X0055163Y0079799D01*
X0055207Y0079757D01*
X0055249Y0079713D01*
X0055287Y0079667D01*
X0055323Y0079618D01*
X0055356Y0079567D01*
X0055385Y0079515D01*
X0055412Y0079460D01*
X0055435Y0079405D01*
X0055455Y0079348D01*
X0055471Y0079289D01*
X0055484Y0079230D01*
X0055493Y0079171D01*
X0055498Y0079110D01*
X0055500Y0079050D01*
X0055500Y0078550D01*
X0055498Y0078490D01*
X0055493Y0078429D01*
X0055484Y0078370D01*
X0055471Y0078311D01*
X0055455Y0078252D01*
X0055435Y0078195D01*
X0055412Y0078140D01*
X0055385Y0078085D01*
X0055356Y0078033D01*
X0055323Y0077982D01*
X0055287Y0077933D01*
X0055249Y0077887D01*
X0055207Y0077843D01*
X0055163Y0077801D01*
X0055117Y0077763D01*
X0055068Y0077727D01*
X0055017Y0077694D01*
X0054965Y0077665D01*
X0054910Y0077638D01*
X0054855Y0077615D01*
X0054798Y0077595D01*
X0054739Y0077579D01*
X0054680Y0077566D01*
X0054621Y0077557D01*
X0054560Y0077552D01*
X0054500Y0077550D01*
X0053000Y0077550D01*
X0020250Y0076550D02*
X0020319Y0076552D01*
X0020388Y0076558D01*
X0020456Y0076567D01*
X0020523Y0076580D01*
X0020590Y0076597D01*
X0020656Y0076618D01*
X0020720Y0076642D01*
X0020783Y0076670D01*
X0020845Y0076701D01*
X0020905Y0076735D01*
X0020962Y0076773D01*
X0021018Y0076814D01*
X0021071Y0076857D01*
X0021122Y0076904D01*
X0021170Y0076953D01*
X0021215Y0077005D01*
X0021257Y0077060D01*
X0021296Y0077116D01*
X0021333Y0077175D01*
X0021365Y0077236D01*
X0021395Y0077298D01*
X0021421Y0077362D01*
X0021443Y0077427D01*
X0021462Y0077493D01*
X0021477Y0077560D01*
X0021488Y0077628D01*
X0021496Y0077697D01*
X0021500Y0077766D01*
X0021500Y0077834D01*
X0021496Y0077903D01*
X0021488Y0077972D01*
X0021477Y0078040D01*
X0021462Y0078107D01*
X0021443Y0078173D01*
X0021421Y0078238D01*
X0021395Y0078302D01*
X0021365Y0078364D01*
X0021333Y0078425D01*
X0021296Y0078484D01*
X0021257Y0078540D01*
X0021215Y0078595D01*
X0021170Y0078647D01*
X0021122Y0078696D01*
X0021071Y0078743D01*
X0021018Y0078786D01*
X0020962Y0078827D01*
X0020905Y0078865D01*
X0020845Y0078899D01*
X0020783Y0078930D01*
X0020720Y0078958D01*
X0020656Y0078982D01*
X0020590Y0079003D01*
X0020523Y0079020D01*
X0020456Y0079033D01*
X0020388Y0079042D01*
X0020319Y0079048D01*
X0020250Y0079050D01*
X0020181Y0079048D01*
X0020112Y0079042D01*
X0020044Y0079033D01*
X0019977Y0079020D01*
X0019910Y0079003D01*
X0019844Y0078982D01*
X0019780Y0078958D01*
X0019717Y0078930D01*
X0019655Y0078899D01*
X0019595Y0078865D01*
X0019538Y0078827D01*
X0019482Y0078786D01*
X0019429Y0078743D01*
X0019378Y0078696D01*
X0019330Y0078647D01*
X0019285Y0078595D01*
X0019243Y0078540D01*
X0019204Y0078484D01*
X0019167Y0078425D01*
X0019135Y0078364D01*
X0019105Y0078302D01*
X0019079Y0078238D01*
X0019057Y0078173D01*
X0019038Y0078107D01*
X0019023Y0078040D01*
X0019012Y0077972D01*
X0019004Y0077903D01*
X0019000Y0077834D01*
X0019000Y0077766D01*
X0019004Y0077697D01*
X0019012Y0077628D01*
X0019023Y0077560D01*
X0019038Y0077493D01*
X0019057Y0077427D01*
X0019079Y0077362D01*
X0019105Y0077298D01*
X0019135Y0077236D01*
X0019167Y0077175D01*
X0019204Y0077116D01*
X0019243Y0077060D01*
X0019285Y0077005D01*
X0019330Y0076953D01*
X0019378Y0076904D01*
X0019429Y0076857D01*
X0019482Y0076814D01*
X0019538Y0076773D01*
X0019595Y0076735D01*
X0019655Y0076701D01*
X0019717Y0076670D01*
X0019780Y0076642D01*
X0019844Y0076618D01*
X0019910Y0076597D01*
X0019977Y0076580D01*
X0020044Y0076567D01*
X0020112Y0076558D01*
X0020181Y0076552D01*
X0020250Y0076550D01*
X0018000Y0076800D02*
X0018062Y0076802D01*
X0018123Y0076808D01*
X0018184Y0076817D01*
X0018244Y0076830D01*
X0018303Y0076847D01*
X0018361Y0076868D01*
X0018418Y0076892D01*
X0018473Y0076919D01*
X0018526Y0076950D01*
X0018578Y0076984D01*
X0018627Y0077021D01*
X0018674Y0077061D01*
X0018718Y0077104D01*
X0018759Y0077149D01*
X0018798Y0077197D01*
X0018834Y0077248D01*
X0018866Y0077300D01*
X0018895Y0077354D01*
X0018921Y0077410D01*
X0018943Y0077468D01*
X0018962Y0077526D01*
X0018977Y0077586D01*
X0018988Y0077647D01*
X0018996Y0077708D01*
X0019000Y0077769D01*
X0019000Y0077831D01*
X0018996Y0077892D01*
X0018988Y0077953D01*
X0018977Y0078014D01*
X0018962Y0078074D01*
X0018943Y0078132D01*
X0018921Y0078190D01*
X0018895Y0078246D01*
X0018866Y0078300D01*
X0018834Y0078352D01*
X0018798Y0078403D01*
X0018759Y0078451D01*
X0018718Y0078496D01*
X0018674Y0078539D01*
X0018627Y0078579D01*
X0018578Y0078616D01*
X0018526Y0078650D01*
X0018473Y0078681D01*
X0018418Y0078708D01*
X0018361Y0078732D01*
X0018303Y0078753D01*
X0018244Y0078770D01*
X0018184Y0078783D01*
X0018123Y0078792D01*
X0018062Y0078798D01*
X0018000Y0078800D01*
X0017938Y0078798D01*
X0017877Y0078792D01*
X0017816Y0078783D01*
X0017756Y0078770D01*
X0017697Y0078753D01*
X0017639Y0078732D01*
X0017582Y0078708D01*
X0017527Y0078681D01*
X0017474Y0078650D01*
X0017422Y0078616D01*
X0017373Y0078579D01*
X0017326Y0078539D01*
X0017282Y0078496D01*
X0017241Y0078451D01*
X0017202Y0078403D01*
X0017166Y0078352D01*
X0017134Y0078300D01*
X0017105Y0078246D01*
X0017079Y0078190D01*
X0017057Y0078132D01*
X0017038Y0078074D01*
X0017023Y0078014D01*
X0017012Y0077953D01*
X0017004Y0077892D01*
X0017000Y0077831D01*
X0017000Y0077769D01*
X0017004Y0077708D01*
X0017012Y0077647D01*
X0017023Y0077586D01*
X0017038Y0077526D01*
X0017057Y0077468D01*
X0017079Y0077410D01*
X0017105Y0077354D01*
X0017134Y0077300D01*
X0017166Y0077248D01*
X0017202Y0077197D01*
X0017241Y0077149D01*
X0017282Y0077104D01*
X0017326Y0077061D01*
X0017373Y0077021D01*
X0017422Y0076984D01*
X0017474Y0076950D01*
X0017527Y0076919D01*
X0017582Y0076892D01*
X0017639Y0076868D01*
X0017697Y0076847D01*
X0017756Y0076830D01*
X0017816Y0076817D01*
X0017877Y0076808D01*
X0017938Y0076802D01*
X0018000Y0076800D01*
X0007750Y0078050D02*
X0007750Y0080550D01*
X0007750Y0079300D02*
X0003250Y0079300D01*
X0004250Y0078050D01*
X0022250Y0010800D02*
X0022312Y0010798D01*
X0022373Y0010792D01*
X0022434Y0010783D01*
X0022494Y0010770D01*
X0022553Y0010753D01*
X0022611Y0010732D01*
X0022668Y0010708D01*
X0022723Y0010681D01*
X0022776Y0010650D01*
X0022828Y0010616D01*
X0022877Y0010579D01*
X0022924Y0010539D01*
X0022968Y0010496D01*
X0023009Y0010451D01*
X0023048Y0010403D01*
X0023084Y0010352D01*
X0023116Y0010300D01*
X0023145Y0010246D01*
X0023171Y0010190D01*
X0023193Y0010132D01*
X0023212Y0010074D01*
X0023227Y0010014D01*
X0023238Y0009953D01*
X0023246Y0009892D01*
X0023250Y0009831D01*
X0023250Y0009769D01*
X0023246Y0009708D01*
X0023238Y0009647D01*
X0023227Y0009586D01*
X0023212Y0009526D01*
X0023193Y0009468D01*
X0023171Y0009410D01*
X0023145Y0009354D01*
X0023116Y0009300D01*
X0023084Y0009248D01*
X0023048Y0009197D01*
X0023009Y0009149D01*
X0022968Y0009104D01*
X0022924Y0009061D01*
X0022877Y0009021D01*
X0022828Y0008984D01*
X0022776Y0008950D01*
X0022723Y0008919D01*
X0022668Y0008892D01*
X0022611Y0008868D01*
X0022553Y0008847D01*
X0022494Y0008830D01*
X0022434Y0008817D01*
X0022373Y0008808D01*
X0022312Y0008802D01*
X0022250Y0008800D01*
X0022188Y0008802D01*
X0022127Y0008808D01*
X0022066Y0008817D01*
X0022006Y0008830D01*
X0021947Y0008847D01*
X0021889Y0008868D01*
X0021832Y0008892D01*
X0021777Y0008919D01*
X0021724Y0008950D01*
X0021672Y0008984D01*
X0021623Y0009021D01*
X0021576Y0009061D01*
X0021532Y0009104D01*
X0021491Y0009149D01*
X0021452Y0009197D01*
X0021416Y0009248D01*
X0021384Y0009300D01*
X0021355Y0009354D01*
X0021329Y0009410D01*
X0021307Y0009468D01*
X0021288Y0009526D01*
X0021273Y0009586D01*
X0021262Y0009647D01*
X0021254Y0009708D01*
X0021250Y0009769D01*
X0021250Y0009831D01*
X0021254Y0009892D01*
X0021262Y0009953D01*
X0021273Y0010014D01*
X0021288Y0010074D01*
X0021307Y0010132D01*
X0021329Y0010190D01*
X0021355Y0010246D01*
X0021384Y0010300D01*
X0021416Y0010352D01*
X0021452Y0010403D01*
X0021491Y0010451D01*
X0021532Y0010496D01*
X0021576Y0010539D01*
X0021623Y0010579D01*
X0021672Y0010616D01*
X0021724Y0010650D01*
X0021777Y0010681D01*
X0021832Y0010708D01*
X0021889Y0010732D01*
X0021947Y0010753D01*
X0022006Y0010770D01*
X0022066Y0010783D01*
X0022127Y0010792D01*
X0022188Y0010798D01*
X0022250Y0010800D01*
X0024500Y0011050D02*
X0024569Y0011048D01*
X0024638Y0011042D01*
X0024706Y0011033D01*
X0024773Y0011020D01*
X0024840Y0011003D01*
X0024906Y0010982D01*
X0024970Y0010958D01*
X0025033Y0010930D01*
X0025095Y0010899D01*
X0025155Y0010865D01*
X0025212Y0010827D01*
X0025268Y0010786D01*
X0025321Y0010743D01*
X0025372Y0010696D01*
X0025420Y0010647D01*
X0025465Y0010595D01*
X0025507Y0010540D01*
X0025546Y0010484D01*
X0025583Y0010425D01*
X0025615Y0010364D01*
X0025645Y0010302D01*
X0025671Y0010238D01*
X0025693Y0010173D01*
X0025712Y0010107D01*
X0025727Y0010040D01*
X0025738Y0009972D01*
X0025746Y0009903D01*
X0025750Y0009834D01*
X0025750Y0009766D01*
X0025746Y0009697D01*
X0025738Y0009628D01*
X0025727Y0009560D01*
X0025712Y0009493D01*
X0025693Y0009427D01*
X0025671Y0009362D01*
X0025645Y0009298D01*
X0025615Y0009236D01*
X0025583Y0009175D01*
X0025546Y0009116D01*
X0025507Y0009060D01*
X0025465Y0009005D01*
X0025420Y0008953D01*
X0025372Y0008904D01*
X0025321Y0008857D01*
X0025268Y0008814D01*
X0025212Y0008773D01*
X0025155Y0008735D01*
X0025095Y0008701D01*
X0025033Y0008670D01*
X0024970Y0008642D01*
X0024906Y0008618D01*
X0024840Y0008597D01*
X0024773Y0008580D01*
X0024706Y0008567D01*
X0024638Y0008558D01*
X0024569Y0008552D01*
X0024500Y0008550D01*
X0024431Y0008552D01*
X0024362Y0008558D01*
X0024294Y0008567D01*
X0024227Y0008580D01*
X0024160Y0008597D01*
X0024094Y0008618D01*
X0024030Y0008642D01*
X0023967Y0008670D01*
X0023905Y0008701D01*
X0023845Y0008735D01*
X0023788Y0008773D01*
X0023732Y0008814D01*
X0023679Y0008857D01*
X0023628Y0008904D01*
X0023580Y0008953D01*
X0023535Y0009005D01*
X0023493Y0009060D01*
X0023454Y0009116D01*
X0023417Y0009175D01*
X0023385Y0009236D01*
X0023355Y0009298D01*
X0023329Y0009362D01*
X0023307Y0009427D01*
X0023288Y0009493D01*
X0023273Y0009560D01*
X0023262Y0009628D01*
X0023254Y0009697D01*
X0023250Y0009766D01*
X0023250Y0009834D01*
X0023254Y0009903D01*
X0023262Y0009972D01*
X0023273Y0010040D01*
X0023288Y0010107D01*
X0023307Y0010173D01*
X0023329Y0010238D01*
X0023355Y0010302D01*
X0023385Y0010364D01*
X0023417Y0010425D01*
X0023454Y0010484D01*
X0023493Y0010540D01*
X0023535Y0010595D01*
X0023580Y0010647D01*
X0023628Y0010696D01*
X0023679Y0010743D01*
X0023732Y0010786D01*
X0023788Y0010827D01*
X0023845Y0010865D01*
X0023905Y0010899D01*
X0023967Y0010930D01*
X0024030Y0010958D01*
X0024094Y0010982D01*
X0024160Y0011003D01*
X0024227Y0011020D01*
X0024294Y0011033D01*
X0024362Y0011042D01*
X0024431Y0011048D01*
X0024500Y0011050D01*
X0035000Y0008300D02*
X0039500Y0008300D01*
X0039500Y0007050D02*
X0039500Y0009550D01*
X0036000Y0007050D02*
X0035000Y0008300D01*
X0087250Y0075550D02*
X0088250Y0075550D01*
X0087750Y0075550D02*
X0087750Y0080050D01*
X0087250Y0080050D02*
X0088250Y0080050D01*
X0092225Y0078050D02*
X0092271Y0078096D01*
X0092315Y0078145D01*
X0092355Y0078196D01*
X0092393Y0078249D01*
X0092428Y0078304D01*
X0092460Y0078361D01*
X0092489Y0078419D01*
X0092515Y0078479D01*
X0092537Y0078541D01*
X0092556Y0078603D01*
X0092572Y0078666D01*
X0092584Y0078730D01*
X0092593Y0078795D01*
X0092598Y0078860D01*
X0092600Y0078925D01*
X0092225Y0078050D02*
X0090100Y0075550D01*
X0092600Y0075550D01*
X0094585Y0076550D02*
X0094585Y0079050D01*
X0094587Y0079110D01*
X0094592Y0079171D01*
X0094601Y0079230D01*
X0094614Y0079289D01*
X0094630Y0079348D01*
X0094650Y0079405D01*
X0094673Y0079460D01*
X0094700Y0079515D01*
X0094729Y0079567D01*
X0094762Y0079618D01*
X0094798Y0079667D01*
X0094836Y0079713D01*
X0094878Y0079757D01*
X0094922Y0079799D01*
X0094968Y0079837D01*
X0095017Y0079873D01*
X0095068Y0079906D01*
X0095120Y0079935D01*
X0095175Y0079962D01*
X0095230Y0079985D01*
X0095287Y0080005D01*
X0095346Y0080021D01*
X0095405Y0080034D01*
X0095464Y0080043D01*
X0095525Y0080048D01*
X0095585Y0080050D01*
X0096585Y0080050D01*
X0094585Y0076550D02*
X0094587Y0076490D01*
X0094592Y0076429D01*
X0094601Y0076370D01*
X0094614Y0076311D01*
X0094630Y0076252D01*
X0094650Y0076195D01*
X0094673Y0076140D01*
X0094700Y0076085D01*
X0094729Y0076033D01*
X0094762Y0075982D01*
X0094798Y0075933D01*
X0094836Y0075887D01*
X0094878Y0075843D01*
X0094922Y0075801D01*
X0094968Y0075763D01*
X0095017Y0075727D01*
X0095068Y0075694D01*
X0095120Y0075665D01*
X0095175Y0075638D01*
X0095230Y0075615D01*
X0095287Y0075595D01*
X0095346Y0075579D01*
X0095405Y0075566D01*
X0095464Y0075557D01*
X0095525Y0075552D01*
X0095585Y0075550D01*
X0096585Y0075550D01*
X0091475Y0080050D02*
X0091402Y0080048D01*
X0091330Y0080043D01*
X0091258Y0080034D01*
X0091186Y0080021D01*
X0091115Y0080005D01*
X0091045Y0079985D01*
X0090977Y0079961D01*
X0090909Y0079935D01*
X0090843Y0079904D01*
X0090778Y0079871D01*
X0090716Y0079834D01*
X0090655Y0079795D01*
X0090596Y0079752D01*
X0090539Y0079706D01*
X0090485Y0079658D01*
X0090434Y0079607D01*
X0090384Y0079553D01*
X0090338Y0079497D01*
X0090295Y0079439D01*
X0090254Y0079378D01*
X0090217Y0079316D01*
X0090183Y0079252D01*
X0090152Y0079186D01*
X0090124Y0079119D01*
X0090100Y0079050D01*
X0091475Y0080050D02*
X0091540Y0080048D01*
X0091606Y0080042D01*
X0091670Y0080033D01*
X0091734Y0080020D01*
X0091798Y0080003D01*
X0091860Y0079982D01*
X0091921Y0079958D01*
X0091980Y0079930D01*
X0092038Y0079899D01*
X0092093Y0079865D01*
X0092147Y0079827D01*
X0092198Y0079787D01*
X0092247Y0079743D01*
X0092293Y0079697D01*
X0092337Y0079648D01*
X0092377Y0079597D01*
X0092415Y0079543D01*
X0092449Y0079488D01*
X0092480Y0079430D01*
X0092508Y0079371D01*
X0092532Y0079310D01*
X0092553Y0079248D01*
X0092570Y0079184D01*
X0092583Y0079120D01*
X0092592Y0079056D01*
X0092598Y0078990D01*
X0092600Y0078925D01*
X0093000Y0095550D02*
X0095500Y0095550D01*
X0094250Y0095550D02*
X0094250Y0100050D01*
X0093000Y0099050D01*
M02*
