G75*
%MOIN*%
%OFA0B0*%
%FSLAX25Y25*%
%IPPOS*%
%LPD*%
%AMOC8*
5,1,8,0,0,1.08239X$1,22.5*
%
%ADD10C,0.00000*%
%ADD11R,0.05906X0.05118*%
%ADD12R,0.06299X0.05118*%
%ADD13R,0.01400X0.05800*%
D10*
X0004500Y0013111D02*
X0004500Y0087914D01*
X0004503Y0088199D01*
X0004514Y0088485D01*
X0004531Y0088770D01*
X0004555Y0089054D01*
X0004586Y0089338D01*
X0004624Y0089621D01*
X0004669Y0089902D01*
X0004720Y0090183D01*
X0004778Y0090463D01*
X0004843Y0090741D01*
X0004915Y0091017D01*
X0004993Y0091291D01*
X0005078Y0091564D01*
X0005170Y0091834D01*
X0005268Y0092102D01*
X0005372Y0092368D01*
X0005483Y0092631D01*
X0005600Y0092891D01*
X0005723Y0093149D01*
X0005853Y0093403D01*
X0005989Y0093654D01*
X0006130Y0093902D01*
X0006278Y0094146D01*
X0006431Y0094387D01*
X0006591Y0094623D01*
X0006756Y0094856D01*
X0006926Y0095085D01*
X0007102Y0095310D01*
X0007284Y0095530D01*
X0007470Y0095746D01*
X0007662Y0095957D01*
X0007859Y0096164D01*
X0008061Y0096366D01*
X0008268Y0096563D01*
X0008479Y0096755D01*
X0008695Y0096941D01*
X0008915Y0097123D01*
X0009140Y0097299D01*
X0009369Y0097469D01*
X0009602Y0097634D01*
X0009838Y0097794D01*
X0010079Y0097947D01*
X0010323Y0098095D01*
X0010571Y0098236D01*
X0010822Y0098372D01*
X0011076Y0098502D01*
X0011334Y0098625D01*
X0011594Y0098742D01*
X0011857Y0098853D01*
X0012123Y0098957D01*
X0012391Y0099055D01*
X0012661Y0099147D01*
X0012934Y0099232D01*
X0013208Y0099310D01*
X0013484Y0099382D01*
X0013762Y0099447D01*
X0014042Y0099505D01*
X0014323Y0099556D01*
X0014604Y0099601D01*
X0014887Y0099639D01*
X0015171Y0099670D01*
X0015455Y0099694D01*
X0015740Y0099711D01*
X0016026Y0099722D01*
X0016311Y0099725D01*
X0091114Y0099725D01*
X0091399Y0099722D01*
X0091685Y0099711D01*
X0091970Y0099694D01*
X0092254Y0099670D01*
X0092538Y0099639D01*
X0092821Y0099601D01*
X0093102Y0099556D01*
X0093383Y0099505D01*
X0093663Y0099447D01*
X0093941Y0099382D01*
X0094217Y0099310D01*
X0094491Y0099232D01*
X0094764Y0099147D01*
X0095034Y0099055D01*
X0095302Y0098957D01*
X0095568Y0098853D01*
X0095831Y0098742D01*
X0096091Y0098625D01*
X0096349Y0098502D01*
X0096603Y0098372D01*
X0096854Y0098236D01*
X0097102Y0098095D01*
X0097346Y0097947D01*
X0097587Y0097794D01*
X0097823Y0097634D01*
X0098056Y0097469D01*
X0098285Y0097299D01*
X0098510Y0097123D01*
X0098730Y0096941D01*
X0098946Y0096755D01*
X0099157Y0096563D01*
X0099364Y0096366D01*
X0099566Y0096164D01*
X0099763Y0095957D01*
X0099955Y0095746D01*
X0100141Y0095530D01*
X0100323Y0095310D01*
X0100499Y0095085D01*
X0100669Y0094856D01*
X0100834Y0094623D01*
X0100994Y0094387D01*
X0101147Y0094146D01*
X0101295Y0093902D01*
X0101436Y0093654D01*
X0101572Y0093403D01*
X0101702Y0093149D01*
X0101825Y0092891D01*
X0101942Y0092631D01*
X0102053Y0092368D01*
X0102157Y0092102D01*
X0102255Y0091834D01*
X0102347Y0091564D01*
X0102432Y0091291D01*
X0102510Y0091017D01*
X0102582Y0090741D01*
X0102647Y0090463D01*
X0102705Y0090183D01*
X0102756Y0089902D01*
X0102801Y0089621D01*
X0102839Y0089338D01*
X0102870Y0089054D01*
X0102894Y0088770D01*
X0102911Y0088485D01*
X0102922Y0088199D01*
X0102925Y0087914D01*
X0102925Y0013111D01*
X0102922Y0012826D01*
X0102911Y0012540D01*
X0102894Y0012255D01*
X0102870Y0011971D01*
X0102839Y0011687D01*
X0102801Y0011404D01*
X0102756Y0011123D01*
X0102705Y0010842D01*
X0102647Y0010562D01*
X0102582Y0010284D01*
X0102510Y0010008D01*
X0102432Y0009734D01*
X0102347Y0009461D01*
X0102255Y0009191D01*
X0102157Y0008923D01*
X0102053Y0008657D01*
X0101942Y0008394D01*
X0101825Y0008134D01*
X0101702Y0007876D01*
X0101572Y0007622D01*
X0101436Y0007371D01*
X0101295Y0007123D01*
X0101147Y0006879D01*
X0100994Y0006638D01*
X0100834Y0006402D01*
X0100669Y0006169D01*
X0100499Y0005940D01*
X0100323Y0005715D01*
X0100141Y0005495D01*
X0099955Y0005279D01*
X0099763Y0005068D01*
X0099566Y0004861D01*
X0099364Y0004659D01*
X0099157Y0004462D01*
X0098946Y0004270D01*
X0098730Y0004084D01*
X0098510Y0003902D01*
X0098285Y0003726D01*
X0098056Y0003556D01*
X0097823Y0003391D01*
X0097587Y0003231D01*
X0097346Y0003078D01*
X0097102Y0002930D01*
X0096854Y0002789D01*
X0096603Y0002653D01*
X0096349Y0002523D01*
X0096091Y0002400D01*
X0095831Y0002283D01*
X0095568Y0002172D01*
X0095302Y0002068D01*
X0095034Y0001970D01*
X0094764Y0001878D01*
X0094491Y0001793D01*
X0094217Y0001715D01*
X0093941Y0001643D01*
X0093663Y0001578D01*
X0093383Y0001520D01*
X0093102Y0001469D01*
X0092821Y0001424D01*
X0092538Y0001386D01*
X0092254Y0001355D01*
X0091970Y0001331D01*
X0091685Y0001314D01*
X0091399Y0001303D01*
X0091114Y0001300D01*
X0016311Y0001300D01*
X0016026Y0001303D01*
X0015740Y0001314D01*
X0015455Y0001331D01*
X0015171Y0001355D01*
X0014887Y0001386D01*
X0014604Y0001424D01*
X0014323Y0001469D01*
X0014042Y0001520D01*
X0013762Y0001578D01*
X0013484Y0001643D01*
X0013208Y0001715D01*
X0012934Y0001793D01*
X0012661Y0001878D01*
X0012391Y0001970D01*
X0012123Y0002068D01*
X0011857Y0002172D01*
X0011594Y0002283D01*
X0011334Y0002400D01*
X0011076Y0002523D01*
X0010822Y0002653D01*
X0010571Y0002789D01*
X0010323Y0002930D01*
X0010079Y0003078D01*
X0009838Y0003231D01*
X0009602Y0003391D01*
X0009369Y0003556D01*
X0009140Y0003726D01*
X0008915Y0003902D01*
X0008695Y0004084D01*
X0008479Y0004270D01*
X0008268Y0004462D01*
X0008061Y0004659D01*
X0007859Y0004861D01*
X0007662Y0005068D01*
X0007470Y0005279D01*
X0007284Y0005495D01*
X0007102Y0005715D01*
X0006926Y0005940D01*
X0006756Y0006169D01*
X0006591Y0006402D01*
X0006431Y0006638D01*
X0006278Y0006879D01*
X0006130Y0007123D01*
X0005989Y0007371D01*
X0005853Y0007622D01*
X0005723Y0007876D01*
X0005600Y0008134D01*
X0005483Y0008394D01*
X0005372Y0008657D01*
X0005268Y0008923D01*
X0005170Y0009191D01*
X0005078Y0009461D01*
X0004993Y0009734D01*
X0004915Y0010008D01*
X0004843Y0010284D01*
X0004778Y0010562D01*
X0004720Y0010842D01*
X0004669Y0011123D01*
X0004624Y0011404D01*
X0004586Y0011687D01*
X0004555Y0011971D01*
X0004531Y0012255D01*
X0004514Y0012540D01*
X0004503Y0012826D01*
X0004500Y0013111D01*
D11*
X0075750Y0035060D03*
X0075750Y0042540D03*
D12*
X0088250Y0038790D03*
X0088250Y0031310D03*
X0088250Y0018790D03*
X0088250Y0011310D03*
X0088250Y0051310D03*
X0088250Y0058790D03*
D13*
X0069750Y0050300D03*
X0067150Y0050300D03*
X0064550Y0050300D03*
X0062050Y0050300D03*
X0059450Y0050300D03*
X0056950Y0050300D03*
X0054350Y0050300D03*
X0051750Y0050300D03*
X0051750Y0027300D03*
X0054350Y0027300D03*
X0056950Y0027300D03*
X0059450Y0027300D03*
X0062050Y0027300D03*
X0064550Y0027300D03*
X0067150Y0027300D03*
X0069750Y0027300D03*
M02*
