G75*
%MOIN*%
%OFA0B0*%
%FSLAX25Y25*%
%IPPOS*%
%LPD*%
%AMOC8*
5,1,8,0,0,1.08239X$1,22.5*
%
%ADD10R,0.05124X0.05124*%
%ADD11R,0.08274X0.06699*%
%ADD12R,0.05518X0.06699*%
%ADD13C,0.06400*%
D10*
X0045366Y0013450D03*
X0045366Y0020950D03*
X0053634Y0020950D03*
X0053634Y0013450D03*
X0053634Y0028450D03*
X0053634Y0035950D03*
X0045366Y0035950D03*
X0045366Y0028450D03*
X0045366Y0043450D03*
X0045366Y0050950D03*
X0053634Y0050950D03*
X0053634Y0043450D03*
X0053634Y0058450D03*
X0053634Y0065950D03*
X0045366Y0065950D03*
X0045366Y0058450D03*
X0045366Y0111875D03*
X0045366Y0119375D03*
X0053634Y0119375D03*
X0053634Y0111875D03*
X0053634Y0126875D03*
X0053634Y0134375D03*
X0045366Y0134375D03*
X0045366Y0126875D03*
X0045366Y0141875D03*
X0045366Y0149375D03*
X0053634Y0149375D03*
X0053634Y0141875D03*
X0053634Y0156875D03*
X0053634Y0164375D03*
X0045366Y0164375D03*
X0045366Y0156875D03*
X0045366Y0210300D03*
X0053634Y0210300D03*
X0053634Y0217800D03*
X0053634Y0225300D03*
X0045366Y0225300D03*
X0045366Y0217800D03*
X0045366Y0232800D03*
X0045366Y0240300D03*
X0053634Y0240300D03*
X0053634Y0232800D03*
X0053634Y0247800D03*
X0053634Y0255300D03*
X0045366Y0255300D03*
X0045366Y0247800D03*
X0045366Y0262800D03*
X0053634Y0262800D03*
X0143791Y0262800D03*
X0152059Y0262800D03*
X0152059Y0255300D03*
X0152059Y0247800D03*
X0143791Y0247800D03*
X0143791Y0255300D03*
X0143791Y0240300D03*
X0143791Y0232800D03*
X0152059Y0232800D03*
X0152059Y0240300D03*
X0152059Y0225300D03*
X0152059Y0217800D03*
X0143791Y0217800D03*
X0143791Y0225300D03*
X0143791Y0210300D03*
X0152059Y0210300D03*
X0152059Y0164375D03*
X0152059Y0156875D03*
X0143791Y0156875D03*
X0143791Y0164375D03*
X0143791Y0149375D03*
X0143791Y0141875D03*
X0152059Y0141875D03*
X0152059Y0149375D03*
X0152059Y0134375D03*
X0152059Y0126875D03*
X0143791Y0126875D03*
X0143791Y0134375D03*
X0143791Y0119375D03*
X0143791Y0111875D03*
X0152059Y0111875D03*
X0152059Y0119375D03*
X0152059Y0065950D03*
X0152059Y0058450D03*
X0143791Y0058450D03*
X0143791Y0065950D03*
X0143791Y0050950D03*
X0143791Y0043450D03*
X0152059Y0043450D03*
X0152059Y0050950D03*
X0152059Y0035950D03*
X0152059Y0028450D03*
X0143791Y0028450D03*
X0143791Y0035950D03*
X0143791Y0020950D03*
X0143791Y0013450D03*
X0152059Y0013450D03*
X0152059Y0020950D03*
X0242217Y0020950D03*
X0242217Y0013450D03*
X0250484Y0013450D03*
X0250484Y0020950D03*
X0250484Y0028450D03*
X0250484Y0035950D03*
X0242217Y0035950D03*
X0242217Y0028450D03*
X0242217Y0043450D03*
X0242217Y0050950D03*
X0250484Y0050950D03*
X0250484Y0043450D03*
X0250484Y0058450D03*
X0250484Y0065950D03*
X0242217Y0065950D03*
X0242217Y0058450D03*
X0242217Y0111875D03*
X0242217Y0119375D03*
X0250484Y0119375D03*
X0250484Y0111875D03*
X0250484Y0126875D03*
X0250484Y0134375D03*
X0242217Y0134375D03*
X0242217Y0126875D03*
X0242217Y0141875D03*
X0242217Y0149375D03*
X0250484Y0149375D03*
X0250484Y0141875D03*
X0250484Y0156875D03*
X0250484Y0164375D03*
X0242217Y0164375D03*
X0242217Y0156875D03*
X0242217Y0210300D03*
X0250484Y0210300D03*
X0250484Y0217800D03*
X0250484Y0225300D03*
X0242217Y0225300D03*
X0242217Y0217800D03*
X0242217Y0232800D03*
X0242217Y0240300D03*
X0250484Y0240300D03*
X0250484Y0232800D03*
X0250484Y0247800D03*
X0250484Y0255300D03*
X0242217Y0255300D03*
X0242217Y0247800D03*
X0242217Y0262800D03*
X0250484Y0262800D03*
X0340642Y0262800D03*
X0348909Y0262800D03*
X0348909Y0255300D03*
X0348909Y0247800D03*
X0340642Y0247800D03*
X0340642Y0255300D03*
X0340642Y0240300D03*
X0340642Y0232800D03*
X0348909Y0232800D03*
X0348909Y0240300D03*
X0348909Y0225300D03*
X0348909Y0217800D03*
X0340642Y0217800D03*
X0340642Y0225300D03*
X0340642Y0210300D03*
X0348909Y0210300D03*
X0348909Y0164375D03*
X0348909Y0156875D03*
X0340642Y0156875D03*
X0340642Y0164375D03*
X0340642Y0149375D03*
X0340642Y0141875D03*
X0348909Y0141875D03*
X0348909Y0149375D03*
X0348909Y0134375D03*
X0348909Y0126875D03*
X0340642Y0126875D03*
X0340642Y0134375D03*
X0340642Y0119375D03*
X0340642Y0111875D03*
X0348909Y0111875D03*
X0348909Y0119375D03*
X0348909Y0065950D03*
X0348909Y0058450D03*
X0340642Y0058450D03*
X0340642Y0065950D03*
X0340642Y0050950D03*
X0340642Y0043450D03*
X0348909Y0043450D03*
X0348909Y0050950D03*
X0348909Y0035950D03*
X0348909Y0028450D03*
X0340642Y0028450D03*
X0340642Y0035950D03*
X0340642Y0020950D03*
X0340642Y0013450D03*
X0348909Y0013450D03*
X0348909Y0020950D03*
D11*
X0383526Y0022712D03*
X0383526Y0031688D03*
X0383526Y0042712D03*
X0383526Y0051688D03*
X0383526Y0062712D03*
X0383526Y0110113D03*
X0383526Y0121137D03*
X0383526Y0130113D03*
X0383526Y0141137D03*
X0383526Y0150113D03*
X0383526Y0161137D03*
X0383526Y0208539D03*
X0383526Y0219562D03*
X0383526Y0228539D03*
X0383526Y0239562D03*
X0383526Y0248539D03*
X0383526Y0259562D03*
X0285100Y0259562D03*
X0285100Y0248539D03*
X0285100Y0239562D03*
X0285100Y0228539D03*
X0285100Y0219562D03*
X0285100Y0208539D03*
X0285100Y0161137D03*
X0285100Y0150113D03*
X0285100Y0141137D03*
X0285100Y0130113D03*
X0285100Y0121137D03*
X0285100Y0110113D03*
X0285100Y0062712D03*
X0285100Y0051688D03*
X0285100Y0042712D03*
X0285100Y0031688D03*
X0285100Y0022712D03*
X0285100Y0011688D03*
X0383526Y0011688D03*
X0186675Y0011688D03*
X0186675Y0022712D03*
X0186675Y0031688D03*
X0186675Y0042712D03*
X0186675Y0051688D03*
X0186675Y0062712D03*
X0186675Y0110113D03*
X0186675Y0121137D03*
X0186675Y0130113D03*
X0186675Y0141137D03*
X0186675Y0150113D03*
X0186675Y0161137D03*
X0186675Y0208539D03*
X0186675Y0219562D03*
X0186675Y0228539D03*
X0186675Y0239562D03*
X0186675Y0248539D03*
X0186675Y0259562D03*
X0088250Y0259562D03*
X0088250Y0248539D03*
X0088250Y0239562D03*
X0088250Y0228539D03*
X0088250Y0219562D03*
X0088250Y0208539D03*
X0088250Y0161137D03*
X0088250Y0150113D03*
X0088250Y0141137D03*
X0088250Y0130113D03*
X0088250Y0121137D03*
X0088250Y0110113D03*
X0088250Y0062712D03*
X0088250Y0051688D03*
X0088250Y0042712D03*
X0088250Y0031688D03*
X0088250Y0022712D03*
X0088250Y0011688D03*
D12*
X0069490Y0013450D03*
X0062010Y0013450D03*
X0062010Y0020950D03*
X0069490Y0020950D03*
X0069490Y0028450D03*
X0062010Y0028450D03*
X0062010Y0035950D03*
X0069490Y0035950D03*
X0069490Y0043450D03*
X0062010Y0043450D03*
X0062010Y0050950D03*
X0069490Y0050950D03*
X0069490Y0058450D03*
X0062010Y0058450D03*
X0062010Y0065950D03*
X0069490Y0065950D03*
X0073260Y0077200D03*
X0080740Y0077200D03*
X0063240Y0077200D03*
X0055760Y0077200D03*
X0062010Y0111875D03*
X0069490Y0111875D03*
X0069490Y0119375D03*
X0062010Y0119375D03*
X0062010Y0126875D03*
X0069490Y0126875D03*
X0069490Y0134375D03*
X0062010Y0134375D03*
X0062010Y0141875D03*
X0069490Y0141875D03*
X0069490Y0149375D03*
X0062010Y0149375D03*
X0062010Y0156875D03*
X0069490Y0156875D03*
X0069490Y0164375D03*
X0062010Y0164375D03*
X0063240Y0175625D03*
X0055760Y0175625D03*
X0073260Y0175625D03*
X0080740Y0175625D03*
X0069490Y0210300D03*
X0062010Y0210300D03*
X0062010Y0217800D03*
X0069490Y0217800D03*
X0069490Y0225300D03*
X0062010Y0225300D03*
X0062010Y0232800D03*
X0069490Y0232800D03*
X0069490Y0240300D03*
X0062010Y0240300D03*
X0062010Y0247800D03*
X0069490Y0247800D03*
X0069490Y0255300D03*
X0062010Y0255300D03*
X0062010Y0262800D03*
X0069490Y0262800D03*
X0073260Y0274050D03*
X0080740Y0274050D03*
X0063240Y0274050D03*
X0055760Y0274050D03*
X0154185Y0274050D03*
X0161665Y0274050D03*
X0171685Y0274050D03*
X0179165Y0274050D03*
X0167915Y0262800D03*
X0160435Y0262800D03*
X0160435Y0255300D03*
X0167915Y0255300D03*
X0167915Y0247800D03*
X0160435Y0247800D03*
X0160435Y0240300D03*
X0167915Y0240300D03*
X0167915Y0232800D03*
X0160435Y0232800D03*
X0160435Y0225300D03*
X0167915Y0225300D03*
X0167915Y0217800D03*
X0160435Y0217800D03*
X0160435Y0210300D03*
X0167915Y0210300D03*
X0171685Y0175625D03*
X0179165Y0175625D03*
X0167915Y0164375D03*
X0160435Y0164375D03*
X0160435Y0156875D03*
X0167915Y0156875D03*
X0167915Y0149375D03*
X0160435Y0149375D03*
X0160435Y0141875D03*
X0167915Y0141875D03*
X0167915Y0134375D03*
X0160435Y0134375D03*
X0160435Y0126875D03*
X0167915Y0126875D03*
X0167915Y0119375D03*
X0160435Y0119375D03*
X0160435Y0111875D03*
X0167915Y0111875D03*
X0171685Y0077200D03*
X0179165Y0077200D03*
X0167915Y0065950D03*
X0160435Y0065950D03*
X0160435Y0058450D03*
X0167915Y0058450D03*
X0167915Y0050950D03*
X0160435Y0050950D03*
X0160435Y0043450D03*
X0167915Y0043450D03*
X0167915Y0035950D03*
X0160435Y0035950D03*
X0160435Y0028450D03*
X0167915Y0028450D03*
X0167915Y0020950D03*
X0160435Y0020950D03*
X0160435Y0013450D03*
X0167915Y0013450D03*
X0161665Y0077200D03*
X0154185Y0077200D03*
X0252610Y0077200D03*
X0260091Y0077200D03*
X0270110Y0077200D03*
X0277591Y0077200D03*
X0266341Y0065950D03*
X0258860Y0065950D03*
X0258860Y0058450D03*
X0266341Y0058450D03*
X0266341Y0050950D03*
X0258860Y0050950D03*
X0258860Y0043450D03*
X0266341Y0043450D03*
X0266341Y0035950D03*
X0258860Y0035950D03*
X0258860Y0028450D03*
X0266341Y0028450D03*
X0266341Y0020950D03*
X0258860Y0020950D03*
X0258860Y0013450D03*
X0266341Y0013450D03*
X0351035Y0077200D03*
X0358516Y0077200D03*
X0368535Y0077200D03*
X0376016Y0077200D03*
X0364766Y0065950D03*
X0357285Y0065950D03*
X0357285Y0058450D03*
X0364766Y0058450D03*
X0364766Y0050950D03*
X0357285Y0050950D03*
X0357285Y0043450D03*
X0364766Y0043450D03*
X0364766Y0035950D03*
X0357285Y0035950D03*
X0357285Y0028450D03*
X0364766Y0028450D03*
X0364766Y0020950D03*
X0357285Y0020950D03*
X0357285Y0013450D03*
X0364766Y0013450D03*
X0364766Y0111875D03*
X0357285Y0111875D03*
X0357285Y0119375D03*
X0364766Y0119375D03*
X0364766Y0126875D03*
X0357285Y0126875D03*
X0357285Y0134375D03*
X0364766Y0134375D03*
X0364766Y0141875D03*
X0357285Y0141875D03*
X0357285Y0149375D03*
X0364766Y0149375D03*
X0364766Y0156875D03*
X0357285Y0156875D03*
X0357285Y0164375D03*
X0364766Y0164375D03*
X0368535Y0175625D03*
X0376016Y0175625D03*
X0358516Y0175625D03*
X0351035Y0175625D03*
X0357285Y0210300D03*
X0364766Y0210300D03*
X0364766Y0217800D03*
X0357285Y0217800D03*
X0357285Y0225300D03*
X0364766Y0225300D03*
X0364766Y0232800D03*
X0357285Y0232800D03*
X0357285Y0240300D03*
X0364766Y0240300D03*
X0364766Y0247800D03*
X0357285Y0247800D03*
X0357285Y0255300D03*
X0364766Y0255300D03*
X0364766Y0262800D03*
X0357285Y0262800D03*
X0358516Y0274050D03*
X0351035Y0274050D03*
X0368535Y0274050D03*
X0376016Y0274050D03*
X0277591Y0274050D03*
X0270110Y0274050D03*
X0260091Y0274050D03*
X0252610Y0274050D03*
X0258860Y0262800D03*
X0266341Y0262800D03*
X0266341Y0255300D03*
X0258860Y0255300D03*
X0258860Y0247800D03*
X0266341Y0247800D03*
X0266341Y0240300D03*
X0258860Y0240300D03*
X0258860Y0232800D03*
X0266341Y0232800D03*
X0266341Y0225300D03*
X0258860Y0225300D03*
X0258860Y0217800D03*
X0266341Y0217800D03*
X0266341Y0210300D03*
X0258860Y0210300D03*
X0260091Y0175625D03*
X0252610Y0175625D03*
X0258860Y0164375D03*
X0266341Y0164375D03*
X0266341Y0156875D03*
X0258860Y0156875D03*
X0258860Y0149375D03*
X0266341Y0149375D03*
X0266341Y0141875D03*
X0258860Y0141875D03*
X0258860Y0134375D03*
X0266341Y0134375D03*
X0266341Y0126875D03*
X0258860Y0126875D03*
X0258860Y0119375D03*
X0266341Y0119375D03*
X0266341Y0111875D03*
X0258860Y0111875D03*
X0270110Y0175625D03*
X0277591Y0175625D03*
X0161665Y0175625D03*
X0154185Y0175625D03*
D13*
X0017500Y0009700D02*
X0011500Y0009700D01*
X0011500Y0019700D02*
X0017500Y0019700D01*
X0025250Y0019700D02*
X0031250Y0019700D01*
X0031250Y0009700D02*
X0025250Y0009700D01*
X0025250Y0029700D02*
X0031250Y0029700D01*
X0017500Y0029700D02*
X0011500Y0029700D01*
X0011500Y0039700D02*
X0017500Y0039700D01*
X0025250Y0039700D02*
X0031250Y0039700D01*
X0031250Y0049700D02*
X0025250Y0049700D01*
X0017500Y0049700D02*
X0011500Y0049700D01*
X0011500Y0059700D02*
X0017500Y0059700D01*
X0025250Y0059700D02*
X0031250Y0059700D01*
X0031250Y0069700D02*
X0025250Y0069700D01*
X0017500Y0069700D02*
X0011500Y0069700D01*
X0011500Y0079700D02*
X0017500Y0079700D01*
X0025250Y0079700D02*
X0031250Y0079700D01*
X0053250Y0086700D02*
X0053250Y0092700D01*
X0063250Y0092700D02*
X0063250Y0086700D01*
X0073250Y0086700D02*
X0073250Y0092700D01*
X0083250Y0092700D02*
X0083250Y0086700D01*
X0093250Y0086700D02*
X0093250Y0092700D01*
X0109925Y0079700D02*
X0115925Y0079700D01*
X0123675Y0079700D02*
X0129675Y0079700D01*
X0129675Y0069700D02*
X0123675Y0069700D01*
X0115925Y0069700D02*
X0109925Y0069700D01*
X0109925Y0059700D02*
X0115925Y0059700D01*
X0123675Y0059700D02*
X0129675Y0059700D01*
X0129675Y0049700D02*
X0123675Y0049700D01*
X0115925Y0049700D02*
X0109925Y0049700D01*
X0109925Y0039700D02*
X0115925Y0039700D01*
X0123675Y0039700D02*
X0129675Y0039700D01*
X0129675Y0029700D02*
X0123675Y0029700D01*
X0115925Y0029700D02*
X0109925Y0029700D01*
X0109925Y0019700D02*
X0115925Y0019700D01*
X0123675Y0019700D02*
X0129675Y0019700D01*
X0129675Y0009700D02*
X0123675Y0009700D01*
X0115925Y0009700D02*
X0109925Y0009700D01*
X0151675Y0086700D02*
X0151675Y0092700D01*
X0161675Y0092700D02*
X0161675Y0086700D01*
X0171675Y0086700D02*
X0171675Y0092700D01*
X0181675Y0092700D02*
X0181675Y0086700D01*
X0191675Y0086700D02*
X0191675Y0092700D01*
X0208350Y0079700D02*
X0214350Y0079700D01*
X0222100Y0079700D02*
X0228100Y0079700D01*
X0228100Y0069700D02*
X0222100Y0069700D01*
X0214350Y0069700D02*
X0208350Y0069700D01*
X0208350Y0059700D02*
X0214350Y0059700D01*
X0222100Y0059700D02*
X0228100Y0059700D01*
X0228100Y0049700D02*
X0222100Y0049700D01*
X0214350Y0049700D02*
X0208350Y0049700D01*
X0208350Y0039700D02*
X0214350Y0039700D01*
X0222100Y0039700D02*
X0228100Y0039700D01*
X0228100Y0029700D02*
X0222100Y0029700D01*
X0214350Y0029700D02*
X0208350Y0029700D01*
X0208350Y0019700D02*
X0214350Y0019700D01*
X0222100Y0019700D02*
X0228100Y0019700D01*
X0228100Y0009700D02*
X0222100Y0009700D01*
X0214350Y0009700D02*
X0208350Y0009700D01*
X0306776Y0009700D02*
X0312776Y0009700D01*
X0320526Y0009700D02*
X0326526Y0009700D01*
X0326526Y0019700D02*
X0320526Y0019700D01*
X0312776Y0019700D02*
X0306776Y0019700D01*
X0306776Y0029700D02*
X0312776Y0029700D01*
X0320526Y0029700D02*
X0326526Y0029700D01*
X0326526Y0039700D02*
X0320526Y0039700D01*
X0312776Y0039700D02*
X0306776Y0039700D01*
X0306776Y0049700D02*
X0312776Y0049700D01*
X0320526Y0049700D02*
X0326526Y0049700D01*
X0326526Y0059700D02*
X0320526Y0059700D01*
X0312776Y0059700D02*
X0306776Y0059700D01*
X0306776Y0069700D02*
X0312776Y0069700D01*
X0320526Y0069700D02*
X0326526Y0069700D01*
X0326526Y0079700D02*
X0320526Y0079700D01*
X0312776Y0079700D02*
X0306776Y0079700D01*
X0290100Y0086700D02*
X0290100Y0092700D01*
X0280100Y0092700D02*
X0280100Y0086700D01*
X0270100Y0086700D02*
X0270100Y0092700D01*
X0260100Y0092700D02*
X0260100Y0086700D01*
X0250100Y0086700D02*
X0250100Y0092700D01*
X0228100Y0108125D02*
X0222100Y0108125D01*
X0214350Y0108125D02*
X0208350Y0108125D01*
X0208350Y0118125D02*
X0214350Y0118125D01*
X0222100Y0118125D02*
X0228100Y0118125D01*
X0228100Y0128125D02*
X0222100Y0128125D01*
X0214350Y0128125D02*
X0208350Y0128125D01*
X0208350Y0138125D02*
X0214350Y0138125D01*
X0222100Y0138125D02*
X0228100Y0138125D01*
X0228100Y0148125D02*
X0222100Y0148125D01*
X0214350Y0148125D02*
X0208350Y0148125D01*
X0208350Y0158125D02*
X0214350Y0158125D01*
X0222100Y0158125D02*
X0228100Y0158125D01*
X0228100Y0168125D02*
X0222100Y0168125D01*
X0214350Y0168125D02*
X0208350Y0168125D01*
X0208350Y0178125D02*
X0214350Y0178125D01*
X0222100Y0178125D02*
X0228100Y0178125D01*
X0250100Y0185125D02*
X0250100Y0191125D01*
X0260100Y0191125D02*
X0260100Y0185125D01*
X0270100Y0185125D02*
X0270100Y0191125D01*
X0280100Y0191125D02*
X0280100Y0185125D01*
X0290100Y0185125D02*
X0290100Y0191125D01*
X0306776Y0178125D02*
X0312776Y0178125D01*
X0320526Y0178125D02*
X0326526Y0178125D01*
X0326526Y0168125D02*
X0320526Y0168125D01*
X0312776Y0168125D02*
X0306776Y0168125D01*
X0306776Y0158125D02*
X0312776Y0158125D01*
X0320526Y0158125D02*
X0326526Y0158125D01*
X0326526Y0148125D02*
X0320526Y0148125D01*
X0312776Y0148125D02*
X0306776Y0148125D01*
X0306776Y0138125D02*
X0312776Y0138125D01*
X0320526Y0138125D02*
X0326526Y0138125D01*
X0326526Y0128125D02*
X0320526Y0128125D01*
X0312776Y0128125D02*
X0306776Y0128125D01*
X0306776Y0118125D02*
X0312776Y0118125D01*
X0320526Y0118125D02*
X0326526Y0118125D01*
X0326526Y0108125D02*
X0320526Y0108125D01*
X0312776Y0108125D02*
X0306776Y0108125D01*
X0348526Y0092700D02*
X0348526Y0086700D01*
X0358526Y0086700D02*
X0358526Y0092700D01*
X0368526Y0092700D02*
X0368526Y0086700D01*
X0378526Y0086700D02*
X0378526Y0092700D01*
X0388526Y0092700D02*
X0388526Y0086700D01*
X0388526Y0185125D02*
X0388526Y0191125D01*
X0378526Y0191125D02*
X0378526Y0185125D01*
X0368526Y0185125D02*
X0368526Y0191125D01*
X0358526Y0191125D02*
X0358526Y0185125D01*
X0348526Y0185125D02*
X0348526Y0191125D01*
X0326526Y0206550D02*
X0320526Y0206550D01*
X0312776Y0206550D02*
X0306776Y0206550D01*
X0306776Y0216550D02*
X0312776Y0216550D01*
X0320526Y0216550D02*
X0326526Y0216550D01*
X0326526Y0226550D02*
X0320526Y0226550D01*
X0312776Y0226550D02*
X0306776Y0226550D01*
X0306776Y0236550D02*
X0312776Y0236550D01*
X0320526Y0236550D02*
X0326526Y0236550D01*
X0326526Y0246550D02*
X0320526Y0246550D01*
X0312776Y0246550D02*
X0306776Y0246550D01*
X0306776Y0256550D02*
X0312776Y0256550D01*
X0320526Y0256550D02*
X0326526Y0256550D01*
X0326526Y0266550D02*
X0320526Y0266550D01*
X0312776Y0266550D02*
X0306776Y0266550D01*
X0306776Y0276550D02*
X0312776Y0276550D01*
X0320526Y0276550D02*
X0326526Y0276550D01*
X0348526Y0283550D02*
X0348526Y0289550D01*
X0358526Y0289550D02*
X0358526Y0283550D01*
X0368526Y0283550D02*
X0368526Y0289550D01*
X0378526Y0289550D02*
X0378526Y0283550D01*
X0388526Y0283550D02*
X0388526Y0289550D01*
X0290100Y0289550D02*
X0290100Y0283550D01*
X0280100Y0283550D02*
X0280100Y0289550D01*
X0270100Y0289550D02*
X0270100Y0283550D01*
X0260100Y0283550D02*
X0260100Y0289550D01*
X0250100Y0289550D02*
X0250100Y0283550D01*
X0228100Y0276550D02*
X0222100Y0276550D01*
X0214350Y0276550D02*
X0208350Y0276550D01*
X0208350Y0266550D02*
X0214350Y0266550D01*
X0222100Y0266550D02*
X0228100Y0266550D01*
X0228100Y0256550D02*
X0222100Y0256550D01*
X0214350Y0256550D02*
X0208350Y0256550D01*
X0208350Y0246550D02*
X0214350Y0246550D01*
X0222100Y0246550D02*
X0228100Y0246550D01*
X0228100Y0236550D02*
X0222100Y0236550D01*
X0214350Y0236550D02*
X0208350Y0236550D01*
X0208350Y0226550D02*
X0214350Y0226550D01*
X0222100Y0226550D02*
X0228100Y0226550D01*
X0228100Y0216550D02*
X0222100Y0216550D01*
X0214350Y0216550D02*
X0208350Y0216550D01*
X0208350Y0206550D02*
X0214350Y0206550D01*
X0222100Y0206550D02*
X0228100Y0206550D01*
X0191675Y0191125D02*
X0191675Y0185125D01*
X0181675Y0185125D02*
X0181675Y0191125D01*
X0171675Y0191125D02*
X0171675Y0185125D01*
X0161675Y0185125D02*
X0161675Y0191125D01*
X0151675Y0191125D02*
X0151675Y0185125D01*
X0129675Y0178125D02*
X0123675Y0178125D01*
X0115925Y0178125D02*
X0109925Y0178125D01*
X0109925Y0168125D02*
X0115925Y0168125D01*
X0123675Y0168125D02*
X0129675Y0168125D01*
X0129675Y0158125D02*
X0123675Y0158125D01*
X0115925Y0158125D02*
X0109925Y0158125D01*
X0109925Y0148125D02*
X0115925Y0148125D01*
X0123675Y0148125D02*
X0129675Y0148125D01*
X0129675Y0138125D02*
X0123675Y0138125D01*
X0115925Y0138125D02*
X0109925Y0138125D01*
X0109925Y0128125D02*
X0115925Y0128125D01*
X0123675Y0128125D02*
X0129675Y0128125D01*
X0129675Y0118125D02*
X0123675Y0118125D01*
X0115925Y0118125D02*
X0109925Y0118125D01*
X0109925Y0108125D02*
X0115925Y0108125D01*
X0123675Y0108125D02*
X0129675Y0108125D01*
X0031250Y0108125D02*
X0025250Y0108125D01*
X0017500Y0108125D02*
X0011500Y0108125D01*
X0011500Y0118125D02*
X0017500Y0118125D01*
X0025250Y0118125D02*
X0031250Y0118125D01*
X0031250Y0128125D02*
X0025250Y0128125D01*
X0017500Y0128125D02*
X0011500Y0128125D01*
X0011500Y0138125D02*
X0017500Y0138125D01*
X0025250Y0138125D02*
X0031250Y0138125D01*
X0031250Y0148125D02*
X0025250Y0148125D01*
X0017500Y0148125D02*
X0011500Y0148125D01*
X0011500Y0158125D02*
X0017500Y0158125D01*
X0025250Y0158125D02*
X0031250Y0158125D01*
X0031250Y0168125D02*
X0025250Y0168125D01*
X0017500Y0168125D02*
X0011500Y0168125D01*
X0011500Y0178125D02*
X0017500Y0178125D01*
X0025250Y0178125D02*
X0031250Y0178125D01*
X0053250Y0185125D02*
X0053250Y0191125D01*
X0063250Y0191125D02*
X0063250Y0185125D01*
X0073250Y0185125D02*
X0073250Y0191125D01*
X0083250Y0191125D02*
X0083250Y0185125D01*
X0093250Y0185125D02*
X0093250Y0191125D01*
X0109925Y0206550D02*
X0115925Y0206550D01*
X0123675Y0206550D02*
X0129675Y0206550D01*
X0129675Y0216550D02*
X0123675Y0216550D01*
X0115925Y0216550D02*
X0109925Y0216550D01*
X0109925Y0226550D02*
X0115925Y0226550D01*
X0123675Y0226550D02*
X0129675Y0226550D01*
X0129675Y0236550D02*
X0123675Y0236550D01*
X0115925Y0236550D02*
X0109925Y0236550D01*
X0109925Y0246550D02*
X0115925Y0246550D01*
X0123675Y0246550D02*
X0129675Y0246550D01*
X0129675Y0256550D02*
X0123675Y0256550D01*
X0115925Y0256550D02*
X0109925Y0256550D01*
X0109925Y0266550D02*
X0115925Y0266550D01*
X0123675Y0266550D02*
X0129675Y0266550D01*
X0129675Y0276550D02*
X0123675Y0276550D01*
X0115925Y0276550D02*
X0109925Y0276550D01*
X0093250Y0283550D02*
X0093250Y0289550D01*
X0083250Y0289550D02*
X0083250Y0283550D01*
X0073250Y0283550D02*
X0073250Y0289550D01*
X0063250Y0289550D02*
X0063250Y0283550D01*
X0053250Y0283550D02*
X0053250Y0289550D01*
X0031250Y0276550D02*
X0025250Y0276550D01*
X0017500Y0276550D02*
X0011500Y0276550D01*
X0011500Y0266550D02*
X0017500Y0266550D01*
X0025250Y0266550D02*
X0031250Y0266550D01*
X0031250Y0256550D02*
X0025250Y0256550D01*
X0017500Y0256550D02*
X0011500Y0256550D01*
X0011500Y0246550D02*
X0017500Y0246550D01*
X0025250Y0246550D02*
X0031250Y0246550D01*
X0031250Y0236550D02*
X0025250Y0236550D01*
X0017500Y0236550D02*
X0011500Y0236550D01*
X0011500Y0226550D02*
X0017500Y0226550D01*
X0025250Y0226550D02*
X0031250Y0226550D01*
X0031250Y0216550D02*
X0025250Y0216550D01*
X0017500Y0216550D02*
X0011500Y0216550D01*
X0011500Y0206550D02*
X0017500Y0206550D01*
X0025250Y0206550D02*
X0031250Y0206550D01*
X0151675Y0283550D02*
X0151675Y0289550D01*
X0161675Y0289550D02*
X0161675Y0283550D01*
X0171675Y0283550D02*
X0171675Y0289550D01*
X0181675Y0289550D02*
X0181675Y0283550D01*
X0191675Y0283550D02*
X0191675Y0289550D01*
M02*
