%
M48
M72
T01C0.01400
T02C0.04000
%
T01
X39500Y13450
X39500Y20950
X39500Y28450
X39500Y35950
X39500Y43450
X39500Y50950
X39500Y58450
X39500Y65950
X79500Y68450
X88250Y50950
X82000Y42200
X80750Y34700
X80750Y27200
X88250Y30960
X88250Y10438
X137925Y13450
X137925Y20950
X137925Y28450
X137925Y35950
X137925Y43450
X137925Y50950
X137925Y58450
X137925Y65950
X177925Y68450
X186675Y50950
X180425Y42200
X179175Y34700
X179175Y27200
X186675Y30960
X186675Y10438
X236350Y13450
X236350Y20950
X236350Y28450
X236350Y35950
X236350Y43450
X236350Y50950
X236350Y58450
X236350Y65950
X276350Y68450
X285100Y50950
X278850Y42200
X277600Y34700
X277600Y27200
X285100Y30960
X285100Y10438
X334776Y13450
X334776Y20950
X334776Y28450
X334776Y35950
X334776Y43450
X334776Y50950
X334776Y58450
X334776Y65950
X374776Y68450
X383526Y50950
X377276Y42200
X376026Y34700
X376026Y27200
X383526Y30960
X383526Y10438
X383526Y108863
X376026Y125625
X383526Y129385
X376026Y133125
X377276Y140625
X383526Y149375
X374776Y166875
X334776Y164375
X334776Y156875
X334776Y149375
X334776Y141875
X334776Y134375
X334776Y126875
X334776Y119375
X334776Y111875
X285100Y108863
X277600Y125625
X285100Y129385
X277600Y133125
X278850Y140625
X285100Y149375
X276350Y166875
X236350Y164375
X236350Y156875
X236350Y149375
X236350Y141875
X236350Y134375
X236350Y126875
X236350Y119375
X236350Y111875
X186675Y108863
X179175Y125625
X186675Y129385
X179175Y133125
X180425Y140625
X186675Y149375
X177925Y166875
X137925Y164375
X137925Y156875
X137925Y149375
X137925Y141875
X137925Y134375
X137925Y126875
X137925Y119375
X137925Y111875
X88250Y108863
X80750Y125625
X88250Y129385
X80750Y133125
X82000Y140625
X88250Y149375
X79500Y166875
X39500Y164375
X39500Y156875
X39500Y149375
X39500Y141875
X39500Y134375
X39500Y126875
X39500Y119375
X39500Y111875
X88250Y207289
X80750Y224050
X80750Y231550
X88250Y227810
X82000Y239050
X88250Y247800
X79500Y265300
X39500Y262800
X39500Y255300
X39500Y247800
X39500Y240300
X39500Y232800
X39500Y225300
X39500Y217800
X39500Y210300
X137925Y210300
X137925Y217800
X137925Y225300
X137925Y232800
X137925Y240300
X137925Y247800
X137925Y255300
X137925Y262800
X177925Y265300
X186675Y247800
X180425Y239050
X179175Y231550
X179175Y224050
X186675Y227810
X186675Y207289
X236350Y210300
X236350Y217800
X236350Y225300
X236350Y232800
X236350Y240300
X236350Y247800
X236350Y255300
X236350Y262800
X276350Y265300
X285100Y247800
X278850Y239050
X277600Y231550
X277600Y224050
X285100Y227810
X285100Y207289
X334776Y210300
X334776Y217800
X334776Y225300
X334776Y232800
X334776Y240300
X334776Y247800
X334776Y255300
X334776Y262800
X374776Y265300
X383526Y247800
X377276Y239050
X376026Y231550
X376026Y224050
X383526Y227810
X383526Y207289
T02
X14500Y9700
X14500Y19700
X14500Y29700
X14500Y39700
X14500Y49700
X14500Y59700
X14500Y69700
X14500Y79700
X28250Y79700
X28250Y69700
X28250Y59700
X28250Y49700
X28250Y39700
X28250Y29700
X28250Y19700
X28250Y9700
X112925Y9700
X112925Y19700
X112925Y29700
X126675Y29700
X126675Y19700
X126675Y9700
X126675Y39700
X126675Y49700
X126675Y59700
X112925Y59700
X112925Y49700
X112925Y39700
X112925Y69700
X112925Y79700
X126675Y79700
X126675Y69700
X151675Y89700
X161675Y89700
X171675Y89700
X181675Y89700
X191675Y89700
X211350Y79700
X211350Y69700
X211350Y59700
X211350Y49700
X211350Y39700
X211350Y29700
X211350Y19700
X211350Y9700
X225100Y9700
X225100Y19700
X225100Y29700
X225100Y39700
X225100Y49700
X225100Y59700
X225100Y69700
X225100Y79700
X250100Y89700
X260100Y89700
X270100Y89700
X280100Y89700
X290100Y89700
X309776Y79700
X309776Y69700
X323526Y69700
X323526Y79700
X323526Y59700
X323526Y49700
X323526Y39700
X309776Y39700
X309776Y49700
X309776Y59700
X309776Y29700
X309776Y19700
X309776Y9700
X323526Y9700
X323526Y19700
X323526Y29700
X348526Y89700
X358526Y89700
X368526Y89700
X378526Y89700
X388526Y89700
X323526Y108125
X309776Y108125
X309776Y118125
X309776Y128125
X309776Y138125
X323526Y138125
X323526Y128125
X323526Y118125
X323526Y148125
X323526Y158125
X323526Y168125
X309776Y168125
X309776Y158125
X309776Y148125
X309776Y178125
X323526Y178125
X348526Y188125
X358526Y188125
X368526Y188125
X378526Y188125
X388526Y188125
X323526Y206550
X323526Y216550
X309776Y216550
X309776Y206550
X290100Y188125
X280100Y188125
X270100Y188125
X260100Y188125
X250100Y188125
X225100Y178125
X225100Y168125
X225100Y158125
X225100Y148125
X225100Y138125
X225100Y128125
X225100Y118125
X225100Y108125
X211350Y108125
X211350Y118125
X211350Y128125
X211350Y138125
X211350Y148125
X211350Y158125
X211350Y168125
X211350Y178125
X191675Y188125
X181675Y188125
X171675Y188125
X161675Y188125
X151675Y188125
X126675Y178125
X112925Y178125
X112925Y168125
X112925Y158125
X112925Y148125
X126675Y148125
X126675Y158125
X126675Y168125
X93250Y188125
X83250Y188125
X73250Y188125
X63250Y188125
X53250Y188125
X28250Y178125
X28250Y168125
X28250Y158125
X28250Y148125
X28250Y138125
X28250Y128125
X28250Y118125
X28250Y108125
X14500Y108125
X14500Y118125
X14500Y128125
X14500Y138125
X14500Y148125
X14500Y158125
X14500Y168125
X14500Y178125
X14500Y206550
X14500Y216550
X14500Y226550
X14500Y236550
X14500Y246550
X14500Y256550
X14500Y266550
X14500Y276550
X28250Y276550
X28250Y266550
X28250Y256550
X28250Y246550
X28250Y236550
X28250Y226550
X28250Y216550
X28250Y206550
X112925Y206550
X112925Y216550
X126675Y216550
X126675Y206550
X126675Y226550
X126675Y236550
X126675Y246550
X112925Y246550
X112925Y236550
X112925Y226550
X112925Y256550
X112925Y266550
X112925Y276550
X126675Y276550
X126675Y266550
X126675Y256550
X151675Y286550
X161675Y286550
X171675Y286550
X181675Y286550
X191675Y286550
X211350Y276550
X211350Y266550
X211350Y256550
X211350Y246550
X211350Y236550
X211350Y226550
X211350Y216550
X211350Y206550
X225100Y206550
X225100Y216550
X225100Y226550
X225100Y236550
X225100Y246550
X225100Y256550
X225100Y266550
X225100Y276550
X250100Y286550
X260100Y286550
X270100Y286550
X280100Y286550
X290100Y286550
X309776Y276550
X309776Y266550
X309776Y256550
X323526Y256550
X323526Y266550
X323526Y276550
X348526Y286550
X358526Y286550
X368526Y286550
X378526Y286550
X388526Y286550
X323526Y246550
X323526Y236550
X323526Y226550
X309776Y226550
X309776Y236550
X309776Y246550
X126675Y138125
X126675Y128125
X126675Y118125
X112925Y118125
X112925Y128125
X112925Y138125
X112925Y108125
X126675Y108125
X93250Y89700
X83250Y89700
X73250Y89700
X63250Y89700
X53250Y89700
X53250Y286550
X63250Y286550
X73250Y286550
X83250Y286550
X93250Y286550
M30
