G75*
%MOIN*%
%OFA0B0*%
%FSLAX25Y25*%
%IPPOS*%
%LPD*%
%AMOC8*
5,1,8,0,0,1.08239X$1,22.5*
%
%ADD10R,0.04724X0.04724*%
%ADD11R,0.07874X0.06299*%
%ADD12R,0.05118X0.06299*%
D10*
X0045366Y0013450D03*
X0045366Y0020950D03*
X0053634Y0020950D03*
X0053634Y0013450D03*
X0053634Y0028450D03*
X0053634Y0035950D03*
X0045366Y0035950D03*
X0045366Y0028450D03*
X0045366Y0043450D03*
X0045366Y0050950D03*
X0053634Y0050950D03*
X0053634Y0043450D03*
X0053634Y0058450D03*
X0053634Y0065950D03*
X0045366Y0065950D03*
X0045366Y0058450D03*
X0045366Y0111875D03*
X0045366Y0119375D03*
X0053634Y0119375D03*
X0053634Y0111875D03*
X0053634Y0126875D03*
X0053634Y0134375D03*
X0045366Y0134375D03*
X0045366Y0126875D03*
X0045366Y0141875D03*
X0045366Y0149375D03*
X0053634Y0149375D03*
X0053634Y0141875D03*
X0053634Y0156875D03*
X0053634Y0164375D03*
X0045366Y0164375D03*
X0045366Y0156875D03*
X0045366Y0210300D03*
X0053634Y0210300D03*
X0053634Y0217800D03*
X0053634Y0225300D03*
X0045366Y0225300D03*
X0045366Y0217800D03*
X0045366Y0232800D03*
X0045366Y0240300D03*
X0053634Y0240300D03*
X0053634Y0232800D03*
X0053634Y0247800D03*
X0053634Y0255300D03*
X0045366Y0255300D03*
X0045366Y0247800D03*
X0045366Y0262800D03*
X0053634Y0262800D03*
X0143791Y0262800D03*
X0152059Y0262800D03*
X0152059Y0255300D03*
X0152059Y0247800D03*
X0143791Y0247800D03*
X0143791Y0255300D03*
X0143791Y0240300D03*
X0143791Y0232800D03*
X0152059Y0232800D03*
X0152059Y0240300D03*
X0152059Y0225300D03*
X0152059Y0217800D03*
X0143791Y0217800D03*
X0143791Y0225300D03*
X0143791Y0210300D03*
X0152059Y0210300D03*
X0152059Y0164375D03*
X0152059Y0156875D03*
X0143791Y0156875D03*
X0143791Y0164375D03*
X0143791Y0149375D03*
X0143791Y0141875D03*
X0152059Y0141875D03*
X0152059Y0149375D03*
X0152059Y0134375D03*
X0152059Y0126875D03*
X0143791Y0126875D03*
X0143791Y0134375D03*
X0143791Y0119375D03*
X0143791Y0111875D03*
X0152059Y0111875D03*
X0152059Y0119375D03*
X0152059Y0065950D03*
X0152059Y0058450D03*
X0143791Y0058450D03*
X0143791Y0065950D03*
X0143791Y0050950D03*
X0143791Y0043450D03*
X0152059Y0043450D03*
X0152059Y0050950D03*
X0152059Y0035950D03*
X0152059Y0028450D03*
X0143791Y0028450D03*
X0143791Y0035950D03*
X0143791Y0020950D03*
X0143791Y0013450D03*
X0152059Y0013450D03*
X0152059Y0020950D03*
X0242217Y0020950D03*
X0242217Y0013450D03*
X0250484Y0013450D03*
X0250484Y0020950D03*
X0250484Y0028450D03*
X0250484Y0035950D03*
X0242217Y0035950D03*
X0242217Y0028450D03*
X0242217Y0043450D03*
X0242217Y0050950D03*
X0250484Y0050950D03*
X0250484Y0043450D03*
X0250484Y0058450D03*
X0250484Y0065950D03*
X0242217Y0065950D03*
X0242217Y0058450D03*
X0242217Y0111875D03*
X0242217Y0119375D03*
X0250484Y0119375D03*
X0250484Y0111875D03*
X0250484Y0126875D03*
X0250484Y0134375D03*
X0242217Y0134375D03*
X0242217Y0126875D03*
X0242217Y0141875D03*
X0242217Y0149375D03*
X0250484Y0149375D03*
X0250484Y0141875D03*
X0250484Y0156875D03*
X0250484Y0164375D03*
X0242217Y0164375D03*
X0242217Y0156875D03*
X0242217Y0210300D03*
X0250484Y0210300D03*
X0250484Y0217800D03*
X0250484Y0225300D03*
X0242217Y0225300D03*
X0242217Y0217800D03*
X0242217Y0232800D03*
X0242217Y0240300D03*
X0250484Y0240300D03*
X0250484Y0232800D03*
X0250484Y0247800D03*
X0250484Y0255300D03*
X0242217Y0255300D03*
X0242217Y0247800D03*
X0242217Y0262800D03*
X0250484Y0262800D03*
X0340642Y0262800D03*
X0348909Y0262800D03*
X0348909Y0255300D03*
X0348909Y0247800D03*
X0340642Y0247800D03*
X0340642Y0255300D03*
X0340642Y0240300D03*
X0340642Y0232800D03*
X0348909Y0232800D03*
X0348909Y0240300D03*
X0348909Y0225300D03*
X0348909Y0217800D03*
X0340642Y0217800D03*
X0340642Y0225300D03*
X0340642Y0210300D03*
X0348909Y0210300D03*
X0348909Y0164375D03*
X0348909Y0156875D03*
X0340642Y0156875D03*
X0340642Y0164375D03*
X0340642Y0149375D03*
X0340642Y0141875D03*
X0348909Y0141875D03*
X0348909Y0149375D03*
X0348909Y0134375D03*
X0348909Y0126875D03*
X0340642Y0126875D03*
X0340642Y0134375D03*
X0340642Y0119375D03*
X0340642Y0111875D03*
X0348909Y0111875D03*
X0348909Y0119375D03*
X0348909Y0065950D03*
X0348909Y0058450D03*
X0340642Y0058450D03*
X0340642Y0065950D03*
X0340642Y0050950D03*
X0340642Y0043450D03*
X0348909Y0043450D03*
X0348909Y0050950D03*
X0348909Y0035950D03*
X0348909Y0028450D03*
X0340642Y0028450D03*
X0340642Y0035950D03*
X0340642Y0020950D03*
X0340642Y0013450D03*
X0348909Y0013450D03*
X0348909Y0020950D03*
D11*
X0383526Y0022712D03*
X0383526Y0031688D03*
X0383526Y0042712D03*
X0383526Y0051688D03*
X0383526Y0062712D03*
X0383526Y0110113D03*
X0383526Y0121137D03*
X0383526Y0130113D03*
X0383526Y0141137D03*
X0383526Y0150113D03*
X0383526Y0161137D03*
X0383526Y0208539D03*
X0383526Y0219562D03*
X0383526Y0228539D03*
X0383526Y0239562D03*
X0383526Y0248539D03*
X0383526Y0259562D03*
X0285100Y0259562D03*
X0285100Y0248539D03*
X0285100Y0239562D03*
X0285100Y0228539D03*
X0285100Y0219562D03*
X0285100Y0208539D03*
X0285100Y0161137D03*
X0285100Y0150113D03*
X0285100Y0141137D03*
X0285100Y0130113D03*
X0285100Y0121137D03*
X0285100Y0110113D03*
X0285100Y0062712D03*
X0285100Y0051688D03*
X0285100Y0042712D03*
X0285100Y0031688D03*
X0285100Y0022712D03*
X0285100Y0011688D03*
X0383526Y0011688D03*
X0186675Y0011688D03*
X0186675Y0022712D03*
X0186675Y0031688D03*
X0186675Y0042712D03*
X0186675Y0051688D03*
X0186675Y0062712D03*
X0186675Y0110113D03*
X0186675Y0121137D03*
X0186675Y0130113D03*
X0186675Y0141137D03*
X0186675Y0150113D03*
X0186675Y0161137D03*
X0186675Y0208539D03*
X0186675Y0219562D03*
X0186675Y0228539D03*
X0186675Y0239562D03*
X0186675Y0248539D03*
X0186675Y0259562D03*
X0088250Y0259562D03*
X0088250Y0248539D03*
X0088250Y0239562D03*
X0088250Y0228539D03*
X0088250Y0219562D03*
X0088250Y0208539D03*
X0088250Y0161137D03*
X0088250Y0150113D03*
X0088250Y0141137D03*
X0088250Y0130113D03*
X0088250Y0121137D03*
X0088250Y0110113D03*
X0088250Y0062712D03*
X0088250Y0051688D03*
X0088250Y0042712D03*
X0088250Y0031688D03*
X0088250Y0022712D03*
X0088250Y0011688D03*
D12*
X0069490Y0013450D03*
X0062010Y0013450D03*
X0062010Y0020950D03*
X0069490Y0020950D03*
X0069490Y0028450D03*
X0062010Y0028450D03*
X0062010Y0035950D03*
X0069490Y0035950D03*
X0069490Y0043450D03*
X0062010Y0043450D03*
X0062010Y0050950D03*
X0069490Y0050950D03*
X0069490Y0058450D03*
X0062010Y0058450D03*
X0062010Y0065950D03*
X0069490Y0065950D03*
X0073260Y0077200D03*
X0080740Y0077200D03*
X0063240Y0077200D03*
X0055760Y0077200D03*
X0062010Y0111875D03*
X0069490Y0111875D03*
X0069490Y0119375D03*
X0062010Y0119375D03*
X0062010Y0126875D03*
X0069490Y0126875D03*
X0069490Y0134375D03*
X0062010Y0134375D03*
X0062010Y0141875D03*
X0069490Y0141875D03*
X0069490Y0149375D03*
X0062010Y0149375D03*
X0062010Y0156875D03*
X0069490Y0156875D03*
X0069490Y0164375D03*
X0062010Y0164375D03*
X0063240Y0175625D03*
X0055760Y0175625D03*
X0073260Y0175625D03*
X0080740Y0175625D03*
X0069490Y0210300D03*
X0062010Y0210300D03*
X0062010Y0217800D03*
X0069490Y0217800D03*
X0069490Y0225300D03*
X0062010Y0225300D03*
X0062010Y0232800D03*
X0069490Y0232800D03*
X0069490Y0240300D03*
X0062010Y0240300D03*
X0062010Y0247800D03*
X0069490Y0247800D03*
X0069490Y0255300D03*
X0062010Y0255300D03*
X0062010Y0262800D03*
X0069490Y0262800D03*
X0073260Y0274050D03*
X0080740Y0274050D03*
X0063240Y0274050D03*
X0055760Y0274050D03*
X0154185Y0274050D03*
X0161665Y0274050D03*
X0171685Y0274050D03*
X0179165Y0274050D03*
X0167915Y0262800D03*
X0160435Y0262800D03*
X0160435Y0255300D03*
X0167915Y0255300D03*
X0167915Y0247800D03*
X0160435Y0247800D03*
X0160435Y0240300D03*
X0167915Y0240300D03*
X0167915Y0232800D03*
X0160435Y0232800D03*
X0160435Y0225300D03*
X0167915Y0225300D03*
X0167915Y0217800D03*
X0160435Y0217800D03*
X0160435Y0210300D03*
X0167915Y0210300D03*
X0171685Y0175625D03*
X0179165Y0175625D03*
X0167915Y0164375D03*
X0160435Y0164375D03*
X0160435Y0156875D03*
X0167915Y0156875D03*
X0167915Y0149375D03*
X0160435Y0149375D03*
X0160435Y0141875D03*
X0167915Y0141875D03*
X0167915Y0134375D03*
X0160435Y0134375D03*
X0160435Y0126875D03*
X0167915Y0126875D03*
X0167915Y0119375D03*
X0160435Y0119375D03*
X0160435Y0111875D03*
X0167915Y0111875D03*
X0171685Y0077200D03*
X0179165Y0077200D03*
X0167915Y0065950D03*
X0160435Y0065950D03*
X0160435Y0058450D03*
X0167915Y0058450D03*
X0167915Y0050950D03*
X0160435Y0050950D03*
X0160435Y0043450D03*
X0167915Y0043450D03*
X0167915Y0035950D03*
X0160435Y0035950D03*
X0160435Y0028450D03*
X0167915Y0028450D03*
X0167915Y0020950D03*
X0160435Y0020950D03*
X0160435Y0013450D03*
X0167915Y0013450D03*
X0161665Y0077200D03*
X0154185Y0077200D03*
X0252610Y0077200D03*
X0260091Y0077200D03*
X0270110Y0077200D03*
X0277591Y0077200D03*
X0266341Y0065950D03*
X0258860Y0065950D03*
X0258860Y0058450D03*
X0266341Y0058450D03*
X0266341Y0050950D03*
X0258860Y0050950D03*
X0258860Y0043450D03*
X0266341Y0043450D03*
X0266341Y0035950D03*
X0258860Y0035950D03*
X0258860Y0028450D03*
X0266341Y0028450D03*
X0266341Y0020950D03*
X0258860Y0020950D03*
X0258860Y0013450D03*
X0266341Y0013450D03*
X0351035Y0077200D03*
X0358516Y0077200D03*
X0368535Y0077200D03*
X0376016Y0077200D03*
X0364766Y0065950D03*
X0357285Y0065950D03*
X0357285Y0058450D03*
X0364766Y0058450D03*
X0364766Y0050950D03*
X0357285Y0050950D03*
X0357285Y0043450D03*
X0364766Y0043450D03*
X0364766Y0035950D03*
X0357285Y0035950D03*
X0357285Y0028450D03*
X0364766Y0028450D03*
X0364766Y0020950D03*
X0357285Y0020950D03*
X0357285Y0013450D03*
X0364766Y0013450D03*
X0364766Y0111875D03*
X0357285Y0111875D03*
X0357285Y0119375D03*
X0364766Y0119375D03*
X0364766Y0126875D03*
X0357285Y0126875D03*
X0357285Y0134375D03*
X0364766Y0134375D03*
X0364766Y0141875D03*
X0357285Y0141875D03*
X0357285Y0149375D03*
X0364766Y0149375D03*
X0364766Y0156875D03*
X0357285Y0156875D03*
X0357285Y0164375D03*
X0364766Y0164375D03*
X0368535Y0175625D03*
X0376016Y0175625D03*
X0358516Y0175625D03*
X0351035Y0175625D03*
X0357285Y0210300D03*
X0364766Y0210300D03*
X0364766Y0217800D03*
X0357285Y0217800D03*
X0357285Y0225300D03*
X0364766Y0225300D03*
X0364766Y0232800D03*
X0357285Y0232800D03*
X0357285Y0240300D03*
X0364766Y0240300D03*
X0364766Y0247800D03*
X0357285Y0247800D03*
X0357285Y0255300D03*
X0364766Y0255300D03*
X0364766Y0262800D03*
X0357285Y0262800D03*
X0358516Y0274050D03*
X0351035Y0274050D03*
X0368535Y0274050D03*
X0376016Y0274050D03*
X0277591Y0274050D03*
X0270110Y0274050D03*
X0260091Y0274050D03*
X0252610Y0274050D03*
X0258860Y0262800D03*
X0266341Y0262800D03*
X0266341Y0255300D03*
X0258860Y0255300D03*
X0258860Y0247800D03*
X0266341Y0247800D03*
X0266341Y0240300D03*
X0258860Y0240300D03*
X0258860Y0232800D03*
X0266341Y0232800D03*
X0266341Y0225300D03*
X0258860Y0225300D03*
X0258860Y0217800D03*
X0266341Y0217800D03*
X0266341Y0210300D03*
X0258860Y0210300D03*
X0260091Y0175625D03*
X0252610Y0175625D03*
X0258860Y0164375D03*
X0266341Y0164375D03*
X0266341Y0156875D03*
X0258860Y0156875D03*
X0258860Y0149375D03*
X0266341Y0149375D03*
X0266341Y0141875D03*
X0258860Y0141875D03*
X0258860Y0134375D03*
X0266341Y0134375D03*
X0266341Y0126875D03*
X0258860Y0126875D03*
X0258860Y0119375D03*
X0266341Y0119375D03*
X0266341Y0111875D03*
X0258860Y0111875D03*
X0270110Y0175625D03*
X0277591Y0175625D03*
X0161665Y0175625D03*
X0154185Y0175625D03*
M02*
