G75*
%MOIN*%
%OFA0B0*%
%FSLAX25Y25*%
%IPPOS*%
%LPD*%
%AMOC8*
5,1,8,0,0,1.08239X$1,22.5*
%
%ADD10R,0.06306X0.05518*%
%ADD11R,0.06699X0.05518*%
%ADD12C,0.06400*%
%ADD13R,0.01800X0.06200*%
D10*
X0075750Y0035960D03*
X0075750Y0043440D03*
X0174175Y0043440D03*
X0174175Y0035960D03*
X0272600Y0035960D03*
X0272600Y0043440D03*
X0371026Y0043440D03*
X0371026Y0035960D03*
X0371026Y0134385D03*
X0371026Y0141865D03*
X0272600Y0141865D03*
X0272600Y0134385D03*
X0174175Y0134385D03*
X0174175Y0141865D03*
X0075750Y0141865D03*
X0075750Y0134385D03*
X0075750Y0232810D03*
X0075750Y0240291D03*
X0174175Y0240291D03*
X0174175Y0232810D03*
X0272600Y0232810D03*
X0272600Y0240291D03*
X0371026Y0240291D03*
X0371026Y0232810D03*
D11*
X0383526Y0236541D03*
X0383526Y0229060D03*
X0383526Y0216541D03*
X0383526Y0209060D03*
X0383526Y0249060D03*
X0383526Y0256541D03*
X0285100Y0256541D03*
X0285100Y0249060D03*
X0285100Y0236541D03*
X0285100Y0229060D03*
X0285100Y0216541D03*
X0285100Y0209060D03*
X0285100Y0158115D03*
X0285100Y0150635D03*
X0285100Y0138115D03*
X0285100Y0130635D03*
X0285100Y0118115D03*
X0285100Y0110635D03*
X0285100Y0059690D03*
X0285100Y0052210D03*
X0285100Y0039690D03*
X0285100Y0032210D03*
X0285100Y0019690D03*
X0285100Y0012210D03*
X0383526Y0012210D03*
X0383526Y0019690D03*
X0383526Y0032210D03*
X0383526Y0039690D03*
X0383526Y0052210D03*
X0383526Y0059690D03*
X0383526Y0110635D03*
X0383526Y0118115D03*
X0383526Y0130635D03*
X0383526Y0138115D03*
X0383526Y0150635D03*
X0383526Y0158115D03*
X0186675Y0158115D03*
X0186675Y0150635D03*
X0186675Y0138115D03*
X0186675Y0130635D03*
X0186675Y0118115D03*
X0186675Y0110635D03*
X0186675Y0059690D03*
X0186675Y0052210D03*
X0186675Y0039690D03*
X0186675Y0032210D03*
X0186675Y0019690D03*
X0186675Y0012210D03*
X0088250Y0012210D03*
X0088250Y0019690D03*
X0088250Y0032210D03*
X0088250Y0039690D03*
X0088250Y0052210D03*
X0088250Y0059690D03*
X0088250Y0110635D03*
X0088250Y0118115D03*
X0088250Y0130635D03*
X0088250Y0138115D03*
X0088250Y0150635D03*
X0088250Y0158115D03*
X0088250Y0209060D03*
X0088250Y0216541D03*
X0088250Y0229060D03*
X0088250Y0236541D03*
X0088250Y0249060D03*
X0088250Y0256541D03*
X0186675Y0256541D03*
X0186675Y0249060D03*
X0186675Y0236541D03*
X0186675Y0229060D03*
X0186675Y0216541D03*
X0186675Y0209060D03*
D12*
X0017500Y0009700D02*
X0011500Y0009700D01*
X0011500Y0019700D02*
X0017500Y0019700D01*
X0025250Y0019700D02*
X0031250Y0019700D01*
X0031250Y0009700D02*
X0025250Y0009700D01*
X0025250Y0029700D02*
X0031250Y0029700D01*
X0017500Y0029700D02*
X0011500Y0029700D01*
X0011500Y0039700D02*
X0017500Y0039700D01*
X0025250Y0039700D02*
X0031250Y0039700D01*
X0031250Y0049700D02*
X0025250Y0049700D01*
X0017500Y0049700D02*
X0011500Y0049700D01*
X0011500Y0059700D02*
X0017500Y0059700D01*
X0025250Y0059700D02*
X0031250Y0059700D01*
X0031250Y0069700D02*
X0025250Y0069700D01*
X0017500Y0069700D02*
X0011500Y0069700D01*
X0011500Y0079700D02*
X0017500Y0079700D01*
X0025250Y0079700D02*
X0031250Y0079700D01*
X0053250Y0086700D02*
X0053250Y0092700D01*
X0063250Y0092700D02*
X0063250Y0086700D01*
X0073250Y0086700D02*
X0073250Y0092700D01*
X0083250Y0092700D02*
X0083250Y0086700D01*
X0093250Y0086700D02*
X0093250Y0092700D01*
X0109925Y0079700D02*
X0115925Y0079700D01*
X0123675Y0079700D02*
X0129675Y0079700D01*
X0129675Y0069700D02*
X0123675Y0069700D01*
X0115925Y0069700D02*
X0109925Y0069700D01*
X0109925Y0059700D02*
X0115925Y0059700D01*
X0123675Y0059700D02*
X0129675Y0059700D01*
X0129675Y0049700D02*
X0123675Y0049700D01*
X0115925Y0049700D02*
X0109925Y0049700D01*
X0109925Y0039700D02*
X0115925Y0039700D01*
X0123675Y0039700D02*
X0129675Y0039700D01*
X0129675Y0029700D02*
X0123675Y0029700D01*
X0115925Y0029700D02*
X0109925Y0029700D01*
X0109925Y0019700D02*
X0115925Y0019700D01*
X0123675Y0019700D02*
X0129675Y0019700D01*
X0129675Y0009700D02*
X0123675Y0009700D01*
X0115925Y0009700D02*
X0109925Y0009700D01*
X0151675Y0086700D02*
X0151675Y0092700D01*
X0161675Y0092700D02*
X0161675Y0086700D01*
X0171675Y0086700D02*
X0171675Y0092700D01*
X0181675Y0092700D02*
X0181675Y0086700D01*
X0191675Y0086700D02*
X0191675Y0092700D01*
X0208350Y0079700D02*
X0214350Y0079700D01*
X0222100Y0079700D02*
X0228100Y0079700D01*
X0228100Y0069700D02*
X0222100Y0069700D01*
X0214350Y0069700D02*
X0208350Y0069700D01*
X0208350Y0059700D02*
X0214350Y0059700D01*
X0222100Y0059700D02*
X0228100Y0059700D01*
X0228100Y0049700D02*
X0222100Y0049700D01*
X0214350Y0049700D02*
X0208350Y0049700D01*
X0208350Y0039700D02*
X0214350Y0039700D01*
X0222100Y0039700D02*
X0228100Y0039700D01*
X0228100Y0029700D02*
X0222100Y0029700D01*
X0214350Y0029700D02*
X0208350Y0029700D01*
X0208350Y0019700D02*
X0214350Y0019700D01*
X0222100Y0019700D02*
X0228100Y0019700D01*
X0228100Y0009700D02*
X0222100Y0009700D01*
X0214350Y0009700D02*
X0208350Y0009700D01*
X0306776Y0009700D02*
X0312776Y0009700D01*
X0320526Y0009700D02*
X0326526Y0009700D01*
X0326526Y0019700D02*
X0320526Y0019700D01*
X0312776Y0019700D02*
X0306776Y0019700D01*
X0306776Y0029700D02*
X0312776Y0029700D01*
X0320526Y0029700D02*
X0326526Y0029700D01*
X0326526Y0039700D02*
X0320526Y0039700D01*
X0312776Y0039700D02*
X0306776Y0039700D01*
X0306776Y0049700D02*
X0312776Y0049700D01*
X0320526Y0049700D02*
X0326526Y0049700D01*
X0326526Y0059700D02*
X0320526Y0059700D01*
X0312776Y0059700D02*
X0306776Y0059700D01*
X0306776Y0069700D02*
X0312776Y0069700D01*
X0320526Y0069700D02*
X0326526Y0069700D01*
X0326526Y0079700D02*
X0320526Y0079700D01*
X0312776Y0079700D02*
X0306776Y0079700D01*
X0290100Y0086700D02*
X0290100Y0092700D01*
X0280100Y0092700D02*
X0280100Y0086700D01*
X0270100Y0086700D02*
X0270100Y0092700D01*
X0260100Y0092700D02*
X0260100Y0086700D01*
X0250100Y0086700D02*
X0250100Y0092700D01*
X0228100Y0108125D02*
X0222100Y0108125D01*
X0214350Y0108125D02*
X0208350Y0108125D01*
X0208350Y0118125D02*
X0214350Y0118125D01*
X0222100Y0118125D02*
X0228100Y0118125D01*
X0228100Y0128125D02*
X0222100Y0128125D01*
X0214350Y0128125D02*
X0208350Y0128125D01*
X0208350Y0138125D02*
X0214350Y0138125D01*
X0222100Y0138125D02*
X0228100Y0138125D01*
X0228100Y0148125D02*
X0222100Y0148125D01*
X0214350Y0148125D02*
X0208350Y0148125D01*
X0208350Y0158125D02*
X0214350Y0158125D01*
X0222100Y0158125D02*
X0228100Y0158125D01*
X0228100Y0168125D02*
X0222100Y0168125D01*
X0214350Y0168125D02*
X0208350Y0168125D01*
X0208350Y0178125D02*
X0214350Y0178125D01*
X0222100Y0178125D02*
X0228100Y0178125D01*
X0250100Y0185125D02*
X0250100Y0191125D01*
X0260100Y0191125D02*
X0260100Y0185125D01*
X0270100Y0185125D02*
X0270100Y0191125D01*
X0280100Y0191125D02*
X0280100Y0185125D01*
X0290100Y0185125D02*
X0290100Y0191125D01*
X0306776Y0178125D02*
X0312776Y0178125D01*
X0320526Y0178125D02*
X0326526Y0178125D01*
X0326526Y0168125D02*
X0320526Y0168125D01*
X0312776Y0168125D02*
X0306776Y0168125D01*
X0306776Y0158125D02*
X0312776Y0158125D01*
X0320526Y0158125D02*
X0326526Y0158125D01*
X0326526Y0148125D02*
X0320526Y0148125D01*
X0312776Y0148125D02*
X0306776Y0148125D01*
X0306776Y0138125D02*
X0312776Y0138125D01*
X0320526Y0138125D02*
X0326526Y0138125D01*
X0326526Y0128125D02*
X0320526Y0128125D01*
X0312776Y0128125D02*
X0306776Y0128125D01*
X0306776Y0118125D02*
X0312776Y0118125D01*
X0320526Y0118125D02*
X0326526Y0118125D01*
X0326526Y0108125D02*
X0320526Y0108125D01*
X0312776Y0108125D02*
X0306776Y0108125D01*
X0348526Y0092700D02*
X0348526Y0086700D01*
X0358526Y0086700D02*
X0358526Y0092700D01*
X0368526Y0092700D02*
X0368526Y0086700D01*
X0378526Y0086700D02*
X0378526Y0092700D01*
X0388526Y0092700D02*
X0388526Y0086700D01*
X0388526Y0185125D02*
X0388526Y0191125D01*
X0378526Y0191125D02*
X0378526Y0185125D01*
X0368526Y0185125D02*
X0368526Y0191125D01*
X0358526Y0191125D02*
X0358526Y0185125D01*
X0348526Y0185125D02*
X0348526Y0191125D01*
X0326526Y0206550D02*
X0320526Y0206550D01*
X0312776Y0206550D02*
X0306776Y0206550D01*
X0306776Y0216550D02*
X0312776Y0216550D01*
X0320526Y0216550D02*
X0326526Y0216550D01*
X0326526Y0226550D02*
X0320526Y0226550D01*
X0312776Y0226550D02*
X0306776Y0226550D01*
X0306776Y0236550D02*
X0312776Y0236550D01*
X0320526Y0236550D02*
X0326526Y0236550D01*
X0326526Y0246550D02*
X0320526Y0246550D01*
X0312776Y0246550D02*
X0306776Y0246550D01*
X0306776Y0256550D02*
X0312776Y0256550D01*
X0320526Y0256550D02*
X0326526Y0256550D01*
X0326526Y0266550D02*
X0320526Y0266550D01*
X0312776Y0266550D02*
X0306776Y0266550D01*
X0306776Y0276550D02*
X0312776Y0276550D01*
X0320526Y0276550D02*
X0326526Y0276550D01*
X0348526Y0283550D02*
X0348526Y0289550D01*
X0358526Y0289550D02*
X0358526Y0283550D01*
X0368526Y0283550D02*
X0368526Y0289550D01*
X0378526Y0289550D02*
X0378526Y0283550D01*
X0388526Y0283550D02*
X0388526Y0289550D01*
X0290100Y0289550D02*
X0290100Y0283550D01*
X0280100Y0283550D02*
X0280100Y0289550D01*
X0270100Y0289550D02*
X0270100Y0283550D01*
X0260100Y0283550D02*
X0260100Y0289550D01*
X0250100Y0289550D02*
X0250100Y0283550D01*
X0228100Y0276550D02*
X0222100Y0276550D01*
X0214350Y0276550D02*
X0208350Y0276550D01*
X0208350Y0266550D02*
X0214350Y0266550D01*
X0222100Y0266550D02*
X0228100Y0266550D01*
X0228100Y0256550D02*
X0222100Y0256550D01*
X0214350Y0256550D02*
X0208350Y0256550D01*
X0208350Y0246550D02*
X0214350Y0246550D01*
X0222100Y0246550D02*
X0228100Y0246550D01*
X0228100Y0236550D02*
X0222100Y0236550D01*
X0214350Y0236550D02*
X0208350Y0236550D01*
X0208350Y0226550D02*
X0214350Y0226550D01*
X0222100Y0226550D02*
X0228100Y0226550D01*
X0228100Y0216550D02*
X0222100Y0216550D01*
X0214350Y0216550D02*
X0208350Y0216550D01*
X0208350Y0206550D02*
X0214350Y0206550D01*
X0222100Y0206550D02*
X0228100Y0206550D01*
X0191675Y0191125D02*
X0191675Y0185125D01*
X0181675Y0185125D02*
X0181675Y0191125D01*
X0171675Y0191125D02*
X0171675Y0185125D01*
X0161675Y0185125D02*
X0161675Y0191125D01*
X0151675Y0191125D02*
X0151675Y0185125D01*
X0129675Y0178125D02*
X0123675Y0178125D01*
X0115925Y0178125D02*
X0109925Y0178125D01*
X0109925Y0168125D02*
X0115925Y0168125D01*
X0123675Y0168125D02*
X0129675Y0168125D01*
X0129675Y0158125D02*
X0123675Y0158125D01*
X0115925Y0158125D02*
X0109925Y0158125D01*
X0109925Y0148125D02*
X0115925Y0148125D01*
X0123675Y0148125D02*
X0129675Y0148125D01*
X0129675Y0138125D02*
X0123675Y0138125D01*
X0115925Y0138125D02*
X0109925Y0138125D01*
X0109925Y0128125D02*
X0115925Y0128125D01*
X0123675Y0128125D02*
X0129675Y0128125D01*
X0129675Y0118125D02*
X0123675Y0118125D01*
X0115925Y0118125D02*
X0109925Y0118125D01*
X0109925Y0108125D02*
X0115925Y0108125D01*
X0123675Y0108125D02*
X0129675Y0108125D01*
X0031250Y0108125D02*
X0025250Y0108125D01*
X0017500Y0108125D02*
X0011500Y0108125D01*
X0011500Y0118125D02*
X0017500Y0118125D01*
X0025250Y0118125D02*
X0031250Y0118125D01*
X0031250Y0128125D02*
X0025250Y0128125D01*
X0017500Y0128125D02*
X0011500Y0128125D01*
X0011500Y0138125D02*
X0017500Y0138125D01*
X0025250Y0138125D02*
X0031250Y0138125D01*
X0031250Y0148125D02*
X0025250Y0148125D01*
X0017500Y0148125D02*
X0011500Y0148125D01*
X0011500Y0158125D02*
X0017500Y0158125D01*
X0025250Y0158125D02*
X0031250Y0158125D01*
X0031250Y0168125D02*
X0025250Y0168125D01*
X0017500Y0168125D02*
X0011500Y0168125D01*
X0011500Y0178125D02*
X0017500Y0178125D01*
X0025250Y0178125D02*
X0031250Y0178125D01*
X0053250Y0185125D02*
X0053250Y0191125D01*
X0063250Y0191125D02*
X0063250Y0185125D01*
X0073250Y0185125D02*
X0073250Y0191125D01*
X0083250Y0191125D02*
X0083250Y0185125D01*
X0093250Y0185125D02*
X0093250Y0191125D01*
X0109925Y0206550D02*
X0115925Y0206550D01*
X0123675Y0206550D02*
X0129675Y0206550D01*
X0129675Y0216550D02*
X0123675Y0216550D01*
X0115925Y0216550D02*
X0109925Y0216550D01*
X0109925Y0226550D02*
X0115925Y0226550D01*
X0123675Y0226550D02*
X0129675Y0226550D01*
X0129675Y0236550D02*
X0123675Y0236550D01*
X0115925Y0236550D02*
X0109925Y0236550D01*
X0109925Y0246550D02*
X0115925Y0246550D01*
X0123675Y0246550D02*
X0129675Y0246550D01*
X0129675Y0256550D02*
X0123675Y0256550D01*
X0115925Y0256550D02*
X0109925Y0256550D01*
X0109925Y0266550D02*
X0115925Y0266550D01*
X0123675Y0266550D02*
X0129675Y0266550D01*
X0129675Y0276550D02*
X0123675Y0276550D01*
X0115925Y0276550D02*
X0109925Y0276550D01*
X0093250Y0283550D02*
X0093250Y0289550D01*
X0083250Y0289550D02*
X0083250Y0283550D01*
X0073250Y0283550D02*
X0073250Y0289550D01*
X0063250Y0289550D02*
X0063250Y0283550D01*
X0053250Y0283550D02*
X0053250Y0289550D01*
X0031250Y0276550D02*
X0025250Y0276550D01*
X0017500Y0276550D02*
X0011500Y0276550D01*
X0011500Y0266550D02*
X0017500Y0266550D01*
X0025250Y0266550D02*
X0031250Y0266550D01*
X0031250Y0256550D02*
X0025250Y0256550D01*
X0017500Y0256550D02*
X0011500Y0256550D01*
X0011500Y0246550D02*
X0017500Y0246550D01*
X0025250Y0246550D02*
X0031250Y0246550D01*
X0031250Y0236550D02*
X0025250Y0236550D01*
X0017500Y0236550D02*
X0011500Y0236550D01*
X0011500Y0226550D02*
X0017500Y0226550D01*
X0025250Y0226550D02*
X0031250Y0226550D01*
X0031250Y0216550D02*
X0025250Y0216550D01*
X0017500Y0216550D02*
X0011500Y0216550D01*
X0011500Y0206550D02*
X0017500Y0206550D01*
X0025250Y0206550D02*
X0031250Y0206550D01*
X0151675Y0283550D02*
X0151675Y0289550D01*
X0161675Y0289550D02*
X0161675Y0283550D01*
X0171675Y0283550D02*
X0171675Y0289550D01*
X0181675Y0289550D02*
X0181675Y0283550D01*
X0191675Y0283550D02*
X0191675Y0289550D01*
D13*
X0168175Y0248050D03*
X0165575Y0248050D03*
X0162975Y0248050D03*
X0160475Y0248050D03*
X0157875Y0248050D03*
X0155375Y0248050D03*
X0152775Y0248050D03*
X0150175Y0248050D03*
X0150175Y0225050D03*
X0152775Y0225050D03*
X0155375Y0225050D03*
X0157875Y0225050D03*
X0160475Y0225050D03*
X0162975Y0225050D03*
X0165575Y0225050D03*
X0168175Y0225050D03*
X0248600Y0225050D03*
X0251200Y0225050D03*
X0253800Y0225050D03*
X0256300Y0225050D03*
X0258900Y0225050D03*
X0261400Y0225050D03*
X0264000Y0225050D03*
X0266600Y0225050D03*
X0266600Y0248050D03*
X0264000Y0248050D03*
X0261400Y0248050D03*
X0258900Y0248050D03*
X0256300Y0248050D03*
X0253800Y0248050D03*
X0251200Y0248050D03*
X0248600Y0248050D03*
X0347026Y0248050D03*
X0349626Y0248050D03*
X0352226Y0248050D03*
X0354726Y0248050D03*
X0357326Y0248050D03*
X0359826Y0248050D03*
X0362426Y0248050D03*
X0365026Y0248050D03*
X0365026Y0225050D03*
X0362426Y0225050D03*
X0359826Y0225050D03*
X0357326Y0225050D03*
X0354726Y0225050D03*
X0352226Y0225050D03*
X0349626Y0225050D03*
X0347026Y0225050D03*
X0347026Y0149625D03*
X0349626Y0149625D03*
X0352226Y0149625D03*
X0354726Y0149625D03*
X0357326Y0149625D03*
X0359826Y0149625D03*
X0362426Y0149625D03*
X0365026Y0149625D03*
X0365026Y0126625D03*
X0362426Y0126625D03*
X0359826Y0126625D03*
X0357326Y0126625D03*
X0354726Y0126625D03*
X0352226Y0126625D03*
X0349626Y0126625D03*
X0347026Y0126625D03*
X0266600Y0126625D03*
X0264000Y0126625D03*
X0261400Y0126625D03*
X0258900Y0126625D03*
X0256300Y0126625D03*
X0253800Y0126625D03*
X0251200Y0126625D03*
X0248600Y0126625D03*
X0248600Y0149625D03*
X0251200Y0149625D03*
X0253800Y0149625D03*
X0256300Y0149625D03*
X0258900Y0149625D03*
X0261400Y0149625D03*
X0264000Y0149625D03*
X0266600Y0149625D03*
X0168175Y0149625D03*
X0165575Y0149625D03*
X0162975Y0149625D03*
X0160475Y0149625D03*
X0157875Y0149625D03*
X0155375Y0149625D03*
X0152775Y0149625D03*
X0150175Y0149625D03*
X0150175Y0126625D03*
X0152775Y0126625D03*
X0155375Y0126625D03*
X0157875Y0126625D03*
X0160475Y0126625D03*
X0162975Y0126625D03*
X0165575Y0126625D03*
X0168175Y0126625D03*
X0168175Y0051200D03*
X0165575Y0051200D03*
X0162975Y0051200D03*
X0160475Y0051200D03*
X0157875Y0051200D03*
X0155375Y0051200D03*
X0152775Y0051200D03*
X0150175Y0051200D03*
X0150175Y0028200D03*
X0152775Y0028200D03*
X0155375Y0028200D03*
X0157875Y0028200D03*
X0160475Y0028200D03*
X0162975Y0028200D03*
X0165575Y0028200D03*
X0168175Y0028200D03*
X0248600Y0028200D03*
X0251200Y0028200D03*
X0253800Y0028200D03*
X0256300Y0028200D03*
X0258900Y0028200D03*
X0261400Y0028200D03*
X0264000Y0028200D03*
X0266600Y0028200D03*
X0266600Y0051200D03*
X0264000Y0051200D03*
X0261400Y0051200D03*
X0258900Y0051200D03*
X0256300Y0051200D03*
X0253800Y0051200D03*
X0251200Y0051200D03*
X0248600Y0051200D03*
X0347026Y0051200D03*
X0349626Y0051200D03*
X0352226Y0051200D03*
X0354726Y0051200D03*
X0357326Y0051200D03*
X0359826Y0051200D03*
X0362426Y0051200D03*
X0365026Y0051200D03*
X0365026Y0028200D03*
X0362426Y0028200D03*
X0359826Y0028200D03*
X0357326Y0028200D03*
X0354726Y0028200D03*
X0352226Y0028200D03*
X0349626Y0028200D03*
X0347026Y0028200D03*
X0069750Y0028200D03*
X0067150Y0028200D03*
X0064550Y0028200D03*
X0062050Y0028200D03*
X0059450Y0028200D03*
X0056950Y0028200D03*
X0054350Y0028200D03*
X0051750Y0028200D03*
X0051750Y0051200D03*
X0054350Y0051200D03*
X0056950Y0051200D03*
X0059450Y0051200D03*
X0062050Y0051200D03*
X0064550Y0051200D03*
X0067150Y0051200D03*
X0069750Y0051200D03*
X0069750Y0126625D03*
X0067150Y0126625D03*
X0064550Y0126625D03*
X0062050Y0126625D03*
X0059450Y0126625D03*
X0056950Y0126625D03*
X0054350Y0126625D03*
X0051750Y0126625D03*
X0051750Y0149625D03*
X0054350Y0149625D03*
X0056950Y0149625D03*
X0059450Y0149625D03*
X0062050Y0149625D03*
X0064550Y0149625D03*
X0067150Y0149625D03*
X0069750Y0149625D03*
X0069750Y0225050D03*
X0067150Y0225050D03*
X0064550Y0225050D03*
X0062050Y0225050D03*
X0059450Y0225050D03*
X0056950Y0225050D03*
X0054350Y0225050D03*
X0051750Y0225050D03*
X0051750Y0248050D03*
X0054350Y0248050D03*
X0056950Y0248050D03*
X0059450Y0248050D03*
X0062050Y0248050D03*
X0064550Y0248050D03*
X0067150Y0248050D03*
X0069750Y0248050D03*
M02*
